<svg xmlns="http://www.w3.org/2000/svg" viewBox="0 0 1100 1100" preserveAspectRatio="xMidYMid slice" role="img" aria-label="Monster Burgers">
<defs>
<linearGradient id="g" x1="0" y1="0" x2="1" y2="1">
<stop offset="0" stop-color="#2A1F16"></stop><stop offset="1" stop-color="#0C0B0A"></stop>
</linearGradient>
<radialGradient id="v" cx="50%" cy="42%" r="75%">
<stop offset="0" stop-color="#D32027" stop-opacity="0.16"></stop>
<stop offset="0.55" stop-color="#D32027" stop-opacity="0"></stop>
</radialGradient>
</defs>
<rect width="1100" height="1100" fill="url(#g)"></rect>
<rect width="1100" height="1100" fill="url(#v)"></rect>
<circle cx="1052" cy="1043" r="0.5" fill="#F4EFE3" opacity="0.03"></circle><circle cx="919" cy="810" r="1.1" fill="#F4EFE3" opacity="0.04"></circle><circle cx="667" cy="667" r="1.0" fill="#F4EFE3" opacity="0.03"></circle><circle cx="474" cy="433" r="1.1" fill="#F4EFE3" opacity="0.08"></circle><circle cx="1044" cy="599" r="0.8" fill="#F4EFE3" opacity="0.04"></circle><circle cx="40" cy="30" r="0.9" fill="#F4EFE3" opacity="0.04"></circle><circle cx="418" cy="981" r="0.9" fill="#F4EFE3" opacity="0.05"></circle><circle cx="260" cy="26" r="0.7" fill="#F4EFE3" opacity="0.03"></circle><circle cx="561" cy="1099" r="1.1" fill="#F4EFE3" opacity="0.03"></circle><circle cx="983" cy="876" r="1.1" fill="#F4EFE3" opacity="0.07"></circle><circle cx="839" cy="869" r="0.8" fill="#F4EFE3" opacity="0.08"></circle><circle cx="1058" cy="177" r="1.2" fill="#F4EFE3" opacity="0.06"></circle><circle cx="508" cy="583" r="0.9" fill="#F4EFE3" opacity="0.08"></circle><circle cx="551" cy="915" r="0.8" fill="#F4EFE3" opacity="0.07"></circle><circle cx="990" cy="507" r="1.0" fill="#F4EFE3" opacity="0.08"></circle><circle cx="796" cy="535" r="0.6" fill="#F4EFE3" opacity="0.04"></circle><circle cx="770" cy="183" r="1.3" fill="#F4EFE3" opacity="0.04"></circle><circle cx="1003" cy="341" r="1.4" fill="#F4EFE3" opacity="0.06"></circle><circle cx="555" cy="570" r="1.1" fill="#F4EFE3" opacity="0.06"></circle><circle cx="343" cy="229" r="0.9" fill="#F4EFE3" opacity="0.08"></circle><circle cx="686" cy="83" r="1.2" fill="#F4EFE3" opacity="0.06"></circle><circle cx="998" cy="211" r="1.1" fill="#F4EFE3" opacity="0.02"></circle><circle cx="718" cy="300" r="0.6" fill="#F4EFE3" opacity="0.07"></circle><circle cx="117" cy="575" r="1.3" fill="#F4EFE3" opacity="0.03"></circle><circle cx="232" cy="969" r="0.8" fill="#F4EFE3" opacity="0.06"></circle><circle cx="35" cy="399" r="0.6" fill="#F4EFE3" opacity="0.06"></circle><circle cx="91" cy="1050" r="0.4" fill="#F4EFE3" opacity="0.06"></circle><circle cx="23" cy="281" r="1.2" fill="#F4EFE3" opacity="0.03"></circle><circle cx="202" cy="761" r="0.8" fill="#F4EFE3" opacity="0.02"></circle><circle cx="1089" cy="167" r="0.4" fill="#F4EFE3" opacity="0.04"></circle><circle cx="677" cy="817" r="0.5" fill="#F4EFE3" opacity="0.04"></circle><circle cx="34" cy="494" r="1.2" fill="#F4EFE3" opacity="0.06"></circle><circle cx="992" cy="831" r="1.3" fill="#F4EFE3" opacity="0.06"></circle><circle cx="520" cy="248" r="1.1" fill="#F4EFE3" opacity="0.04"></circle><circle cx="112" cy="493" r="1.3" fill="#F4EFE3" opacity="0.03"></circle><circle cx="643" cy="432" r="0.9" fill="#F4EFE3" opacity="0.03"></circle><circle cx="1056" cy="285" r="1.0" fill="#F4EFE3" opacity="0.05"></circle><circle cx="20" cy="614" r="0.5" fill="#F4EFE3" opacity="0.02"></circle><circle cx="37" cy="177" r="0.5" fill="#F4EFE3" opacity="0.06"></circle><circle cx="559" cy="1082" r="1.3" fill="#F4EFE3" opacity="0.08"></circle><circle cx="256" cy="489" r="0.7" fill="#F4EFE3" opacity="0.06"></circle><circle cx="687" cy="880" r="1.1" fill="#F4EFE3" opacity="0.04"></circle><circle cx="465" cy="579" r="0.4" fill="#F4EFE3" opacity="0.02"></circle><circle cx="450" cy="122" r="1.1" fill="#F4EFE3" opacity="0.03"></circle><circle cx="110" cy="200" r="0.6" fill="#F4EFE3" opacity="0.03"></circle><circle cx="573" cy="511" r="0.7" fill="#F4EFE3" opacity="0.06"></circle><circle cx="234" cy="997" r="1.4" fill="#F4EFE3" opacity="0.06"></circle><circle cx="477" cy="563" r="1.0" fill="#F4EFE3" opacity="0.02"></circle><circle cx="460" cy="578" r="0.6" fill="#F4EFE3" opacity="0.03"></circle><circle cx="883" cy="403" r="0.9" fill="#F4EFE3" opacity="0.08"></circle><circle cx="672" cy="319" r="1.4" fill="#F4EFE3" opacity="0.04"></circle><circle cx="21" cy="754" r="0.5" fill="#F4EFE3" opacity="0.04"></circle><circle cx="925" cy="740" r="0.4" fill="#F4EFE3" opacity="0.05"></circle><circle cx="452" cy="534" r="0.6" fill="#F4EFE3" opacity="0.06"></circle><circle cx="81" cy="313" r="0.8" fill="#F4EFE3" opacity="0.08"></circle><circle cx="84" cy="830" r="0.6" fill="#F4EFE3" opacity="0.05"></circle><circle cx="431" cy="510" r="1.2" fill="#F4EFE3" opacity="0.04"></circle><circle cx="134" cy="134" r="0.5" fill="#F4EFE3" opacity="0.07"></circle><circle cx="705" cy="1056" r="1.1" fill="#F4EFE3" opacity="0.02"></circle><circle cx="725" cy="855" r="1.1" fill="#F4EFE3" opacity="0.05"></circle><circle cx="393" cy="503" r="1.2" fill="#F4EFE3" opacity="0.04"></circle><circle cx="579" cy="525" r="1.4" fill="#F4EFE3" opacity="0.07"></circle><circle cx="1025" cy="920" r="0.7" fill="#F4EFE3" opacity="0.03"></circle><circle cx="538" cy="285" r="0.8" fill="#F4EFE3" opacity="0.06"></circle><circle cx="1010" cy="644" r="1.2" fill="#F4EFE3" opacity="0.03"></circle><circle cx="392" cy="1098" r="0.5" fill="#F4EFE3" opacity="0.05"></circle><circle cx="74" cy="95" r="1.3" fill="#F4EFE3" opacity="0.08"></circle><circle cx="713" cy="141" r="0.7" fill="#F4EFE3" opacity="0.03"></circle><circle cx="738" cy="749" r="0.8" fill="#F4EFE3" opacity="0.05"></circle><circle cx="123" cy="595" r="1.3" fill="#F4EFE3" opacity="0.07"></circle><circle cx="106" cy="568" r="1.1" fill="#F4EFE3" opacity="0.04"></circle><circle cx="984" cy="507" r="1.1" fill="#F4EFE3" opacity="0.04"></circle><circle cx="1095" cy="861" r="1.0" fill="#F4EFE3" opacity="0.03"></circle><circle cx="485" cy="32" r="1.0" fill="#F4EFE3" opacity="0.07"></circle><circle cx="198" cy="561" r="0.9" fill="#F4EFE3" opacity="0.04"></circle><circle cx="782" cy="1030" r="1.1" fill="#F4EFE3" opacity="0.05"></circle><circle cx="1058" cy="364" r="1.1" fill="#F4EFE3" opacity="0.06"></circle><circle cx="838" cy="937" r="0.6" fill="#F4EFE3" opacity="0.06"></circle><circle cx="443" cy="734" r="1.4" fill="#F4EFE3" opacity="0.06"></circle><circle cx="13" cy="511" r="1.1" fill="#F4EFE3" opacity="0.07"></circle><circle cx="715" cy="898" r="0.4" fill="#F4EFE3" opacity="0.08"></circle><circle cx="802" cy="667" r="1.3" fill="#F4EFE3" opacity="0.07"></circle><circle cx="111" cy="897" r="1.2" fill="#F4EFE3" opacity="0.03"></circle><circle cx="819" cy="645" r="0.6" fill="#F4EFE3" opacity="0.07"></circle><circle cx="152" cy="674" r="0.8" fill="#F4EFE3" opacity="0.04"></circle><circle cx="623" cy="514" r="0.6" fill="#F4EFE3" opacity="0.08"></circle><circle cx="80" cy="3" r="0.9" fill="#F4EFE3" opacity="0.07"></circle><circle cx="724" cy="830" r="0.9" fill="#F4EFE3" opacity="0.06"></circle><circle cx="368" cy="294" r="0.9" fill="#F4EFE3" opacity="0.02"></circle><circle cx="88" cy="829" r="0.6" fill="#F4EFE3" opacity="0.07"></circle>
<rect x="40" y="40" width="1020" height="1020" fill="none" stroke="#D32027" stroke-opacity="0.18" stroke-width="2"></rect>
<g opacity="0.2" fill="none" stroke="#F4EFE3" stroke-width="4.5" stroke-linejoin="round" stroke-linecap="round"><rect x="460" y="417" width="180" height="135" rx="16"></rect><circle cx="550" cy="486" r="40"></circle><rect x="500" y="394" width="99" height="31" rx="7"></rect></g>
<text x="550.0" y="620.0" font-family="Oswald, Arial, sans-serif" font-size="46" font-weight="600" letter-spacing="6" fill="#F4EFE3" fill-opacity="0.82" text-anchor="middle">MONSTER BURGERS</text>
<text x="550.0" y="668.0" font-family="Manrope, Arial, sans-serif" font-size="22" letter-spacing="3" fill="#D32027" fill-opacity="0.9" text-anchor="middle">THE JUG HANDLE</text>
</svg>