<svg xmlns="http://www.w3.org/2000/svg" viewBox="0 0 1100 1100" preserveAspectRatio="xMidYMid slice" role="img" aria-label="Cheese Steaks">
<defs>
<linearGradient id="g" x1="0" y1="0" x2="1" y2="1">
<stop offset="0" stop-color="#2A1F16"></stop><stop offset="1" stop-color="#0C0B0A"></stop>
</linearGradient>
<radialGradient id="v" cx="50%" cy="42%" r="75%">
<stop offset="0" stop-color="#E6A532" stop-opacity="0.16"></stop>
<stop offset="0.55" stop-color="#E6A532" stop-opacity="0"></stop>
</radialGradient>
</defs>
<rect width="1100" height="1100" fill="url(#g)"></rect>
<rect width="1100" height="1100" fill="url(#v)"></rect>
<circle cx="262" cy="599" r="0.8" fill="#F4EFE3" opacity="0.06"></circle><circle cx="688" cy="72" r="0.4" fill="#F4EFE3" opacity="0.07"></circle><circle cx="285" cy="258" r="1.4" fill="#F4EFE3" opacity="0.05"></circle><circle cx="920" cy="524" r="1.0" fill="#F4EFE3" opacity="0.03"></circle><circle cx="698" cy="955" r="0.9" fill="#F4EFE3" opacity="0.06"></circle><circle cx="739" cy="70" r="1.2" fill="#F4EFE3" opacity="0.06"></circle><circle cx="331" cy="34" r="1.3" fill="#F4EFE3" opacity="0.05"></circle><circle cx="791" cy="967" r="1.1" fill="#F4EFE3" opacity="0.08"></circle><circle cx="434" cy="881" r="0.8" fill="#F4EFE3" opacity="0.08"></circle><circle cx="967" cy="107" r="0.5" fill="#F4EFE3" opacity="0.03"></circle><circle cx="1062" cy="480" r="1.0" fill="#F4EFE3" opacity="0.04"></circle><circle cx="558" cy="424" r="0.8" fill="#F4EFE3" opacity="0.06"></circle><circle cx="643" cy="995" r="1.1" fill="#F4EFE3" opacity="0.08"></circle><circle cx="942" cy="1090" r="1.1" fill="#F4EFE3" opacity="0.03"></circle><circle cx="947" cy="1061" r="1.3" fill="#F4EFE3" opacity="0.05"></circle><circle cx="785" cy="232" r="1.2" fill="#F4EFE3" opacity="0.05"></circle><circle cx="313" cy="70" r="1.3" fill="#F4EFE3" opacity="0.08"></circle><circle cx="97" cy="881" r="0.8" fill="#F4EFE3" opacity="0.03"></circle><circle cx="323" cy="846" r="1.3" fill="#F4EFE3" opacity="0.02"></circle><circle cx="676" cy="49" r="1.1" fill="#F4EFE3" opacity="0.04"></circle><circle cx="969" cy="1079" r="0.9" fill="#F4EFE3" opacity="0.08"></circle><circle cx="341" cy="85" r="1.0" fill="#F4EFE3" opacity="0.02"></circle><circle cx="217" cy="449" r="1.0" fill="#F4EFE3" opacity="0.03"></circle><circle cx="47" cy="955" r="0.7" fill="#F4EFE3" opacity="0.08"></circle><circle cx="986" cy="416" r="0.9" fill="#F4EFE3" opacity="0.05"></circle><circle cx="708" cy="655" r="1.0" fill="#F4EFE3" opacity="0.06"></circle><circle cx="1035" cy="558" r="0.8" fill="#F4EFE3" opacity="0.06"></circle><circle cx="261" cy="331" r="1.4" fill="#F4EFE3" opacity="0.05"></circle><circle cx="603" cy="13" r="0.8" fill="#F4EFE3" opacity="0.05"></circle><circle cx="22" cy="677" r="1.0" fill="#F4EFE3" opacity="0.02"></circle><circle cx="690" cy="513" r="1.1" fill="#F4EFE3" opacity="0.04"></circle><circle cx="778" cy="812" r="0.4" fill="#F4EFE3" opacity="0.02"></circle><circle cx="744" cy="1060" r="0.7" fill="#F4EFE3" opacity="0.05"></circle><circle cx="652" cy="352" r="0.8" fill="#F4EFE3" opacity="0.04"></circle><circle cx="406" cy="655" r="0.7" fill="#F4EFE3" opacity="0.04"></circle><circle cx="850" cy="30" r="1.0" fill="#F4EFE3" opacity="0.06"></circle><circle cx="341" cy="245" r="1.2" fill="#F4EFE3" opacity="0.03"></circle><circle cx="206" cy="479" r="1.1" fill="#F4EFE3" opacity="0.03"></circle><circle cx="354" cy="367" r="1.2" fill="#F4EFE3" opacity="0.05"></circle><circle cx="941" cy="186" r="0.7" fill="#F4EFE3" opacity="0.06"></circle><circle cx="973" cy="496" r="0.6" fill="#F4EFE3" opacity="0.03"></circle><circle cx="583" cy="210" r="1.2" fill="#F4EFE3" opacity="0.07"></circle><circle cx="202" cy="306" r="1.2" fill="#F4EFE3" opacity="0.06"></circle><circle cx="887" cy="380" r="0.5" fill="#F4EFE3" opacity="0.04"></circle><circle cx="873" cy="298" r="0.7" fill="#F4EFE3" opacity="0.05"></circle><circle cx="462" cy="450" r="1.3" fill="#F4EFE3" opacity="0.03"></circle><circle cx="5" cy="1038" r="1.3" fill="#F4EFE3" opacity="0.08"></circle><circle cx="478" cy="1045" r="1.3" fill="#F4EFE3" opacity="0.03"></circle><circle cx="820" cy="920" r="1.1" fill="#F4EFE3" opacity="0.05"></circle><circle cx="318" cy="375" r="0.6" fill="#F4EFE3" opacity="0.02"></circle><circle cx="648" cy="316" r="1.2" fill="#F4EFE3" opacity="0.02"></circle><circle cx="994" cy="763" r="1.3" fill="#F4EFE3" opacity="0.07"></circle><circle cx="990" cy="635" r="0.4" fill="#F4EFE3" opacity="0.06"></circle><circle cx="189" cy="330" r="1.1" fill="#F4EFE3" opacity="0.05"></circle><circle cx="455" cy="1033" r="1.0" fill="#F4EFE3" opacity="0.04"></circle><circle cx="278" cy="948" r="0.9" fill="#F4EFE3" opacity="0.07"></circle><circle cx="387" cy="217" r="0.9" fill="#F4EFE3" opacity="0.07"></circle><circle cx="188" cy="871" r="1.3" fill="#F4EFE3" opacity="0.07"></circle><circle cx="906" cy="8" r="1.0" fill="#F4EFE3" opacity="0.07"></circle><circle cx="55" cy="299" r="0.7" fill="#F4EFE3" opacity="0.05"></circle><circle cx="465" cy="520" r="1.2" fill="#F4EFE3" opacity="0.02"></circle><circle cx="60" cy="140" r="0.5" fill="#F4EFE3" opacity="0.02"></circle><circle cx="1072" cy="940" r="0.5" fill="#F4EFE3" opacity="0.05"></circle><circle cx="347" cy="346" r="0.8" fill="#F4EFE3" opacity="0.06"></circle><circle cx="645" cy="397" r="0.6" fill="#F4EFE3" opacity="0.04"></circle><circle cx="136" cy="611" r="1.1" fill="#F4EFE3" opacity="0.04"></circle><circle cx="88" cy="196" r="0.8" fill="#F4EFE3" opacity="0.06"></circle><circle cx="861" cy="418" r="1.2" fill="#F4EFE3" opacity="0.06"></circle><circle cx="475" cy="410" r="0.9" fill="#F4EFE3" opacity="0.06"></circle><circle cx="463" cy="764" r="0.9" fill="#F4EFE3" opacity="0.03"></circle><circle cx="589" cy="765" r="0.5" fill="#F4EFE3" opacity="0.05"></circle><circle cx="468" cy="968" r="1.3" fill="#F4EFE3" opacity="0.04"></circle><circle cx="988" cy="870" r="0.7" fill="#F4EFE3" opacity="0.05"></circle><circle cx="135" cy="895" r="1.1" fill="#F4EFE3" opacity="0.07"></circle><circle cx="872" cy="734" r="1.1" fill="#F4EFE3" opacity="0.05"></circle><circle cx="113" cy="647" r="0.4" fill="#F4EFE3" opacity="0.03"></circle><circle cx="852" cy="49" r="0.5" fill="#F4EFE3" opacity="0.03"></circle><circle cx="969" cy="197" r="0.4" fill="#F4EFE3" opacity="0.07"></circle><circle cx="133" cy="928" r="1.1" fill="#F4EFE3" opacity="0.07"></circle><circle cx="1048" cy="637" r="1.2" fill="#F4EFE3" opacity="0.02"></circle><circle cx="844" cy="562" r="1.1" fill="#F4EFE3" opacity="0.03"></circle><circle cx="824" cy="1028" r="0.5" fill="#F4EFE3" opacity="0.04"></circle><circle cx="620" cy="911" r="0.6" fill="#F4EFE3" opacity="0.03"></circle><circle cx="275" cy="678" r="1.2" fill="#F4EFE3" opacity="0.04"></circle><circle cx="404" cy="436" r="0.8" fill="#F4EFE3" opacity="0.05"></circle><circle cx="92" cy="550" r="1.4" fill="#F4EFE3" opacity="0.04"></circle><circle cx="822" cy="177" r="1.1" fill="#F4EFE3" opacity="0.07"></circle><circle cx="741" cy="569" r="0.9" fill="#F4EFE3" opacity="0.06"></circle><circle cx="987" cy="164" r="0.5" fill="#F4EFE3" opacity="0.06"></circle><circle cx="1008" cy="569" r="0.8" fill="#F4EFE3" opacity="0.06"></circle>
<rect x="40" y="40" width="1020" height="1020" fill="none" stroke="#E6A532" stroke-opacity="0.18" stroke-width="2"></rect>
<g opacity="0.2" fill="none" stroke="#F4EFE3" stroke-width="4.5" stroke-linejoin="round" stroke-linecap="round"><rect x="460" y="417" width="180" height="135" rx="16"></rect><circle cx="550" cy="486" r="40"></circle><rect x="500" y="394" width="99" height="31" rx="7"></rect></g>
<text x="550.0" y="620.0" font-family="Oswald, Arial, sans-serif" font-size="46" font-weight="600" letter-spacing="6" fill="#F4EFE3" fill-opacity="0.82" text-anchor="middle">CHEESE STEAKS</text>
<text x="550.0" y="668.0" font-family="Manrope, Arial, sans-serif" font-size="22" letter-spacing="3" fill="#E6A532" fill-opacity="0.9" text-anchor="middle">THE JUG HANDLE</text>
</svg>