<svg xmlns="http://www.w3.org/2000/svg" viewBox="0 0 1100 1100" preserveAspectRatio="xMidYMid slice" role="img" aria-label="Homemade Desserts">
<defs>
<linearGradient id="g" x1="0" y1="0" x2="1" y2="1">
<stop offset="0" stop-color="#2A1F16"></stop><stop offset="1" stop-color="#0C0B0A"></stop>
</linearGradient>
<radialGradient id="v" cx="50%" cy="42%" r="75%">
<stop offset="0" stop-color="#D32027" stop-opacity="0.16"></stop>
<stop offset="0.55" stop-color="#D32027" stop-opacity="0"></stop>
</radialGradient>
</defs>
<rect width="1100" height="1100" fill="url(#g)"></rect>
<rect width="1100" height="1100" fill="url(#v)"></rect>
<circle cx="249" cy="1059" r="0.5" fill="#F4EFE3" opacity="0.06"></circle><circle cx="94" cy="272" r="1.4" fill="#F4EFE3" opacity="0.03"></circle><circle cx="706" cy="505" r="0.9" fill="#F4EFE3" opacity="0.05"></circle><circle cx="211" cy="914" r="0.5" fill="#F4EFE3" opacity="0.03"></circle><circle cx="22" cy="293" r="0.8" fill="#F4EFE3" opacity="0.07"></circle><circle cx="417" cy="125" r="0.7" fill="#F4EFE3" opacity="0.08"></circle><circle cx="69" cy="682" r="0.8" fill="#F4EFE3" opacity="0.06"></circle><circle cx="372" cy="760" r="0.9" fill="#F4EFE3" opacity="0.06"></circle><circle cx="992" cy="640" r="0.5" fill="#F4EFE3" opacity="0.02"></circle><circle cx="1041" cy="538" r="0.6" fill="#F4EFE3" opacity="0.08"></circle><circle cx="637" cy="802" r="1.3" fill="#F4EFE3" opacity="0.04"></circle><circle cx="392" cy="966" r="0.5" fill="#F4EFE3" opacity="0.07"></circle><circle cx="107" cy="759" r="1.1" fill="#F4EFE3" opacity="0.08"></circle><circle cx="928" cy="554" r="0.6" fill="#F4EFE3" opacity="0.03"></circle><circle cx="582" cy="561" r="0.5" fill="#F4EFE3" opacity="0.07"></circle><circle cx="558" cy="771" r="0.6" fill="#F4EFE3" opacity="0.03"></circle><circle cx="13" cy="378" r="0.7" fill="#F4EFE3" opacity="0.05"></circle><circle cx="415" cy="918" r="1.3" fill="#F4EFE3" opacity="0.03"></circle><circle cx="436" cy="183" r="1.1" fill="#F4EFE3" opacity="0.08"></circle><circle cx="222" cy="843" r="0.7" fill="#F4EFE3" opacity="0.02"></circle><circle cx="841" cy="376" r="0.6" fill="#F4EFE3" opacity="0.05"></circle><circle cx="255" cy="451" r="0.8" fill="#F4EFE3" opacity="0.05"></circle><circle cx="647" cy="318" r="0.5" fill="#F4EFE3" opacity="0.03"></circle><circle cx="117" cy="573" r="0.8" fill="#F4EFE3" opacity="0.07"></circle><circle cx="555" cy="779" r="1.4" fill="#F4EFE3" opacity="0.02"></circle><circle cx="19" cy="154" r="0.8" fill="#F4EFE3" opacity="0.05"></circle><circle cx="818" cy="387" r="1.4" fill="#F4EFE3" opacity="0.02"></circle><circle cx="919" cy="231" r="1.3" fill="#F4EFE3" opacity="0.02"></circle><circle cx="1062" cy="835" r="1.4" fill="#F4EFE3" opacity="0.05"></circle><circle cx="196" cy="1067" r="0.8" fill="#F4EFE3" opacity="0.03"></circle><circle cx="666" cy="547" r="0.9" fill="#F4EFE3" opacity="0.03"></circle><circle cx="134" cy="639" r="0.9" fill="#F4EFE3" opacity="0.03"></circle><circle cx="483" cy="798" r="1.1" fill="#F4EFE3" opacity="0.05"></circle><circle cx="433" cy="397" r="0.6" fill="#F4EFE3" opacity="0.03"></circle><circle cx="491" cy="119" r="1.1" fill="#F4EFE3" opacity="0.06"></circle><circle cx="673" cy="25" r="0.8" fill="#F4EFE3" opacity="0.05"></circle><circle cx="103" cy="1065" r="1.2" fill="#F4EFE3" opacity="0.05"></circle><circle cx="776" cy="221" r="0.6" fill="#F4EFE3" opacity="0.05"></circle><circle cx="818" cy="712" r="0.4" fill="#F4EFE3" opacity="0.06"></circle><circle cx="1000" cy="818" r="1.3" fill="#F4EFE3" opacity="0.08"></circle><circle cx="246" cy="326" r="0.9" fill="#F4EFE3" opacity="0.08"></circle><circle cx="406" cy="1036" r="1.3" fill="#F4EFE3" opacity="0.05"></circle><circle cx="688" cy="1053" r="1.2" fill="#F4EFE3" opacity="0.04"></circle><circle cx="930" cy="215" r="0.8" fill="#F4EFE3" opacity="0.08"></circle><circle cx="932" cy="343" r="0.7" fill="#F4EFE3" opacity="0.06"></circle><circle cx="927" cy="753" r="1.3" fill="#F4EFE3" opacity="0.06"></circle><circle cx="903" cy="665" r="0.8" fill="#F4EFE3" opacity="0.05"></circle><circle cx="539" cy="582" r="1.2" fill="#F4EFE3" opacity="0.04"></circle><circle cx="75" cy="806" r="0.7" fill="#F4EFE3" opacity="0.05"></circle><circle cx="129" cy="912" r="0.7" fill="#F4EFE3" opacity="0.04"></circle><circle cx="885" cy="555" r="0.7" fill="#F4EFE3" opacity="0.07"></circle><circle cx="453" cy="397" r="1.4" fill="#F4EFE3" opacity="0.07"></circle><circle cx="822" cy="275" r="1.2" fill="#F4EFE3" opacity="0.06"></circle><circle cx="913" cy="405" r="1.2" fill="#F4EFE3" opacity="0.07"></circle><circle cx="427" cy="720" r="1.2" fill="#F4EFE3" opacity="0.08"></circle><circle cx="1012" cy="865" r="0.5" fill="#F4EFE3" opacity="0.06"></circle><circle cx="754" cy="96" r="0.9" fill="#F4EFE3" opacity="0.07"></circle><circle cx="996" cy="1018" r="0.5" fill="#F4EFE3" opacity="0.06"></circle><circle cx="952" cy="718" r="0.7" fill="#F4EFE3" opacity="0.02"></circle><circle cx="1012" cy="945" r="1.1" fill="#F4EFE3" opacity="0.04"></circle><circle cx="911" cy="896" r="1.1" fill="#F4EFE3" opacity="0.06"></circle><circle cx="351" cy="326" r="0.8" fill="#F4EFE3" opacity="0.04"></circle><circle cx="572" cy="125" r="1.1" fill="#F4EFE3" opacity="0.04"></circle><circle cx="176" cy="280" r="0.8" fill="#F4EFE3" opacity="0.05"></circle><circle cx="860" cy="110" r="0.6" fill="#F4EFE3" opacity="0.04"></circle><circle cx="194" cy="824" r="0.5" fill="#F4EFE3" opacity="0.02"></circle><circle cx="611" cy="810" r="1.2" fill="#F4EFE3" opacity="0.05"></circle><circle cx="359" cy="970" r="1.1" fill="#F4EFE3" opacity="0.05"></circle><circle cx="619" cy="1030" r="1.4" fill="#F4EFE3" opacity="0.08"></circle><circle cx="146" cy="360" r="0.8" fill="#F4EFE3" opacity="0.03"></circle><circle cx="838" cy="67" r="1.3" fill="#F4EFE3" opacity="0.06"></circle><circle cx="675" cy="456" r="1.3" fill="#F4EFE3" opacity="0.05"></circle><circle cx="986" cy="1015" r="1.1" fill="#F4EFE3" opacity="0.08"></circle><circle cx="539" cy="403" r="1.2" fill="#F4EFE3" opacity="0.05"></circle><circle cx="340" cy="748" r="0.9" fill="#F4EFE3" opacity="0.03"></circle><circle cx="922" cy="550" r="1.4" fill="#F4EFE3" opacity="0.05"></circle><circle cx="1031" cy="318" r="0.6" fill="#F4EFE3" opacity="0.05"></circle><circle cx="843" cy="907" r="1.0" fill="#F4EFE3" opacity="0.03"></circle><circle cx="433" cy="38" r="0.8" fill="#F4EFE3" opacity="0.08"></circle><circle cx="382" cy="769" r="1.0" fill="#F4EFE3" opacity="0.03"></circle><circle cx="757" cy="88" r="0.6" fill="#F4EFE3" opacity="0.05"></circle><circle cx="140" cy="1061" r="0.8" fill="#F4EFE3" opacity="0.06"></circle><circle cx="1062" cy="119" r="1.4" fill="#F4EFE3" opacity="0.02"></circle><circle cx="661" cy="722" r="1.4" fill="#F4EFE3" opacity="0.04"></circle><circle cx="1041" cy="715" r="0.9" fill="#F4EFE3" opacity="0.03"></circle><circle cx="259" cy="402" r="0.7" fill="#F4EFE3" opacity="0.04"></circle><circle cx="889" cy="412" r="1.0" fill="#F4EFE3" opacity="0.02"></circle><circle cx="155" cy="781" r="1.3" fill="#F4EFE3" opacity="0.04"></circle><circle cx="36" cy="256" r="0.8" fill="#F4EFE3" opacity="0.04"></circle><circle cx="618" cy="332" r="1.0" fill="#F4EFE3" opacity="0.07"></circle>
<rect x="40" y="40" width="1020" height="1020" fill="none" stroke="#D32027" stroke-opacity="0.18" stroke-width="2"></rect>
<g opacity="0.2" fill="none" stroke="#F4EFE3" stroke-width="4.5" stroke-linejoin="round" stroke-linecap="round"><rect x="460" y="417" width="180" height="135" rx="16"></rect><circle cx="550" cy="486" r="40"></circle><rect x="500" y="394" width="99" height="31" rx="7"></rect></g>
<text x="550.0" y="620.0" font-family="Oswald, Arial, sans-serif" font-size="46" font-weight="600" letter-spacing="6" fill="#F4EFE3" fill-opacity="0.82" text-anchor="middle">HOMEMADE DESSERTS</text>
<text x="550.0" y="668.0" font-family="Manrope, Arial, sans-serif" font-size="22" letter-spacing="3" fill="#D32027" fill-opacity="0.9" text-anchor="middle">THE JUG HANDLE</text>
</svg>