<svg xmlns="http://www.w3.org/2000/svg" viewBox="0 0 1100 1100" preserveAspectRatio="xMidYMid slice" role="img" aria-label="Cheese Steak Egg Rolls">
<defs>
<linearGradient id="g" x1="0" y1="0" x2="1" y2="1">
<stop offset="0" stop-color="#2A1F16"></stop><stop offset="1" stop-color="#0C0B0A"></stop>
</linearGradient>
<radialGradient id="v" cx="50%" cy="42%" r="75%">
<stop offset="0" stop-color="#E6A532" stop-opacity="0.16"></stop>
<stop offset="0.55" stop-color="#E6A532" stop-opacity="0"></stop>
</radialGradient>
</defs>
<rect width="1100" height="1100" fill="url(#g)"></rect>
<rect width="1100" height="1100" fill="url(#v)"></rect>
<circle cx="509" cy="411" r="0.5" fill="#F4EFE3" opacity="0.07"></circle><circle cx="7" cy="553" r="1.3" fill="#F4EFE3" opacity="0.02"></circle><circle cx="610" cy="678" r="0.4" fill="#F4EFE3" opacity="0.04"></circle><circle cx="774" cy="497" r="1.1" fill="#F4EFE3" opacity="0.03"></circle><circle cx="262" cy="122" r="0.9" fill="#F4EFE3" opacity="0.08"></circle><circle cx="649" cy="852" r="0.8" fill="#F4EFE3" opacity="0.06"></circle><circle cx="112" cy="320" r="1.1" fill="#F4EFE3" opacity="0.06"></circle><circle cx="464" cy="96" r="0.7" fill="#F4EFE3" opacity="0.03"></circle><circle cx="309" cy="890" r="0.6" fill="#F4EFE3" opacity="0.07"></circle><circle cx="967" cy="60" r="0.8" fill="#F4EFE3" opacity="0.05"></circle><circle cx="26" cy="467" r="1.3" fill="#F4EFE3" opacity="0.03"></circle><circle cx="657" cy="133" r="1.0" fill="#F4EFE3" opacity="0.07"></circle><circle cx="223" cy="9" r="0.5" fill="#F4EFE3" opacity="0.05"></circle><circle cx="19" cy="93" r="0.9" fill="#F4EFE3" opacity="0.08"></circle><circle cx="462" cy="438" r="1.0" fill="#F4EFE3" opacity="0.03"></circle><circle cx="638" cy="190" r="1.0" fill="#F4EFE3" opacity="0.08"></circle><circle cx="60" cy="611" r="1.0" fill="#F4EFE3" opacity="0.03"></circle><circle cx="295" cy="1094" r="1.4" fill="#F4EFE3" opacity="0.03"></circle><circle cx="776" cy="1046" r="0.6" fill="#F4EFE3" opacity="0.06"></circle><circle cx="47" cy="403" r="1.1" fill="#F4EFE3" opacity="0.06"></circle><circle cx="852" cy="95" r="0.7" fill="#F4EFE3" opacity="0.07"></circle><circle cx="643" cy="496" r="0.8" fill="#F4EFE3" opacity="0.08"></circle><circle cx="632" cy="20" r="1.2" fill="#F4EFE3" opacity="0.04"></circle><circle cx="477" cy="235" r="0.8" fill="#F4EFE3" opacity="0.04"></circle><circle cx="98" cy="692" r="0.5" fill="#F4EFE3" opacity="0.07"></circle><circle cx="28" cy="859" r="1.2" fill="#F4EFE3" opacity="0.05"></circle><circle cx="780" cy="273" r="1.1" fill="#F4EFE3" opacity="0.05"></circle><circle cx="254" cy="1060" r="0.8" fill="#F4EFE3" opacity="0.04"></circle><circle cx="946" cy="406" r="1.1" fill="#F4EFE3" opacity="0.03"></circle><circle cx="928" cy="285" r="0.5" fill="#F4EFE3" opacity="0.08"></circle><circle cx="190" cy="1041" r="1.4" fill="#F4EFE3" opacity="0.06"></circle><circle cx="13" cy="67" r="0.6" fill="#F4EFE3" opacity="0.04"></circle><circle cx="673" cy="1063" r="0.8" fill="#F4EFE3" opacity="0.03"></circle><circle cx="618" cy="151" r="0.5" fill="#F4EFE3" opacity="0.05"></circle><circle cx="766" cy="72" r="0.9" fill="#F4EFE3" opacity="0.06"></circle><circle cx="841" cy="421" r="1.3" fill="#F4EFE3" opacity="0.03"></circle><circle cx="787" cy="849" r="1.3" fill="#F4EFE3" opacity="0.05"></circle><circle cx="109" cy="53" r="0.9" fill="#F4EFE3" opacity="0.03"></circle><circle cx="693" cy="93" r="1.2" fill="#F4EFE3" opacity="0.03"></circle><circle cx="14" cy="193" r="0.9" fill="#F4EFE3" opacity="0.05"></circle><circle cx="427" cy="190" r="0.9" fill="#F4EFE3" opacity="0.08"></circle><circle cx="589" cy="1035" r="0.4" fill="#F4EFE3" opacity="0.08"></circle><circle cx="978" cy="599" r="0.9" fill="#F4EFE3" opacity="0.05"></circle><circle cx="1000" cy="72" r="1.0" fill="#F4EFE3" opacity="0.05"></circle><circle cx="330" cy="797" r="1.1" fill="#F4EFE3" opacity="0.03"></circle><circle cx="769" cy="499" r="0.9" fill="#F4EFE3" opacity="0.06"></circle><circle cx="58" cy="663" r="0.8" fill="#F4EFE3" opacity="0.07"></circle><circle cx="254" cy="905" r="1.1" fill="#F4EFE3" opacity="0.06"></circle><circle cx="963" cy="40" r="1.0" fill="#F4EFE3" opacity="0.06"></circle><circle cx="746" cy="447" r="0.5" fill="#F4EFE3" opacity="0.03"></circle><circle cx="669" cy="199" r="0.5" fill="#F4EFE3" opacity="0.04"></circle><circle cx="517" cy="589" r="0.4" fill="#F4EFE3" opacity="0.07"></circle><circle cx="367" cy="861" r="0.4" fill="#F4EFE3" opacity="0.08"></circle><circle cx="649" cy="1074" r="1.4" fill="#F4EFE3" opacity="0.07"></circle><circle cx="117" cy="384" r="0.6" fill="#F4EFE3" opacity="0.07"></circle><circle cx="211" cy="243" r="0.5" fill="#F4EFE3" opacity="0.03"></circle><circle cx="1032" cy="1074" r="0.8" fill="#F4EFE3" opacity="0.06"></circle><circle cx="514" cy="574" r="0.8" fill="#F4EFE3" opacity="0.06"></circle><circle cx="260" cy="282" r="0.9" fill="#F4EFE3" opacity="0.03"></circle><circle cx="483" cy="1038" r="0.4" fill="#F4EFE3" opacity="0.03"></circle><circle cx="880" cy="64" r="0.7" fill="#F4EFE3" opacity="0.07"></circle><circle cx="666" cy="243" r="0.5" fill="#F4EFE3" opacity="0.04"></circle><circle cx="330" cy="880" r="1.4" fill="#F4EFE3" opacity="0.07"></circle><circle cx="992" cy="1024" r="1.3" fill="#F4EFE3" opacity="0.08"></circle><circle cx="1064" cy="104" r="0.7" fill="#F4EFE3" opacity="0.03"></circle><circle cx="665" cy="541" r="0.7" fill="#F4EFE3" opacity="0.07"></circle><circle cx="439" cy="230" r="0.7" fill="#F4EFE3" opacity="0.05"></circle><circle cx="672" cy="625" r="0.8" fill="#F4EFE3" opacity="0.03"></circle><circle cx="442" cy="358" r="0.6" fill="#F4EFE3" opacity="0.05"></circle><circle cx="207" cy="783" r="1.1" fill="#F4EFE3" opacity="0.03"></circle><circle cx="688" cy="372" r="0.8" fill="#F4EFE3" opacity="0.06"></circle><circle cx="838" cy="972" r="1.1" fill="#F4EFE3" opacity="0.03"></circle><circle cx="596" cy="369" r="0.4" fill="#F4EFE3" opacity="0.05"></circle><circle cx="518" cy="954" r="0.7" fill="#F4EFE3" opacity="0.07"></circle><circle cx="566" cy="109" r="1.1" fill="#F4EFE3" opacity="0.04"></circle><circle cx="587" cy="79" r="0.4" fill="#F4EFE3" opacity="0.08"></circle><circle cx="46" cy="164" r="0.6" fill="#F4EFE3" opacity="0.03"></circle><circle cx="906" cy="1095" r="1.0" fill="#F4EFE3" opacity="0.04"></circle><circle cx="977" cy="557" r="0.5" fill="#F4EFE3" opacity="0.06"></circle><circle cx="395" cy="297" r="0.7" fill="#F4EFE3" opacity="0.04"></circle><circle cx="201" cy="674" r="1.3" fill="#F4EFE3" opacity="0.05"></circle><circle cx="10" cy="753" r="0.4" fill="#F4EFE3" opacity="0.05"></circle><circle cx="952" cy="745" r="1.3" fill="#F4EFE3" opacity="0.07"></circle><circle cx="300" cy="158" r="0.9" fill="#F4EFE3" opacity="0.06"></circle><circle cx="255" cy="364" r="1.1" fill="#F4EFE3" opacity="0.04"></circle><circle cx="661" cy="600" r="1.3" fill="#F4EFE3" opacity="0.02"></circle><circle cx="205" cy="856" r="1.1" fill="#F4EFE3" opacity="0.03"></circle><circle cx="148" cy="232" r="0.9" fill="#F4EFE3" opacity="0.07"></circle><circle cx="238" cy="223" r="1.1" fill="#F4EFE3" opacity="0.05"></circle><circle cx="931" cy="1099" r="1.3" fill="#F4EFE3" opacity="0.06"></circle>
<rect x="40" y="40" width="1020" height="1020" fill="none" stroke="#E6A532" stroke-opacity="0.18" stroke-width="2"></rect>
<g opacity="0.2" fill="none" stroke="#F4EFE3" stroke-width="4.5" stroke-linejoin="round" stroke-linecap="round"><rect x="460" y="417" width="180" height="135" rx="16"></rect><circle cx="550" cy="486" r="40"></circle><rect x="500" y="394" width="99" height="31" rx="7"></rect></g>
<text x="550.0" y="620.0" font-family="Oswald, Arial, sans-serif" font-size="46" font-weight="600" letter-spacing="6" fill="#F4EFE3" fill-opacity="0.82" text-anchor="middle">CHEESE STEAK EGG ROLLS</text>
<text x="550.0" y="668.0" font-family="Manrope, Arial, sans-serif" font-size="22" letter-spacing="3" fill="#E6A532" fill-opacity="0.9" text-anchor="middle">THE JUG HANDLE</text>
</svg>