<svg xmlns="http://www.w3.org/2000/svg" viewBox="0 0 1100 1100" preserveAspectRatio="xMidYMid slice" role="img" aria-label="Loaded Nachos">
<defs>
<linearGradient id="g" x1="0" y1="0" x2="1" y2="1">
<stop offset="0" stop-color="#2A1F16"></stop><stop offset="1" stop-color="#0C0B0A"></stop>
</linearGradient>
<radialGradient id="v" cx="50%" cy="42%" r="75%">
<stop offset="0" stop-color="#D32027" stop-opacity="0.16"></stop>
<stop offset="0.55" stop-color="#D32027" stop-opacity="0"></stop>
</radialGradient>
</defs>
<rect width="1100" height="1100" fill="url(#g)"></rect>
<rect width="1100" height="1100" fill="url(#v)"></rect>
<circle cx="260" cy="113" r="0.8" fill="#F4EFE3" opacity="0.03"></circle><circle cx="73" cy="442" r="1.3" fill="#F4EFE3" opacity="0.07"></circle><circle cx="842" cy="244" r="0.9" fill="#F4EFE3" opacity="0.04"></circle><circle cx="190" cy="117" r="0.6" fill="#F4EFE3" opacity="0.08"></circle><circle cx="912" cy="887" r="1.2" fill="#F4EFE3" opacity="0.03"></circle><circle cx="341" cy="690" r="1.1" fill="#F4EFE3" opacity="0.07"></circle><circle cx="968" cy="95" r="1.0" fill="#F4EFE3" opacity="0.06"></circle><circle cx="557" cy="196" r="0.9" fill="#F4EFE3" opacity="0.03"></circle><circle cx="1028" cy="952" r="0.9" fill="#F4EFE3" opacity="0.04"></circle><circle cx="1000" cy="630" r="1.3" fill="#F4EFE3" opacity="0.07"></circle><circle cx="559" cy="455" r="1.0" fill="#F4EFE3" opacity="0.05"></circle><circle cx="177" cy="336" r="1.2" fill="#F4EFE3" opacity="0.02"></circle><circle cx="51" cy="689" r="0.7" fill="#F4EFE3" opacity="0.05"></circle><circle cx="518" cy="377" r="1.4" fill="#F4EFE3" opacity="0.03"></circle><circle cx="454" cy="223" r="1.0" fill="#F4EFE3" opacity="0.04"></circle><circle cx="391" cy="822" r="0.7" fill="#F4EFE3" opacity="0.05"></circle><circle cx="995" cy="111" r="0.5" fill="#F4EFE3" opacity="0.03"></circle><circle cx="842" cy="677" r="0.6" fill="#F4EFE3" opacity="0.04"></circle><circle cx="195" cy="505" r="0.4" fill="#F4EFE3" opacity="0.06"></circle><circle cx="986" cy="1050" r="1.1" fill="#F4EFE3" opacity="0.08"></circle><circle cx="20" cy="318" r="1.4" fill="#F4EFE3" opacity="0.07"></circle><circle cx="451" cy="1038" r="1.0" fill="#F4EFE3" opacity="0.07"></circle><circle cx="323" cy="211" r="0.8" fill="#F4EFE3" opacity="0.03"></circle><circle cx="420" cy="1058" r="0.7" fill="#F4EFE3" opacity="0.02"></circle><circle cx="49" cy="187" r="1.2" fill="#F4EFE3" opacity="0.04"></circle><circle cx="319" cy="107" r="1.4" fill="#F4EFE3" opacity="0.05"></circle><circle cx="229" cy="65" r="0.5" fill="#F4EFE3" opacity="0.03"></circle><circle cx="745" cy="165" r="0.4" fill="#F4EFE3" opacity="0.05"></circle><circle cx="274" cy="1097" r="0.5" fill="#F4EFE3" opacity="0.05"></circle><circle cx="851" cy="450" r="1.4" fill="#F4EFE3" opacity="0.05"></circle><circle cx="266" cy="452" r="0.4" fill="#F4EFE3" opacity="0.05"></circle><circle cx="273" cy="978" r="1.2" fill="#F4EFE3" opacity="0.05"></circle><circle cx="35" cy="280" r="0.6" fill="#F4EFE3" opacity="0.03"></circle><circle cx="255" cy="957" r="0.5" fill="#F4EFE3" opacity="0.02"></circle><circle cx="1021" cy="622" r="1.4" fill="#F4EFE3" opacity="0.04"></circle><circle cx="991" cy="719" r="1.2" fill="#F4EFE3" opacity="0.06"></circle><circle cx="544" cy="102" r="0.6" fill="#F4EFE3" opacity="0.07"></circle><circle cx="990" cy="1017" r="0.7" fill="#F4EFE3" opacity="0.06"></circle><circle cx="879" cy="707" r="1.2" fill="#F4EFE3" opacity="0.05"></circle><circle cx="720" cy="755" r="0.7" fill="#F4EFE3" opacity="0.08"></circle><circle cx="1052" cy="82" r="1.4" fill="#F4EFE3" opacity="0.08"></circle><circle cx="735" cy="49" r="1.3" fill="#F4EFE3" opacity="0.03"></circle><circle cx="1065" cy="734" r="0.5" fill="#F4EFE3" opacity="0.03"></circle><circle cx="699" cy="626" r="1.1" fill="#F4EFE3" opacity="0.08"></circle><circle cx="240" cy="4" r="1.3" fill="#F4EFE3" opacity="0.02"></circle><circle cx="964" cy="127" r="1.2" fill="#F4EFE3" opacity="0.07"></circle><circle cx="966" cy="606" r="1.3" fill="#F4EFE3" opacity="0.03"></circle><circle cx="739" cy="364" r="1.3" fill="#F4EFE3" opacity="0.07"></circle><circle cx="519" cy="579" r="0.4" fill="#F4EFE3" opacity="0.02"></circle><circle cx="654" cy="538" r="1.3" fill="#F4EFE3" opacity="0.06"></circle><circle cx="153" cy="399" r="1.2" fill="#F4EFE3" opacity="0.05"></circle><circle cx="12" cy="921" r="1.2" fill="#F4EFE3" opacity="0.03"></circle><circle cx="598" cy="419" r="1.2" fill="#F4EFE3" opacity="0.04"></circle><circle cx="257" cy="535" r="1.4" fill="#F4EFE3" opacity="0.03"></circle><circle cx="126" cy="683" r="1.3" fill="#F4EFE3" opacity="0.05"></circle><circle cx="477" cy="944" r="1.2" fill="#F4EFE3" opacity="0.02"></circle><circle cx="969" cy="215" r="0.7" fill="#F4EFE3" opacity="0.07"></circle><circle cx="465" cy="878" r="0.6" fill="#F4EFE3" opacity="0.07"></circle><circle cx="194" cy="164" r="0.9" fill="#F4EFE3" opacity="0.04"></circle><circle cx="596" cy="994" r="1.1" fill="#F4EFE3" opacity="0.02"></circle><circle cx="343" cy="599" r="0.9" fill="#F4EFE3" opacity="0.06"></circle><circle cx="533" cy="83" r="0.6" fill="#F4EFE3" opacity="0.07"></circle><circle cx="392" cy="843" r="1.4" fill="#F4EFE3" opacity="0.06"></circle><circle cx="744" cy="670" r="0.7" fill="#F4EFE3" opacity="0.07"></circle><circle cx="514" cy="1003" r="0.7" fill="#F4EFE3" opacity="0.07"></circle><circle cx="866" cy="674" r="0.8" fill="#F4EFE3" opacity="0.03"></circle><circle cx="848" cy="398" r="1.1" fill="#F4EFE3" opacity="0.03"></circle><circle cx="91" cy="158" r="1.2" fill="#F4EFE3" opacity="0.03"></circle><circle cx="992" cy="409" r="1.0" fill="#F4EFE3" opacity="0.04"></circle><circle cx="683" cy="103" r="0.8" fill="#F4EFE3" opacity="0.08"></circle><circle cx="198" cy="720" r="0.7" fill="#F4EFE3" opacity="0.04"></circle><circle cx="25" cy="22" r="1.3" fill="#F4EFE3" opacity="0.07"></circle><circle cx="881" cy="888" r="1.4" fill="#F4EFE3" opacity="0.03"></circle><circle cx="643" cy="545" r="1.0" fill="#F4EFE3" opacity="0.08"></circle><circle cx="836" cy="1065" r="0.5" fill="#F4EFE3" opacity="0.06"></circle><circle cx="743" cy="820" r="1.0" fill="#F4EFE3" opacity="0.07"></circle><circle cx="333" cy="1021" r="0.8" fill="#F4EFE3" opacity="0.06"></circle><circle cx="987" cy="774" r="0.7" fill="#F4EFE3" opacity="0.03"></circle><circle cx="359" cy="689" r="1.4" fill="#F4EFE3" opacity="0.07"></circle><circle cx="440" cy="441" r="1.2" fill="#F4EFE3" opacity="0.04"></circle><circle cx="453" cy="15" r="0.6" fill="#F4EFE3" opacity="0.05"></circle><circle cx="763" cy="676" r="0.8" fill="#F4EFE3" opacity="0.08"></circle><circle cx="686" cy="172" r="0.5" fill="#F4EFE3" opacity="0.08"></circle><circle cx="1087" cy="1012" r="1.0" fill="#F4EFE3" opacity="0.04"></circle><circle cx="100" cy="284" r="0.6" fill="#F4EFE3" opacity="0.08"></circle><circle cx="982" cy="856" r="0.5" fill="#F4EFE3" opacity="0.03"></circle><circle cx="329" cy="1043" r="0.6" fill="#F4EFE3" opacity="0.07"></circle><circle cx="749" cy="602" r="1.4" fill="#F4EFE3" opacity="0.04"></circle><circle cx="577" cy="173" r="0.5" fill="#F4EFE3" opacity="0.02"></circle><circle cx="348" cy="134" r="0.5" fill="#F4EFE3" opacity="0.08"></circle>
<rect x="40" y="40" width="1020" height="1020" fill="none" stroke="#D32027" stroke-opacity="0.18" stroke-width="2"></rect>
<g opacity="0.2" fill="none" stroke="#F4EFE3" stroke-width="4.5" stroke-linejoin="round" stroke-linecap="round"><rect x="460" y="417" width="180" height="135" rx="16"></rect><circle cx="550" cy="486" r="40"></circle><rect x="500" y="394" width="99" height="31" rx="7"></rect></g>
<text x="550.0" y="620.0" font-family="Oswald, Arial, sans-serif" font-size="46" font-weight="600" letter-spacing="6" fill="#F4EFE3" fill-opacity="0.82" text-anchor="middle">LOADED NACHOS</text>
<text x="550.0" y="668.0" font-family="Manrope, Arial, sans-serif" font-size="22" letter-spacing="3" fill="#D32027" fill-opacity="0.9" text-anchor="middle">THE JUG HANDLE</text>
</svg>