<svg xmlns="http://www.w3.org/2000/svg" viewBox="0 0 1100 1100" preserveAspectRatio="xMidYMid slice" role="img" aria-label="Baby Back Ribs">
<defs>
<linearGradient id="g" x1="0" y1="0" x2="1" y2="1">
<stop offset="0" stop-color="#2A1F16"></stop><stop offset="1" stop-color="#0C0B0A"></stop>
</linearGradient>
<radialGradient id="v" cx="50%" cy="42%" r="75%">
<stop offset="0" stop-color="#D32027" stop-opacity="0.16"></stop>
<stop offset="0.55" stop-color="#D32027" stop-opacity="0"></stop>
</radialGradient>
</defs>
<rect width="1100" height="1100" fill="url(#g)"></rect>
<rect width="1100" height="1100" fill="url(#v)"></rect>
<circle cx="873" cy="904" r="0.9" fill="#F4EFE3" opacity="0.04"></circle><circle cx="0" cy="729" r="0.9" fill="#F4EFE3" opacity="0.07"></circle><circle cx="410" cy="847" r="0.7" fill="#F4EFE3" opacity="0.07"></circle><circle cx="803" cy="455" r="0.9" fill="#F4EFE3" opacity="0.06"></circle><circle cx="212" cy="609" r="1.2" fill="#F4EFE3" opacity="0.04"></circle><circle cx="884" cy="754" r="1.2" fill="#F4EFE3" opacity="0.04"></circle><circle cx="102" cy="880" r="1.2" fill="#F4EFE3" opacity="0.05"></circle><circle cx="103" cy="217" r="1.0" fill="#F4EFE3" opacity="0.04"></circle><circle cx="1047" cy="647" r="0.6" fill="#F4EFE3" opacity="0.06"></circle><circle cx="396" cy="1026" r="1.3" fill="#F4EFE3" opacity="0.05"></circle><circle cx="709" cy="768" r="1.2" fill="#F4EFE3" opacity="0.08"></circle><circle cx="31" cy="398" r="1.0" fill="#F4EFE3" opacity="0.04"></circle><circle cx="648" cy="99" r="1.3" fill="#F4EFE3" opacity="0.05"></circle><circle cx="129" cy="729" r="0.7" fill="#F4EFE3" opacity="0.03"></circle><circle cx="532" cy="152" r="0.6" fill="#F4EFE3" opacity="0.07"></circle><circle cx="768" cy="14" r="1.2" fill="#F4EFE3" opacity="0.02"></circle><circle cx="366" cy="995" r="1.0" fill="#F4EFE3" opacity="0.04"></circle><circle cx="415" cy="428" r="0.5" fill="#F4EFE3" opacity="0.08"></circle><circle cx="59" cy="465" r="1.1" fill="#F4EFE3" opacity="0.04"></circle><circle cx="1079" cy="270" r="1.4" fill="#F4EFE3" opacity="0.07"></circle><circle cx="737" cy="978" r="0.8" fill="#F4EFE3" opacity="0.07"></circle><circle cx="876" cy="568" r="0.9" fill="#F4EFE3" opacity="0.06"></circle><circle cx="450" cy="95" r="1.1" fill="#F4EFE3" opacity="0.04"></circle><circle cx="536" cy="862" r="0.6" fill="#F4EFE3" opacity="0.02"></circle><circle cx="136" cy="648" r="0.8" fill="#F4EFE3" opacity="0.04"></circle><circle cx="497" cy="1020" r="0.7" fill="#F4EFE3" opacity="0.04"></circle><circle cx="967" cy="673" r="0.7" fill="#F4EFE3" opacity="0.05"></circle><circle cx="526" cy="156" r="0.8" fill="#F4EFE3" opacity="0.04"></circle><circle cx="885" cy="356" r="1.1" fill="#F4EFE3" opacity="0.08"></circle><circle cx="1015" cy="414" r="1.0" fill="#F4EFE3" opacity="0.04"></circle><circle cx="438" cy="537" r="1.2" fill="#F4EFE3" opacity="0.08"></circle><circle cx="320" cy="7" r="0.8" fill="#F4EFE3" opacity="0.02"></circle><circle cx="33" cy="851" r="0.5" fill="#F4EFE3" opacity="0.06"></circle><circle cx="398" cy="1032" r="1.3" fill="#F4EFE3" opacity="0.02"></circle><circle cx="212" cy="1042" r="1.0" fill="#F4EFE3" opacity="0.05"></circle><circle cx="861" cy="895" r="0.9" fill="#F4EFE3" opacity="0.05"></circle><circle cx="110" cy="398" r="0.5" fill="#F4EFE3" opacity="0.06"></circle><circle cx="667" cy="159" r="1.0" fill="#F4EFE3" opacity="0.03"></circle><circle cx="116" cy="710" r="0.9" fill="#F4EFE3" opacity="0.07"></circle><circle cx="692" cy="772" r="0.5" fill="#F4EFE3" opacity="0.07"></circle><circle cx="92" cy="680" r="1.3" fill="#F4EFE3" opacity="0.07"></circle><circle cx="983" cy="497" r="1.1" fill="#F4EFE3" opacity="0.07"></circle><circle cx="151" cy="1038" r="1.3" fill="#F4EFE3" opacity="0.05"></circle><circle cx="856" cy="492" r="0.7" fill="#F4EFE3" opacity="0.06"></circle><circle cx="70" cy="880" r="1.4" fill="#F4EFE3" opacity="0.04"></circle><circle cx="1034" cy="92" r="1.3" fill="#F4EFE3" opacity="0.04"></circle><circle cx="1063" cy="474" r="1.3" fill="#F4EFE3" opacity="0.02"></circle><circle cx="94" cy="898" r="1.0" fill="#F4EFE3" opacity="0.05"></circle><circle cx="36" cy="191" r="0.8" fill="#F4EFE3" opacity="0.02"></circle><circle cx="1092" cy="842" r="1.3" fill="#F4EFE3" opacity="0.06"></circle><circle cx="378" cy="85" r="1.1" fill="#F4EFE3" opacity="0.03"></circle><circle cx="602" cy="510" r="0.9" fill="#F4EFE3" opacity="0.02"></circle><circle cx="81" cy="572" r="0.4" fill="#F4EFE3" opacity="0.05"></circle><circle cx="165" cy="310" r="0.6" fill="#F4EFE3" opacity="0.05"></circle><circle cx="427" cy="245" r="0.6" fill="#F4EFE3" opacity="0.05"></circle><circle cx="1002" cy="461" r="0.6" fill="#F4EFE3" opacity="0.04"></circle><circle cx="264" cy="630" r="1.2" fill="#F4EFE3" opacity="0.05"></circle><circle cx="207" cy="358" r="0.8" fill="#F4EFE3" opacity="0.05"></circle><circle cx="437" cy="1097" r="1.0" fill="#F4EFE3" opacity="0.06"></circle><circle cx="788" cy="710" r="1.2" fill="#F4EFE3" opacity="0.04"></circle><circle cx="733" cy="1070" r="0.6" fill="#F4EFE3" opacity="0.06"></circle><circle cx="423" cy="67" r="0.4" fill="#F4EFE3" opacity="0.07"></circle><circle cx="126" cy="782" r="0.5" fill="#F4EFE3" opacity="0.04"></circle><circle cx="35" cy="597" r="1.2" fill="#F4EFE3" opacity="0.03"></circle><circle cx="622" cy="1015" r="0.7" fill="#F4EFE3" opacity="0.05"></circle><circle cx="797" cy="951" r="0.6" fill="#F4EFE3" opacity="0.06"></circle><circle cx="132" cy="123" r="1.4" fill="#F4EFE3" opacity="0.02"></circle><circle cx="1012" cy="825" r="1.1" fill="#F4EFE3" opacity="0.06"></circle><circle cx="716" cy="316" r="0.8" fill="#F4EFE3" opacity="0.03"></circle><circle cx="945" cy="857" r="1.2" fill="#F4EFE3" opacity="0.03"></circle><circle cx="651" cy="280" r="1.2" fill="#F4EFE3" opacity="0.06"></circle><circle cx="1095" cy="779" r="1.1" fill="#F4EFE3" opacity="0.07"></circle><circle cx="103" cy="655" r="0.4" fill="#F4EFE3" opacity="0.04"></circle><circle cx="129" cy="1043" r="0.4" fill="#F4EFE3" opacity="0.08"></circle><circle cx="1043" cy="479" r="1.2" fill="#F4EFE3" opacity="0.02"></circle><circle cx="153" cy="11" r="0.5" fill="#F4EFE3" opacity="0.02"></circle><circle cx="911" cy="96" r="1.0" fill="#F4EFE3" opacity="0.04"></circle><circle cx="146" cy="461" r="0.6" fill="#F4EFE3" opacity="0.08"></circle><circle cx="422" cy="653" r="1.0" fill="#F4EFE3" opacity="0.06"></circle><circle cx="528" cy="297" r="0.5" fill="#F4EFE3" opacity="0.07"></circle><circle cx="212" cy="493" r="1.2" fill="#F4EFE3" opacity="0.05"></circle><circle cx="1043" cy="890" r="0.9" fill="#F4EFE3" opacity="0.03"></circle><circle cx="652" cy="521" r="1.3" fill="#F4EFE3" opacity="0.05"></circle><circle cx="764" cy="893" r="0.9" fill="#F4EFE3" opacity="0.07"></circle><circle cx="989" cy="170" r="1.3" fill="#F4EFE3" opacity="0.07"></circle><circle cx="940" cy="372" r="0.7" fill="#F4EFE3" opacity="0.03"></circle><circle cx="408" cy="941" r="0.8" fill="#F4EFE3" opacity="0.02"></circle><circle cx="335" cy="91" r="1.0" fill="#F4EFE3" opacity="0.07"></circle><circle cx="1019" cy="98" r="0.8" fill="#F4EFE3" opacity="0.03"></circle><circle cx="1001" cy="921" r="0.9" fill="#F4EFE3" opacity="0.08"></circle>
<rect x="40" y="40" width="1020" height="1020" fill="none" stroke="#D32027" stroke-opacity="0.18" stroke-width="2"></rect>
<g opacity="0.2" fill="none" stroke="#F4EFE3" stroke-width="4.5" stroke-linejoin="round" stroke-linecap="round"><rect x="460" y="417" width="180" height="135" rx="16"></rect><circle cx="550" cy="486" r="40"></circle><rect x="500" y="394" width="99" height="31" rx="7"></rect></g>
<text x="550.0" y="620.0" font-family="Oswald, Arial, sans-serif" font-size="46" font-weight="600" letter-spacing="6" fill="#F4EFE3" fill-opacity="0.82" text-anchor="middle">BABY BACK RIBS</text>
<text x="550.0" y="668.0" font-family="Manrope, Arial, sans-serif" font-size="22" letter-spacing="3" fill="#D32027" fill-opacity="0.9" text-anchor="middle">THE JUG HANDLE</text>
</svg>