<svg xmlns="http://www.w3.org/2000/svg" viewBox="0 0 1100 1100" preserveAspectRatio="xMidYMid slice" role="img" aria-label="Fresh Salads">
<defs>
<linearGradient id="g" x1="0" y1="0" x2="1" y2="1">
<stop offset="0" stop-color="#2A1F16"></stop><stop offset="1" stop-color="#0C0B0A"></stop>
</linearGradient>
<radialGradient id="v" cx="50%" cy="42%" r="75%">
<stop offset="0" stop-color="#E6A532" stop-opacity="0.16"></stop>
<stop offset="0.55" stop-color="#E6A532" stop-opacity="0"></stop>
</radialGradient>
</defs>
<rect width="1100" height="1100" fill="url(#g)"></rect>
<rect width="1100" height="1100" fill="url(#v)"></rect>
<circle cx="356" cy="166" r="1.1" fill="#F4EFE3" opacity="0.02"></circle><circle cx="589" cy="402" r="0.5" fill="#F4EFE3" opacity="0.05"></circle><circle cx="41" cy="477" r="0.5" fill="#F4EFE3" opacity="0.03"></circle><circle cx="467" cy="910" r="0.5" fill="#F4EFE3" opacity="0.03"></circle><circle cx="690" cy="1042" r="1.0" fill="#F4EFE3" opacity="0.04"></circle><circle cx="1074" cy="51" r="1.3" fill="#F4EFE3" opacity="0.04"></circle><circle cx="159" cy="130" r="0.7" fill="#F4EFE3" opacity="0.07"></circle><circle cx="199" cy="640" r="1.0" fill="#F4EFE3" opacity="0.04"></circle><circle cx="603" cy="69" r="0.5" fill="#F4EFE3" opacity="0.03"></circle><circle cx="748" cy="470" r="0.7" fill="#F4EFE3" opacity="0.06"></circle><circle cx="499" cy="330" r="1.2" fill="#F4EFE3" opacity="0.06"></circle><circle cx="269" cy="632" r="0.9" fill="#F4EFE3" opacity="0.07"></circle><circle cx="802" cy="317" r="1.4" fill="#F4EFE3" opacity="0.03"></circle><circle cx="460" cy="833" r="0.6" fill="#F4EFE3" opacity="0.05"></circle><circle cx="43" cy="735" r="1.2" fill="#F4EFE3" opacity="0.05"></circle><circle cx="963" cy="345" r="1.1" fill="#F4EFE3" opacity="0.06"></circle><circle cx="638" cy="502" r="1.2" fill="#F4EFE3" opacity="0.08"></circle><circle cx="522" cy="731" r="0.5" fill="#F4EFE3" opacity="0.06"></circle><circle cx="712" cy="1092" r="1.2" fill="#F4EFE3" opacity="0.04"></circle><circle cx="424" cy="736" r="0.4" fill="#F4EFE3" opacity="0.05"></circle><circle cx="185" cy="129" r="0.5" fill="#F4EFE3" opacity="0.07"></circle><circle cx="142" cy="272" r="0.8" fill="#F4EFE3" opacity="0.07"></circle><circle cx="89" cy="494" r="0.9" fill="#F4EFE3" opacity="0.07"></circle><circle cx="901" cy="950" r="0.7" fill="#F4EFE3" opacity="0.04"></circle><circle cx="395" cy="973" r="1.4" fill="#F4EFE3" opacity="0.03"></circle><circle cx="194" cy="255" r="0.6" fill="#F4EFE3" opacity="0.05"></circle><circle cx="648" cy="289" r="0.4" fill="#F4EFE3" opacity="0.05"></circle><circle cx="406" cy="623" r="1.4" fill="#F4EFE3" opacity="0.06"></circle><circle cx="567" cy="679" r="1.1" fill="#F4EFE3" opacity="0.02"></circle><circle cx="989" cy="858" r="1.3" fill="#F4EFE3" opacity="0.07"></circle><circle cx="432" cy="439" r="0.5" fill="#F4EFE3" opacity="0.06"></circle><circle cx="68" cy="74" r="0.6" fill="#F4EFE3" opacity="0.03"></circle><circle cx="374" cy="58" r="0.4" fill="#F4EFE3" opacity="0.03"></circle><circle cx="112" cy="400" r="0.4" fill="#F4EFE3" opacity="0.07"></circle><circle cx="675" cy="163" r="0.7" fill="#F4EFE3" opacity="0.04"></circle><circle cx="401" cy="135" r="1.2" fill="#F4EFE3" opacity="0.08"></circle><circle cx="513" cy="532" r="0.5" fill="#F4EFE3" opacity="0.03"></circle><circle cx="377" cy="291" r="1.2" fill="#F4EFE3" opacity="0.03"></circle><circle cx="25" cy="1046" r="0.9" fill="#F4EFE3" opacity="0.03"></circle><circle cx="597" cy="30" r="0.9" fill="#F4EFE3" opacity="0.08"></circle><circle cx="950" cy="766" r="0.7" fill="#F4EFE3" opacity="0.04"></circle><circle cx="184" cy="849" r="0.9" fill="#F4EFE3" opacity="0.07"></circle><circle cx="363" cy="245" r="1.2" fill="#F4EFE3" opacity="0.08"></circle><circle cx="938" cy="887" r="1.2" fill="#F4EFE3" opacity="0.06"></circle><circle cx="249" cy="569" r="0.8" fill="#F4EFE3" opacity="0.02"></circle><circle cx="31" cy="307" r="0.7" fill="#F4EFE3" opacity="0.06"></circle><circle cx="1052" cy="492" r="1.3" fill="#F4EFE3" opacity="0.08"></circle><circle cx="1051" cy="401" r="0.6" fill="#F4EFE3" opacity="0.03"></circle><circle cx="216" cy="225" r="1.0" fill="#F4EFE3" opacity="0.07"></circle><circle cx="924" cy="527" r="1.1" fill="#F4EFE3" opacity="0.07"></circle><circle cx="93" cy="727" r="1.3" fill="#F4EFE3" opacity="0.07"></circle><circle cx="825" cy="526" r="0.6" fill="#F4EFE3" opacity="0.07"></circle><circle cx="366" cy="881" r="1.4" fill="#F4EFE3" opacity="0.04"></circle><circle cx="442" cy="1041" r="1.1" fill="#F4EFE3" opacity="0.03"></circle><circle cx="140" cy="166" r="1.3" fill="#F4EFE3" opacity="0.07"></circle><circle cx="161" cy="909" r="1.4" fill="#F4EFE3" opacity="0.06"></circle><circle cx="385" cy="604" r="0.5" fill="#F4EFE3" opacity="0.02"></circle><circle cx="1068" cy="715" r="0.9" fill="#F4EFE3" opacity="0.08"></circle><circle cx="477" cy="959" r="1.2" fill="#F4EFE3" opacity="0.03"></circle><circle cx="277" cy="322" r="0.6" fill="#F4EFE3" opacity="0.06"></circle><circle cx="285" cy="461" r="0.5" fill="#F4EFE3" opacity="0.07"></circle><circle cx="389" cy="504" r="1.0" fill="#F4EFE3" opacity="0.07"></circle><circle cx="463" cy="1009" r="0.9" fill="#F4EFE3" opacity="0.05"></circle><circle cx="576" cy="21" r="0.8" fill="#F4EFE3" opacity="0.03"></circle><circle cx="4" cy="879" r="0.6" fill="#F4EFE3" opacity="0.05"></circle><circle cx="798" cy="612" r="0.7" fill="#F4EFE3" opacity="0.05"></circle><circle cx="611" cy="863" r="0.5" fill="#F4EFE3" opacity="0.05"></circle><circle cx="273" cy="305" r="1.2" fill="#F4EFE3" opacity="0.05"></circle><circle cx="618" cy="836" r="1.3" fill="#F4EFE3" opacity="0.05"></circle><circle cx="674" cy="556" r="0.9" fill="#F4EFE3" opacity="0.06"></circle><circle cx="498" cy="587" r="0.9" fill="#F4EFE3" opacity="0.08"></circle><circle cx="769" cy="964" r="1.3" fill="#F4EFE3" opacity="0.04"></circle><circle cx="615" cy="1038" r="1.2" fill="#F4EFE3" opacity="0.03"></circle><circle cx="134" cy="486" r="0.5" fill="#F4EFE3" opacity="0.03"></circle><circle cx="80" cy="736" r="1.2" fill="#F4EFE3" opacity="0.07"></circle><circle cx="170" cy="788" r="1.1" fill="#F4EFE3" opacity="0.03"></circle><circle cx="971" cy="1064" r="0.6" fill="#F4EFE3" opacity="0.08"></circle><circle cx="438" cy="536" r="1.4" fill="#F4EFE3" opacity="0.07"></circle><circle cx="178" cy="475" r="0.9" fill="#F4EFE3" opacity="0.04"></circle><circle cx="215" cy="350" r="1.1" fill="#F4EFE3" opacity="0.02"></circle><circle cx="609" cy="485" r="0.4" fill="#F4EFE3" opacity="0.04"></circle><circle cx="686" cy="563" r="0.5" fill="#F4EFE3" opacity="0.08"></circle><circle cx="867" cy="1069" r="0.5" fill="#F4EFE3" opacity="0.04"></circle><circle cx="44" cy="857" r="0.7" fill="#F4EFE3" opacity="0.03"></circle><circle cx="464" cy="1003" r="1.2" fill="#F4EFE3" opacity="0.04"></circle><circle cx="164" cy="1011" r="1.0" fill="#F4EFE3" opacity="0.06"></circle><circle cx="98" cy="63" r="1.1" fill="#F4EFE3" opacity="0.05"></circle><circle cx="80" cy="1032" r="1.0" fill="#F4EFE3" opacity="0.07"></circle><circle cx="92" cy="942" r="0.5" fill="#F4EFE3" opacity="0.07"></circle><circle cx="499" cy="373" r="1.0" fill="#F4EFE3" opacity="0.08"></circle>
<rect x="40" y="40" width="1020" height="1020" fill="none" stroke="#E6A532" stroke-opacity="0.18" stroke-width="2"></rect>
<g opacity="0.2" fill="none" stroke="#F4EFE3" stroke-width="4.5" stroke-linejoin="round" stroke-linecap="round"><rect x="460" y="417" width="180" height="135" rx="16"></rect><circle cx="550" cy="486" r="40"></circle><rect x="500" y="394" width="99" height="31" rx="7"></rect></g>
<text x="550.0" y="620.0" font-family="Oswald, Arial, sans-serif" font-size="46" font-weight="600" letter-spacing="6" fill="#F4EFE3" fill-opacity="0.82" text-anchor="middle">FRESH SALADS</text>
<text x="550.0" y="668.0" font-family="Manrope, Arial, sans-serif" font-size="22" letter-spacing="3" fill="#E6A532" fill-opacity="0.9" text-anchor="middle">THE JUG HANDLE</text>
</svg>