<svg xmlns="http://www.w3.org/2000/svg" viewBox="0 0 1100 1100" preserveAspectRatio="xMidYMid slice" role="img" aria-label="Award-Winning Wings">
<defs>
<linearGradient id="g" x1="0" y1="0" x2="1" y2="1">
<stop offset="0" stop-color="#2A1F16"></stop><stop offset="1" stop-color="#0C0B0A"></stop>
</linearGradient>
<radialGradient id="v" cx="50%" cy="42%" r="75%">
<stop offset="0" stop-color="#E6A532" stop-opacity="0.16"></stop>
<stop offset="0.55" stop-color="#E6A532" stop-opacity="0"></stop>
</radialGradient>
</defs>
<rect width="1100" height="1100" fill="url(#g)"></rect>
<rect width="1100" height="1100" fill="url(#v)"></rect>
<circle cx="148" cy="932" r="1.2" fill="#F4EFE3" opacity="0.04"></circle><circle cx="545" cy="494" r="1.1" fill="#F4EFE3" opacity="0.07"></circle><circle cx="103" cy="31" r="1.2" fill="#F4EFE3" opacity="0.05"></circle><circle cx="839" cy="2" r="0.8" fill="#F4EFE3" opacity="0.06"></circle><circle cx="252" cy="1040" r="1.3" fill="#F4EFE3" opacity="0.02"></circle><circle cx="28" cy="596" r="1.3" fill="#F4EFE3" opacity="0.04"></circle><circle cx="238" cy="464" r="0.4" fill="#F4EFE3" opacity="0.03"></circle><circle cx="482" cy="545" r="0.6" fill="#F4EFE3" opacity="0.03"></circle><circle cx="241" cy="506" r="0.7" fill="#F4EFE3" opacity="0.02"></circle><circle cx="921" cy="612" r="1.0" fill="#F4EFE3" opacity="0.03"></circle><circle cx="1092" cy="946" r="0.5" fill="#F4EFE3" opacity="0.04"></circle><circle cx="794" cy="782" r="1.3" fill="#F4EFE3" opacity="0.05"></circle><circle cx="913" cy="737" r="0.7" fill="#F4EFE3" opacity="0.06"></circle><circle cx="971" cy="931" r="0.9" fill="#F4EFE3" opacity="0.06"></circle><circle cx="38" cy="267" r="1.2" fill="#F4EFE3" opacity="0.04"></circle><circle cx="190" cy="604" r="1.1" fill="#F4EFE3" opacity="0.06"></circle><circle cx="412" cy="483" r="0.9" fill="#F4EFE3" opacity="0.07"></circle><circle cx="573" cy="433" r="0.9" fill="#F4EFE3" opacity="0.02"></circle><circle cx="48" cy="774" r="1.4" fill="#F4EFE3" opacity="0.06"></circle><circle cx="433" cy="187" r="0.9" fill="#F4EFE3" opacity="0.08"></circle><circle cx="848" cy="594" r="1.3" fill="#F4EFE3" opacity="0.03"></circle><circle cx="565" cy="1048" r="1.0" fill="#F4EFE3" opacity="0.05"></circle><circle cx="296" cy="603" r="1.4" fill="#F4EFE3" opacity="0.02"></circle><circle cx="862" cy="903" r="1.3" fill="#F4EFE3" opacity="0.06"></circle><circle cx="890" cy="571" r="1.0" fill="#F4EFE3" opacity="0.05"></circle><circle cx="62" cy="957" r="1.0" fill="#F4EFE3" opacity="0.03"></circle><circle cx="555" cy="533" r="0.8" fill="#F4EFE3" opacity="0.04"></circle><circle cx="592" cy="686" r="1.0" fill="#F4EFE3" opacity="0.05"></circle><circle cx="31" cy="253" r="0.6" fill="#F4EFE3" opacity="0.06"></circle><circle cx="947" cy="878" r="1.2" fill="#F4EFE3" opacity="0.07"></circle><circle cx="281" cy="926" r="1.1" fill="#F4EFE3" opacity="0.02"></circle><circle cx="18" cy="16" r="1.2" fill="#F4EFE3" opacity="0.03"></circle><circle cx="120" cy="687" r="0.7" fill="#F4EFE3" opacity="0.02"></circle><circle cx="176" cy="580" r="0.6" fill="#F4EFE3" opacity="0.04"></circle><circle cx="783" cy="500" r="0.7" fill="#F4EFE3" opacity="0.05"></circle><circle cx="26" cy="425" r="0.8" fill="#F4EFE3" opacity="0.03"></circle><circle cx="120" cy="990" r="0.9" fill="#F4EFE3" opacity="0.03"></circle><circle cx="666" cy="899" r="0.4" fill="#F4EFE3" opacity="0.02"></circle><circle cx="161" cy="791" r="0.6" fill="#F4EFE3" opacity="0.06"></circle><circle cx="746" cy="599" r="0.6" fill="#F4EFE3" opacity="0.08"></circle><circle cx="878" cy="568" r="0.6" fill="#F4EFE3" opacity="0.06"></circle><circle cx="434" cy="633" r="0.7" fill="#F4EFE3" opacity="0.06"></circle><circle cx="65" cy="328" r="1.4" fill="#F4EFE3" opacity="0.07"></circle><circle cx="337" cy="944" r="0.7" fill="#F4EFE3" opacity="0.08"></circle><circle cx="818" cy="458" r="0.7" fill="#F4EFE3" opacity="0.02"></circle><circle cx="967" cy="42" r="1.2" fill="#F4EFE3" opacity="0.08"></circle><circle cx="627" cy="189" r="1.3" fill="#F4EFE3" opacity="0.08"></circle><circle cx="774" cy="560" r="0.8" fill="#F4EFE3" opacity="0.04"></circle><circle cx="226" cy="742" r="0.8" fill="#F4EFE3" opacity="0.03"></circle><circle cx="115" cy="733" r="0.7" fill="#F4EFE3" opacity="0.05"></circle><circle cx="358" cy="959" r="1.3" fill="#F4EFE3" opacity="0.02"></circle><circle cx="221" cy="361" r="1.4" fill="#F4EFE3" opacity="0.07"></circle><circle cx="373" cy="234" r="1.1" fill="#F4EFE3" opacity="0.07"></circle><circle cx="1025" cy="378" r="1.3" fill="#F4EFE3" opacity="0.06"></circle><circle cx="533" cy="1084" r="0.6" fill="#F4EFE3" opacity="0.06"></circle><circle cx="93" cy="187" r="1.3" fill="#F4EFE3" opacity="0.03"></circle><circle cx="835" cy="660" r="1.2" fill="#F4EFE3" opacity="0.04"></circle><circle cx="374" cy="320" r="1.3" fill="#F4EFE3" opacity="0.06"></circle><circle cx="1050" cy="976" r="0.5" fill="#F4EFE3" opacity="0.05"></circle><circle cx="115" cy="43" r="0.5" fill="#F4EFE3" opacity="0.07"></circle><circle cx="867" cy="911" r="0.7" fill="#F4EFE3" opacity="0.06"></circle><circle cx="860" cy="416" r="1.0" fill="#F4EFE3" opacity="0.03"></circle><circle cx="90" cy="293" r="1.3" fill="#F4EFE3" opacity="0.05"></circle><circle cx="1018" cy="504" r="0.7" fill="#F4EFE3" opacity="0.07"></circle><circle cx="911" cy="14" r="1.1" fill="#F4EFE3" opacity="0.03"></circle><circle cx="127" cy="974" r="0.4" fill="#F4EFE3" opacity="0.03"></circle><circle cx="1087" cy="463" r="0.5" fill="#F4EFE3" opacity="0.03"></circle><circle cx="266" cy="818" r="0.5" fill="#F4EFE3" opacity="0.07"></circle><circle cx="416" cy="1067" r="1.3" fill="#F4EFE3" opacity="0.04"></circle><circle cx="279" cy="525" r="0.5" fill="#F4EFE3" opacity="0.06"></circle><circle cx="44" cy="12" r="1.4" fill="#F4EFE3" opacity="0.04"></circle><circle cx="656" cy="495" r="0.7" fill="#F4EFE3" opacity="0.02"></circle><circle cx="1005" cy="1067" r="1.4" fill="#F4EFE3" opacity="0.03"></circle><circle cx="237" cy="680" r="1.4" fill="#F4EFE3" opacity="0.05"></circle><circle cx="757" cy="728" r="0.7" fill="#F4EFE3" opacity="0.05"></circle><circle cx="338" cy="271" r="0.5" fill="#F4EFE3" opacity="0.04"></circle><circle cx="1082" cy="493" r="1.1" fill="#F4EFE3" opacity="0.06"></circle><circle cx="1035" cy="430" r="0.7" fill="#F4EFE3" opacity="0.04"></circle><circle cx="348" cy="932" r="1.3" fill="#F4EFE3" opacity="0.04"></circle><circle cx="368" cy="599" r="1.0" fill="#F4EFE3" opacity="0.06"></circle><circle cx="270" cy="22" r="0.6" fill="#F4EFE3" opacity="0.02"></circle><circle cx="606" cy="78" r="0.5" fill="#F4EFE3" opacity="0.06"></circle><circle cx="320" cy="871" r="0.9" fill="#F4EFE3" opacity="0.07"></circle><circle cx="170" cy="552" r="1.2" fill="#F4EFE3" opacity="0.02"></circle><circle cx="1044" cy="191" r="1.2" fill="#F4EFE3" opacity="0.08"></circle><circle cx="904" cy="352" r="0.5" fill="#F4EFE3" opacity="0.05"></circle><circle cx="1011" cy="323" r="1.3" fill="#F4EFE3" opacity="0.03"></circle><circle cx="1002" cy="35" r="0.7" fill="#F4EFE3" opacity="0.07"></circle><circle cx="884" cy="998" r="1.2" fill="#F4EFE3" opacity="0.06"></circle><circle cx="759" cy="196" r="0.8" fill="#F4EFE3" opacity="0.03"></circle>
<rect x="40" y="40" width="1020" height="1020" fill="none" stroke="#E6A532" stroke-opacity="0.18" stroke-width="2"></rect>
<g opacity="0.2" fill="none" stroke="#F4EFE3" stroke-width="4.5" stroke-linejoin="round" stroke-linecap="round"><rect x="460" y="417" width="180" height="135" rx="16"></rect><circle cx="550" cy="486" r="40"></circle><rect x="500" y="394" width="99" height="31" rx="7"></rect></g>
<text x="550.0" y="620.0" font-family="Oswald, Arial, sans-serif" font-size="46" font-weight="600" letter-spacing="6" fill="#F4EFE3" fill-opacity="0.82" text-anchor="middle">AWARD-WINNING WINGS</text>
<text x="550.0" y="668.0" font-family="Manrope, Arial, sans-serif" font-size="22" letter-spacing="3" fill="#E6A532" fill-opacity="0.9" text-anchor="middle">THE JUG HANDLE</text>
</svg>