<svg xmlns="http://www.w3.org/2000/svg" viewBox="0 0 1100 1100" preserveAspectRatio="xMidYMid slice" role="img" aria-label="Quesadillas">
<defs>
<linearGradient id="g" x1="0" y1="0" x2="1" y2="1">
<stop offset="0" stop-color="#2A1F16"></stop><stop offset="1" stop-color="#0C0B0A"></stop>
</linearGradient>
<radialGradient id="v" cx="50%" cy="42%" r="75%">
<stop offset="0" stop-color="#E6A532" stop-opacity="0.16"></stop>
<stop offset="0.55" stop-color="#E6A532" stop-opacity="0"></stop>
</radialGradient>
</defs>
<rect width="1100" height="1100" fill="url(#g)"></rect>
<rect width="1100" height="1100" fill="url(#v)"></rect>
<circle cx="685" cy="816" r="1.2" fill="#F4EFE3" opacity="0.08"></circle><circle cx="814" cy="1015" r="0.4" fill="#F4EFE3" opacity="0.05"></circle><circle cx="1038" cy="714" r="1.3" fill="#F4EFE3" opacity="0.03"></circle><circle cx="516" cy="271" r="0.9" fill="#F4EFE3" opacity="0.05"></circle><circle cx="14" cy="238" r="0.7" fill="#F4EFE3" opacity="0.07"></circle><circle cx="842" cy="176" r="1.2" fill="#F4EFE3" opacity="0.03"></circle><circle cx="679" cy="139" r="0.4" fill="#F4EFE3" opacity="0.07"></circle><circle cx="230" cy="237" r="1.4" fill="#F4EFE3" opacity="0.07"></circle><circle cx="318" cy="1058" r="0.9" fill="#F4EFE3" opacity="0.06"></circle><circle cx="225" cy="1035" r="1.1" fill="#F4EFE3" opacity="0.08"></circle><circle cx="983" cy="329" r="0.8" fill="#F4EFE3" opacity="0.03"></circle><circle cx="160" cy="72" r="0.7" fill="#F4EFE3" opacity="0.06"></circle><circle cx="4" cy="746" r="0.7" fill="#F4EFE3" opacity="0.04"></circle><circle cx="900" cy="529" r="0.7" fill="#F4EFE3" opacity="0.05"></circle><circle cx="775" cy="63" r="1.4" fill="#F4EFE3" opacity="0.02"></circle><circle cx="825" cy="929" r="0.4" fill="#F4EFE3" opacity="0.07"></circle><circle cx="403" cy="636" r="0.4" fill="#F4EFE3" opacity="0.02"></circle><circle cx="199" cy="1051" r="0.6" fill="#F4EFE3" opacity="0.07"></circle><circle cx="1023" cy="1036" r="0.7" fill="#F4EFE3" opacity="0.04"></circle><circle cx="577" cy="853" r="0.5" fill="#F4EFE3" opacity="0.06"></circle><circle cx="877" cy="946" r="0.4" fill="#F4EFE3" opacity="0.08"></circle><circle cx="100" cy="375" r="1.0" fill="#F4EFE3" opacity="0.08"></circle><circle cx="374" cy="1017" r="0.9" fill="#F4EFE3" opacity="0.04"></circle><circle cx="348" cy="195" r="0.5" fill="#F4EFE3" opacity="0.03"></circle><circle cx="758" cy="1096" r="0.6" fill="#F4EFE3" opacity="0.02"></circle><circle cx="1085" cy="587" r="0.8" fill="#F4EFE3" opacity="0.03"></circle><circle cx="653" cy="909" r="0.9" fill="#F4EFE3" opacity="0.05"></circle><circle cx="61" cy="1008" r="0.4" fill="#F4EFE3" opacity="0.05"></circle><circle cx="922" cy="144" r="1.1" fill="#F4EFE3" opacity="0.08"></circle><circle cx="693" cy="867" r="0.5" fill="#F4EFE3" opacity="0.05"></circle><circle cx="164" cy="929" r="0.7" fill="#F4EFE3" opacity="0.05"></circle><circle cx="1099" cy="937" r="1.4" fill="#F4EFE3" opacity="0.05"></circle><circle cx="537" cy="802" r="0.9" fill="#F4EFE3" opacity="0.04"></circle><circle cx="444" cy="161" r="0.8" fill="#F4EFE3" opacity="0.08"></circle><circle cx="1056" cy="690" r="0.9" fill="#F4EFE3" opacity="0.04"></circle><circle cx="98" cy="300" r="1.2" fill="#F4EFE3" opacity="0.07"></circle><circle cx="397" cy="865" r="1.2" fill="#F4EFE3" opacity="0.06"></circle><circle cx="730" cy="836" r="0.8" fill="#F4EFE3" opacity="0.06"></circle><circle cx="309" cy="534" r="1.2" fill="#F4EFE3" opacity="0.06"></circle><circle cx="323" cy="1040" r="1.0" fill="#F4EFE3" opacity="0.05"></circle><circle cx="13" cy="602" r="0.7" fill="#F4EFE3" opacity="0.06"></circle><circle cx="509" cy="898" r="1.0" fill="#F4EFE3" opacity="0.07"></circle><circle cx="383" cy="708" r="1.1" fill="#F4EFE3" opacity="0.07"></circle><circle cx="385" cy="927" r="1.3" fill="#F4EFE3" opacity="0.06"></circle><circle cx="1074" cy="1052" r="0.9" fill="#F4EFE3" opacity="0.05"></circle><circle cx="183" cy="920" r="1.3" fill="#F4EFE3" opacity="0.05"></circle><circle cx="761" cy="792" r="1.1" fill="#F4EFE3" opacity="0.03"></circle><circle cx="858" cy="639" r="1.1" fill="#F4EFE3" opacity="0.05"></circle><circle cx="686" cy="852" r="1.0" fill="#F4EFE3" opacity="0.06"></circle><circle cx="30" cy="176" r="0.8" fill="#F4EFE3" opacity="0.06"></circle><circle cx="241" cy="755" r="1.0" fill="#F4EFE3" opacity="0.02"></circle><circle cx="519" cy="249" r="0.5" fill="#F4EFE3" opacity="0.03"></circle><circle cx="349" cy="200" r="0.6" fill="#F4EFE3" opacity="0.02"></circle><circle cx="512" cy="418" r="1.0" fill="#F4EFE3" opacity="0.06"></circle><circle cx="262" cy="994" r="0.4" fill="#F4EFE3" opacity="0.04"></circle><circle cx="306" cy="451" r="0.5" fill="#F4EFE3" opacity="0.07"></circle><circle cx="411" cy="40" r="1.0" fill="#F4EFE3" opacity="0.03"></circle><circle cx="600" cy="373" r="1.0" fill="#F4EFE3" opacity="0.08"></circle><circle cx="900" cy="461" r="1.2" fill="#F4EFE3" opacity="0.06"></circle><circle cx="406" cy="156" r="1.0" fill="#F4EFE3" opacity="0.05"></circle><circle cx="1053" cy="1065" r="1.0" fill="#F4EFE3" opacity="0.04"></circle><circle cx="983" cy="1" r="0.5" fill="#F4EFE3" opacity="0.05"></circle><circle cx="677" cy="155" r="1.0" fill="#F4EFE3" opacity="0.07"></circle><circle cx="413" cy="475" r="0.6" fill="#F4EFE3" opacity="0.04"></circle><circle cx="1070" cy="418" r="1.4" fill="#F4EFE3" opacity="0.07"></circle><circle cx="655" cy="286" r="1.4" fill="#F4EFE3" opacity="0.05"></circle><circle cx="457" cy="351" r="1.4" fill="#F4EFE3" opacity="0.05"></circle><circle cx="315" cy="525" r="0.5" fill="#F4EFE3" opacity="0.06"></circle><circle cx="488" cy="322" r="1.2" fill="#F4EFE3" opacity="0.07"></circle><circle cx="15" cy="586" r="0.7" fill="#F4EFE3" opacity="0.08"></circle><circle cx="860" cy="270" r="0.7" fill="#F4EFE3" opacity="0.03"></circle><circle cx="1088" cy="323" r="1.0" fill="#F4EFE3" opacity="0.05"></circle><circle cx="709" cy="664" r="1.1" fill="#F4EFE3" opacity="0.03"></circle><circle cx="836" cy="331" r="0.9" fill="#F4EFE3" opacity="0.04"></circle><circle cx="327" cy="583" r="0.9" fill="#F4EFE3" opacity="0.04"></circle><circle cx="820" cy="650" r="0.4" fill="#F4EFE3" opacity="0.04"></circle><circle cx="501" cy="1008" r="1.3" fill="#F4EFE3" opacity="0.05"></circle><circle cx="16" cy="856" r="0.8" fill="#F4EFE3" opacity="0.05"></circle><circle cx="779" cy="695" r="0.9" fill="#F4EFE3" opacity="0.07"></circle><circle cx="424" cy="431" r="1.3" fill="#F4EFE3" opacity="0.03"></circle><circle cx="326" cy="913" r="0.5" fill="#F4EFE3" opacity="0.07"></circle><circle cx="764" cy="476" r="0.7" fill="#F4EFE3" opacity="0.07"></circle><circle cx="1002" cy="157" r="0.9" fill="#F4EFE3" opacity="0.05"></circle><circle cx="547" cy="364" r="0.6" fill="#F4EFE3" opacity="0.06"></circle><circle cx="893" cy="75" r="0.6" fill="#F4EFE3" opacity="0.07"></circle><circle cx="871" cy="730" r="0.4" fill="#F4EFE3" opacity="0.06"></circle><circle cx="1077" cy="1098" r="1.1" fill="#F4EFE3" opacity="0.02"></circle><circle cx="926" cy="241" r="1.0" fill="#F4EFE3" opacity="0.08"></circle><circle cx="784" cy="148" r="0.7" fill="#F4EFE3" opacity="0.08"></circle><circle cx="165" cy="672" r="0.8" fill="#F4EFE3" opacity="0.03"></circle>
<rect x="40" y="40" width="1020" height="1020" fill="none" stroke="#E6A532" stroke-opacity="0.18" stroke-width="2"></rect>
<g opacity="0.2" fill="none" stroke="#F4EFE3" stroke-width="4.5" stroke-linejoin="round" stroke-linecap="round"><rect x="460" y="417" width="180" height="135" rx="16"></rect><circle cx="550" cy="486" r="40"></circle><rect x="500" y="394" width="99" height="31" rx="7"></rect></g>
<text x="550.0" y="620.0" font-family="Oswald, Arial, sans-serif" font-size="46" font-weight="600" letter-spacing="6" fill="#F4EFE3" fill-opacity="0.82" text-anchor="middle">QUESADILLAS</text>
<text x="550.0" y="668.0" font-family="Manrope, Arial, sans-serif" font-size="22" letter-spacing="3" fill="#E6A532" fill-opacity="0.9" text-anchor="middle">THE JUG HANDLE</text>
</svg>