<svg xmlns="http://www.w3.org/2000/svg" viewBox="0 0 1100 1100" preserveAspectRatio="xMidYMid slice" role="img" aria-label="Friends">
<defs>
<linearGradient id="g" x1="0" y1="0" x2="1" y2="1">
<stop offset="0" stop-color="#1C1611"></stop><stop offset="1" stop-color="#0C0B0A"></stop>
</linearGradient>
<radialGradient id="v" cx="50%" cy="42%" r="75%">
<stop offset="0" stop-color="#D32027" stop-opacity="0.16"></stop>
<stop offset="0.55" stop-color="#D32027" stop-opacity="0"></stop>
</radialGradient>
</defs>
<rect width="1100" height="1100" fill="url(#g)"></rect>
<rect width="1100" height="1100" fill="url(#v)"></rect>
<circle cx="639" cy="226" r="1.0" fill="#F4EFE3" opacity="0.08"></circle><circle cx="45" cy="494" r="0.8" fill="#F4EFE3" opacity="0.04"></circle><circle cx="965" cy="1063" r="1.2" fill="#F4EFE3" opacity="0.05"></circle><circle cx="959" cy="115" r="0.9" fill="#F4EFE3" opacity="0.05"></circle><circle cx="81" cy="609" r="0.8" fill="#F4EFE3" opacity="0.04"></circle><circle cx="111" cy="734" r="0.5" fill="#F4EFE3" opacity="0.02"></circle><circle cx="955" cy="341" r="1.0" fill="#F4EFE3" opacity="0.06"></circle><circle cx="837" cy="1005" r="0.6" fill="#F4EFE3" opacity="0.05"></circle><circle cx="143" cy="791" r="0.6" fill="#F4EFE3" opacity="0.04"></circle><circle cx="276" cy="791" r="0.9" fill="#F4EFE3" opacity="0.07"></circle><circle cx="648" cy="646" r="1.1" fill="#F4EFE3" opacity="0.04"></circle><circle cx="440" cy="314" r="0.6" fill="#F4EFE3" opacity="0.07"></circle><circle cx="671" cy="500" r="1.0" fill="#F4EFE3" opacity="0.03"></circle><circle cx="968" cy="542" r="0.7" fill="#F4EFE3" opacity="0.06"></circle><circle cx="535" cy="775" r="0.5" fill="#F4EFE3" opacity="0.08"></circle><circle cx="970" cy="141" r="0.9" fill="#F4EFE3" opacity="0.02"></circle><circle cx="65" cy="227" r="0.5" fill="#F4EFE3" opacity="0.08"></circle><circle cx="539" cy="608" r="1.1" fill="#F4EFE3" opacity="0.04"></circle><circle cx="533" cy="774" r="1.0" fill="#F4EFE3" opacity="0.04"></circle><circle cx="66" cy="983" r="1.4" fill="#F4EFE3" opacity="0.08"></circle><circle cx="143" cy="224" r="0.6" fill="#F4EFE3" opacity="0.07"></circle><circle cx="454" cy="818" r="1.2" fill="#F4EFE3" opacity="0.05"></circle><circle cx="223" cy="1094" r="1.0" fill="#F4EFE3" opacity="0.07"></circle><circle cx="48" cy="628" r="1.2" fill="#F4EFE3" opacity="0.04"></circle><circle cx="461" cy="935" r="0.9" fill="#F4EFE3" opacity="0.06"></circle><circle cx="402" cy="59" r="0.9" fill="#F4EFE3" opacity="0.06"></circle><circle cx="792" cy="440" r="1.2" fill="#F4EFE3" opacity="0.07"></circle><circle cx="91" cy="134" r="1.2" fill="#F4EFE3" opacity="0.07"></circle><circle cx="868" cy="141" r="1.3" fill="#F4EFE3" opacity="0.03"></circle><circle cx="183" cy="702" r="1.1" fill="#F4EFE3" opacity="0.02"></circle><circle cx="769" cy="120" r="0.8" fill="#F4EFE3" opacity="0.03"></circle><circle cx="848" cy="507" r="0.5" fill="#F4EFE3" opacity="0.07"></circle><circle cx="425" cy="980" r="0.6" fill="#F4EFE3" opacity="0.03"></circle><circle cx="337" cy="464" r="0.4" fill="#F4EFE3" opacity="0.06"></circle><circle cx="878" cy="636" r="0.9" fill="#F4EFE3" opacity="0.07"></circle><circle cx="402" cy="142" r="0.6" fill="#F4EFE3" opacity="0.07"></circle><circle cx="141" cy="454" r="0.7" fill="#F4EFE3" opacity="0.07"></circle><circle cx="700" cy="482" r="0.7" fill="#F4EFE3" opacity="0.04"></circle><circle cx="97" cy="445" r="1.0" fill="#F4EFE3" opacity="0.06"></circle><circle cx="347" cy="167" r="0.8" fill="#F4EFE3" opacity="0.08"></circle><circle cx="809" cy="1094" r="1.0" fill="#F4EFE3" opacity="0.05"></circle><circle cx="996" cy="220" r="0.6" fill="#F4EFE3" opacity="0.03"></circle><circle cx="245" cy="144" r="1.3" fill="#F4EFE3" opacity="0.05"></circle><circle cx="550" cy="518" r="0.5" fill="#F4EFE3" opacity="0.03"></circle><circle cx="34" cy="939" r="0.5" fill="#F4EFE3" opacity="0.04"></circle><circle cx="1090" cy="888" r="1.2" fill="#F4EFE3" opacity="0.03"></circle><circle cx="512" cy="1071" r="1.0" fill="#F4EFE3" opacity="0.07"></circle><circle cx="455" cy="509" r="1.3" fill="#F4EFE3" opacity="0.06"></circle><circle cx="122" cy="991" r="0.7" fill="#F4EFE3" opacity="0.02"></circle><circle cx="831" cy="894" r="0.5" fill="#F4EFE3" opacity="0.05"></circle><circle cx="295" cy="380" r="1.2" fill="#F4EFE3" opacity="0.03"></circle><circle cx="995" cy="574" r="0.9" fill="#F4EFE3" opacity="0.05"></circle><circle cx="656" cy="207" r="0.6" fill="#F4EFE3" opacity="0.05"></circle><circle cx="517" cy="1024" r="0.4" fill="#F4EFE3" opacity="0.05"></circle><circle cx="881" cy="992" r="0.6" fill="#F4EFE3" opacity="0.05"></circle><circle cx="568" cy="1089" r="0.8" fill="#F4EFE3" opacity="0.04"></circle><circle cx="359" cy="794" r="0.9" fill="#F4EFE3" opacity="0.07"></circle><circle cx="873" cy="439" r="1.4" fill="#F4EFE3" opacity="0.06"></circle><circle cx="1094" cy="341" r="0.7" fill="#F4EFE3" opacity="0.08"></circle><circle cx="611" cy="189" r="0.9" fill="#F4EFE3" opacity="0.04"></circle><circle cx="523" cy="832" r="0.8" fill="#F4EFE3" opacity="0.07"></circle><circle cx="994" cy="277" r="0.6" fill="#F4EFE3" opacity="0.08"></circle><circle cx="158" cy="425" r="0.4" fill="#F4EFE3" opacity="0.05"></circle><circle cx="460" cy="202" r="0.5" fill="#F4EFE3" opacity="0.04"></circle><circle cx="740" cy="562" r="1.1" fill="#F4EFE3" opacity="0.03"></circle><circle cx="919" cy="736" r="0.6" fill="#F4EFE3" opacity="0.04"></circle><circle cx="888" cy="436" r="0.8" fill="#F4EFE3" opacity="0.06"></circle><circle cx="351" cy="441" r="0.8" fill="#F4EFE3" opacity="0.04"></circle><circle cx="237" cy="672" r="0.5" fill="#F4EFE3" opacity="0.02"></circle><circle cx="901" cy="1048" r="1.1" fill="#F4EFE3" opacity="0.08"></circle><circle cx="773" cy="777" r="1.2" fill="#F4EFE3" opacity="0.02"></circle><circle cx="67" cy="251" r="1.0" fill="#F4EFE3" opacity="0.05"></circle><circle cx="1080" cy="765" r="0.8" fill="#F4EFE3" opacity="0.02"></circle><circle cx="938" cy="133" r="1.1" fill="#F4EFE3" opacity="0.08"></circle><circle cx="846" cy="87" r="0.7" fill="#F4EFE3" opacity="0.04"></circle><circle cx="357" cy="248" r="1.3" fill="#F4EFE3" opacity="0.04"></circle><circle cx="493" cy="234" r="0.9" fill="#F4EFE3" opacity="0.03"></circle><circle cx="213" cy="1070" r="0.5" fill="#F4EFE3" opacity="0.06"></circle><circle cx="792" cy="690" r="0.5" fill="#F4EFE3" opacity="0.03"></circle><circle cx="862" cy="246" r="0.8" fill="#F4EFE3" opacity="0.06"></circle><circle cx="488" cy="354" r="0.9" fill="#F4EFE3" opacity="0.05"></circle><circle cx="414" cy="456" r="0.7" fill="#F4EFE3" opacity="0.05"></circle><circle cx="706" cy="498" r="0.9" fill="#F4EFE3" opacity="0.07"></circle><circle cx="698" cy="797" r="1.3" fill="#F4EFE3" opacity="0.06"></circle><circle cx="155" cy="223" r="0.9" fill="#F4EFE3" opacity="0.05"></circle><circle cx="266" cy="1007" r="1.3" fill="#F4EFE3" opacity="0.08"></circle><circle cx="11" cy="816" r="0.6" fill="#F4EFE3" opacity="0.05"></circle><circle cx="507" cy="629" r="1.3" fill="#F4EFE3" opacity="0.07"></circle><circle cx="791" cy="529" r="1.3" fill="#F4EFE3" opacity="0.07"></circle><circle cx="931" cy="279" r="0.9" fill="#F4EFE3" opacity="0.04"></circle>
<rect x="40" y="40" width="1020" height="1020" fill="none" stroke="#D32027" stroke-opacity="0.18" stroke-width="2"></rect>
<g opacity="0.2" fill="none" stroke="#F4EFE3" stroke-width="4.5" stroke-linejoin="round" stroke-linecap="round"><rect x="460" y="417" width="180" height="135" rx="16"></rect><circle cx="550" cy="486" r="40"></circle><rect x="500" y="394" width="99" height="31" rx="7"></rect></g>
<text x="550.0" y="620.0" font-family="Oswald, Arial, sans-serif" font-size="46" font-weight="600" letter-spacing="6" fill="#F4EFE3" fill-opacity="0.82" text-anchor="middle">FRIENDS</text>
<text x="550.0" y="668.0" font-family="Manrope, Arial, sans-serif" font-size="22" letter-spacing="3" fill="#D32027" fill-opacity="0.9" text-anchor="middle">THE JUG HANDLE</text>
</svg>