<svg xmlns="http://www.w3.org/2000/svg" viewBox="0 0 1100 1100" preserveAspectRatio="xMidYMid slice" role="img" aria-label="Burgers Up">
<defs>
<linearGradient id="g" x1="0" y1="0" x2="1" y2="1">
<stop offset="0" stop-color="#1C1611"></stop><stop offset="1" stop-color="#0C0B0A"></stop>
</linearGradient>
<radialGradient id="v" cx="50%" cy="42%" r="75%">
<stop offset="0" stop-color="#E6A532" stop-opacity="0.16"></stop>
<stop offset="0.55" stop-color="#E6A532" stop-opacity="0"></stop>
</radialGradient>
</defs>
<rect width="1100" height="1100" fill="url(#g)"></rect>
<rect width="1100" height="1100" fill="url(#v)"></rect>
<circle cx="1063" cy="616" r="0.9" fill="#F4EFE3" opacity="0.05"></circle><circle cx="844" cy="1087" r="0.8" fill="#F4EFE3" opacity="0.03"></circle><circle cx="412" cy="74" r="1.0" fill="#F4EFE3" opacity="0.08"></circle><circle cx="228" cy="835" r="0.6" fill="#F4EFE3" opacity="0.08"></circle><circle cx="613" cy="423" r="0.4" fill="#F4EFE3" opacity="0.03"></circle><circle cx="992" cy="205" r="1.0" fill="#F4EFE3" opacity="0.05"></circle><circle cx="489" cy="785" r="0.5" fill="#F4EFE3" opacity="0.06"></circle><circle cx="70" cy="236" r="1.1" fill="#F4EFE3" opacity="0.03"></circle><circle cx="149" cy="547" r="1.0" fill="#F4EFE3" opacity="0.02"></circle><circle cx="742" cy="642" r="0.4" fill="#F4EFE3" opacity="0.05"></circle><circle cx="1" cy="610" r="1.0" fill="#F4EFE3" opacity="0.04"></circle><circle cx="396" cy="872" r="0.6" fill="#F4EFE3" opacity="0.05"></circle><circle cx="549" cy="48" r="1.3" fill="#F4EFE3" opacity="0.03"></circle><circle cx="870" cy="514" r="0.4" fill="#F4EFE3" opacity="0.04"></circle><circle cx="641" cy="507" r="1.3" fill="#F4EFE3" opacity="0.02"></circle><circle cx="912" cy="949" r="0.6" fill="#F4EFE3" opacity="0.05"></circle><circle cx="54" cy="637" r="1.1" fill="#F4EFE3" opacity="0.04"></circle><circle cx="865" cy="268" r="0.5" fill="#F4EFE3" opacity="0.05"></circle><circle cx="820" cy="331" r="0.6" fill="#F4EFE3" opacity="0.06"></circle><circle cx="736" cy="146" r="0.6" fill="#F4EFE3" opacity="0.06"></circle><circle cx="870" cy="158" r="1.0" fill="#F4EFE3" opacity="0.06"></circle><circle cx="45" cy="750" r="0.9" fill="#F4EFE3" opacity="0.03"></circle><circle cx="148" cy="282" r="1.1" fill="#F4EFE3" opacity="0.03"></circle><circle cx="640" cy="954" r="1.0" fill="#F4EFE3" opacity="0.06"></circle><circle cx="127" cy="1055" r="1.3" fill="#F4EFE3" opacity="0.07"></circle><circle cx="256" cy="650" r="1.2" fill="#F4EFE3" opacity="0.03"></circle><circle cx="145" cy="990" r="1.0" fill="#F4EFE3" opacity="0.08"></circle><circle cx="462" cy="1032" r="1.1" fill="#F4EFE3" opacity="0.03"></circle><circle cx="262" cy="1029" r="0.5" fill="#F4EFE3" opacity="0.08"></circle><circle cx="707" cy="1033" r="0.6" fill="#F4EFE3" opacity="0.02"></circle><circle cx="1027" cy="590" r="0.7" fill="#F4EFE3" opacity="0.06"></circle><circle cx="157" cy="769" r="1.0" fill="#F4EFE3" opacity="0.06"></circle><circle cx="414" cy="443" r="0.6" fill="#F4EFE3" opacity="0.02"></circle><circle cx="563" cy="362" r="0.8" fill="#F4EFE3" opacity="0.03"></circle><circle cx="840" cy="633" r="0.5" fill="#F4EFE3" opacity="0.05"></circle><circle cx="473" cy="919" r="0.8" fill="#F4EFE3" opacity="0.04"></circle><circle cx="585" cy="929" r="0.4" fill="#F4EFE3" opacity="0.08"></circle><circle cx="91" cy="31" r="0.7" fill="#F4EFE3" opacity="0.06"></circle><circle cx="982" cy="449" r="0.5" fill="#F4EFE3" opacity="0.04"></circle><circle cx="351" cy="586" r="0.5" fill="#F4EFE3" opacity="0.06"></circle><circle cx="940" cy="281" r="0.9" fill="#F4EFE3" opacity="0.08"></circle><circle cx="244" cy="8" r="1.1" fill="#F4EFE3" opacity="0.05"></circle><circle cx="468" cy="268" r="1.0" fill="#F4EFE3" opacity="0.07"></circle><circle cx="865" cy="389" r="0.6" fill="#F4EFE3" opacity="0.05"></circle><circle cx="1030" cy="617" r="1.0" fill="#F4EFE3" opacity="0.06"></circle><circle cx="1004" cy="1087" r="0.6" fill="#F4EFE3" opacity="0.06"></circle><circle cx="775" cy="518" r="1.1" fill="#F4EFE3" opacity="0.03"></circle><circle cx="518" cy="137" r="0.4" fill="#F4EFE3" opacity="0.06"></circle><circle cx="1070" cy="531" r="1.0" fill="#F4EFE3" opacity="0.05"></circle><circle cx="246" cy="327" r="1.0" fill="#F4EFE3" opacity="0.05"></circle><circle cx="55" cy="538" r="0.9" fill="#F4EFE3" opacity="0.06"></circle><circle cx="132" cy="988" r="0.9" fill="#F4EFE3" opacity="0.07"></circle><circle cx="813" cy="301" r="0.6" fill="#F4EFE3" opacity="0.04"></circle><circle cx="828" cy="262" r="1.3" fill="#F4EFE3" opacity="0.06"></circle><circle cx="689" cy="432" r="0.9" fill="#F4EFE3" opacity="0.07"></circle><circle cx="534" cy="947" r="1.4" fill="#F4EFE3" opacity="0.05"></circle><circle cx="934" cy="185" r="0.5" fill="#F4EFE3" opacity="0.04"></circle><circle cx="1002" cy="83" r="0.7" fill="#F4EFE3" opacity="0.07"></circle><circle cx="208" cy="125" r="0.7" fill="#F4EFE3" opacity="0.04"></circle><circle cx="571" cy="601" r="0.8" fill="#F4EFE3" opacity="0.08"></circle><circle cx="780" cy="882" r="1.2" fill="#F4EFE3" opacity="0.05"></circle><circle cx="832" cy="848" r="1.3" fill="#F4EFE3" opacity="0.07"></circle><circle cx="797" cy="1080" r="1.0" fill="#F4EFE3" opacity="0.03"></circle><circle cx="275" cy="1062" r="0.6" fill="#F4EFE3" opacity="0.07"></circle><circle cx="371" cy="458" r="0.4" fill="#F4EFE3" opacity="0.05"></circle><circle cx="926" cy="840" r="0.4" fill="#F4EFE3" opacity="0.06"></circle><circle cx="886" cy="327" r="0.5" fill="#F4EFE3" opacity="0.03"></circle><circle cx="640" cy="245" r="0.8" fill="#F4EFE3" opacity="0.08"></circle><circle cx="660" cy="578" r="0.7" fill="#F4EFE3" opacity="0.06"></circle><circle cx="846" cy="475" r="1.2" fill="#F4EFE3" opacity="0.02"></circle><circle cx="196" cy="704" r="0.5" fill="#F4EFE3" opacity="0.07"></circle><circle cx="342" cy="967" r="0.4" fill="#F4EFE3" opacity="0.03"></circle><circle cx="812" cy="474" r="1.0" fill="#F4EFE3" opacity="0.03"></circle><circle cx="684" cy="997" r="0.5" fill="#F4EFE3" opacity="0.07"></circle><circle cx="1094" cy="816" r="1.2" fill="#F4EFE3" opacity="0.05"></circle><circle cx="951" cy="761" r="0.7" fill="#F4EFE3" opacity="0.06"></circle><circle cx="548" cy="892" r="1.0" fill="#F4EFE3" opacity="0.07"></circle><circle cx="50" cy="787" r="0.5" fill="#F4EFE3" opacity="0.02"></circle><circle cx="609" cy="456" r="0.6" fill="#F4EFE3" opacity="0.06"></circle><circle cx="994" cy="668" r="0.5" fill="#F4EFE3" opacity="0.06"></circle><circle cx="1069" cy="125" r="0.4" fill="#F4EFE3" opacity="0.04"></circle><circle cx="280" cy="51" r="0.8" fill="#F4EFE3" opacity="0.03"></circle><circle cx="129" cy="759" r="0.8" fill="#F4EFE3" opacity="0.06"></circle><circle cx="32" cy="806" r="1.1" fill="#F4EFE3" opacity="0.07"></circle><circle cx="961" cy="1043" r="0.7" fill="#F4EFE3" opacity="0.08"></circle><circle cx="1100" cy="441" r="1.4" fill="#F4EFE3" opacity="0.05"></circle><circle cx="492" cy="160" r="0.7" fill="#F4EFE3" opacity="0.07"></circle><circle cx="1096" cy="34" r="0.7" fill="#F4EFE3" opacity="0.06"></circle><circle cx="270" cy="539" r="1.2" fill="#F4EFE3" opacity="0.05"></circle><circle cx="937" cy="221" r="0.9" fill="#F4EFE3" opacity="0.08"></circle>
<rect x="40" y="40" width="1020" height="1020" fill="none" stroke="#E6A532" stroke-opacity="0.18" stroke-width="2"></rect>
<g opacity="0.2" fill="none" stroke="#F4EFE3" stroke-width="4.5" stroke-linejoin="round" stroke-linecap="round"><rect x="460" y="417" width="180" height="135" rx="16"></rect><circle cx="550" cy="486" r="40"></circle><rect x="500" y="394" width="99" height="31" rx="7"></rect></g>
<text x="550.0" y="620.0" font-family="Oswald, Arial, sans-serif" font-size="46" font-weight="600" letter-spacing="6" fill="#F4EFE3" fill-opacity="0.82" text-anchor="middle">BURGERS UP</text>
<text x="550.0" y="668.0" font-family="Manrope, Arial, sans-serif" font-size="22" letter-spacing="3" fill="#E6A532" fill-opacity="0.9" text-anchor="middle">THE JUG HANDLE</text>
</svg>