<svg xmlns="http://www.w3.org/2000/svg" viewBox="0 0 1100 1100" preserveAspectRatio="xMidYMid slice" role="img" aria-label="Wing Night">
<defs>
<linearGradient id="g" x1="0" y1="0" x2="1" y2="1">
<stop offset="0" stop-color="#1C1611"></stop><stop offset="1" stop-color="#0C0B0A"></stop>
</linearGradient>
<radialGradient id="v" cx="50%" cy="42%" r="75%">
<stop offset="0" stop-color="#D32027" stop-opacity="0.16"></stop>
<stop offset="0.55" stop-color="#D32027" stop-opacity="0"></stop>
</radialGradient>
</defs>
<rect width="1100" height="1100" fill="url(#g)"></rect>
<rect width="1100" height="1100" fill="url(#v)"></rect>
<circle cx="1076" cy="60" r="1.1" fill="#F4EFE3" opacity="0.05"></circle><circle cx="1036" cy="448" r="1.3" fill="#F4EFE3" opacity="0.03"></circle><circle cx="1094" cy="454" r="0.6" fill="#F4EFE3" opacity="0.04"></circle><circle cx="694" cy="38" r="0.8" fill="#F4EFE3" opacity="0.02"></circle><circle cx="76" cy="187" r="0.6" fill="#F4EFE3" opacity="0.04"></circle><circle cx="856" cy="458" r="1.3" fill="#F4EFE3" opacity="0.07"></circle><circle cx="985" cy="1042" r="1.0" fill="#F4EFE3" opacity="0.06"></circle><circle cx="970" cy="598" r="0.5" fill="#F4EFE3" opacity="0.05"></circle><circle cx="583" cy="198" r="0.5" fill="#F4EFE3" opacity="0.03"></circle><circle cx="767" cy="894" r="1.1" fill="#F4EFE3" opacity="0.05"></circle><circle cx="31" cy="5" r="1.1" fill="#F4EFE3" opacity="0.05"></circle><circle cx="502" cy="189" r="0.5" fill="#F4EFE3" opacity="0.03"></circle><circle cx="141" cy="659" r="0.7" fill="#F4EFE3" opacity="0.05"></circle><circle cx="472" cy="603" r="1.1" fill="#F4EFE3" opacity="0.07"></circle><circle cx="165" cy="1056" r="1.3" fill="#F4EFE3" opacity="0.07"></circle><circle cx="498" cy="1047" r="1.2" fill="#F4EFE3" opacity="0.03"></circle><circle cx="756" cy="934" r="1.2" fill="#F4EFE3" opacity="0.07"></circle><circle cx="582" cy="738" r="0.5" fill="#F4EFE3" opacity="0.06"></circle><circle cx="161" cy="797" r="1.3" fill="#F4EFE3" opacity="0.04"></circle><circle cx="77" cy="48" r="0.9" fill="#F4EFE3" opacity="0.03"></circle><circle cx="813" cy="671" r="0.9" fill="#F4EFE3" opacity="0.06"></circle><circle cx="166" cy="504" r="0.4" fill="#F4EFE3" opacity="0.05"></circle><circle cx="873" cy="170" r="1.1" fill="#F4EFE3" opacity="0.08"></circle><circle cx="356" cy="229" r="0.7" fill="#F4EFE3" opacity="0.07"></circle><circle cx="89" cy="854" r="0.7" fill="#F4EFE3" opacity="0.07"></circle><circle cx="976" cy="932" r="0.6" fill="#F4EFE3" opacity="0.05"></circle><circle cx="348" cy="963" r="0.7" fill="#F4EFE3" opacity="0.03"></circle><circle cx="447" cy="95" r="0.6" fill="#F4EFE3" opacity="0.06"></circle><circle cx="359" cy="203" r="1.3" fill="#F4EFE3" opacity="0.04"></circle><circle cx="875" cy="753" r="1.0" fill="#F4EFE3" opacity="0.06"></circle><circle cx="639" cy="925" r="1.1" fill="#F4EFE3" opacity="0.04"></circle><circle cx="721" cy="558" r="1.3" fill="#F4EFE3" opacity="0.03"></circle><circle cx="497" cy="1063" r="0.5" fill="#F4EFE3" opacity="0.06"></circle><circle cx="990" cy="670" r="0.5" fill="#F4EFE3" opacity="0.07"></circle><circle cx="290" cy="570" r="1.2" fill="#F4EFE3" opacity="0.04"></circle><circle cx="268" cy="128" r="0.7" fill="#F4EFE3" opacity="0.03"></circle><circle cx="764" cy="913" r="0.5" fill="#F4EFE3" opacity="0.05"></circle><circle cx="871" cy="856" r="0.7" fill="#F4EFE3" opacity="0.05"></circle><circle cx="751" cy="572" r="1.4" fill="#F4EFE3" opacity="0.07"></circle><circle cx="1062" cy="138" r="0.4" fill="#F4EFE3" opacity="0.06"></circle><circle cx="637" cy="292" r="0.6" fill="#F4EFE3" opacity="0.07"></circle><circle cx="876" cy="15" r="0.5" fill="#F4EFE3" opacity="0.06"></circle><circle cx="465" cy="169" r="1.3" fill="#F4EFE3" opacity="0.04"></circle><circle cx="85" cy="453" r="0.8" fill="#F4EFE3" opacity="0.06"></circle><circle cx="842" cy="90" r="0.9" fill="#F4EFE3" opacity="0.07"></circle><circle cx="535" cy="977" r="1.3" fill="#F4EFE3" opacity="0.07"></circle><circle cx="716" cy="121" r="1.4" fill="#F4EFE3" opacity="0.04"></circle><circle cx="337" cy="554" r="0.9" fill="#F4EFE3" opacity="0.07"></circle><circle cx="594" cy="1013" r="1.2" fill="#F4EFE3" opacity="0.06"></circle><circle cx="302" cy="700" r="0.9" fill="#F4EFE3" opacity="0.07"></circle><circle cx="302" cy="872" r="1.1" fill="#F4EFE3" opacity="0.03"></circle><circle cx="1032" cy="534" r="0.8" fill="#F4EFE3" opacity="0.04"></circle><circle cx="426" cy="881" r="1.3" fill="#F4EFE3" opacity="0.05"></circle><circle cx="585" cy="516" r="0.5" fill="#F4EFE3" opacity="0.07"></circle><circle cx="462" cy="29" r="0.6" fill="#F4EFE3" opacity="0.04"></circle><circle cx="864" cy="196" r="0.6" fill="#F4EFE3" opacity="0.07"></circle><circle cx="336" cy="1024" r="0.4" fill="#F4EFE3" opacity="0.03"></circle><circle cx="231" cy="430" r="0.9" fill="#F4EFE3" opacity="0.04"></circle><circle cx="1060" cy="1039" r="1.0" fill="#F4EFE3" opacity="0.08"></circle><circle cx="948" cy="1073" r="1.0" fill="#F4EFE3" opacity="0.03"></circle><circle cx="624" cy="54" r="0.8" fill="#F4EFE3" opacity="0.08"></circle><circle cx="434" cy="754" r="1.4" fill="#F4EFE3" opacity="0.06"></circle><circle cx="421" cy="564" r="0.5" fill="#F4EFE3" opacity="0.07"></circle><circle cx="713" cy="357" r="0.8" fill="#F4EFE3" opacity="0.07"></circle><circle cx="54" cy="241" r="1.0" fill="#F4EFE3" opacity="0.07"></circle><circle cx="595" cy="694" r="0.4" fill="#F4EFE3" opacity="0.05"></circle><circle cx="611" cy="81" r="0.9" fill="#F4EFE3" opacity="0.04"></circle><circle cx="380" cy="870" r="1.2" fill="#F4EFE3" opacity="0.02"></circle><circle cx="95" cy="700" r="1.3" fill="#F4EFE3" opacity="0.06"></circle><circle cx="375" cy="819" r="1.3" fill="#F4EFE3" opacity="0.02"></circle><circle cx="40" cy="481" r="1.1" fill="#F4EFE3" opacity="0.05"></circle><circle cx="525" cy="175" r="0.6" fill="#F4EFE3" opacity="0.02"></circle><circle cx="512" cy="289" r="1.0" fill="#F4EFE3" opacity="0.05"></circle><circle cx="352" cy="840" r="0.7" fill="#F4EFE3" opacity="0.05"></circle><circle cx="502" cy="770" r="1.4" fill="#F4EFE3" opacity="0.06"></circle><circle cx="0" cy="827" r="0.9" fill="#F4EFE3" opacity="0.06"></circle><circle cx="36" cy="16" r="0.4" fill="#F4EFE3" opacity="0.03"></circle><circle cx="125" cy="781" r="1.2" fill="#F4EFE3" opacity="0.04"></circle><circle cx="237" cy="483" r="0.5" fill="#F4EFE3" opacity="0.03"></circle><circle cx="490" cy="985" r="1.1" fill="#F4EFE3" opacity="0.03"></circle><circle cx="878" cy="1077" r="1.3" fill="#F4EFE3" opacity="0.03"></circle><circle cx="645" cy="1041" r="0.7" fill="#F4EFE3" opacity="0.05"></circle><circle cx="694" cy="1056" r="1.2" fill="#F4EFE3" opacity="0.05"></circle><circle cx="651" cy="225" r="1.2" fill="#F4EFE3" opacity="0.03"></circle><circle cx="730" cy="156" r="1.1" fill="#F4EFE3" opacity="0.07"></circle><circle cx="121" cy="447" r="0.6" fill="#F4EFE3" opacity="0.05"></circle><circle cx="258" cy="1027" r="1.2" fill="#F4EFE3" opacity="0.02"></circle><circle cx="269" cy="292" r="0.5" fill="#F4EFE3" opacity="0.05"></circle><circle cx="793" cy="540" r="0.9" fill="#F4EFE3" opacity="0.03"></circle><circle cx="503" cy="929" r="0.5" fill="#F4EFE3" opacity="0.03"></circle>
<rect x="40" y="40" width="1020" height="1020" fill="none" stroke="#D32027" stroke-opacity="0.18" stroke-width="2"></rect>
<g opacity="0.2" fill="none" stroke="#F4EFE3" stroke-width="4.5" stroke-linejoin="round" stroke-linecap="round"><rect x="460" y="417" width="180" height="135" rx="16"></rect><circle cx="550" cy="486" r="40"></circle><rect x="500" y="394" width="99" height="31" rx="7"></rect></g>
<text x="550.0" y="620.0" font-family="Oswald, Arial, sans-serif" font-size="46" font-weight="600" letter-spacing="6" fill="#F4EFE3" fill-opacity="0.82" text-anchor="middle">WING NIGHT</text>
<text x="550.0" y="668.0" font-family="Manrope, Arial, sans-serif" font-size="22" letter-spacing="3" fill="#D32027" fill-opacity="0.9" text-anchor="middle">THE JUG HANDLE</text>
</svg>