<svg xmlns="http://www.w3.org/2000/svg" viewBox="0 0 1100 1100" preserveAspectRatio="xMidYMid slice" role="img" aria-label="Cold Drafts">
<defs>
<linearGradient id="g" x1="0" y1="0" x2="1" y2="1">
<stop offset="0" stop-color="#1C1611"></stop><stop offset="1" stop-color="#0C0B0A"></stop>
</linearGradient>
<radialGradient id="v" cx="50%" cy="42%" r="75%">
<stop offset="0" stop-color="#C8841A" stop-opacity="0.16"></stop>
<stop offset="0.55" stop-color="#C8841A" stop-opacity="0"></stop>
</radialGradient>
</defs>
<rect width="1100" height="1100" fill="url(#g)"></rect>
<rect width="1100" height="1100" fill="url(#v)"></rect>
<circle cx="1005" cy="151" r="1.0" fill="#F4EFE3" opacity="0.05"></circle><circle cx="1055" cy="418" r="0.8" fill="#F4EFE3" opacity="0.05"></circle><circle cx="420" cy="1003" r="1.3" fill="#F4EFE3" opacity="0.06"></circle><circle cx="62" cy="1089" r="0.9" fill="#F4EFE3" opacity="0.06"></circle><circle cx="596" cy="567" r="1.3" fill="#F4EFE3" opacity="0.04"></circle><circle cx="157" cy="1100" r="0.7" fill="#F4EFE3" opacity="0.04"></circle><circle cx="482" cy="987" r="0.8" fill="#F4EFE3" opacity="0.02"></circle><circle cx="292" cy="252" r="0.4" fill="#F4EFE3" opacity="0.07"></circle><circle cx="807" cy="150" r="0.6" fill="#F4EFE3" opacity="0.08"></circle><circle cx="770" cy="492" r="1.0" fill="#F4EFE3" opacity="0.08"></circle><circle cx="263" cy="695" r="0.4" fill="#F4EFE3" opacity="0.05"></circle><circle cx="259" cy="374" r="0.8" fill="#F4EFE3" opacity="0.05"></circle><circle cx="984" cy="401" r="0.4" fill="#F4EFE3" opacity="0.07"></circle><circle cx="1015" cy="927" r="0.7" fill="#F4EFE3" opacity="0.04"></circle><circle cx="843" cy="89" r="0.5" fill="#F4EFE3" opacity="0.05"></circle><circle cx="253" cy="509" r="0.6" fill="#F4EFE3" opacity="0.08"></circle><circle cx="546" cy="381" r="0.7" fill="#F4EFE3" opacity="0.04"></circle><circle cx="860" cy="877" r="1.2" fill="#F4EFE3" opacity="0.08"></circle><circle cx="665" cy="423" r="0.8" fill="#F4EFE3" opacity="0.03"></circle><circle cx="402" cy="533" r="1.3" fill="#F4EFE3" opacity="0.05"></circle><circle cx="108" cy="590" r="0.7" fill="#F4EFE3" opacity="0.07"></circle><circle cx="921" cy="655" r="1.1" fill="#F4EFE3" opacity="0.05"></circle><circle cx="307" cy="882" r="1.2" fill="#F4EFE3" opacity="0.05"></circle><circle cx="1023" cy="901" r="1.1" fill="#F4EFE3" opacity="0.03"></circle><circle cx="1057" cy="104" r="0.6" fill="#F4EFE3" opacity="0.03"></circle><circle cx="196" cy="769" r="1.0" fill="#F4EFE3" opacity="0.03"></circle><circle cx="222" cy="818" r="0.7" fill="#F4EFE3" opacity="0.03"></circle><circle cx="885" cy="286" r="0.5" fill="#F4EFE3" opacity="0.05"></circle><circle cx="810" cy="5" r="1.0" fill="#F4EFE3" opacity="0.03"></circle><circle cx="957" cy="516" r="0.7" fill="#F4EFE3" opacity="0.04"></circle><circle cx="85" cy="39" r="0.9" fill="#F4EFE3" opacity="0.05"></circle><circle cx="174" cy="127" r="0.8" fill="#F4EFE3" opacity="0.08"></circle><circle cx="61" cy="737" r="1.3" fill="#F4EFE3" opacity="0.04"></circle><circle cx="408" cy="606" r="0.6" fill="#F4EFE3" opacity="0.02"></circle><circle cx="164" cy="981" r="0.8" fill="#F4EFE3" opacity="0.07"></circle><circle cx="188" cy="827" r="0.6" fill="#F4EFE3" opacity="0.04"></circle><circle cx="820" cy="1099" r="1.4" fill="#F4EFE3" opacity="0.07"></circle><circle cx="125" cy="701" r="1.1" fill="#F4EFE3" opacity="0.04"></circle><circle cx="606" cy="360" r="1.1" fill="#F4EFE3" opacity="0.07"></circle><circle cx="754" cy="229" r="0.4" fill="#F4EFE3" opacity="0.04"></circle><circle cx="535" cy="66" r="1.1" fill="#F4EFE3" opacity="0.07"></circle><circle cx="767" cy="563" r="1.4" fill="#F4EFE3" opacity="0.05"></circle><circle cx="408" cy="924" r="1.0" fill="#F4EFE3" opacity="0.05"></circle><circle cx="478" cy="225" r="0.7" fill="#F4EFE3" opacity="0.04"></circle><circle cx="881" cy="466" r="0.7" fill="#F4EFE3" opacity="0.03"></circle><circle cx="901" cy="379" r="0.8" fill="#F4EFE3" opacity="0.02"></circle><circle cx="784" cy="390" r="0.7" fill="#F4EFE3" opacity="0.04"></circle><circle cx="295" cy="399" r="0.7" fill="#F4EFE3" opacity="0.04"></circle><circle cx="873" cy="1038" r="0.9" fill="#F4EFE3" opacity="0.03"></circle><circle cx="178" cy="370" r="1.3" fill="#F4EFE3" opacity="0.08"></circle><circle cx="116" cy="116" r="1.3" fill="#F4EFE3" opacity="0.06"></circle><circle cx="536" cy="743" r="1.0" fill="#F4EFE3" opacity="0.03"></circle><circle cx="1008" cy="41" r="0.8" fill="#F4EFE3" opacity="0.02"></circle><circle cx="59" cy="210" r="0.6" fill="#F4EFE3" opacity="0.08"></circle><circle cx="614" cy="690" r="1.2" fill="#F4EFE3" opacity="0.06"></circle><circle cx="229" cy="263" r="0.5" fill="#F4EFE3" opacity="0.05"></circle><circle cx="884" cy="1064" r="1.1" fill="#F4EFE3" opacity="0.03"></circle><circle cx="915" cy="703" r="0.9" fill="#F4EFE3" opacity="0.07"></circle><circle cx="429" cy="905" r="0.8" fill="#F4EFE3" opacity="0.05"></circle><circle cx="317" cy="241" r="1.1" fill="#F4EFE3" opacity="0.07"></circle><circle cx="82" cy="266" r="1.2" fill="#F4EFE3" opacity="0.08"></circle><circle cx="661" cy="1046" r="1.0" fill="#F4EFE3" opacity="0.08"></circle><circle cx="569" cy="465" r="1.3" fill="#F4EFE3" opacity="0.08"></circle><circle cx="198" cy="175" r="0.7" fill="#F4EFE3" opacity="0.03"></circle><circle cx="185" cy="550" r="1.4" fill="#F4EFE3" opacity="0.07"></circle><circle cx="330" cy="326" r="0.7" fill="#F4EFE3" opacity="0.07"></circle><circle cx="342" cy="134" r="1.3" fill="#F4EFE3" opacity="0.07"></circle><circle cx="623" cy="468" r="0.6" fill="#F4EFE3" opacity="0.05"></circle><circle cx="374" cy="882" r="0.6" fill="#F4EFE3" opacity="0.07"></circle><circle cx="1028" cy="1046" r="1.2" fill="#F4EFE3" opacity="0.03"></circle><circle cx="757" cy="485" r="0.4" fill="#F4EFE3" opacity="0.02"></circle><circle cx="636" cy="896" r="0.9" fill="#F4EFE3" opacity="0.03"></circle><circle cx="56" cy="631" r="0.8" fill="#F4EFE3" opacity="0.02"></circle><circle cx="950" cy="513" r="1.1" fill="#F4EFE3" opacity="0.03"></circle><circle cx="1075" cy="696" r="0.4" fill="#F4EFE3" opacity="0.06"></circle><circle cx="60" cy="322" r="1.0" fill="#F4EFE3" opacity="0.07"></circle><circle cx="630" cy="43" r="1.2" fill="#F4EFE3" opacity="0.04"></circle><circle cx="915" cy="577" r="1.0" fill="#F4EFE3" opacity="0.03"></circle><circle cx="799" cy="265" r="1.1" fill="#F4EFE3" opacity="0.05"></circle><circle cx="833" cy="968" r="0.6" fill="#F4EFE3" opacity="0.07"></circle><circle cx="214" cy="50" r="0.6" fill="#F4EFE3" opacity="0.06"></circle><circle cx="208" cy="687" r="0.7" fill="#F4EFE3" opacity="0.08"></circle><circle cx="732" cy="779" r="0.4" fill="#F4EFE3" opacity="0.05"></circle><circle cx="902" cy="938" r="0.5" fill="#F4EFE3" opacity="0.07"></circle><circle cx="345" cy="980" r="0.8" fill="#F4EFE3" opacity="0.06"></circle><circle cx="798" cy="925" r="1.0" fill="#F4EFE3" opacity="0.04"></circle><circle cx="1081" cy="950" r="0.9" fill="#F4EFE3" opacity="0.07"></circle><circle cx="964" cy="879" r="1.2" fill="#F4EFE3" opacity="0.06"></circle><circle cx="311" cy="595" r="0.4" fill="#F4EFE3" opacity="0.05"></circle><circle cx="916" cy="669" r="1.2" fill="#F4EFE3" opacity="0.07"></circle>
<rect x="40" y="40" width="1020" height="1020" fill="none" stroke="#C8841A" stroke-opacity="0.18" stroke-width="2"></rect>
<g opacity="0.2" fill="none" stroke="#F4EFE3" stroke-width="4.5" stroke-linejoin="round" stroke-linecap="round"><rect x="460" y="417" width="180" height="135" rx="16"></rect><circle cx="550" cy="486" r="40"></circle><rect x="500" y="394" width="99" height="31" rx="7"></rect></g>
<text x="550.0" y="620.0" font-family="Oswald, Arial, sans-serif" font-size="46" font-weight="600" letter-spacing="6" fill="#F4EFE3" fill-opacity="0.82" text-anchor="middle">COLD DRAFTS</text>
<text x="550.0" y="668.0" font-family="Manrope, Arial, sans-serif" font-size="22" letter-spacing="3" fill="#C8841A" fill-opacity="0.9" text-anchor="middle">THE JUG HANDLE</text>
</svg>