<svg xmlns="http://www.w3.org/2000/svg" viewBox="0 0 1100 1100" preserveAspectRatio="xMidYMid slice" role="img" aria-label="Live Band">
<defs>
<linearGradient id="g" x1="0" y1="0" x2="1" y2="1">
<stop offset="0" stop-color="#2A1F16"></stop><stop offset="1" stop-color="#0C0B0A"></stop>
</linearGradient>
<radialGradient id="v" cx="50%" cy="42%" r="75%">
<stop offset="0" stop-color="#E6A532" stop-opacity="0.16"></stop>
<stop offset="0.55" stop-color="#E6A532" stop-opacity="0"></stop>
</radialGradient>
</defs>
<rect width="1100" height="1100" fill="url(#g)"></rect>
<rect width="1100" height="1100" fill="url(#v)"></rect>
<circle cx="679" cy="979" r="0.9" fill="#F4EFE3" opacity="0.06"></circle><circle cx="1031" cy="573" r="1.1" fill="#F4EFE3" opacity="0.06"></circle><circle cx="944" cy="40" r="0.6" fill="#F4EFE3" opacity="0.08"></circle><circle cx="821" cy="287" r="1.1" fill="#F4EFE3" opacity="0.03"></circle><circle cx="396" cy="485" r="0.6" fill="#F4EFE3" opacity="0.03"></circle><circle cx="558" cy="712" r="0.7" fill="#F4EFE3" opacity="0.06"></circle><circle cx="1080" cy="61" r="0.7" fill="#F4EFE3" opacity="0.03"></circle><circle cx="745" cy="454" r="0.8" fill="#F4EFE3" opacity="0.03"></circle><circle cx="855" cy="835" r="0.8" fill="#F4EFE3" opacity="0.07"></circle><circle cx="254" cy="379" r="1.4" fill="#F4EFE3" opacity="0.03"></circle><circle cx="158" cy="35" r="1.1" fill="#F4EFE3" opacity="0.07"></circle><circle cx="57" cy="526" r="0.8" fill="#F4EFE3" opacity="0.04"></circle><circle cx="258" cy="423" r="0.5" fill="#F4EFE3" opacity="0.08"></circle><circle cx="219" cy="589" r="1.0" fill="#F4EFE3" opacity="0.06"></circle><circle cx="522" cy="575" r="1.3" fill="#F4EFE3" opacity="0.03"></circle><circle cx="221" cy="332" r="1.1" fill="#F4EFE3" opacity="0.05"></circle><circle cx="429" cy="85" r="0.5" fill="#F4EFE3" opacity="0.06"></circle><circle cx="252" cy="507" r="0.6" fill="#F4EFE3" opacity="0.04"></circle><circle cx="211" cy="999" r="1.0" fill="#F4EFE3" opacity="0.05"></circle><circle cx="252" cy="920" r="1.0" fill="#F4EFE3" opacity="0.03"></circle><circle cx="199" cy="1045" r="0.7" fill="#F4EFE3" opacity="0.04"></circle><circle cx="106" cy="961" r="0.6" fill="#F4EFE3" opacity="0.05"></circle><circle cx="796" cy="592" r="0.8" fill="#F4EFE3" opacity="0.04"></circle><circle cx="763" cy="283" r="1.0" fill="#F4EFE3" opacity="0.08"></circle><circle cx="1015" cy="738" r="1.0" fill="#F4EFE3" opacity="0.03"></circle><circle cx="894" cy="1001" r="0.7" fill="#F4EFE3" opacity="0.02"></circle><circle cx="585" cy="475" r="1.2" fill="#F4EFE3" opacity="0.07"></circle><circle cx="475" cy="585" r="0.9" fill="#F4EFE3" opacity="0.06"></circle><circle cx="704" cy="725" r="0.6" fill="#F4EFE3" opacity="0.07"></circle><circle cx="59" cy="289" r="1.0" fill="#F4EFE3" opacity="0.02"></circle><circle cx="663" cy="354" r="0.7" fill="#F4EFE3" opacity="0.02"></circle><circle cx="418" cy="635" r="0.4" fill="#F4EFE3" opacity="0.07"></circle><circle cx="1081" cy="573" r="1.0" fill="#F4EFE3" opacity="0.07"></circle><circle cx="719" cy="732" r="0.9" fill="#F4EFE3" opacity="0.05"></circle><circle cx="400" cy="115" r="1.2" fill="#F4EFE3" opacity="0.06"></circle><circle cx="5" cy="856" r="1.4" fill="#F4EFE3" opacity="0.04"></circle><circle cx="1010" cy="238" r="1.0" fill="#F4EFE3" opacity="0.07"></circle><circle cx="447" cy="319" r="0.5" fill="#F4EFE3" opacity="0.05"></circle><circle cx="337" cy="524" r="1.0" fill="#F4EFE3" opacity="0.03"></circle><circle cx="447" cy="45" r="1.1" fill="#F4EFE3" opacity="0.06"></circle><circle cx="324" cy="231" r="1.0" fill="#F4EFE3" opacity="0.05"></circle><circle cx="898" cy="824" r="0.9" fill="#F4EFE3" opacity="0.05"></circle><circle cx="639" cy="659" r="0.9" fill="#F4EFE3" opacity="0.05"></circle><circle cx="408" cy="761" r="0.9" fill="#F4EFE3" opacity="0.03"></circle><circle cx="695" cy="356" r="0.7" fill="#F4EFE3" opacity="0.06"></circle><circle cx="958" cy="443" r="0.8" fill="#F4EFE3" opacity="0.06"></circle><circle cx="936" cy="881" r="1.4" fill="#F4EFE3" opacity="0.02"></circle><circle cx="584" cy="399" r="0.8" fill="#F4EFE3" opacity="0.04"></circle><circle cx="651" cy="834" r="1.1" fill="#F4EFE3" opacity="0.02"></circle><circle cx="513" cy="910" r="0.8" fill="#F4EFE3" opacity="0.04"></circle><circle cx="393" cy="673" r="0.7" fill="#F4EFE3" opacity="0.03"></circle><circle cx="13" cy="144" r="1.1" fill="#F4EFE3" opacity="0.02"></circle><circle cx="362" cy="303" r="1.2" fill="#F4EFE3" opacity="0.07"></circle><circle cx="46" cy="152" r="0.7" fill="#F4EFE3" opacity="0.03"></circle><circle cx="527" cy="1037" r="0.8" fill="#F4EFE3" opacity="0.06"></circle><circle cx="560" cy="1014" r="0.8" fill="#F4EFE3" opacity="0.06"></circle><circle cx="130" cy="410" r="0.4" fill="#F4EFE3" opacity="0.05"></circle><circle cx="698" cy="212" r="0.9" fill="#F4EFE3" opacity="0.06"></circle><circle cx="357" cy="1026" r="0.5" fill="#F4EFE3" opacity="0.04"></circle><circle cx="1077" cy="1066" r="0.9" fill="#F4EFE3" opacity="0.03"></circle><circle cx="365" cy="446" r="0.8" fill="#F4EFE3" opacity="0.05"></circle><circle cx="395" cy="975" r="0.4" fill="#F4EFE3" opacity="0.07"></circle><circle cx="415" cy="1077" r="1.3" fill="#F4EFE3" opacity="0.07"></circle><circle cx="581" cy="940" r="0.5" fill="#F4EFE3" opacity="0.04"></circle><circle cx="144" cy="50" r="1.3" fill="#F4EFE3" opacity="0.04"></circle><circle cx="243" cy="981" r="1.2" fill="#F4EFE3" opacity="0.06"></circle><circle cx="326" cy="125" r="0.5" fill="#F4EFE3" opacity="0.06"></circle><circle cx="1005" cy="704" r="0.7" fill="#F4EFE3" opacity="0.03"></circle><circle cx="921" cy="840" r="0.9" fill="#F4EFE3" opacity="0.06"></circle><circle cx="59" cy="151" r="1.4" fill="#F4EFE3" opacity="0.02"></circle><circle cx="886" cy="186" r="1.1" fill="#F4EFE3" opacity="0.03"></circle><circle cx="110" cy="738" r="1.3" fill="#F4EFE3" opacity="0.05"></circle><circle cx="995" cy="742" r="1.3" fill="#F4EFE3" opacity="0.05"></circle><circle cx="973" cy="743" r="0.8" fill="#F4EFE3" opacity="0.04"></circle><circle cx="921" cy="67" r="0.9" fill="#F4EFE3" opacity="0.03"></circle><circle cx="924" cy="602" r="1.2" fill="#F4EFE3" opacity="0.04"></circle><circle cx="484" cy="599" r="1.0" fill="#F4EFE3" opacity="0.03"></circle><circle cx="60" cy="553" r="0.5" fill="#F4EFE3" opacity="0.05"></circle><circle cx="152" cy="672" r="0.9" fill="#F4EFE3" opacity="0.03"></circle><circle cx="884" cy="520" r="1.3" fill="#F4EFE3" opacity="0.04"></circle><circle cx="547" cy="430" r="1.1" fill="#F4EFE3" opacity="0.04"></circle><circle cx="632" cy="516" r="0.6" fill="#F4EFE3" opacity="0.08"></circle><circle cx="350" cy="986" r="1.0" fill="#F4EFE3" opacity="0.05"></circle><circle cx="420" cy="278" r="0.5" fill="#F4EFE3" opacity="0.04"></circle><circle cx="1034" cy="176" r="0.9" fill="#F4EFE3" opacity="0.05"></circle><circle cx="361" cy="25" r="1.1" fill="#F4EFE3" opacity="0.05"></circle><circle cx="658" cy="497" r="1.3" fill="#F4EFE3" opacity="0.05"></circle><circle cx="753" cy="247" r="0.8" fill="#F4EFE3" opacity="0.06"></circle><circle cx="1017" cy="842" r="1.2" fill="#F4EFE3" opacity="0.05"></circle><circle cx="838" cy="878" r="1.2" fill="#F4EFE3" opacity="0.03"></circle>
<rect x="40" y="40" width="1020" height="1020" fill="none" stroke="#E6A532" stroke-opacity="0.18" stroke-width="2"></rect>
<g opacity="0.2" fill="none" stroke="#F4EFE3" stroke-width="4.5" stroke-linejoin="round" stroke-linecap="round"><rect x="460" y="417" width="180" height="135" rx="16"></rect><circle cx="550" cy="486" r="40"></circle><rect x="500" y="394" width="99" height="31" rx="7"></rect></g>
<text x="550.0" y="620.0" font-family="Oswald, Arial, sans-serif" font-size="46" font-weight="600" letter-spacing="6" fill="#F4EFE3" fill-opacity="0.82" text-anchor="middle">LIVE BAND</text>
<text x="550.0" y="668.0" font-family="Manrope, Arial, sans-serif" font-size="22" letter-spacing="3" fill="#E6A532" fill-opacity="0.9" text-anchor="middle">THE JUG HANDLE</text>
</svg>