<svg xmlns="http://www.w3.org/2000/svg" viewBox="0 0 1100 1100" preserveAspectRatio="xMidYMid slice" role="img" aria-label="The Crew">
<defs>
<linearGradient id="g" x1="0" y1="0" x2="1" y2="1">
<stop offset="0" stop-color="#2A1F16"></stop><stop offset="1" stop-color="#0C0B0A"></stop>
</linearGradient>
<radialGradient id="v" cx="50%" cy="42%" r="75%">
<stop offset="0" stop-color="#D32027" stop-opacity="0.16"></stop>
<stop offset="0.55" stop-color="#D32027" stop-opacity="0"></stop>
</radialGradient>
</defs>
<rect width="1100" height="1100" fill="url(#g)"></rect>
<rect width="1100" height="1100" fill="url(#v)"></rect>
<circle cx="99" cy="1046" r="0.5" fill="#F4EFE3" opacity="0.06"></circle><circle cx="925" cy="822" r="0.7" fill="#F4EFE3" opacity="0.04"></circle><circle cx="794" cy="1062" r="1.1" fill="#F4EFE3" opacity="0.05"></circle><circle cx="427" cy="446" r="1.1" fill="#F4EFE3" opacity="0.05"></circle><circle cx="588" cy="694" r="1.0" fill="#F4EFE3" opacity="0.02"></circle><circle cx="254" cy="776" r="1.0" fill="#F4EFE3" opacity="0.07"></circle><circle cx="58" cy="255" r="0.9" fill="#F4EFE3" opacity="0.06"></circle><circle cx="215" cy="841" r="0.8" fill="#F4EFE3" opacity="0.04"></circle><circle cx="912" cy="118" r="1.3" fill="#F4EFE3" opacity="0.04"></circle><circle cx="399" cy="223" r="0.9" fill="#F4EFE3" opacity="0.07"></circle><circle cx="243" cy="609" r="0.8" fill="#F4EFE3" opacity="0.04"></circle><circle cx="143" cy="768" r="0.8" fill="#F4EFE3" opacity="0.05"></circle><circle cx="663" cy="118" r="1.2" fill="#F4EFE3" opacity="0.07"></circle><circle cx="280" cy="898" r="1.1" fill="#F4EFE3" opacity="0.04"></circle><circle cx="297" cy="92" r="0.8" fill="#F4EFE3" opacity="0.05"></circle><circle cx="536" cy="530" r="0.9" fill="#F4EFE3" opacity="0.03"></circle><circle cx="247" cy="615" r="0.9" fill="#F4EFE3" opacity="0.03"></circle><circle cx="304" cy="1077" r="1.2" fill="#F4EFE3" opacity="0.06"></circle><circle cx="391" cy="460" r="1.1" fill="#F4EFE3" opacity="0.05"></circle><circle cx="705" cy="39" r="1.1" fill="#F4EFE3" opacity="0.03"></circle><circle cx="360" cy="584" r="1.3" fill="#F4EFE3" opacity="0.04"></circle><circle cx="711" cy="229" r="1.3" fill="#F4EFE3" opacity="0.03"></circle><circle cx="595" cy="749" r="1.1" fill="#F4EFE3" opacity="0.05"></circle><circle cx="712" cy="11" r="1.4" fill="#F4EFE3" opacity="0.05"></circle><circle cx="655" cy="280" r="0.9" fill="#F4EFE3" opacity="0.06"></circle><circle cx="454" cy="134" r="0.6" fill="#F4EFE3" opacity="0.07"></circle><circle cx="226" cy="566" r="1.1" fill="#F4EFE3" opacity="0.03"></circle><circle cx="889" cy="523" r="1.3" fill="#F4EFE3" opacity="0.03"></circle><circle cx="468" cy="399" r="0.7" fill="#F4EFE3" opacity="0.05"></circle><circle cx="470" cy="434" r="1.3" fill="#F4EFE3" opacity="0.04"></circle><circle cx="62" cy="825" r="0.8" fill="#F4EFE3" opacity="0.02"></circle><circle cx="830" cy="799" r="1.1" fill="#F4EFE3" opacity="0.07"></circle><circle cx="297" cy="925" r="0.8" fill="#F4EFE3" opacity="0.07"></circle><circle cx="1098" cy="610" r="0.8" fill="#F4EFE3" opacity="0.06"></circle><circle cx="791" cy="556" r="0.5" fill="#F4EFE3" opacity="0.04"></circle><circle cx="749" cy="15" r="0.8" fill="#F4EFE3" opacity="0.07"></circle><circle cx="787" cy="286" r="0.5" fill="#F4EFE3" opacity="0.05"></circle><circle cx="677" cy="315" r="0.9" fill="#F4EFE3" opacity="0.08"></circle><circle cx="715" cy="597" r="0.5" fill="#F4EFE3" opacity="0.05"></circle><circle cx="25" cy="1060" r="0.9" fill="#F4EFE3" opacity="0.06"></circle><circle cx="749" cy="44" r="1.2" fill="#F4EFE3" opacity="0.06"></circle><circle cx="79" cy="1006" r="1.3" fill="#F4EFE3" opacity="0.08"></circle><circle cx="102" cy="1007" r="1.2" fill="#F4EFE3" opacity="0.04"></circle><circle cx="87" cy="744" r="0.5" fill="#F4EFE3" opacity="0.05"></circle><circle cx="886" cy="436" r="0.7" fill="#F4EFE3" opacity="0.05"></circle><circle cx="125" cy="69" r="1.0" fill="#F4EFE3" opacity="0.07"></circle><circle cx="1091" cy="115" r="0.7" fill="#F4EFE3" opacity="0.07"></circle><circle cx="321" cy="845" r="1.3" fill="#F4EFE3" opacity="0.07"></circle><circle cx="687" cy="801" r="1.3" fill="#F4EFE3" opacity="0.03"></circle><circle cx="370" cy="807" r="0.9" fill="#F4EFE3" opacity="0.07"></circle><circle cx="1072" cy="797" r="1.0" fill="#F4EFE3" opacity="0.06"></circle><circle cx="1020" cy="108" r="0.4" fill="#F4EFE3" opacity="0.07"></circle><circle cx="938" cy="724" r="0.9" fill="#F4EFE3" opacity="0.04"></circle><circle cx="1083" cy="776" r="1.4" fill="#F4EFE3" opacity="0.06"></circle><circle cx="940" cy="254" r="1.1" fill="#F4EFE3" opacity="0.03"></circle><circle cx="360" cy="493" r="0.9" fill="#F4EFE3" opacity="0.08"></circle><circle cx="693" cy="118" r="1.2" fill="#F4EFE3" opacity="0.07"></circle><circle cx="913" cy="1028" r="1.2" fill="#F4EFE3" opacity="0.05"></circle><circle cx="732" cy="61" r="0.8" fill="#F4EFE3" opacity="0.04"></circle><circle cx="810" cy="68" r="0.6" fill="#F4EFE3" opacity="0.03"></circle><circle cx="221" cy="520" r="1.4" fill="#F4EFE3" opacity="0.04"></circle><circle cx="75" cy="19" r="1.1" fill="#F4EFE3" opacity="0.04"></circle><circle cx="1086" cy="274" r="1.4" fill="#F4EFE3" opacity="0.04"></circle><circle cx="1075" cy="1026" r="0.8" fill="#F4EFE3" opacity="0.03"></circle><circle cx="683" cy="644" r="1.0" fill="#F4EFE3" opacity="0.03"></circle><circle cx="922" cy="379" r="0.7" fill="#F4EFE3" opacity="0.02"></circle><circle cx="23" cy="494" r="0.5" fill="#F4EFE3" opacity="0.04"></circle><circle cx="811" cy="830" r="0.8" fill="#F4EFE3" opacity="0.03"></circle><circle cx="690" cy="423" r="1.4" fill="#F4EFE3" opacity="0.07"></circle><circle cx="944" cy="298" r="1.2" fill="#F4EFE3" opacity="0.05"></circle><circle cx="279" cy="128" r="0.9" fill="#F4EFE3" opacity="0.06"></circle><circle cx="281" cy="106" r="1.0" fill="#F4EFE3" opacity="0.05"></circle><circle cx="795" cy="953" r="0.6" fill="#F4EFE3" opacity="0.08"></circle><circle cx="319" cy="818" r="0.6" fill="#F4EFE3" opacity="0.07"></circle><circle cx="386" cy="576" r="1.3" fill="#F4EFE3" opacity="0.07"></circle><circle cx="835" cy="1008" r="0.8" fill="#F4EFE3" opacity="0.04"></circle><circle cx="911" cy="642" r="0.7" fill="#F4EFE3" opacity="0.08"></circle><circle cx="984" cy="880" r="0.9" fill="#F4EFE3" opacity="0.07"></circle><circle cx="438" cy="319" r="1.2" fill="#F4EFE3" opacity="0.06"></circle><circle cx="817" cy="83" r="0.9" fill="#F4EFE3" opacity="0.05"></circle><circle cx="45" cy="929" r="0.9" fill="#F4EFE3" opacity="0.05"></circle><circle cx="636" cy="684" r="0.5" fill="#F4EFE3" opacity="0.03"></circle><circle cx="108" cy="702" r="0.6" fill="#F4EFE3" opacity="0.06"></circle><circle cx="870" cy="823" r="1.4" fill="#F4EFE3" opacity="0.05"></circle><circle cx="592" cy="636" r="1.0" fill="#F4EFE3" opacity="0.05"></circle><circle cx="285" cy="772" r="1.2" fill="#F4EFE3" opacity="0.04"></circle><circle cx="109" cy="645" r="0.6" fill="#F4EFE3" opacity="0.04"></circle><circle cx="964" cy="874" r="1.4" fill="#F4EFE3" opacity="0.05"></circle><circle cx="798" cy="272" r="1.0" fill="#F4EFE3" opacity="0.05"></circle><circle cx="221" cy="701" r="1.0" fill="#F4EFE3" opacity="0.03"></circle>
<rect x="40" y="40" width="1020" height="1020" fill="none" stroke="#D32027" stroke-opacity="0.18" stroke-width="2"></rect>
<g opacity="0.2" fill="none" stroke="#F4EFE3" stroke-width="4.5" stroke-linejoin="round" stroke-linecap="round"><rect x="460" y="417" width="180" height="135" rx="16"></rect><circle cx="550" cy="486" r="40"></circle><rect x="500" y="394" width="99" height="31" rx="7"></rect></g>
<text x="550.0" y="620.0" font-family="Oswald, Arial, sans-serif" font-size="46" font-weight="600" letter-spacing="6" fill="#F4EFE3" fill-opacity="0.82" text-anchor="middle">THE CREW</text>
<text x="550.0" y="668.0" font-family="Manrope, Arial, sans-serif" font-size="22" letter-spacing="3" fill="#D32027" fill-opacity="0.9" text-anchor="middle">THE JUG HANDLE</text>
</svg>