<svg xmlns="http://www.w3.org/2000/svg" viewBox="0 0 1100 1100" preserveAspectRatio="xMidYMid slice" role="img" aria-label="Creekside Sunset">
<defs>
<linearGradient id="g" x1="0" y1="0" x2="1" y2="1">
<stop offset="0" stop-color="#2A1F16"></stop><stop offset="1" stop-color="#0C0B0A"></stop>
</linearGradient>
<radialGradient id="v" cx="50%" cy="42%" r="75%">
<stop offset="0" stop-color="#8fb15f" stop-opacity="0.16"></stop>
<stop offset="0.55" stop-color="#8fb15f" stop-opacity="0"></stop>
</radialGradient>
</defs>
<rect width="1100" height="1100" fill="url(#g)"></rect>
<rect width="1100" height="1100" fill="url(#v)"></rect>
<circle cx="47" cy="649" r="0.4" fill="#F4EFE3" opacity="0.05"></circle><circle cx="1074" cy="319" r="1.4" fill="#F4EFE3" opacity="0.06"></circle><circle cx="972" cy="22" r="1.1" fill="#F4EFE3" opacity="0.05"></circle><circle cx="665" cy="416" r="1.4" fill="#F4EFE3" opacity="0.06"></circle><circle cx="798" cy="752" r="0.9" fill="#F4EFE3" opacity="0.07"></circle><circle cx="678" cy="622" r="0.5" fill="#F4EFE3" opacity="0.05"></circle><circle cx="170" cy="645" r="0.8" fill="#F4EFE3" opacity="0.07"></circle><circle cx="648" cy="402" r="0.9" fill="#F4EFE3" opacity="0.03"></circle><circle cx="1080" cy="941" r="0.8" fill="#F4EFE3" opacity="0.03"></circle><circle cx="491" cy="702" r="0.8" fill="#F4EFE3" opacity="0.08"></circle><circle cx="56" cy="376" r="0.9" fill="#F4EFE3" opacity="0.02"></circle><circle cx="513" cy="630" r="0.7" fill="#F4EFE3" opacity="0.08"></circle><circle cx="384" cy="405" r="1.0" fill="#F4EFE3" opacity="0.04"></circle><circle cx="518" cy="172" r="0.5" fill="#F4EFE3" opacity="0.06"></circle><circle cx="306" cy="177" r="0.7" fill="#F4EFE3" opacity="0.04"></circle><circle cx="162" cy="765" r="1.1" fill="#F4EFE3" opacity="0.08"></circle><circle cx="47" cy="347" r="1.1" fill="#F4EFE3" opacity="0.07"></circle><circle cx="272" cy="953" r="0.4" fill="#F4EFE3" opacity="0.05"></circle><circle cx="26" cy="175" r="1.1" fill="#F4EFE3" opacity="0.05"></circle><circle cx="1002" cy="1033" r="0.8" fill="#F4EFE3" opacity="0.05"></circle><circle cx="416" cy="183" r="0.8" fill="#F4EFE3" opacity="0.07"></circle><circle cx="453" cy="885" r="0.5" fill="#F4EFE3" opacity="0.03"></circle><circle cx="1078" cy="256" r="0.5" fill="#F4EFE3" opacity="0.07"></circle><circle cx="831" cy="969" r="1.3" fill="#F4EFE3" opacity="0.03"></circle><circle cx="632" cy="707" r="0.7" fill="#F4EFE3" opacity="0.06"></circle><circle cx="389" cy="352" r="0.8" fill="#F4EFE3" opacity="0.05"></circle><circle cx="202" cy="811" r="0.8" fill="#F4EFE3" opacity="0.04"></circle><circle cx="458" cy="623" r="1.4" fill="#F4EFE3" opacity="0.07"></circle><circle cx="571" cy="134" r="0.5" fill="#F4EFE3" opacity="0.07"></circle><circle cx="10" cy="297" r="0.9" fill="#F4EFE3" opacity="0.02"></circle><circle cx="703" cy="978" r="1.1" fill="#F4EFE3" opacity="0.06"></circle><circle cx="801" cy="696" r="0.4" fill="#F4EFE3" opacity="0.02"></circle><circle cx="835" cy="836" r="1.2" fill="#F4EFE3" opacity="0.06"></circle><circle cx="261" cy="24" r="1.0" fill="#F4EFE3" opacity="0.02"></circle><circle cx="730" cy="340" r="1.1" fill="#F4EFE3" opacity="0.06"></circle><circle cx="1037" cy="569" r="0.9" fill="#F4EFE3" opacity="0.03"></circle><circle cx="278" cy="52" r="1.4" fill="#F4EFE3" opacity="0.03"></circle><circle cx="829" cy="21" r="0.9" fill="#F4EFE3" opacity="0.03"></circle><circle cx="832" cy="134" r="1.2" fill="#F4EFE3" opacity="0.07"></circle><circle cx="602" cy="592" r="0.8" fill="#F4EFE3" opacity="0.06"></circle><circle cx="491" cy="960" r="0.6" fill="#F4EFE3" opacity="0.03"></circle><circle cx="649" cy="209" r="0.6" fill="#F4EFE3" opacity="0.06"></circle><circle cx="1076" cy="152" r="0.7" fill="#F4EFE3" opacity="0.03"></circle><circle cx="379" cy="703" r="0.9" fill="#F4EFE3" opacity="0.03"></circle><circle cx="1001" cy="196" r="0.7" fill="#F4EFE3" opacity="0.07"></circle><circle cx="818" cy="757" r="0.6" fill="#F4EFE3" opacity="0.03"></circle><circle cx="755" cy="320" r="0.6" fill="#F4EFE3" opacity="0.05"></circle><circle cx="541" cy="423" r="1.3" fill="#F4EFE3" opacity="0.04"></circle><circle cx="1057" cy="390" r="0.4" fill="#F4EFE3" opacity="0.04"></circle><circle cx="280" cy="118" r="0.7" fill="#F4EFE3" opacity="0.04"></circle><circle cx="284" cy="782" r="1.4" fill="#F4EFE3" opacity="0.03"></circle><circle cx="156" cy="369" r="1.3" fill="#F4EFE3" opacity="0.04"></circle><circle cx="810" cy="322" r="0.6" fill="#F4EFE3" opacity="0.02"></circle><circle cx="128" cy="532" r="1.1" fill="#F4EFE3" opacity="0.06"></circle><circle cx="142" cy="254" r="1.1" fill="#F4EFE3" opacity="0.07"></circle><circle cx="690" cy="245" r="1.1" fill="#F4EFE3" opacity="0.08"></circle><circle cx="43" cy="653" r="0.6" fill="#F4EFE3" opacity="0.07"></circle><circle cx="816" cy="668" r="1.2" fill="#F4EFE3" opacity="0.05"></circle><circle cx="1065" cy="588" r="0.5" fill="#F4EFE3" opacity="0.04"></circle><circle cx="242" cy="770" r="0.5" fill="#F4EFE3" opacity="0.04"></circle><circle cx="7" cy="1070" r="1.0" fill="#F4EFE3" opacity="0.06"></circle><circle cx="788" cy="739" r="0.4" fill="#F4EFE3" opacity="0.03"></circle><circle cx="293" cy="814" r="0.6" fill="#F4EFE3" opacity="0.03"></circle><circle cx="290" cy="503" r="0.6" fill="#F4EFE3" opacity="0.04"></circle><circle cx="1028" cy="823" r="0.5" fill="#F4EFE3" opacity="0.07"></circle><circle cx="746" cy="853" r="0.7" fill="#F4EFE3" opacity="0.07"></circle><circle cx="1030" cy="407" r="0.8" fill="#F4EFE3" opacity="0.04"></circle><circle cx="999" cy="278" r="0.4" fill="#F4EFE3" opacity="0.03"></circle><circle cx="146" cy="12" r="0.5" fill="#F4EFE3" opacity="0.05"></circle><circle cx="191" cy="980" r="1.0" fill="#F4EFE3" opacity="0.04"></circle><circle cx="561" cy="341" r="1.1" fill="#F4EFE3" opacity="0.07"></circle><circle cx="460" cy="966" r="1.2" fill="#F4EFE3" opacity="0.06"></circle><circle cx="990" cy="722" r="0.5" fill="#F4EFE3" opacity="0.07"></circle><circle cx="913" cy="189" r="0.8" fill="#F4EFE3" opacity="0.05"></circle><circle cx="962" cy="199" r="1.1" fill="#F4EFE3" opacity="0.04"></circle><circle cx="1044" cy="181" r="0.7" fill="#F4EFE3" opacity="0.07"></circle><circle cx="108" cy="375" r="1.3" fill="#F4EFE3" opacity="0.03"></circle><circle cx="1081" cy="82" r="1.0" fill="#F4EFE3" opacity="0.05"></circle><circle cx="1070" cy="437" r="0.8" fill="#F4EFE3" opacity="0.06"></circle><circle cx="514" cy="378" r="1.2" fill="#F4EFE3" opacity="0.03"></circle><circle cx="418" cy="558" r="0.7" fill="#F4EFE3" opacity="0.04"></circle><circle cx="328" cy="998" r="0.4" fill="#F4EFE3" opacity="0.03"></circle><circle cx="316" cy="128" r="1.3" fill="#F4EFE3" opacity="0.08"></circle><circle cx="1042" cy="74" r="1.3" fill="#F4EFE3" opacity="0.08"></circle><circle cx="831" cy="1013" r="0.8" fill="#F4EFE3" opacity="0.06"></circle><circle cx="948" cy="637" r="0.4" fill="#F4EFE3" opacity="0.03"></circle><circle cx="117" cy="663" r="0.7" fill="#F4EFE3" opacity="0.06"></circle><circle cx="836" cy="512" r="0.4" fill="#F4EFE3" opacity="0.06"></circle><circle cx="1070" cy="572" r="1.2" fill="#F4EFE3" opacity="0.06"></circle><circle cx="843" cy="341" r="1.2" fill="#F4EFE3" opacity="0.05"></circle>
<rect x="40" y="40" width="1020" height="1020" fill="none" stroke="#8fb15f" stroke-opacity="0.18" stroke-width="2"></rect>
<g opacity="0.2" fill="none" stroke="#F4EFE3" stroke-width="4.5" stroke-linejoin="round" stroke-linecap="round"><rect x="460" y="417" width="180" height="135" rx="16"></rect><circle cx="550" cy="486" r="40"></circle><rect x="500" y="394" width="99" height="31" rx="7"></rect></g>
<text x="550.0" y="620.0" font-family="Oswald, Arial, sans-serif" font-size="46" font-weight="600" letter-spacing="6" fill="#F4EFE3" fill-opacity="0.82" text-anchor="middle">CREEKSIDE SUNSET</text>
<text x="550.0" y="668.0" font-family="Manrope, Arial, sans-serif" font-size="22" letter-spacing="3" fill="#8fb15f" fill-opacity="0.9" text-anchor="middle">THE JUG HANDLE</text>
</svg>