<svg xmlns="http://www.w3.org/2000/svg" viewBox="0 0 1100 1100" preserveAspectRatio="xMidYMid slice" role="img" aria-label="Game Night">
<defs>
<linearGradient id="g" x1="0" y1="0" x2="1" y2="1">
<stop offset="0" stop-color="#1C1611"></stop><stop offset="1" stop-color="#0C0B0A"></stop>
</linearGradient>
<radialGradient id="v" cx="50%" cy="42%" r="75%">
<stop offset="0" stop-color="#D32027" stop-opacity="0.16"></stop>
<stop offset="0.55" stop-color="#D32027" stop-opacity="0"></stop>
</radialGradient>
</defs>
<rect width="1100" height="1100" fill="url(#g)"></rect>
<rect width="1100" height="1100" fill="url(#v)"></rect>
<circle cx="547" cy="293" r="1.0" fill="#F4EFE3" opacity="0.03"></circle><circle cx="520" cy="1067" r="0.5" fill="#F4EFE3" opacity="0.04"></circle><circle cx="744" cy="94" r="0.6" fill="#F4EFE3" opacity="0.07"></circle><circle cx="1078" cy="351" r="0.6" fill="#F4EFE3" opacity="0.08"></circle><circle cx="362" cy="664" r="1.0" fill="#F4EFE3" opacity="0.06"></circle><circle cx="1007" cy="1059" r="1.1" fill="#F4EFE3" opacity="0.07"></circle><circle cx="873" cy="707" r="0.8" fill="#F4EFE3" opacity="0.03"></circle><circle cx="293" cy="1023" r="1.1" fill="#F4EFE3" opacity="0.03"></circle><circle cx="1002" cy="298" r="1.1" fill="#F4EFE3" opacity="0.05"></circle><circle cx="297" cy="230" r="1.0" fill="#F4EFE3" opacity="0.04"></circle><circle cx="687" cy="766" r="1.2" fill="#F4EFE3" opacity="0.07"></circle><circle cx="688" cy="1063" r="0.9" fill="#F4EFE3" opacity="0.07"></circle><circle cx="896" cy="899" r="0.5" fill="#F4EFE3" opacity="0.05"></circle><circle cx="568" cy="102" r="0.8" fill="#F4EFE3" opacity="0.05"></circle><circle cx="7" cy="10" r="1.0" fill="#F4EFE3" opacity="0.04"></circle><circle cx="1076" cy="935" r="1.2" fill="#F4EFE3" opacity="0.07"></circle><circle cx="247" cy="798" r="0.5" fill="#F4EFE3" opacity="0.03"></circle><circle cx="414" cy="270" r="0.4" fill="#F4EFE3" opacity="0.05"></circle><circle cx="1062" cy="87" r="0.6" fill="#F4EFE3" opacity="0.08"></circle><circle cx="581" cy="512" r="0.8" fill="#F4EFE3" opacity="0.07"></circle><circle cx="517" cy="443" r="0.8" fill="#F4EFE3" opacity="0.07"></circle><circle cx="21" cy="488" r="1.0" fill="#F4EFE3" opacity="0.02"></circle><circle cx="349" cy="381" r="1.0" fill="#F4EFE3" opacity="0.05"></circle><circle cx="548" cy="332" r="0.8" fill="#F4EFE3" opacity="0.08"></circle><circle cx="124" cy="97" r="0.6" fill="#F4EFE3" opacity="0.02"></circle><circle cx="157" cy="342" r="1.1" fill="#F4EFE3" opacity="0.08"></circle><circle cx="17" cy="550" r="0.6" fill="#F4EFE3" opacity="0.07"></circle><circle cx="1095" cy="767" r="0.4" fill="#F4EFE3" opacity="0.05"></circle><circle cx="475" cy="594" r="0.6" fill="#F4EFE3" opacity="0.02"></circle><circle cx="666" cy="909" r="0.7" fill="#F4EFE3" opacity="0.04"></circle><circle cx="49" cy="587" r="1.2" fill="#F4EFE3" opacity="0.05"></circle><circle cx="139" cy="125" r="1.3" fill="#F4EFE3" opacity="0.06"></circle><circle cx="281" cy="566" r="0.5" fill="#F4EFE3" opacity="0.05"></circle><circle cx="31" cy="330" r="0.9" fill="#F4EFE3" opacity="0.05"></circle><circle cx="324" cy="731" r="0.6" fill="#F4EFE3" opacity="0.07"></circle><circle cx="914" cy="631" r="1.4" fill="#F4EFE3" opacity="0.03"></circle><circle cx="1074" cy="54" r="1.0" fill="#F4EFE3" opacity="0.03"></circle><circle cx="126" cy="304" r="0.8" fill="#F4EFE3" opacity="0.02"></circle><circle cx="310" cy="1016" r="1.2" fill="#F4EFE3" opacity="0.06"></circle><circle cx="1060" cy="534" r="1.2" fill="#F4EFE3" opacity="0.07"></circle><circle cx="577" cy="544" r="0.6" fill="#F4EFE3" opacity="0.08"></circle><circle cx="368" cy="217" r="0.6" fill="#F4EFE3" opacity="0.07"></circle><circle cx="317" cy="742" r="1.0" fill="#F4EFE3" opacity="0.08"></circle><circle cx="896" cy="1046" r="0.6" fill="#F4EFE3" opacity="0.02"></circle><circle cx="33" cy="215" r="0.5" fill="#F4EFE3" opacity="0.03"></circle><circle cx="774" cy="484" r="0.7" fill="#F4EFE3" opacity="0.05"></circle><circle cx="233" cy="397" r="0.8" fill="#F4EFE3" opacity="0.02"></circle><circle cx="1037" cy="982" r="0.8" fill="#F4EFE3" opacity="0.06"></circle><circle cx="26" cy="415" r="1.0" fill="#F4EFE3" opacity="0.05"></circle><circle cx="129" cy="529" r="0.6" fill="#F4EFE3" opacity="0.06"></circle><circle cx="761" cy="604" r="1.3" fill="#F4EFE3" opacity="0.07"></circle><circle cx="134" cy="1077" r="1.1" fill="#F4EFE3" opacity="0.05"></circle><circle cx="521" cy="889" r="0.7" fill="#F4EFE3" opacity="0.06"></circle><circle cx="425" cy="615" r="1.0" fill="#F4EFE3" opacity="0.05"></circle><circle cx="651" cy="42" r="0.6" fill="#F4EFE3" opacity="0.04"></circle><circle cx="371" cy="410" r="0.7" fill="#F4EFE3" opacity="0.04"></circle><circle cx="522" cy="170" r="0.5" fill="#F4EFE3" opacity="0.07"></circle><circle cx="725" cy="885" r="0.7" fill="#F4EFE3" opacity="0.07"></circle><circle cx="474" cy="521" r="0.4" fill="#F4EFE3" opacity="0.03"></circle><circle cx="693" cy="840" r="0.7" fill="#F4EFE3" opacity="0.07"></circle><circle cx="720" cy="35" r="0.6" fill="#F4EFE3" opacity="0.08"></circle><circle cx="572" cy="2" r="1.1" fill="#F4EFE3" opacity="0.04"></circle><circle cx="107" cy="1028" r="0.8" fill="#F4EFE3" opacity="0.06"></circle><circle cx="369" cy="984" r="1.0" fill="#F4EFE3" opacity="0.04"></circle><circle cx="311" cy="1018" r="1.0" fill="#F4EFE3" opacity="0.08"></circle><circle cx="197" cy="472" r="1.1" fill="#F4EFE3" opacity="0.08"></circle><circle cx="843" cy="506" r="1.3" fill="#F4EFE3" opacity="0.07"></circle><circle cx="362" cy="412" r="1.0" fill="#F4EFE3" opacity="0.08"></circle><circle cx="715" cy="451" r="1.1" fill="#F4EFE3" opacity="0.03"></circle><circle cx="593" cy="679" r="1.1" fill="#F4EFE3" opacity="0.08"></circle><circle cx="65" cy="706" r="0.9" fill="#F4EFE3" opacity="0.04"></circle><circle cx="545" cy="290" r="0.6" fill="#F4EFE3" opacity="0.07"></circle><circle cx="673" cy="96" r="0.7" fill="#F4EFE3" opacity="0.02"></circle><circle cx="405" cy="404" r="0.5" fill="#F4EFE3" opacity="0.02"></circle><circle cx="482" cy="1083" r="0.7" fill="#F4EFE3" opacity="0.08"></circle><circle cx="128" cy="897" r="0.5" fill="#F4EFE3" opacity="0.06"></circle><circle cx="181" cy="999" r="1.3" fill="#F4EFE3" opacity="0.03"></circle><circle cx="1089" cy="774" r="0.4" fill="#F4EFE3" opacity="0.07"></circle><circle cx="470" cy="467" r="0.9" fill="#F4EFE3" opacity="0.03"></circle><circle cx="1015" cy="782" r="1.2" fill="#F4EFE3" opacity="0.07"></circle><circle cx="287" cy="781" r="1.2" fill="#F4EFE3" opacity="0.04"></circle><circle cx="719" cy="648" r="1.3" fill="#F4EFE3" opacity="0.05"></circle><circle cx="427" cy="685" r="1.2" fill="#F4EFE3" opacity="0.06"></circle><circle cx="431" cy="642" r="1.3" fill="#F4EFE3" opacity="0.06"></circle><circle cx="811" cy="199" r="0.9" fill="#F4EFE3" opacity="0.05"></circle><circle cx="308" cy="612" r="0.5" fill="#F4EFE3" opacity="0.03"></circle><circle cx="407" cy="892" r="1.3" fill="#F4EFE3" opacity="0.04"></circle><circle cx="991" cy="1025" r="0.8" fill="#F4EFE3" opacity="0.04"></circle><circle cx="273" cy="137" r="1.2" fill="#F4EFE3" opacity="0.04"></circle><circle cx="179" cy="849" r="1.1" fill="#F4EFE3" opacity="0.03"></circle>
<rect x="40" y="40" width="1020" height="1020" fill="none" stroke="#D32027" stroke-opacity="0.18" stroke-width="2"></rect>
<g opacity="0.2" fill="none" stroke="#F4EFE3" stroke-width="4.5" stroke-linejoin="round" stroke-linecap="round"><rect x="460" y="417" width="180" height="135" rx="16"></rect><circle cx="550" cy="486" r="40"></circle><rect x="500" y="394" width="99" height="31" rx="7"></rect></g>
<text x="550.0" y="620.0" font-family="Oswald, Arial, sans-serif" font-size="46" font-weight="600" letter-spacing="6" fill="#F4EFE3" fill-opacity="0.82" text-anchor="middle">GAME NIGHT</text>
<text x="550.0" y="668.0" font-family="Manrope, Arial, sans-serif" font-size="22" letter-spacing="3" fill="#D32027" fill-opacity="0.9" text-anchor="middle">THE JUG HANDLE</text>
</svg>