<svg xmlns="http://www.w3.org/2000/svg" viewBox="0 0 1100 1100" preserveAspectRatio="xMidYMid slice" role="img" aria-label="The Patio">
<defs>
<linearGradient id="g" x1="0" y1="0" x2="1" y2="1">
<stop offset="0" stop-color="#2A1F16"></stop><stop offset="1" stop-color="#0C0B0A"></stop>
</linearGradient>
<radialGradient id="v" cx="50%" cy="42%" r="75%">
<stop offset="0" stop-color="#E6A532" stop-opacity="0.16"></stop>
<stop offset="0.55" stop-color="#E6A532" stop-opacity="0"></stop>
</radialGradient>
</defs>
<rect width="1100" height="1100" fill="url(#g)"></rect>
<rect width="1100" height="1100" fill="url(#v)"></rect>
<circle cx="268" cy="552" r="0.6" fill="#F4EFE3" opacity="0.07"></circle><circle cx="255" cy="608" r="1.3" fill="#F4EFE3" opacity="0.04"></circle><circle cx="1065" cy="805" r="0.9" fill="#F4EFE3" opacity="0.06"></circle><circle cx="645" cy="396" r="1.4" fill="#F4EFE3" opacity="0.04"></circle><circle cx="1082" cy="938" r="0.4" fill="#F4EFE3" opacity="0.04"></circle><circle cx="526" cy="896" r="0.6" fill="#F4EFE3" opacity="0.06"></circle><circle cx="404" cy="864" r="1.3" fill="#F4EFE3" opacity="0.07"></circle><circle cx="213" cy="836" r="0.8" fill="#F4EFE3" opacity="0.07"></circle><circle cx="517" cy="997" r="1.4" fill="#F4EFE3" opacity="0.07"></circle><circle cx="909" cy="901" r="1.0" fill="#F4EFE3" opacity="0.03"></circle><circle cx="1085" cy="511" r="0.4" fill="#F4EFE3" opacity="0.05"></circle><circle cx="456" cy="221" r="1.4" fill="#F4EFE3" opacity="0.03"></circle><circle cx="995" cy="605" r="0.6" fill="#F4EFE3" opacity="0.04"></circle><circle cx="495" cy="129" r="1.2" fill="#F4EFE3" opacity="0.06"></circle><circle cx="1081" cy="913" r="1.2" fill="#F4EFE3" opacity="0.08"></circle><circle cx="1025" cy="708" r="0.9" fill="#F4EFE3" opacity="0.05"></circle><circle cx="895" cy="1018" r="1.2" fill="#F4EFE3" opacity="0.07"></circle><circle cx="30" cy="463" r="0.5" fill="#F4EFE3" opacity="0.06"></circle><circle cx="638" cy="617" r="1.3" fill="#F4EFE3" opacity="0.03"></circle><circle cx="802" cy="645" r="0.6" fill="#F4EFE3" opacity="0.08"></circle><circle cx="59" cy="511" r="0.9" fill="#F4EFE3" opacity="0.06"></circle><circle cx="1080" cy="607" r="1.3" fill="#F4EFE3" opacity="0.04"></circle><circle cx="530" cy="162" r="1.0" fill="#F4EFE3" opacity="0.05"></circle><circle cx="863" cy="124" r="0.9" fill="#F4EFE3" opacity="0.08"></circle><circle cx="12" cy="726" r="1.1" fill="#F4EFE3" opacity="0.06"></circle><circle cx="613" cy="551" r="1.4" fill="#F4EFE3" opacity="0.04"></circle><circle cx="774" cy="735" r="1.1" fill="#F4EFE3" opacity="0.05"></circle><circle cx="18" cy="853" r="0.7" fill="#F4EFE3" opacity="0.07"></circle><circle cx="1086" cy="854" r="0.8" fill="#F4EFE3" opacity="0.07"></circle><circle cx="424" cy="352" r="1.0" fill="#F4EFE3" opacity="0.06"></circle><circle cx="754" cy="608" r="0.8" fill="#F4EFE3" opacity="0.06"></circle><circle cx="357" cy="667" r="0.4" fill="#F4EFE3" opacity="0.03"></circle><circle cx="954" cy="237" r="0.8" fill="#F4EFE3" opacity="0.02"></circle><circle cx="842" cy="361" r="0.4" fill="#F4EFE3" opacity="0.04"></circle><circle cx="1024" cy="831" r="0.4" fill="#F4EFE3" opacity="0.08"></circle><circle cx="80" cy="533" r="0.9" fill="#F4EFE3" opacity="0.07"></circle><circle cx="156" cy="907" r="0.7" fill="#F4EFE3" opacity="0.06"></circle><circle cx="1020" cy="649" r="0.4" fill="#F4EFE3" opacity="0.06"></circle><circle cx="479" cy="804" r="1.2" fill="#F4EFE3" opacity="0.03"></circle><circle cx="625" cy="708" r="1.3" fill="#F4EFE3" opacity="0.06"></circle><circle cx="676" cy="846" r="0.6" fill="#F4EFE3" opacity="0.07"></circle><circle cx="639" cy="700" r="0.6" fill="#F4EFE3" opacity="0.05"></circle><circle cx="450" cy="226" r="1.3" fill="#F4EFE3" opacity="0.07"></circle><circle cx="505" cy="83" r="1.4" fill="#F4EFE3" opacity="0.03"></circle><circle cx="558" cy="622" r="1.3" fill="#F4EFE3" opacity="0.06"></circle><circle cx="664" cy="564" r="1.4" fill="#F4EFE3" opacity="0.07"></circle><circle cx="392" cy="874" r="1.3" fill="#F4EFE3" opacity="0.05"></circle><circle cx="93" cy="74" r="1.4" fill="#F4EFE3" opacity="0.03"></circle><circle cx="885" cy="212" r="0.6" fill="#F4EFE3" opacity="0.03"></circle><circle cx="897" cy="101" r="0.9" fill="#F4EFE3" opacity="0.07"></circle><circle cx="580" cy="10" r="0.4" fill="#F4EFE3" opacity="0.07"></circle><circle cx="330" cy="91" r="0.9" fill="#F4EFE3" opacity="0.07"></circle><circle cx="333" cy="147" r="0.6" fill="#F4EFE3" opacity="0.05"></circle><circle cx="858" cy="91" r="1.2" fill="#F4EFE3" opacity="0.06"></circle><circle cx="614" cy="421" r="0.4" fill="#F4EFE3" opacity="0.05"></circle><circle cx="453" cy="747" r="0.5" fill="#F4EFE3" opacity="0.03"></circle><circle cx="21" cy="535" r="0.5" fill="#F4EFE3" opacity="0.05"></circle><circle cx="481" cy="364" r="0.6" fill="#F4EFE3" opacity="0.08"></circle><circle cx="529" cy="112" r="1.0" fill="#F4EFE3" opacity="0.07"></circle><circle cx="537" cy="980" r="1.2" fill="#F4EFE3" opacity="0.06"></circle><circle cx="29" cy="442" r="0.9" fill="#F4EFE3" opacity="0.03"></circle><circle cx="550" cy="735" r="1.2" fill="#F4EFE3" opacity="0.07"></circle><circle cx="822" cy="330" r="1.0" fill="#F4EFE3" opacity="0.05"></circle><circle cx="834" cy="134" r="0.6" fill="#F4EFE3" opacity="0.06"></circle><circle cx="796" cy="252" r="1.2" fill="#F4EFE3" opacity="0.07"></circle><circle cx="711" cy="508" r="0.5" fill="#F4EFE3" opacity="0.03"></circle><circle cx="842" cy="1025" r="0.6" fill="#F4EFE3" opacity="0.02"></circle><circle cx="384" cy="1034" r="0.6" fill="#F4EFE3" opacity="0.08"></circle><circle cx="862" cy="924" r="1.4" fill="#F4EFE3" opacity="0.06"></circle><circle cx="218" cy="477" r="0.8" fill="#F4EFE3" opacity="0.06"></circle><circle cx="389" cy="805" r="0.4" fill="#F4EFE3" opacity="0.03"></circle><circle cx="244" cy="188" r="1.1" fill="#F4EFE3" opacity="0.07"></circle><circle cx="104" cy="525" r="0.4" fill="#F4EFE3" opacity="0.03"></circle><circle cx="159" cy="762" r="1.2" fill="#F4EFE3" opacity="0.07"></circle><circle cx="302" cy="451" r="0.6" fill="#F4EFE3" opacity="0.06"></circle><circle cx="252" cy="843" r="0.9" fill="#F4EFE3" opacity="0.05"></circle><circle cx="959" cy="1017" r="0.7" fill="#F4EFE3" opacity="0.06"></circle><circle cx="300" cy="12" r="1.3" fill="#F4EFE3" opacity="0.03"></circle><circle cx="309" cy="790" r="1.3" fill="#F4EFE3" opacity="0.04"></circle><circle cx="788" cy="436" r="0.4" fill="#F4EFE3" opacity="0.05"></circle><circle cx="190" cy="231" r="0.8" fill="#F4EFE3" opacity="0.06"></circle><circle cx="242" cy="241" r="1.0" fill="#F4EFE3" opacity="0.04"></circle><circle cx="617" cy="741" r="0.7" fill="#F4EFE3" opacity="0.07"></circle><circle cx="1064" cy="43" r="0.5" fill="#F4EFE3" opacity="0.03"></circle><circle cx="541" cy="331" r="1.1" fill="#F4EFE3" opacity="0.08"></circle><circle cx="499" cy="301" r="0.6" fill="#F4EFE3" opacity="0.07"></circle><circle cx="896" cy="967" r="1.4" fill="#F4EFE3" opacity="0.05"></circle><circle cx="822" cy="370" r="0.5" fill="#F4EFE3" opacity="0.06"></circle><circle cx="408" cy="594" r="1.0" fill="#F4EFE3" opacity="0.03"></circle><circle cx="24" cy="819" r="1.2" fill="#F4EFE3" opacity="0.07"></circle>
<rect x="40" y="40" width="1020" height="1020" fill="none" stroke="#E6A532" stroke-opacity="0.18" stroke-width="2"></rect>
<g opacity="0.2" fill="none" stroke="#F4EFE3" stroke-width="4.5" stroke-linejoin="round" stroke-linecap="round"><rect x="460" y="417" width="180" height="135" rx="16"></rect><circle cx="550" cy="486" r="40"></circle><rect x="500" y="394" width="99" height="31" rx="7"></rect></g>
<text x="550.0" y="620.0" font-family="Oswald, Arial, sans-serif" font-size="46" font-weight="600" letter-spacing="6" fill="#F4EFE3" fill-opacity="0.82" text-anchor="middle">THE PATIO</text>
<text x="550.0" y="668.0" font-family="Manrope, Arial, sans-serif" font-size="22" letter-spacing="3" fill="#E6A532" fill-opacity="0.9" text-anchor="middle">THE JUG HANDLE</text>
</svg>