<svg xmlns="http://www.w3.org/2000/svg" viewBox="0 0 1600 1000" preserveAspectRatio="xMidYMid slice" role="img" aria-label="The Kitchen">
<defs>
<linearGradient id="g" x1="0" y1="0" x2="1" y2="1">
<stop offset="0" stop-color="#1C1611"></stop><stop offset="1" stop-color="#0C0B0A"></stop>
</linearGradient>
<radialGradient id="v" cx="50%" cy="42%" r="75%">
<stop offset="0" stop-color="#D32027" stop-opacity="0.16"></stop>
<stop offset="0.55" stop-color="#D32027" stop-opacity="0"></stop>
</radialGradient>
</defs>
<rect width="1600" height="1000" fill="url(#g)"></rect>
<rect width="1600" height="1000" fill="url(#v)"></rect>
<circle cx="264" cy="690" r="1.0" fill="#F4EFE3" opacity="0.05"></circle><circle cx="346" cy="793" r="1.2" fill="#F4EFE3" opacity="0.05"></circle><circle cx="808" cy="236" r="0.4" fill="#F4EFE3" opacity="0.04"></circle><circle cx="937" cy="69" r="1.2" fill="#F4EFE3" opacity="0.03"></circle><circle cx="372" cy="42" r="1.4" fill="#F4EFE3" opacity="0.06"></circle><circle cx="1400" cy="616" r="0.4" fill="#F4EFE3" opacity="0.04"></circle><circle cx="796" cy="116" r="1.4" fill="#F4EFE3" opacity="0.04"></circle><circle cx="248" cy="818" r="0.5" fill="#F4EFE3" opacity="0.08"></circle><circle cx="725" cy="552" r="0.7" fill="#F4EFE3" opacity="0.05"></circle><circle cx="299" cy="37" r="1.3" fill="#F4EFE3" opacity="0.03"></circle><circle cx="1248" cy="209" r="1.4" fill="#F4EFE3" opacity="0.07"></circle><circle cx="1208" cy="763" r="1.0" fill="#F4EFE3" opacity="0.06"></circle><circle cx="196" cy="476" r="1.2" fill="#F4EFE3" opacity="0.03"></circle><circle cx="1477" cy="888" r="0.8" fill="#F4EFE3" opacity="0.04"></circle><circle cx="722" cy="386" r="1.4" fill="#F4EFE3" opacity="0.04"></circle><circle cx="43" cy="93" r="1.1" fill="#F4EFE3" opacity="0.08"></circle><circle cx="794" cy="492" r="1.0" fill="#F4EFE3" opacity="0.06"></circle><circle cx="355" cy="609" r="1.0" fill="#F4EFE3" opacity="0.06"></circle><circle cx="289" cy="170" r="0.7" fill="#F4EFE3" opacity="0.08"></circle><circle cx="555" cy="597" r="0.7" fill="#F4EFE3" opacity="0.03"></circle><circle cx="105" cy="814" r="1.2" fill="#F4EFE3" opacity="0.04"></circle><circle cx="1093" cy="676" r="1.3" fill="#F4EFE3" opacity="0.08"></circle><circle cx="651" cy="989" r="1.4" fill="#F4EFE3" opacity="0.06"></circle><circle cx="1413" cy="491" r="0.8" fill="#F4EFE3" opacity="0.03"></circle><circle cx="1402" cy="162" r="0.5" fill="#F4EFE3" opacity="0.07"></circle><circle cx="1238" cy="483" r="1.2" fill="#F4EFE3" opacity="0.02"></circle><circle cx="413" cy="290" r="0.8" fill="#F4EFE3" opacity="0.03"></circle><circle cx="111" cy="338" r="1.3" fill="#F4EFE3" opacity="0.08"></circle><circle cx="1193" cy="479" r="0.7" fill="#F4EFE3" opacity="0.08"></circle><circle cx="841" cy="729" r="0.4" fill="#F4EFE3" opacity="0.03"></circle><circle cx="1341" cy="795" r="1.3" fill="#F4EFE3" opacity="0.06"></circle><circle cx="682" cy="581" r="1.2" fill="#F4EFE3" opacity="0.04"></circle><circle cx="855" cy="276" r="1.2" fill="#F4EFE3" opacity="0.02"></circle><circle cx="1096" cy="954" r="0.4" fill="#F4EFE3" opacity="0.06"></circle><circle cx="1030" cy="852" r="1.0" fill="#F4EFE3" opacity="0.04"></circle><circle cx="649" cy="959" r="1.3" fill="#F4EFE3" opacity="0.03"></circle><circle cx="152" cy="94" r="0.4" fill="#F4EFE3" opacity="0.05"></circle><circle cx="225" cy="867" r="1.1" fill="#F4EFE3" opacity="0.03"></circle><circle cx="862" cy="324" r="0.9" fill="#F4EFE3" opacity="0.03"></circle><circle cx="266" cy="184" r="0.8" fill="#F4EFE3" opacity="0.06"></circle><circle cx="880" cy="46" r="1.1" fill="#F4EFE3" opacity="0.07"></circle><circle cx="1239" cy="791" r="0.4" fill="#F4EFE3" opacity="0.05"></circle><circle cx="102" cy="764" r="0.6" fill="#F4EFE3" opacity="0.06"></circle><circle cx="405" cy="697" r="0.7" fill="#F4EFE3" opacity="0.02"></circle><circle cx="622" cy="309" r="1.3" fill="#F4EFE3" opacity="0.04"></circle><circle cx="805" cy="549" r="1.3" fill="#F4EFE3" opacity="0.03"></circle><circle cx="962" cy="508" r="1.1" fill="#F4EFE3" opacity="0.08"></circle><circle cx="496" cy="699" r="0.9" fill="#F4EFE3" opacity="0.05"></circle><circle cx="102" cy="815" r="1.4" fill="#F4EFE3" opacity="0.04"></circle><circle cx="509" cy="993" r="0.5" fill="#F4EFE3" opacity="0.02"></circle><circle cx="117" cy="814" r="1.2" fill="#F4EFE3" opacity="0.05"></circle><circle cx="994" cy="20" r="1.0" fill="#F4EFE3" opacity="0.05"></circle><circle cx="828" cy="389" r="0.8" fill="#F4EFE3" opacity="0.03"></circle><circle cx="78" cy="434" r="0.6" fill="#F4EFE3" opacity="0.06"></circle><circle cx="1308" cy="724" r="0.9" fill="#F4EFE3" opacity="0.03"></circle><circle cx="617" cy="487" r="1.0" fill="#F4EFE3" opacity="0.08"></circle><circle cx="137" cy="480" r="0.9" fill="#F4EFE3" opacity="0.06"></circle><circle cx="1425" cy="780" r="1.0" fill="#F4EFE3" opacity="0.07"></circle><circle cx="1069" cy="859" r="1.1" fill="#F4EFE3" opacity="0.06"></circle><circle cx="392" cy="917" r="0.8" fill="#F4EFE3" opacity="0.06"></circle><circle cx="1320" cy="964" r="1.4" fill="#F4EFE3" opacity="0.02"></circle><circle cx="500" cy="312" r="0.8" fill="#F4EFE3" opacity="0.03"></circle><circle cx="885" cy="80" r="0.7" fill="#F4EFE3" opacity="0.08"></circle><circle cx="1188" cy="462" r="0.5" fill="#F4EFE3" opacity="0.08"></circle><circle cx="1126" cy="206" r="0.7" fill="#F4EFE3" opacity="0.06"></circle><circle cx="1091" cy="261" r="1.4" fill="#F4EFE3" opacity="0.04"></circle><circle cx="407" cy="845" r="0.6" fill="#F4EFE3" opacity="0.06"></circle><circle cx="320" cy="598" r="0.7" fill="#F4EFE3" opacity="0.04"></circle><circle cx="1505" cy="467" r="0.8" fill="#F4EFE3" opacity="0.06"></circle><circle cx="449" cy="174" r="0.8" fill="#F4EFE3" opacity="0.04"></circle><circle cx="302" cy="961" r="0.4" fill="#F4EFE3" opacity="0.07"></circle><circle cx="1496" cy="705" r="0.4" fill="#F4EFE3" opacity="0.05"></circle><circle cx="63" cy="608" r="1.1" fill="#F4EFE3" opacity="0.03"></circle><circle cx="12" cy="544" r="0.5" fill="#F4EFE3" opacity="0.04"></circle><circle cx="727" cy="894" r="0.8" fill="#F4EFE3" opacity="0.03"></circle><circle cx="1267" cy="822" r="0.9" fill="#F4EFE3" opacity="0.02"></circle><circle cx="300" cy="403" r="1.0" fill="#F4EFE3" opacity="0.03"></circle><circle cx="1284" cy="843" r="1.3" fill="#F4EFE3" opacity="0.07"></circle><circle cx="28" cy="582" r="0.5" fill="#F4EFE3" opacity="0.07"></circle><circle cx="1195" cy="759" r="0.6" fill="#F4EFE3" opacity="0.02"></circle><circle cx="1304" cy="607" r="1.0" fill="#F4EFE3" opacity="0.05"></circle><circle cx="1280" cy="338" r="0.7" fill="#F4EFE3" opacity="0.04"></circle><circle cx="477" cy="627" r="1.3" fill="#F4EFE3" opacity="0.02"></circle><circle cx="108" cy="512" r="1.1" fill="#F4EFE3" opacity="0.03"></circle><circle cx="432" cy="59" r="0.4" fill="#F4EFE3" opacity="0.05"></circle><circle cx="1089" cy="653" r="0.6" fill="#F4EFE3" opacity="0.03"></circle><circle cx="1489" cy="539" r="0.8" fill="#F4EFE3" opacity="0.06"></circle><circle cx="1165" cy="525" r="0.5" fill="#F4EFE3" opacity="0.07"></circle><circle cx="342" cy="40" r="0.8" fill="#F4EFE3" opacity="0.05"></circle><circle cx="1005" cy="174" r="1.1" fill="#F4EFE3" opacity="0.05"></circle>
<rect x="40" y="40" width="1520" height="920" fill="none" stroke="#D32027" stroke-opacity="0.18" stroke-width="2"></rect>
<g opacity="0.2" fill="none" stroke="#F4EFE3" stroke-width="4.5" stroke-linejoin="round" stroke-linecap="round"><rect x="710" y="367" width="180" height="135" rx="16"></rect><circle cx="800" cy="436" r="40"></circle><rect x="750" y="344" width="99" height="31" rx="7"></rect></g>
<text x="800.0" y="570.0" font-family="Oswald, Arial, sans-serif" font-size="46" font-weight="600" letter-spacing="6" fill="#F4EFE3" fill-opacity="0.82" text-anchor="middle">THE KITCHEN</text>
<text x="800.0" y="618.0" font-family="Manrope, Arial, sans-serif" font-size="22" letter-spacing="3" fill="#D32027" fill-opacity="0.9" text-anchor="middle">MADE FRESH</text>
</svg>