<svg xmlns="http://www.w3.org/2000/svg" viewBox="0 0 1600 1000" preserveAspectRatio="xMidYMid slice" role="img" aria-label="The Regulars">
<defs>
<linearGradient id="g" x1="0" y1="0" x2="1" y2="1">
<stop offset="0" stop-color="#2A1F16"></stop><stop offset="1" stop-color="#0C0B0A"></stop>
</linearGradient>
<radialGradient id="v" cx="50%" cy="42%" r="75%">
<stop offset="0" stop-color="#E6A532" stop-opacity="0.16"></stop>
<stop offset="0.55" stop-color="#E6A532" stop-opacity="0"></stop>
</radialGradient>
</defs>
<rect width="1600" height="1000" fill="url(#g)"></rect>
<rect width="1600" height="1000" fill="url(#v)"></rect>
<circle cx="1480" cy="949" r="1.3" fill="#F4EFE3" opacity="0.03"></circle><circle cx="947" cy="424" r="0.9" fill="#F4EFE3" opacity="0.03"></circle><circle cx="307" cy="445" r="0.6" fill="#F4EFE3" opacity="0.05"></circle><circle cx="40" cy="86" r="1.1" fill="#F4EFE3" opacity="0.05"></circle><circle cx="820" cy="734" r="0.8" fill="#F4EFE3" opacity="0.02"></circle><circle cx="1253" cy="589" r="1.1" fill="#F4EFE3" opacity="0.06"></circle><circle cx="1553" cy="363" r="1.2" fill="#F4EFE3" opacity="0.04"></circle><circle cx="915" cy="661" r="0.7" fill="#F4EFE3" opacity="0.03"></circle><circle cx="759" cy="718" r="1.0" fill="#F4EFE3" opacity="0.05"></circle><circle cx="1028" cy="182" r="0.6" fill="#F4EFE3" opacity="0.04"></circle><circle cx="1305" cy="196" r="0.5" fill="#F4EFE3" opacity="0.03"></circle><circle cx="62" cy="276" r="1.0" fill="#F4EFE3" opacity="0.07"></circle><circle cx="529" cy="370" r="0.7" fill="#F4EFE3" opacity="0.04"></circle><circle cx="1244" cy="549" r="0.7" fill="#F4EFE3" opacity="0.03"></circle><circle cx="1254" cy="707" r="1.2" fill="#F4EFE3" opacity="0.03"></circle><circle cx="873" cy="919" r="1.0" fill="#F4EFE3" opacity="0.08"></circle><circle cx="268" cy="975" r="0.5" fill="#F4EFE3" opacity="0.04"></circle><circle cx="37" cy="810" r="1.1" fill="#F4EFE3" opacity="0.08"></circle><circle cx="1288" cy="949" r="0.9" fill="#F4EFE3" opacity="0.08"></circle><circle cx="1198" cy="346" r="1.4" fill="#F4EFE3" opacity="0.04"></circle><circle cx="309" cy="76" r="0.9" fill="#F4EFE3" opacity="0.03"></circle><circle cx="1494" cy="950" r="0.6" fill="#F4EFE3" opacity="0.03"></circle><circle cx="846" cy="170" r="0.9" fill="#F4EFE3" opacity="0.07"></circle><circle cx="405" cy="422" r="1.3" fill="#F4EFE3" opacity="0.05"></circle><circle cx="548" cy="892" r="1.2" fill="#F4EFE3" opacity="0.07"></circle><circle cx="1100" cy="413" r="1.1" fill="#F4EFE3" opacity="0.07"></circle><circle cx="1023" cy="238" r="0.7" fill="#F4EFE3" opacity="0.04"></circle><circle cx="1235" cy="557" r="0.9" fill="#F4EFE3" opacity="0.07"></circle><circle cx="174" cy="631" r="0.7" fill="#F4EFE3" opacity="0.05"></circle><circle cx="1337" cy="248" r="1.4" fill="#F4EFE3" opacity="0.02"></circle><circle cx="899" cy="542" r="0.6" fill="#F4EFE3" opacity="0.05"></circle><circle cx="753" cy="450" r="1.1" fill="#F4EFE3" opacity="0.02"></circle><circle cx="603" cy="786" r="0.5" fill="#F4EFE3" opacity="0.07"></circle><circle cx="326" cy="681" r="0.6" fill="#F4EFE3" opacity="0.05"></circle><circle cx="676" cy="82" r="1.1" fill="#F4EFE3" opacity="0.05"></circle><circle cx="1102" cy="539" r="1.0" fill="#F4EFE3" opacity="0.05"></circle><circle cx="476" cy="899" r="0.5" fill="#F4EFE3" opacity="0.07"></circle><circle cx="1382" cy="498" r="1.2" fill="#F4EFE3" opacity="0.06"></circle><circle cx="968" cy="292" r="0.7" fill="#F4EFE3" opacity="0.04"></circle><circle cx="483" cy="960" r="0.7" fill="#F4EFE3" opacity="0.04"></circle><circle cx="671" cy="816" r="0.9" fill="#F4EFE3" opacity="0.05"></circle><circle cx="409" cy="278" r="0.5" fill="#F4EFE3" opacity="0.03"></circle><circle cx="422" cy="852" r="0.9" fill="#F4EFE3" opacity="0.03"></circle><circle cx="740" cy="121" r="1.0" fill="#F4EFE3" opacity="0.05"></circle><circle cx="1373" cy="259" r="1.3" fill="#F4EFE3" opacity="0.03"></circle><circle cx="1572" cy="634" r="0.4" fill="#F4EFE3" opacity="0.07"></circle><circle cx="441" cy="362" r="0.5" fill="#F4EFE3" opacity="0.07"></circle><circle cx="145" cy="738" r="0.8" fill="#F4EFE3" opacity="0.06"></circle><circle cx="469" cy="78" r="1.3" fill="#F4EFE3" opacity="0.06"></circle><circle cx="271" cy="976" r="1.3" fill="#F4EFE3" opacity="0.03"></circle><circle cx="31" cy="611" r="0.5" fill="#F4EFE3" opacity="0.06"></circle><circle cx="750" cy="709" r="1.0" fill="#F4EFE3" opacity="0.07"></circle><circle cx="1315" cy="603" r="1.0" fill="#F4EFE3" opacity="0.04"></circle><circle cx="215" cy="92" r="1.3" fill="#F4EFE3" opacity="0.03"></circle><circle cx="683" cy="317" r="1.0" fill="#F4EFE3" opacity="0.05"></circle><circle cx="1374" cy="436" r="0.8" fill="#F4EFE3" opacity="0.06"></circle><circle cx="1192" cy="925" r="0.7" fill="#F4EFE3" opacity="0.07"></circle><circle cx="1570" cy="982" r="0.5" fill="#F4EFE3" opacity="0.04"></circle><circle cx="1238" cy="831" r="0.4" fill="#F4EFE3" opacity="0.04"></circle><circle cx="1159" cy="758" r="0.9" fill="#F4EFE3" opacity="0.03"></circle><circle cx="651" cy="59" r="0.7" fill="#F4EFE3" opacity="0.05"></circle><circle cx="1317" cy="589" r="0.8" fill="#F4EFE3" opacity="0.03"></circle><circle cx="504" cy="671" r="0.8" fill="#F4EFE3" opacity="0.03"></circle><circle cx="1315" cy="576" r="1.4" fill="#F4EFE3" opacity="0.05"></circle><circle cx="997" cy="428" r="1.0" fill="#F4EFE3" opacity="0.08"></circle><circle cx="1570" cy="661" r="0.8" fill="#F4EFE3" opacity="0.02"></circle><circle cx="1344" cy="391" r="0.8" fill="#F4EFE3" opacity="0.02"></circle><circle cx="55" cy="391" r="1.4" fill="#F4EFE3" opacity="0.06"></circle><circle cx="1134" cy="668" r="0.7" fill="#F4EFE3" opacity="0.03"></circle><circle cx="964" cy="64" r="1.0" fill="#F4EFE3" opacity="0.05"></circle><circle cx="868" cy="121" r="0.5" fill="#F4EFE3" opacity="0.05"></circle><circle cx="233" cy="641" r="0.7" fill="#F4EFE3" opacity="0.06"></circle><circle cx="1200" cy="606" r="0.9" fill="#F4EFE3" opacity="0.03"></circle><circle cx="556" cy="978" r="0.7" fill="#F4EFE3" opacity="0.04"></circle><circle cx="789" cy="546" r="1.2" fill="#F4EFE3" opacity="0.04"></circle><circle cx="1541" cy="22" r="1.2" fill="#F4EFE3" opacity="0.05"></circle><circle cx="1442" cy="153" r="1.1" fill="#F4EFE3" opacity="0.08"></circle><circle cx="1067" cy="112" r="1.3" fill="#F4EFE3" opacity="0.08"></circle><circle cx="177" cy="827" r="0.5" fill="#F4EFE3" opacity="0.02"></circle><circle cx="1273" cy="720" r="1.4" fill="#F4EFE3" opacity="0.06"></circle><circle cx="819" cy="272" r="1.0" fill="#F4EFE3" opacity="0.08"></circle><circle cx="1035" cy="876" r="0.6" fill="#F4EFE3" opacity="0.06"></circle><circle cx="1171" cy="71" r="1.2" fill="#F4EFE3" opacity="0.03"></circle><circle cx="348" cy="61" r="1.1" fill="#F4EFE3" opacity="0.03"></circle><circle cx="1561" cy="0" r="1.2" fill="#F4EFE3" opacity="0.07"></circle><circle cx="911" cy="572" r="1.2" fill="#F4EFE3" opacity="0.06"></circle><circle cx="223" cy="797" r="0.8" fill="#F4EFE3" opacity="0.06"></circle><circle cx="820" cy="904" r="0.8" fill="#F4EFE3" opacity="0.07"></circle><circle cx="131" cy="326" r="1.1" fill="#F4EFE3" opacity="0.06"></circle><circle cx="1332" cy="208" r="1.2" fill="#F4EFE3" opacity="0.07"></circle>
<rect x="40" y="40" width="1520" height="920" fill="none" stroke="#E6A532" stroke-opacity="0.18" stroke-width="2"></rect>
<g opacity="0.2" fill="none" stroke="#F4EFE3" stroke-width="4.5" stroke-linejoin="round" stroke-linecap="round"><rect x="710" y="367" width="180" height="135" rx="16"></rect><circle cx="800" cy="436" r="40"></circle><rect x="750" y="344" width="99" height="31" rx="7"></rect></g>
<text x="800.0" y="570.0" font-family="Oswald, Arial, sans-serif" font-size="46" font-weight="600" letter-spacing="6" fill="#F4EFE3" fill-opacity="0.82" text-anchor="middle">THE REGULARS</text>
<text x="800.0" y="618.0" font-family="Manrope, Arial, sans-serif" font-size="22" letter-spacing="3" fill="#E6A532" fill-opacity="0.9" text-anchor="middle">COMMUNITY FIRST</text>
</svg>