<svg xmlns="http://www.w3.org/2000/svg" viewBox="0 0 1600 900" preserveAspectRatio="xMidYMid slice" role="img" aria-label="Our Story">
<defs>
<linearGradient id="g" x1="0" y1="0" x2="1" y2="1">
<stop offset="0" stop-color="#2A1F16"></stop><stop offset="1" stop-color="#0C0B0A"></stop>
</linearGradient>
<radialGradient id="v" cx="50%" cy="42%" r="75%">
<stop offset="0" stop-color="#E6A532" stop-opacity="0.16"></stop>
<stop offset="0.55" stop-color="#E6A532" stop-opacity="0"></stop>
</radialGradient>
</defs>
<rect width="1600" height="900" fill="url(#g)"></rect>
<rect width="1600" height="900" fill="url(#v)"></rect>
<circle cx="1083" cy="706" r="0.9" fill="#F4EFE3" opacity="0.05"></circle><circle cx="630" cy="897" r="0.7" fill="#F4EFE3" opacity="0.03"></circle><circle cx="418" cy="234" r="0.7" fill="#F4EFE3" opacity="0.04"></circle><circle cx="172" cy="293" r="0.7" fill="#F4EFE3" opacity="0.05"></circle><circle cx="323" cy="64" r="0.6" fill="#F4EFE3" opacity="0.05"></circle><circle cx="622" cy="660" r="1.2" fill="#F4EFE3" opacity="0.04"></circle><circle cx="159" cy="655" r="1.2" fill="#F4EFE3" opacity="0.04"></circle><circle cx="1053" cy="269" r="1.3" fill="#F4EFE3" opacity="0.07"></circle><circle cx="1267" cy="859" r="0.6" fill="#F4EFE3" opacity="0.05"></circle><circle cx="1170" cy="721" r="0.8" fill="#F4EFE3" opacity="0.03"></circle><circle cx="1002" cy="94" r="1.1" fill="#F4EFE3" opacity="0.02"></circle><circle cx="727" cy="432" r="0.5" fill="#F4EFE3" opacity="0.05"></circle><circle cx="800" cy="332" r="1.3" fill="#F4EFE3" opacity="0.07"></circle><circle cx="1425" cy="220" r="0.4" fill="#F4EFE3" opacity="0.04"></circle><circle cx="182" cy="635" r="0.7" fill="#F4EFE3" opacity="0.03"></circle><circle cx="454" cy="363" r="1.1" fill="#F4EFE3" opacity="0.05"></circle><circle cx="482" cy="610" r="0.4" fill="#F4EFE3" opacity="0.03"></circle><circle cx="1100" cy="677" r="0.5" fill="#F4EFE3" opacity="0.02"></circle><circle cx="809" cy="591" r="0.4" fill="#F4EFE3" opacity="0.05"></circle><circle cx="440" cy="77" r="0.6" fill="#F4EFE3" opacity="0.04"></circle><circle cx="747" cy="101" r="1.0" fill="#F4EFE3" opacity="0.07"></circle><circle cx="1094" cy="61" r="1.0" fill="#F4EFE3" opacity="0.06"></circle><circle cx="14" cy="346" r="1.1" fill="#F4EFE3" opacity="0.08"></circle><circle cx="1486" cy="513" r="1.0" fill="#F4EFE3" opacity="0.08"></circle><circle cx="337" cy="458" r="0.5" fill="#F4EFE3" opacity="0.07"></circle><circle cx="1046" cy="190" r="0.6" fill="#F4EFE3" opacity="0.05"></circle><circle cx="1203" cy="122" r="0.7" fill="#F4EFE3" opacity="0.05"></circle><circle cx="418" cy="796" r="1.1" fill="#F4EFE3" opacity="0.08"></circle><circle cx="1026" cy="613" r="0.7" fill="#F4EFE3" opacity="0.05"></circle><circle cx="687" cy="431" r="0.5" fill="#F4EFE3" opacity="0.07"></circle><circle cx="247" cy="412" r="1.3" fill="#F4EFE3" opacity="0.05"></circle><circle cx="1390" cy="234" r="0.9" fill="#F4EFE3" opacity="0.04"></circle><circle cx="519" cy="332" r="0.8" fill="#F4EFE3" opacity="0.07"></circle><circle cx="1554" cy="85" r="1.1" fill="#F4EFE3" opacity="0.05"></circle><circle cx="661" cy="37" r="0.8" fill="#F4EFE3" opacity="0.04"></circle><circle cx="587" cy="534" r="0.8" fill="#F4EFE3" opacity="0.04"></circle><circle cx="439" cy="880" r="0.8" fill="#F4EFE3" opacity="0.08"></circle><circle cx="265" cy="598" r="1.0" fill="#F4EFE3" opacity="0.06"></circle><circle cx="823" cy="786" r="1.0" fill="#F4EFE3" opacity="0.02"></circle><circle cx="1092" cy="552" r="0.6" fill="#F4EFE3" opacity="0.06"></circle><circle cx="1337" cy="249" r="0.5" fill="#F4EFE3" opacity="0.04"></circle><circle cx="943" cy="400" r="0.5" fill="#F4EFE3" opacity="0.05"></circle><circle cx="876" cy="521" r="0.8" fill="#F4EFE3" opacity="0.07"></circle><circle cx="1083" cy="233" r="0.7" fill="#F4EFE3" opacity="0.08"></circle><circle cx="354" cy="403" r="0.7" fill="#F4EFE3" opacity="0.05"></circle><circle cx="1272" cy="111" r="0.6" fill="#F4EFE3" opacity="0.02"></circle><circle cx="202" cy="469" r="0.9" fill="#F4EFE3" opacity="0.08"></circle><circle cx="725" cy="473" r="0.4" fill="#F4EFE3" opacity="0.03"></circle><circle cx="495" cy="219" r="1.2" fill="#F4EFE3" opacity="0.05"></circle><circle cx="218" cy="481" r="0.6" fill="#F4EFE3" opacity="0.03"></circle><circle cx="973" cy="77" r="1.2" fill="#F4EFE3" opacity="0.05"></circle><circle cx="103" cy="607" r="1.4" fill="#F4EFE3" opacity="0.06"></circle><circle cx="1346" cy="845" r="0.7" fill="#F4EFE3" opacity="0.05"></circle><circle cx="1186" cy="357" r="1.4" fill="#F4EFE3" opacity="0.05"></circle><circle cx="35" cy="86" r="0.8" fill="#F4EFE3" opacity="0.02"></circle><circle cx="976" cy="895" r="1.3" fill="#F4EFE3" opacity="0.08"></circle><circle cx="398" cy="162" r="0.5" fill="#F4EFE3" opacity="0.08"></circle><circle cx="42" cy="65" r="1.1" fill="#F4EFE3" opacity="0.08"></circle><circle cx="855" cy="57" r="0.4" fill="#F4EFE3" opacity="0.07"></circle><circle cx="1101" cy="279" r="1.4" fill="#F4EFE3" opacity="0.04"></circle><circle cx="238" cy="870" r="0.5" fill="#F4EFE3" opacity="0.04"></circle><circle cx="288" cy="576" r="0.9" fill="#F4EFE3" opacity="0.04"></circle><circle cx="1004" cy="96" r="1.4" fill="#F4EFE3" opacity="0.07"></circle><circle cx="334" cy="536" r="0.7" fill="#F4EFE3" opacity="0.05"></circle><circle cx="504" cy="189" r="0.9" fill="#F4EFE3" opacity="0.02"></circle><circle cx="1589" cy="709" r="0.6" fill="#F4EFE3" opacity="0.06"></circle><circle cx="283" cy="150" r="0.8" fill="#F4EFE3" opacity="0.06"></circle><circle cx="111" cy="843" r="0.7" fill="#F4EFE3" opacity="0.03"></circle><circle cx="780" cy="815" r="0.8" fill="#F4EFE3" opacity="0.05"></circle><circle cx="1579" cy="475" r="0.7" fill="#F4EFE3" opacity="0.03"></circle><circle cx="834" cy="568" r="1.0" fill="#F4EFE3" opacity="0.03"></circle><circle cx="20" cy="869" r="1.1" fill="#F4EFE3" opacity="0.07"></circle><circle cx="1347" cy="383" r="0.6" fill="#F4EFE3" opacity="0.08"></circle><circle cx="1434" cy="59" r="1.0" fill="#F4EFE3" opacity="0.05"></circle><circle cx="39" cy="512" r="1.1" fill="#F4EFE3" opacity="0.05"></circle><circle cx="408" cy="798" r="1.1" fill="#F4EFE3" opacity="0.04"></circle><circle cx="1245" cy="819" r="0.8" fill="#F4EFE3" opacity="0.05"></circle><circle cx="151" cy="119" r="1.3" fill="#F4EFE3" opacity="0.08"></circle><circle cx="1490" cy="134" r="1.1" fill="#F4EFE3" opacity="0.04"></circle><circle cx="344" cy="804" r="0.5" fill="#F4EFE3" opacity="0.02"></circle><circle cx="559" cy="131" r="0.8" fill="#F4EFE3" opacity="0.06"></circle><circle cx="825" cy="829" r="0.9" fill="#F4EFE3" opacity="0.03"></circle><circle cx="878" cy="21" r="1.1" fill="#F4EFE3" opacity="0.03"></circle><circle cx="780" cy="394" r="1.3" fill="#F4EFE3" opacity="0.03"></circle><circle cx="452" cy="296" r="0.9" fill="#F4EFE3" opacity="0.04"></circle><circle cx="1570" cy="834" r="1.3" fill="#F4EFE3" opacity="0.06"></circle><circle cx="1273" cy="496" r="0.6" fill="#F4EFE3" opacity="0.03"></circle><circle cx="303" cy="691" r="1.1" fill="#F4EFE3" opacity="0.02"></circle><circle cx="467" cy="67" r="0.9" fill="#F4EFE3" opacity="0.04"></circle><circle cx="772" cy="333" r="0.8" fill="#F4EFE3" opacity="0.05"></circle>
<rect x="40" y="40" width="1520" height="820" fill="none" stroke="#E6A532" stroke-opacity="0.18" stroke-width="2"></rect>
<g opacity="0.2" fill="none" stroke="#F4EFE3" stroke-width="4.5" stroke-linejoin="round" stroke-linecap="round"><rect x="710" y="317" width="180" height="135" rx="16"></rect><circle cx="800" cy="386" r="40"></circle><rect x="750" y="294" width="99" height="31" rx="7"></rect></g>
<text x="800.0" y="520.0" font-family="Oswald, Arial, sans-serif" font-size="46" font-weight="600" letter-spacing="6" fill="#F4EFE3" fill-opacity="0.82" text-anchor="middle">OUR STORY</text>
<text x="800.0" y="568.0" font-family="Manrope, Arial, sans-serif" font-size="22" letter-spacing="3" fill="#E6A532" fill-opacity="0.9" text-anchor="middle">SINCE DAY ONE</text>
</svg>