<svg xmlns="http://www.w3.org/2000/svg" viewBox="0 0 1600 820" preserveAspectRatio="xMidYMid slice" role="img" aria-label="The Beer List">
<defs>
<linearGradient id="g" x1="0" y1="0" x2="1" y2="1">
<stop offset="0" stop-color="#2A1F16"></stop><stop offset="1" stop-color="#0C0B0A"></stop>
</linearGradient>
<radialGradient id="v" cx="50%" cy="42%" r="75%">
<stop offset="0" stop-color="#E6A532" stop-opacity="0.16"></stop>
<stop offset="0.55" stop-color="#E6A532" stop-opacity="0"></stop>
</radialGradient>
</defs>
<rect width="1600" height="820" fill="url(#g)"></rect>
<rect width="1600" height="820" fill="url(#v)"></rect>
<circle cx="877" cy="284" r="1.2" fill="#F4EFE3" opacity="0.04"></circle><circle cx="817" cy="282" r="0.8" fill="#F4EFE3" opacity="0.08"></circle><circle cx="166" cy="365" r="0.6" fill="#F4EFE3" opacity="0.04"></circle><circle cx="1598" cy="270" r="1.0" fill="#F4EFE3" opacity="0.05"></circle><circle cx="1169" cy="367" r="0.6" fill="#F4EFE3" opacity="0.05"></circle><circle cx="653" cy="650" r="1.0" fill="#F4EFE3" opacity="0.03"></circle><circle cx="1078" cy="245" r="0.9" fill="#F4EFE3" opacity="0.03"></circle><circle cx="657" cy="645" r="0.9" fill="#F4EFE3" opacity="0.07"></circle><circle cx="1211" cy="481" r="1.0" fill="#F4EFE3" opacity="0.04"></circle><circle cx="989" cy="637" r="0.5" fill="#F4EFE3" opacity="0.08"></circle><circle cx="588" cy="114" r="0.6" fill="#F4EFE3" opacity="0.04"></circle><circle cx="111" cy="326" r="0.8" fill="#F4EFE3" opacity="0.06"></circle><circle cx="747" cy="767" r="1.1" fill="#F4EFE3" opacity="0.04"></circle><circle cx="1400" cy="573" r="1.4" fill="#F4EFE3" opacity="0.06"></circle><circle cx="1545" cy="168" r="0.7" fill="#F4EFE3" opacity="0.08"></circle><circle cx="35" cy="757" r="1.3" fill="#F4EFE3" opacity="0.03"></circle><circle cx="241" cy="751" r="1.4" fill="#F4EFE3" opacity="0.07"></circle><circle cx="1159" cy="623" r="0.7" fill="#F4EFE3" opacity="0.02"></circle><circle cx="1005" cy="723" r="1.3" fill="#F4EFE3" opacity="0.05"></circle><circle cx="13" cy="143" r="0.8" fill="#F4EFE3" opacity="0.03"></circle><circle cx="44" cy="158" r="0.9" fill="#F4EFE3" opacity="0.03"></circle><circle cx="180" cy="136" r="0.4" fill="#F4EFE3" opacity="0.07"></circle><circle cx="1385" cy="165" r="1.0" fill="#F4EFE3" opacity="0.07"></circle><circle cx="390" cy="273" r="1.3" fill="#F4EFE3" opacity="0.07"></circle><circle cx="994" cy="651" r="1.0" fill="#F4EFE3" opacity="0.04"></circle><circle cx="1096" cy="643" r="0.5" fill="#F4EFE3" opacity="0.04"></circle><circle cx="471" cy="727" r="0.7" fill="#F4EFE3" opacity="0.06"></circle><circle cx="696" cy="310" r="0.9" fill="#F4EFE3" opacity="0.07"></circle><circle cx="1053" cy="319" r="0.6" fill="#F4EFE3" opacity="0.04"></circle><circle cx="753" cy="530" r="1.4" fill="#F4EFE3" opacity="0.04"></circle><circle cx="1504" cy="747" r="0.8" fill="#F4EFE3" opacity="0.03"></circle><circle cx="374" cy="755" r="0.6" fill="#F4EFE3" opacity="0.06"></circle><circle cx="1044" cy="137" r="0.4" fill="#F4EFE3" opacity="0.06"></circle><circle cx="85" cy="450" r="1.4" fill="#F4EFE3" opacity="0.05"></circle><circle cx="499" cy="87" r="0.7" fill="#F4EFE3" opacity="0.04"></circle><circle cx="187" cy="576" r="1.0" fill="#F4EFE3" opacity="0.06"></circle><circle cx="171" cy="205" r="1.3" fill="#F4EFE3" opacity="0.02"></circle><circle cx="592" cy="671" r="0.6" fill="#F4EFE3" opacity="0.03"></circle><circle cx="1020" cy="206" r="0.7" fill="#F4EFE3" opacity="0.04"></circle><circle cx="478" cy="540" r="1.1" fill="#F4EFE3" opacity="0.07"></circle><circle cx="1569" cy="60" r="0.7" fill="#F4EFE3" opacity="0.08"></circle><circle cx="1277" cy="624" r="0.6" fill="#F4EFE3" opacity="0.03"></circle><circle cx="441" cy="732" r="1.2" fill="#F4EFE3" opacity="0.04"></circle><circle cx="1054" cy="603" r="0.7" fill="#F4EFE3" opacity="0.03"></circle><circle cx="1298" cy="580" r="1.2" fill="#F4EFE3" opacity="0.06"></circle><circle cx="585" cy="537" r="0.8" fill="#F4EFE3" opacity="0.07"></circle><circle cx="198" cy="571" r="0.7" fill="#F4EFE3" opacity="0.07"></circle><circle cx="1286" cy="143" r="0.4" fill="#F4EFE3" opacity="0.03"></circle><circle cx="1538" cy="630" r="1.1" fill="#F4EFE3" opacity="0.03"></circle><circle cx="340" cy="365" r="0.9" fill="#F4EFE3" opacity="0.06"></circle><circle cx="96" cy="691" r="0.6" fill="#F4EFE3" opacity="0.06"></circle><circle cx="508" cy="243" r="1.3" fill="#F4EFE3" opacity="0.03"></circle><circle cx="806" cy="718" r="1.2" fill="#F4EFE3" opacity="0.06"></circle><circle cx="389" cy="514" r="0.9" fill="#F4EFE3" opacity="0.04"></circle><circle cx="1235" cy="553" r="1.3" fill="#F4EFE3" opacity="0.05"></circle><circle cx="230" cy="222" r="1.1" fill="#F4EFE3" opacity="0.06"></circle><circle cx="1029" cy="326" r="1.0" fill="#F4EFE3" opacity="0.02"></circle><circle cx="145" cy="661" r="0.5" fill="#F4EFE3" opacity="0.06"></circle><circle cx="479" cy="141" r="1.2" fill="#F4EFE3" opacity="0.07"></circle><circle cx="507" cy="124" r="0.9" fill="#F4EFE3" opacity="0.03"></circle><circle cx="1536" cy="19" r="0.9" fill="#F4EFE3" opacity="0.03"></circle><circle cx="4" cy="817" r="1.1" fill="#F4EFE3" opacity="0.06"></circle><circle cx="1232" cy="645" r="1.0" fill="#F4EFE3" opacity="0.06"></circle><circle cx="505" cy="85" r="1.1" fill="#F4EFE3" opacity="0.06"></circle><circle cx="1181" cy="530" r="0.5" fill="#F4EFE3" opacity="0.06"></circle><circle cx="137" cy="714" r="0.4" fill="#F4EFE3" opacity="0.04"></circle><circle cx="854" cy="713" r="1.1" fill="#F4EFE3" opacity="0.03"></circle><circle cx="1160" cy="170" r="0.7" fill="#F4EFE3" opacity="0.04"></circle><circle cx="1277" cy="171" r="0.7" fill="#F4EFE3" opacity="0.04"></circle><circle cx="387" cy="177" r="0.8" fill="#F4EFE3" opacity="0.03"></circle><circle cx="414" cy="98" r="1.0" fill="#F4EFE3" opacity="0.06"></circle><circle cx="379" cy="366" r="1.0" fill="#F4EFE3" opacity="0.08"></circle><circle cx="1546" cy="92" r="1.3" fill="#F4EFE3" opacity="0.07"></circle><circle cx="360" cy="163" r="0.9" fill="#F4EFE3" opacity="0.04"></circle><circle cx="499" cy="334" r="0.9" fill="#F4EFE3" opacity="0.05"></circle><circle cx="57" cy="348" r="0.6" fill="#F4EFE3" opacity="0.07"></circle><circle cx="230" cy="108" r="0.8" fill="#F4EFE3" opacity="0.03"></circle><circle cx="1319" cy="32" r="1.3" fill="#F4EFE3" opacity="0.06"></circle><circle cx="1183" cy="212" r="0.9" fill="#F4EFE3" opacity="0.03"></circle><circle cx="1217" cy="444" r="0.7" fill="#F4EFE3" opacity="0.04"></circle><circle cx="27" cy="71" r="1.0" fill="#F4EFE3" opacity="0.08"></circle><circle cx="1442" cy="273" r="0.7" fill="#F4EFE3" opacity="0.06"></circle><circle cx="780" cy="649" r="0.6" fill="#F4EFE3" opacity="0.04"></circle><circle cx="1506" cy="235" r="1.1" fill="#F4EFE3" opacity="0.05"></circle><circle cx="795" cy="683" r="1.4" fill="#F4EFE3" opacity="0.05"></circle><circle cx="1587" cy="220" r="0.7" fill="#F4EFE3" opacity="0.04"></circle><circle cx="544" cy="809" r="0.6" fill="#F4EFE3" opacity="0.07"></circle><circle cx="1145" cy="502" r="0.9" fill="#F4EFE3" opacity="0.07"></circle><circle cx="42" cy="764" r="0.8" fill="#F4EFE3" opacity="0.03"></circle><circle cx="0" cy="650" r="0.4" fill="#F4EFE3" opacity="0.07"></circle>
<rect x="40" y="40" width="1520" height="740" fill="none" stroke="#E6A532" stroke-opacity="0.18" stroke-width="2"></rect>
<g opacity="0.2" fill="none" stroke="#F4EFE3" stroke-width="4.5" stroke-linejoin="round" stroke-linecap="round"><rect x="710" y="277" width="180" height="135" rx="16"></rect><circle cx="800" cy="346" r="40"></circle><rect x="750" y="254" width="99" height="31" rx="7"></rect></g>
<text x="800.0" y="480.0" font-family="Oswald, Arial, sans-serif" font-size="46" font-weight="600" letter-spacing="6" fill="#F4EFE3" fill-opacity="0.82" text-anchor="middle">THE BEER LIST</text>
<text x="800.0" y="528.0" font-family="Manrope, Arial, sans-serif" font-size="22" letter-spacing="3" fill="#E6A532" fill-opacity="0.9" text-anchor="middle">ALWAYS POURING</text>
</svg>