<svg xmlns="http://www.w3.org/2000/svg" viewBox="0 0 1600 1000" preserveAspectRatio="xMidYMid slice" role="img" aria-label="Cold Beer on Tap">
<defs>
<linearGradient id="g" x1="0" y1="0" x2="1" y2="1">
<stop offset="0" stop-color="#2A1F16"></stop><stop offset="1" stop-color="#0C0B0A"></stop>
</linearGradient>
<radialGradient id="v" cx="50%" cy="42%" r="75%">
<stop offset="0" stop-color="#E6A532" stop-opacity="0.16"></stop>
<stop offset="0.55" stop-color="#E6A532" stop-opacity="0"></stop>
</radialGradient>
</defs>
<rect width="1600" height="1000" fill="url(#g)"></rect>
<rect width="1600" height="1000" fill="url(#v)"></rect>
<circle cx="1544" cy="12" r="1.1" fill="#F4EFE3" opacity="0.03"></circle><circle cx="1578" cy="17" r="1.3" fill="#F4EFE3" opacity="0.06"></circle><circle cx="1372" cy="1000" r="0.6" fill="#F4EFE3" opacity="0.04"></circle><circle cx="1133" cy="281" r="0.7" fill="#F4EFE3" opacity="0.03"></circle><circle cx="1373" cy="875" r="1.2" fill="#F4EFE3" opacity="0.03"></circle><circle cx="1480" cy="511" r="0.6" fill="#F4EFE3" opacity="0.05"></circle><circle cx="672" cy="79" r="1.0" fill="#F4EFE3" opacity="0.04"></circle><circle cx="911" cy="930" r="1.0" fill="#F4EFE3" opacity="0.04"></circle><circle cx="1382" cy="995" r="0.9" fill="#F4EFE3" opacity="0.08"></circle><circle cx="30" cy="140" r="0.6" fill="#F4EFE3" opacity="0.08"></circle><circle cx="1105" cy="719" r="0.7" fill="#F4EFE3" opacity="0.05"></circle><circle cx="1419" cy="100" r="0.5" fill="#F4EFE3" opacity="0.02"></circle><circle cx="750" cy="840" r="1.0" fill="#F4EFE3" opacity="0.04"></circle><circle cx="803" cy="179" r="1.3" fill="#F4EFE3" opacity="0.04"></circle><circle cx="376" cy="311" r="1.2" fill="#F4EFE3" opacity="0.04"></circle><circle cx="1448" cy="336" r="0.8" fill="#F4EFE3" opacity="0.02"></circle><circle cx="1452" cy="796" r="0.9" fill="#F4EFE3" opacity="0.03"></circle><circle cx="788" cy="376" r="1.2" fill="#F4EFE3" opacity="0.08"></circle><circle cx="1186" cy="287" r="0.4" fill="#F4EFE3" opacity="0.07"></circle><circle cx="1511" cy="158" r="0.9" fill="#F4EFE3" opacity="0.05"></circle><circle cx="1562" cy="43" r="0.5" fill="#F4EFE3" opacity="0.07"></circle><circle cx="911" cy="462" r="1.2" fill="#F4EFE3" opacity="0.06"></circle><circle cx="1108" cy="256" r="0.5" fill="#F4EFE3" opacity="0.02"></circle><circle cx="533" cy="649" r="0.8" fill="#F4EFE3" opacity="0.04"></circle><circle cx="990" cy="705" r="1.0" fill="#F4EFE3" opacity="0.04"></circle><circle cx="1315" cy="801" r="1.3" fill="#F4EFE3" opacity="0.07"></circle><circle cx="24" cy="669" r="0.7" fill="#F4EFE3" opacity="0.04"></circle><circle cx="829" cy="144" r="0.6" fill="#F4EFE3" opacity="0.08"></circle><circle cx="530" cy="913" r="1.1" fill="#F4EFE3" opacity="0.04"></circle><circle cx="510" cy="605" r="1.1" fill="#F4EFE3" opacity="0.04"></circle><circle cx="94" cy="172" r="1.3" fill="#F4EFE3" opacity="0.06"></circle><circle cx="173" cy="835" r="1.0" fill="#F4EFE3" opacity="0.04"></circle><circle cx="1430" cy="129" r="0.5" fill="#F4EFE3" opacity="0.04"></circle><circle cx="1180" cy="548" r="0.9" fill="#F4EFE3" opacity="0.07"></circle><circle cx="630" cy="788" r="0.4" fill="#F4EFE3" opacity="0.07"></circle><circle cx="249" cy="656" r="1.2" fill="#F4EFE3" opacity="0.06"></circle><circle cx="926" cy="550" r="1.2" fill="#F4EFE3" opacity="0.04"></circle><circle cx="374" cy="557" r="0.9" fill="#F4EFE3" opacity="0.03"></circle><circle cx="848" cy="467" r="0.6" fill="#F4EFE3" opacity="0.06"></circle><circle cx="1246" cy="339" r="1.3" fill="#F4EFE3" opacity="0.08"></circle><circle cx="1060" cy="408" r="0.7" fill="#F4EFE3" opacity="0.03"></circle><circle cx="437" cy="999" r="0.5" fill="#F4EFE3" opacity="0.07"></circle><circle cx="1116" cy="784" r="0.5" fill="#F4EFE3" opacity="0.06"></circle><circle cx="328" cy="677" r="1.2" fill="#F4EFE3" opacity="0.06"></circle><circle cx="856" cy="885" r="0.6" fill="#F4EFE3" opacity="0.03"></circle><circle cx="1385" cy="56" r="0.8" fill="#F4EFE3" opacity="0.05"></circle><circle cx="1404" cy="372" r="1.0" fill="#F4EFE3" opacity="0.05"></circle><circle cx="766" cy="473" r="0.9" fill="#F4EFE3" opacity="0.06"></circle><circle cx="692" cy="423" r="1.3" fill="#F4EFE3" opacity="0.08"></circle><circle cx="395" cy="947" r="0.4" fill="#F4EFE3" opacity="0.04"></circle><circle cx="1439" cy="169" r="1.1" fill="#F4EFE3" opacity="0.08"></circle><circle cx="979" cy="460" r="0.4" fill="#F4EFE3" opacity="0.05"></circle><circle cx="742" cy="789" r="0.8" fill="#F4EFE3" opacity="0.07"></circle><circle cx="648" cy="635" r="1.2" fill="#F4EFE3" opacity="0.03"></circle><circle cx="1526" cy="450" r="0.9" fill="#F4EFE3" opacity="0.08"></circle><circle cx="914" cy="520" r="0.6" fill="#F4EFE3" opacity="0.03"></circle><circle cx="1217" cy="506" r="1.1" fill="#F4EFE3" opacity="0.06"></circle><circle cx="1092" cy="323" r="1.3" fill="#F4EFE3" opacity="0.05"></circle><circle cx="281" cy="867" r="1.3" fill="#F4EFE3" opacity="0.03"></circle><circle cx="1416" cy="688" r="0.7" fill="#F4EFE3" opacity="0.05"></circle><circle cx="1475" cy="152" r="1.1" fill="#F4EFE3" opacity="0.03"></circle><circle cx="239" cy="950" r="1.4" fill="#F4EFE3" opacity="0.06"></circle><circle cx="1268" cy="395" r="0.8" fill="#F4EFE3" opacity="0.06"></circle><circle cx="1302" cy="701" r="0.9" fill="#F4EFE3" opacity="0.06"></circle><circle cx="644" cy="810" r="1.3" fill="#F4EFE3" opacity="0.07"></circle><circle cx="515" cy="381" r="1.4" fill="#F4EFE3" opacity="0.04"></circle><circle cx="1064" cy="96" r="0.5" fill="#F4EFE3" opacity="0.03"></circle><circle cx="1077" cy="228" r="1.1" fill="#F4EFE3" opacity="0.02"></circle><circle cx="1106" cy="702" r="0.7" fill="#F4EFE3" opacity="0.03"></circle><circle cx="402" cy="494" r="0.6" fill="#F4EFE3" opacity="0.03"></circle><circle cx="1287" cy="936" r="0.6" fill="#F4EFE3" opacity="0.05"></circle><circle cx="1054" cy="949" r="1.0" fill="#F4EFE3" opacity="0.05"></circle><circle cx="1235" cy="789" r="1.1" fill="#F4EFE3" opacity="0.06"></circle><circle cx="1298" cy="42" r="1.2" fill="#F4EFE3" opacity="0.03"></circle><circle cx="566" cy="394" r="0.9" fill="#F4EFE3" opacity="0.06"></circle><circle cx="939" cy="317" r="0.8" fill="#F4EFE3" opacity="0.06"></circle><circle cx="1490" cy="381" r="0.4" fill="#F4EFE3" opacity="0.07"></circle><circle cx="1420" cy="841" r="1.0" fill="#F4EFE3" opacity="0.05"></circle><circle cx="104" cy="921" r="0.8" fill="#F4EFE3" opacity="0.03"></circle><circle cx="1000" cy="44" r="0.8" fill="#F4EFE3" opacity="0.06"></circle><circle cx="1284" cy="359" r="0.6" fill="#F4EFE3" opacity="0.04"></circle><circle cx="1313" cy="91" r="0.5" fill="#F4EFE3" opacity="0.04"></circle><circle cx="1523" cy="883" r="1.4" fill="#F4EFE3" opacity="0.02"></circle><circle cx="802" cy="145" r="1.0" fill="#F4EFE3" opacity="0.07"></circle><circle cx="771" cy="690" r="1.1" fill="#F4EFE3" opacity="0.05"></circle><circle cx="624" cy="240" r="1.1" fill="#F4EFE3" opacity="0.08"></circle><circle cx="1549" cy="924" r="1.2" fill="#F4EFE3" opacity="0.06"></circle><circle cx="793" cy="121" r="1.2" fill="#F4EFE3" opacity="0.03"></circle><circle cx="1489" cy="857" r="0.7" fill="#F4EFE3" opacity="0.07"></circle><circle cx="1210" cy="812" r="0.5" fill="#F4EFE3" opacity="0.04"></circle>
<rect x="40" y="40" width="1520" height="920" fill="none" stroke="#E6A532" stroke-opacity="0.18" stroke-width="2"></rect>
<g opacity="0.2" fill="none" stroke="#F4EFE3" stroke-width="4.5" stroke-linejoin="round" stroke-linecap="round"><rect x="710" y="367" width="180" height="135" rx="16"></rect><circle cx="800" cy="436" r="40"></circle><rect x="750" y="344" width="99" height="31" rx="7"></rect></g>
<text x="800.0" y="570.0" font-family="Oswald, Arial, sans-serif" font-size="46" font-weight="600" letter-spacing="6" fill="#F4EFE3" fill-opacity="0.82" text-anchor="middle">COLD BEER ON TAP</text>
<text x="800.0" y="618.0" font-family="Manrope, Arial, sans-serif" font-size="22" letter-spacing="3" fill="#E6A532" fill-opacity="0.9" text-anchor="middle">30+ DRAFTS</text>
</svg>