<svg xmlns="http://www.w3.org/2000/svg" viewBox="0 0 1600 820" preserveAspectRatio="xMidYMid slice" role="img" aria-label="Catering">
<defs>
<linearGradient id="g" x1="0" y1="0" x2="1" y2="1">
<stop offset="0" stop-color="#1C1611"></stop><stop offset="1" stop-color="#0C0B0A"></stop>
</linearGradient>
<radialGradient id="v" cx="50%" cy="42%" r="75%">
<stop offset="0" stop-color="#E6A532" stop-opacity="0.16"></stop>
<stop offset="0.55" stop-color="#E6A532" stop-opacity="0"></stop>
</radialGradient>
</defs>
<rect width="1600" height="820" fill="url(#g)"></rect>
<rect width="1600" height="820" fill="url(#v)"></rect>
<circle cx="20" cy="92" r="0.8" fill="#F4EFE3" opacity="0.06"></circle><circle cx="222" cy="92" r="0.6" fill="#F4EFE3" opacity="0.07"></circle><circle cx="236" cy="607" r="1.1" fill="#F4EFE3" opacity="0.03"></circle><circle cx="857" cy="367" r="0.8" fill="#F4EFE3" opacity="0.08"></circle><circle cx="149" cy="17" r="1.3" fill="#F4EFE3" opacity="0.04"></circle><circle cx="318" cy="271" r="0.8" fill="#F4EFE3" opacity="0.08"></circle><circle cx="337" cy="178" r="1.0" fill="#F4EFE3" opacity="0.05"></circle><circle cx="1526" cy="688" r="0.8" fill="#F4EFE3" opacity="0.03"></circle><circle cx="1338" cy="811" r="0.4" fill="#F4EFE3" opacity="0.06"></circle><circle cx="1389" cy="534" r="0.6" fill="#F4EFE3" opacity="0.07"></circle><circle cx="1168" cy="159" r="1.0" fill="#F4EFE3" opacity="0.03"></circle><circle cx="66" cy="276" r="0.7" fill="#F4EFE3" opacity="0.04"></circle><circle cx="1035" cy="686" r="1.4" fill="#F4EFE3" opacity="0.08"></circle><circle cx="1590" cy="648" r="0.7" fill="#F4EFE3" opacity="0.03"></circle><circle cx="998" cy="448" r="1.1" fill="#F4EFE3" opacity="0.03"></circle><circle cx="308" cy="755" r="1.0" fill="#F4EFE3" opacity="0.06"></circle><circle cx="153" cy="327" r="1.3" fill="#F4EFE3" opacity="0.06"></circle><circle cx="1587" cy="161" r="0.9" fill="#F4EFE3" opacity="0.07"></circle><circle cx="711" cy="647" r="1.0" fill="#F4EFE3" opacity="0.03"></circle><circle cx="158" cy="806" r="0.5" fill="#F4EFE3" opacity="0.03"></circle><circle cx="536" cy="585" r="1.3" fill="#F4EFE3" opacity="0.05"></circle><circle cx="797" cy="647" r="0.7" fill="#F4EFE3" opacity="0.04"></circle><circle cx="980" cy="522" r="0.4" fill="#F4EFE3" opacity="0.03"></circle><circle cx="221" cy="595" r="1.1" fill="#F4EFE3" opacity="0.08"></circle><circle cx="1228" cy="209" r="1.2" fill="#F4EFE3" opacity="0.08"></circle><circle cx="558" cy="9" r="0.8" fill="#F4EFE3" opacity="0.04"></circle><circle cx="282" cy="37" r="0.5" fill="#F4EFE3" opacity="0.07"></circle><circle cx="80" cy="503" r="0.6" fill="#F4EFE3" opacity="0.03"></circle><circle cx="1313" cy="245" r="0.6" fill="#F4EFE3" opacity="0.05"></circle><circle cx="1112" cy="430" r="1.3" fill="#F4EFE3" opacity="0.04"></circle><circle cx="838" cy="588" r="0.9" fill="#F4EFE3" opacity="0.06"></circle><circle cx="747" cy="110" r="0.5" fill="#F4EFE3" opacity="0.07"></circle><circle cx="1192" cy="773" r="1.1" fill="#F4EFE3" opacity="0.05"></circle><circle cx="266" cy="700" r="0.5" fill="#F4EFE3" opacity="0.05"></circle><circle cx="225" cy="312" r="0.7" fill="#F4EFE3" opacity="0.05"></circle><circle cx="1138" cy="444" r="0.6" fill="#F4EFE3" opacity="0.07"></circle><circle cx="1176" cy="678" r="0.4" fill="#F4EFE3" opacity="0.06"></circle><circle cx="1433" cy="212" r="0.6" fill="#F4EFE3" opacity="0.07"></circle><circle cx="582" cy="329" r="1.2" fill="#F4EFE3" opacity="0.04"></circle><circle cx="318" cy="176" r="0.7" fill="#F4EFE3" opacity="0.06"></circle><circle cx="589" cy="632" r="0.5" fill="#F4EFE3" opacity="0.03"></circle><circle cx="1000" cy="393" r="0.9" fill="#F4EFE3" opacity="0.08"></circle><circle cx="444" cy="149" r="0.4" fill="#F4EFE3" opacity="0.05"></circle><circle cx="475" cy="388" r="0.4" fill="#F4EFE3" opacity="0.02"></circle><circle cx="607" cy="621" r="0.7" fill="#F4EFE3" opacity="0.07"></circle><circle cx="927" cy="331" r="1.2" fill="#F4EFE3" opacity="0.03"></circle><circle cx="968" cy="694" r="0.9" fill="#F4EFE3" opacity="0.04"></circle><circle cx="154" cy="471" r="0.6" fill="#F4EFE3" opacity="0.04"></circle><circle cx="868" cy="772" r="1.1" fill="#F4EFE3" opacity="0.05"></circle><circle cx="1373" cy="253" r="0.8" fill="#F4EFE3" opacity="0.06"></circle><circle cx="887" cy="182" r="0.8" fill="#F4EFE3" opacity="0.07"></circle><circle cx="388" cy="579" r="0.4" fill="#F4EFE3" opacity="0.08"></circle><circle cx="1095" cy="265" r="1.4" fill="#F4EFE3" opacity="0.07"></circle><circle cx="99" cy="204" r="0.9" fill="#F4EFE3" opacity="0.08"></circle><circle cx="225" cy="39" r="0.7" fill="#F4EFE3" opacity="0.02"></circle><circle cx="654" cy="442" r="0.8" fill="#F4EFE3" opacity="0.03"></circle><circle cx="37" cy="658" r="0.8" fill="#F4EFE3" opacity="0.05"></circle><circle cx="765" cy="562" r="1.3" fill="#F4EFE3" opacity="0.07"></circle><circle cx="1163" cy="278" r="0.6" fill="#F4EFE3" opacity="0.03"></circle><circle cx="1374" cy="47" r="1.0" fill="#F4EFE3" opacity="0.07"></circle><circle cx="516" cy="319" r="0.8" fill="#F4EFE3" opacity="0.08"></circle><circle cx="1095" cy="688" r="0.4" fill="#F4EFE3" opacity="0.06"></circle><circle cx="722" cy="329" r="1.2" fill="#F4EFE3" opacity="0.06"></circle><circle cx="1457" cy="606" r="1.3" fill="#F4EFE3" opacity="0.05"></circle><circle cx="890" cy="644" r="0.9" fill="#F4EFE3" opacity="0.03"></circle><circle cx="937" cy="714" r="1.3" fill="#F4EFE3" opacity="0.03"></circle><circle cx="610" cy="187" r="0.7" fill="#F4EFE3" opacity="0.08"></circle><circle cx="674" cy="257" r="0.7" fill="#F4EFE3" opacity="0.05"></circle><circle cx="1072" cy="281" r="0.6" fill="#F4EFE3" opacity="0.03"></circle><circle cx="416" cy="743" r="0.6" fill="#F4EFE3" opacity="0.07"></circle><circle cx="173" cy="644" r="0.7" fill="#F4EFE3" opacity="0.07"></circle><circle cx="691" cy="64" r="0.5" fill="#F4EFE3" opacity="0.07"></circle><circle cx="867" cy="399" r="0.8" fill="#F4EFE3" opacity="0.06"></circle><circle cx="772" cy="51" r="1.0" fill="#F4EFE3" opacity="0.04"></circle><circle cx="1355" cy="450" r="1.2" fill="#F4EFE3" opacity="0.03"></circle><circle cx="1131" cy="501" r="1.3" fill="#F4EFE3" opacity="0.07"></circle><circle cx="882" cy="486" r="1.2" fill="#F4EFE3" opacity="0.04"></circle><circle cx="872" cy="645" r="1.0" fill="#F4EFE3" opacity="0.05"></circle><circle cx="1369" cy="800" r="0.7" fill="#F4EFE3" opacity="0.02"></circle><circle cx="981" cy="122" r="1.4" fill="#F4EFE3" opacity="0.05"></circle><circle cx="855" cy="670" r="1.3" fill="#F4EFE3" opacity="0.03"></circle><circle cx="725" cy="148" r="0.9" fill="#F4EFE3" opacity="0.03"></circle><circle cx="1403" cy="292" r="0.8" fill="#F4EFE3" opacity="0.07"></circle><circle cx="1317" cy="276" r="0.9" fill="#F4EFE3" opacity="0.06"></circle><circle cx="301" cy="112" r="1.3" fill="#F4EFE3" opacity="0.03"></circle><circle cx="1132" cy="605" r="1.0" fill="#F4EFE3" opacity="0.04"></circle><circle cx="1372" cy="645" r="0.5" fill="#F4EFE3" opacity="0.07"></circle><circle cx="1019" cy="237" r="0.6" fill="#F4EFE3" opacity="0.03"></circle><circle cx="1298" cy="695" r="0.7" fill="#F4EFE3" opacity="0.03"></circle><circle cx="117" cy="339" r="0.7" fill="#F4EFE3" opacity="0.02"></circle>
<rect x="40" y="40" width="1520" height="740" fill="none" stroke="#E6A532" stroke-opacity="0.18" stroke-width="2"></rect>
<g opacity="0.2" fill="none" stroke="#F4EFE3" stroke-width="4.5" stroke-linejoin="round" stroke-linecap="round"><rect x="710" y="277" width="180" height="135" rx="16"></rect><circle cx="800" cy="346" r="40"></circle><rect x="750" y="254" width="99" height="31" rx="7"></rect></g>
<text x="800.0" y="480.0" font-family="Oswald, Arial, sans-serif" font-size="46" font-weight="600" letter-spacing="6" fill="#F4EFE3" fill-opacity="0.82" text-anchor="middle">CATERING</text>
<text x="800.0" y="528.0" font-family="Manrope, Arial, sans-serif" font-size="22" letter-spacing="3" fill="#E6A532" fill-opacity="0.9" text-anchor="middle">LET US HOST YOU</text>
</svg>