<svg xmlns="http://www.w3.org/2000/svg" viewBox="0 0 1600 760" preserveAspectRatio="xMidYMid slice" role="img" aria-label="Find Us">
<defs>
<linearGradient id="g" x1="0" y1="0" x2="1" y2="1">
<stop offset="0" stop-color="#2A1F16"></stop><stop offset="1" stop-color="#0C0B0A"></stop>
</linearGradient>
<radialGradient id="v" cx="50%" cy="42%" r="75%">
<stop offset="0" stop-color="#E6A532" stop-opacity="0.16"></stop>
<stop offset="0.55" stop-color="#E6A532" stop-opacity="0"></stop>
</radialGradient>
</defs>
<rect width="1600" height="760" fill="url(#g)"></rect>
<rect width="1600" height="760" fill="url(#v)"></rect>
<circle cx="603" cy="704" r="1.2" fill="#F4EFE3" opacity="0.03"></circle><circle cx="1395" cy="484" r="0.4" fill="#F4EFE3" opacity="0.08"></circle><circle cx="409" cy="232" r="0.8" fill="#F4EFE3" opacity="0.06"></circle><circle cx="199" cy="522" r="1.2" fill="#F4EFE3" opacity="0.05"></circle><circle cx="1271" cy="475" r="1.2" fill="#F4EFE3" opacity="0.03"></circle><circle cx="574" cy="357" r="0.5" fill="#F4EFE3" opacity="0.08"></circle><circle cx="1018" cy="75" r="1.0" fill="#F4EFE3" opacity="0.04"></circle><circle cx="303" cy="122" r="0.9" fill="#F4EFE3" opacity="0.02"></circle><circle cx="901" cy="391" r="0.5" fill="#F4EFE3" opacity="0.07"></circle><circle cx="65" cy="131" r="1.2" fill="#F4EFE3" opacity="0.03"></circle><circle cx="679" cy="425" r="0.8" fill="#F4EFE3" opacity="0.05"></circle><circle cx="808" cy="367" r="0.5" fill="#F4EFE3" opacity="0.07"></circle><circle cx="453" cy="36" r="0.8" fill="#F4EFE3" opacity="0.07"></circle><circle cx="1006" cy="347" r="0.9" fill="#F4EFE3" opacity="0.03"></circle><circle cx="989" cy="266" r="0.5" fill="#F4EFE3" opacity="0.03"></circle><circle cx="148" cy="520" r="1.3" fill="#F4EFE3" opacity="0.07"></circle><circle cx="351" cy="112" r="1.4" fill="#F4EFE3" opacity="0.04"></circle><circle cx="268" cy="434" r="1.0" fill="#F4EFE3" opacity="0.05"></circle><circle cx="723" cy="231" r="0.9" fill="#F4EFE3" opacity="0.05"></circle><circle cx="1090" cy="341" r="0.8" fill="#F4EFE3" opacity="0.08"></circle><circle cx="177" cy="574" r="0.8" fill="#F4EFE3" opacity="0.07"></circle><circle cx="1133" cy="430" r="1.0" fill="#F4EFE3" opacity="0.03"></circle><circle cx="26" cy="567" r="0.7" fill="#F4EFE3" opacity="0.03"></circle><circle cx="1298" cy="449" r="0.4" fill="#F4EFE3" opacity="0.05"></circle><circle cx="262" cy="658" r="0.7" fill="#F4EFE3" opacity="0.08"></circle><circle cx="980" cy="60" r="0.8" fill="#F4EFE3" opacity="0.08"></circle><circle cx="1122" cy="118" r="0.8" fill="#F4EFE3" opacity="0.04"></circle><circle cx="149" cy="451" r="1.1" fill="#F4EFE3" opacity="0.03"></circle><circle cx="883" cy="654" r="1.3" fill="#F4EFE3" opacity="0.03"></circle><circle cx="120" cy="693" r="0.7" fill="#F4EFE3" opacity="0.03"></circle><circle cx="1278" cy="201" r="1.1" fill="#F4EFE3" opacity="0.06"></circle><circle cx="468" cy="350" r="0.7" fill="#F4EFE3" opacity="0.07"></circle><circle cx="454" cy="208" r="1.3" fill="#F4EFE3" opacity="0.04"></circle><circle cx="699" cy="392" r="0.4" fill="#F4EFE3" opacity="0.04"></circle><circle cx="1190" cy="746" r="0.7" fill="#F4EFE3" opacity="0.05"></circle><circle cx="91" cy="371" r="0.8" fill="#F4EFE3" opacity="0.05"></circle><circle cx="478" cy="239" r="1.3" fill="#F4EFE3" opacity="0.07"></circle><circle cx="576" cy="53" r="0.5" fill="#F4EFE3" opacity="0.03"></circle><circle cx="209" cy="443" r="0.9" fill="#F4EFE3" opacity="0.03"></circle><circle cx="1405" cy="509" r="1.1" fill="#F4EFE3" opacity="0.07"></circle><circle cx="502" cy="686" r="1.4" fill="#F4EFE3" opacity="0.07"></circle><circle cx="73" cy="647" r="1.4" fill="#F4EFE3" opacity="0.03"></circle><circle cx="1385" cy="620" r="0.4" fill="#F4EFE3" opacity="0.06"></circle><circle cx="1215" cy="569" r="0.5" fill="#F4EFE3" opacity="0.08"></circle><circle cx="118" cy="64" r="1.3" fill="#F4EFE3" opacity="0.05"></circle><circle cx="285" cy="300" r="1.0" fill="#F4EFE3" opacity="0.04"></circle><circle cx="1463" cy="514" r="0.8" fill="#F4EFE3" opacity="0.04"></circle><circle cx="185" cy="749" r="0.7" fill="#F4EFE3" opacity="0.08"></circle><circle cx="864" cy="408" r="0.6" fill="#F4EFE3" opacity="0.05"></circle><circle cx="158" cy="340" r="1.0" fill="#F4EFE3" opacity="0.08"></circle><circle cx="354" cy="138" r="1.2" fill="#F4EFE3" opacity="0.03"></circle><circle cx="311" cy="364" r="0.8" fill="#F4EFE3" opacity="0.08"></circle><circle cx="104" cy="662" r="0.9" fill="#F4EFE3" opacity="0.03"></circle><circle cx="381" cy="691" r="0.6" fill="#F4EFE3" opacity="0.05"></circle><circle cx="62" cy="370" r="1.1" fill="#F4EFE3" opacity="0.06"></circle><circle cx="544" cy="324" r="1.2" fill="#F4EFE3" opacity="0.07"></circle><circle cx="713" cy="42" r="1.3" fill="#F4EFE3" opacity="0.04"></circle><circle cx="761" cy="36" r="0.4" fill="#F4EFE3" opacity="0.03"></circle><circle cx="871" cy="198" r="1.2" fill="#F4EFE3" opacity="0.03"></circle><circle cx="1048" cy="16" r="0.8" fill="#F4EFE3" opacity="0.08"></circle><circle cx="411" cy="239" r="0.4" fill="#F4EFE3" opacity="0.07"></circle><circle cx="789" cy="190" r="1.0" fill="#F4EFE3" opacity="0.04"></circle><circle cx="1420" cy="323" r="0.5" fill="#F4EFE3" opacity="0.03"></circle><circle cx="86" cy="580" r="0.5" fill="#F4EFE3" opacity="0.05"></circle><circle cx="949" cy="72" r="1.0" fill="#F4EFE3" opacity="0.06"></circle><circle cx="1491" cy="712" r="1.4" fill="#F4EFE3" opacity="0.05"></circle><circle cx="778" cy="327" r="0.5" fill="#F4EFE3" opacity="0.06"></circle><circle cx="1599" cy="383" r="1.3" fill="#F4EFE3" opacity="0.04"></circle><circle cx="600" cy="322" r="1.4" fill="#F4EFE3" opacity="0.04"></circle><circle cx="1216" cy="113" r="1.2" fill="#F4EFE3" opacity="0.05"></circle><circle cx="1587" cy="13" r="0.7" fill="#F4EFE3" opacity="0.07"></circle><circle cx="704" cy="212" r="1.3" fill="#F4EFE3" opacity="0.05"></circle><circle cx="1407" cy="415" r="0.5" fill="#F4EFE3" opacity="0.03"></circle><circle cx="1388" cy="694" r="0.6" fill="#F4EFE3" opacity="0.08"></circle><circle cx="1342" cy="406" r="1.2" fill="#F4EFE3" opacity="0.05"></circle><circle cx="55" cy="223" r="0.7" fill="#F4EFE3" opacity="0.07"></circle><circle cx="438" cy="529" r="1.0" fill="#F4EFE3" opacity="0.03"></circle><circle cx="734" cy="418" r="1.1" fill="#F4EFE3" opacity="0.04"></circle><circle cx="1580" cy="612" r="0.4" fill="#F4EFE3" opacity="0.07"></circle><circle cx="977" cy="714" r="0.6" fill="#F4EFE3" opacity="0.07"></circle><circle cx="1145" cy="304" r="0.8" fill="#F4EFE3" opacity="0.06"></circle><circle cx="1566" cy="521" r="1.0" fill="#F4EFE3" opacity="0.06"></circle><circle cx="1348" cy="448" r="1.1" fill="#F4EFE3" opacity="0.02"></circle><circle cx="1385" cy="732" r="1.0" fill="#F4EFE3" opacity="0.05"></circle><circle cx="1495" cy="430" r="1.3" fill="#F4EFE3" opacity="0.05"></circle><circle cx="912" cy="697" r="1.3" fill="#F4EFE3" opacity="0.06"></circle><circle cx="868" cy="420" r="0.9" fill="#F4EFE3" opacity="0.04"></circle><circle cx="363" cy="220" r="0.6" fill="#F4EFE3" opacity="0.08"></circle><circle cx="651" cy="666" r="0.9" fill="#F4EFE3" opacity="0.08"></circle><circle cx="949" cy="260" r="0.8" fill="#F4EFE3" opacity="0.04"></circle>
<rect x="40" y="40" width="1520" height="680" fill="none" stroke="#E6A532" stroke-opacity="0.18" stroke-width="2"></rect>
<g opacity="0.2" fill="none" stroke="#F4EFE3" stroke-width="4.5" stroke-linejoin="round" stroke-linecap="round"><rect x="710" y="247" width="180" height="135" rx="16"></rect><circle cx="800" cy="316" r="40"></circle><rect x="750" y="224" width="99" height="31" rx="7"></rect></g>
<text x="800.0" y="450.0" font-family="Oswald, Arial, sans-serif" font-size="46" font-weight="600" letter-spacing="6" fill="#F4EFE3" fill-opacity="0.82" text-anchor="middle">FIND US</text>
<text x="800.0" y="498.0" font-family="Manrope, Arial, sans-serif" font-size="22" letter-spacing="3" fill="#E6A532" fill-opacity="0.9" text-anchor="middle">CINNAMINSON, NJ</text>
</svg>