<svg xmlns="http://www.w3.org/2000/svg" viewBox="0 0 1600 1000" preserveAspectRatio="xMidYMid slice" role="img" aria-label="Creekside Bar &amp; Grill">
<defs>
<linearGradient id="g" x1="0" y1="0" x2="1" y2="1">
<stop offset="0" stop-color="#2A1F16"></stop><stop offset="1" stop-color="#10130D"></stop>
</linearGradient>
<radialGradient id="v" cx="50%" cy="42%" r="75%">
<stop offset="0" stop-color="#7Fa05a" stop-opacity="0.16"></stop>
<stop offset="0.55" stop-color="#7Fa05a" stop-opacity="0"></stop>
</radialGradient>
</defs>
<rect width="1600" height="1000" fill="url(#g)"></rect>
<rect width="1600" height="1000" fill="url(#v)"></rect>
<circle cx="363" cy="962" r="0.5" fill="#F4EFE3" opacity="0.06"></circle><circle cx="136" cy="247" r="1.4" fill="#F4EFE3" opacity="0.03"></circle><circle cx="1027" cy="459" r="0.9" fill="#F4EFE3" opacity="0.05"></circle><circle cx="308" cy="831" r="0.5" fill="#F4EFE3" opacity="0.03"></circle><circle cx="32" cy="267" r="0.8" fill="#F4EFE3" opacity="0.07"></circle><circle cx="607" cy="114" r="0.7" fill="#F4EFE3" opacity="0.08"></circle><circle cx="101" cy="620" r="0.8" fill="#F4EFE3" opacity="0.06"></circle><circle cx="542" cy="691" r="0.9" fill="#F4EFE3" opacity="0.06"></circle><circle cx="1442" cy="582" r="0.5" fill="#F4EFE3" opacity="0.02"></circle><circle cx="1514" cy="489" r="0.6" fill="#F4EFE3" opacity="0.08"></circle><circle cx="926" cy="729" r="1.3" fill="#F4EFE3" opacity="0.04"></circle><circle cx="571" cy="878" r="0.5" fill="#F4EFE3" opacity="0.07"></circle><circle cx="156" cy="690" r="1.1" fill="#F4EFE3" opacity="0.08"></circle><circle cx="1350" cy="504" r="0.6" fill="#F4EFE3" opacity="0.03"></circle><circle cx="846" cy="510" r="0.5" fill="#F4EFE3" opacity="0.07"></circle><circle cx="812" cy="701" r="0.6" fill="#F4EFE3" opacity="0.03"></circle><circle cx="19" cy="343" r="0.7" fill="#F4EFE3" opacity="0.05"></circle><circle cx="603" cy="834" r="1.3" fill="#F4EFE3" opacity="0.03"></circle><circle cx="634" cy="166" r="1.1" fill="#F4EFE3" opacity="0.08"></circle><circle cx="323" cy="766" r="0.7" fill="#F4EFE3" opacity="0.02"></circle><circle cx="1223" cy="342" r="0.6" fill="#F4EFE3" opacity="0.05"></circle><circle cx="371" cy="410" r="0.8" fill="#F4EFE3" opacity="0.05"></circle><circle cx="942" cy="289" r="0.5" fill="#F4EFE3" opacity="0.03"></circle><circle cx="170" cy="521" r="0.8" fill="#F4EFE3" opacity="0.07"></circle><circle cx="808" cy="708" r="1.4" fill="#F4EFE3" opacity="0.02"></circle><circle cx="27" cy="140" r="0.8" fill="#F4EFE3" opacity="0.05"></circle><circle cx="1190" cy="351" r="1.4" fill="#F4EFE3" opacity="0.02"></circle><circle cx="1337" cy="210" r="1.3" fill="#F4EFE3" opacity="0.02"></circle><circle cx="1544" cy="759" r="1.4" fill="#F4EFE3" opacity="0.05"></circle><circle cx="284" cy="970" r="0.8" fill="#F4EFE3" opacity="0.03"></circle><circle cx="969" cy="497" r="0.9" fill="#F4EFE3" opacity="0.03"></circle><circle cx="195" cy="581" r="0.9" fill="#F4EFE3" opacity="0.03"></circle><circle cx="703" cy="726" r="1.1" fill="#F4EFE3" opacity="0.05"></circle><circle cx="630" cy="361" r="0.6" fill="#F4EFE3" opacity="0.03"></circle><circle cx="714" cy="108" r="1.1" fill="#F4EFE3" opacity="0.06"></circle><circle cx="978" cy="23" r="0.8" fill="#F4EFE3" opacity="0.05"></circle><circle cx="149" cy="968" r="1.2" fill="#F4EFE3" opacity="0.05"></circle><circle cx="1128" cy="201" r="0.6" fill="#F4EFE3" opacity="0.05"></circle><circle cx="1190" cy="647" r="0.4" fill="#F4EFE3" opacity="0.06"></circle><circle cx="1454" cy="743" r="1.3" fill="#F4EFE3" opacity="0.08"></circle><circle cx="358" cy="296" r="0.9" fill="#F4EFE3" opacity="0.08"></circle><circle cx="591" cy="941" r="1.3" fill="#F4EFE3" opacity="0.05"></circle><circle cx="1000" cy="957" r="1.2" fill="#F4EFE3" opacity="0.04"></circle><circle cx="1353" cy="196" r="0.8" fill="#F4EFE3" opacity="0.08"></circle><circle cx="1355" cy="312" r="0.7" fill="#F4EFE3" opacity="0.06"></circle><circle cx="1348" cy="684" r="1.3" fill="#F4EFE3" opacity="0.06"></circle><circle cx="1313" cy="605" r="0.8" fill="#F4EFE3" opacity="0.05"></circle><circle cx="784" cy="529" r="1.2" fill="#F4EFE3" opacity="0.04"></circle><circle cx="110" cy="733" r="0.7" fill="#F4EFE3" opacity="0.05"></circle><circle cx="187" cy="829" r="0.7" fill="#F4EFE3" opacity="0.04"></circle><circle cx="1287" cy="504" r="0.7" fill="#F4EFE3" opacity="0.07"></circle><circle cx="659" cy="361" r="1.4" fill="#F4EFE3" opacity="0.07"></circle><circle cx="1196" cy="250" r="1.2" fill="#F4EFE3" opacity="0.06"></circle><circle cx="1328" cy="368" r="1.2" fill="#F4EFE3" opacity="0.07"></circle><circle cx="621" cy="655" r="1.2" fill="#F4EFE3" opacity="0.08"></circle><circle cx="1473" cy="786" r="0.5" fill="#F4EFE3" opacity="0.06"></circle><circle cx="1096" cy="87" r="0.9" fill="#F4EFE3" opacity="0.07"></circle><circle cx="1449" cy="925" r="0.5" fill="#F4EFE3" opacity="0.06"></circle><circle cx="1384" cy="653" r="0.7" fill="#F4EFE3" opacity="0.02"></circle><circle cx="1472" cy="859" r="1.1" fill="#F4EFE3" opacity="0.04"></circle><circle cx="1326" cy="815" r="1.1" fill="#F4EFE3" opacity="0.06"></circle><circle cx="511" cy="297" r="0.8" fill="#F4EFE3" opacity="0.04"></circle><circle cx="832" cy="114" r="1.1" fill="#F4EFE3" opacity="0.04"></circle><circle cx="256" cy="255" r="0.8" fill="#F4EFE3" opacity="0.05"></circle><circle cx="1252" cy="100" r="0.6" fill="#F4EFE3" opacity="0.04"></circle><circle cx="283" cy="749" r="0.5" fill="#F4EFE3" opacity="0.02"></circle><circle cx="889" cy="736" r="1.2" fill="#F4EFE3" opacity="0.05"></circle><circle cx="523" cy="882" r="1.1" fill="#F4EFE3" opacity="0.05"></circle><circle cx="901" cy="936" r="1.4" fill="#F4EFE3" opacity="0.08"></circle><circle cx="212" cy="327" r="0.8" fill="#F4EFE3" opacity="0.03"></circle><circle cx="1219" cy="61" r="1.3" fill="#F4EFE3" opacity="0.06"></circle><circle cx="982" cy="415" r="1.3" fill="#F4EFE3" opacity="0.05"></circle><circle cx="1434" cy="923" r="1.1" fill="#F4EFE3" opacity="0.08"></circle><circle cx="783" cy="367" r="1.2" fill="#F4EFE3" opacity="0.05"></circle><circle cx="494" cy="680" r="0.9" fill="#F4EFE3" opacity="0.03"></circle><circle cx="1341" cy="500" r="1.4" fill="#F4EFE3" opacity="0.05"></circle><circle cx="1499" cy="289" r="0.6" fill="#F4EFE3" opacity="0.05"></circle><circle cx="1227" cy="825" r="1.0" fill="#F4EFE3" opacity="0.03"></circle><circle cx="631" cy="35" r="0.8" fill="#F4EFE3" opacity="0.08"></circle><circle cx="555" cy="699" r="1.0" fill="#F4EFE3" opacity="0.03"></circle><circle cx="1101" cy="80" r="0.6" fill="#F4EFE3" opacity="0.05"></circle><circle cx="204" cy="964" r="0.8" fill="#F4EFE3" opacity="0.06"></circle><circle cx="1544" cy="108" r="1.4" fill="#F4EFE3" opacity="0.02"></circle><circle cx="962" cy="656" r="1.4" fill="#F4EFE3" opacity="0.04"></circle><circle cx="1515" cy="650" r="0.9" fill="#F4EFE3" opacity="0.03"></circle><circle cx="377" cy="365" r="0.7" fill="#F4EFE3" opacity="0.04"></circle><circle cx="1293" cy="375" r="1.0" fill="#F4EFE3" opacity="0.02"></circle><circle cx="225" cy="710" r="1.3" fill="#F4EFE3" opacity="0.04"></circle><circle cx="52" cy="233" r="0.8" fill="#F4EFE3" opacity="0.04"></circle><circle cx="898" cy="302" r="1.0" fill="#F4EFE3" opacity="0.07"></circle>
<rect x="40" y="40" width="1520" height="920" fill="none" stroke="#7Fa05a" stroke-opacity="0.18" stroke-width="2"></rect>
<g opacity="0.2" fill="none" stroke="#F4EFE3" stroke-width="4.5" stroke-linejoin="round" stroke-linecap="round"><rect x="710" y="367" width="180" height="135" rx="16"></rect><circle cx="800" cy="436" r="40"></circle><rect x="750" y="344" width="99" height="31" rx="7"></rect></g>
<text x="800.0" y="570.0" font-family="Oswald, Arial, sans-serif" font-size="46" font-weight="600" letter-spacing="6" fill="#F4EFE3" fill-opacity="0.82" text-anchor="middle">CREEKSIDE BAR &amp; GRILL</text>
<text x="800.0" y="618.0" font-family="Manrope, Arial, sans-serif" font-size="22" letter-spacing="3" fill="#7Fa05a" fill-opacity="0.9" text-anchor="middle">OPEN-AIR DINING</text>
</svg>