<svg xmlns="http://www.w3.org/2000/svg" viewBox="0 0 1600 900" preserveAspectRatio="xMidYMid slice" role="img" aria-label="Creekside Bar &amp; Grill">
<defs>
<linearGradient id="g" x1="0" y1="0" x2="1" y2="1">
<stop offset="0" stop-color="#1a2412"></stop><stop offset="1" stop-color="#0c0f08"></stop>
</linearGradient>
<radialGradient id="v" cx="50%" cy="42%" r="75%">
<stop offset="0" stop-color="#8fb15f" stop-opacity="0.16"></stop>
<stop offset="0.55" stop-color="#8fb15f" stop-opacity="0"></stop>
</radialGradient>
</defs>
<rect width="1600" height="900" fill="url(#g)"></rect>
<rect width="1600" height="900" fill="url(#v)"></rect>
<circle cx="724" cy="504" r="1.3" fill="#F4EFE3" opacity="0.05"></circle><circle cx="813" cy="529" r="0.6" fill="#F4EFE3" opacity="0.05"></circle><circle cx="1008" cy="714" r="0.5" fill="#F4EFE3" opacity="0.04"></circle><circle cx="145" cy="729" r="1.1" fill="#F4EFE3" opacity="0.02"></circle><circle cx="1572" cy="868" r="1.1" fill="#F4EFE3" opacity="0.06"></circle><circle cx="252" cy="14" r="0.9" fill="#F4EFE3" opacity="0.02"></circle><circle cx="304" cy="218" r="0.4" fill="#F4EFE3" opacity="0.05"></circle><circle cx="705" cy="758" r="0.9" fill="#F4EFE3" opacity="0.06"></circle><circle cx="800" cy="596" r="0.9" fill="#F4EFE3" opacity="0.04"></circle><circle cx="1596" cy="896" r="1.2" fill="#F4EFE3" opacity="0.06"></circle><circle cx="504" cy="207" r="0.7" fill="#F4EFE3" opacity="0.02"></circle><circle cx="1226" cy="360" r="1.2" fill="#F4EFE3" opacity="0.04"></circle><circle cx="1533" cy="763" r="0.4" fill="#F4EFE3" opacity="0.03"></circle><circle cx="1456" cy="423" r="1.4" fill="#F4EFE3" opacity="0.04"></circle><circle cx="117" cy="567" r="1.2" fill="#F4EFE3" opacity="0.04"></circle><circle cx="139" cy="299" r="1.4" fill="#F4EFE3" opacity="0.07"></circle><circle cx="189" cy="222" r="0.5" fill="#F4EFE3" opacity="0.02"></circle><circle cx="1275" cy="160" r="1.0" fill="#F4EFE3" opacity="0.05"></circle><circle cx="305" cy="659" r="0.5" fill="#F4EFE3" opacity="0.06"></circle><circle cx="186" cy="379" r="0.6" fill="#F4EFE3" opacity="0.04"></circle><circle cx="1553" cy="723" r="0.7" fill="#F4EFE3" opacity="0.07"></circle><circle cx="337" cy="355" r="1.3" fill="#F4EFE3" opacity="0.06"></circle><circle cx="161" cy="890" r="0.6" fill="#F4EFE3" opacity="0.04"></circle><circle cx="1236" cy="296" r="0.7" fill="#F4EFE3" opacity="0.02"></circle><circle cx="144" cy="524" r="0.6" fill="#F4EFE3" opacity="0.06"></circle><circle cx="595" cy="408" r="1.4" fill="#F4EFE3" opacity="0.05"></circle><circle cx="919" cy="780" r="0.6" fill="#F4EFE3" opacity="0.03"></circle><circle cx="1453" cy="736" r="0.6" fill="#F4EFE3" opacity="0.03"></circle><circle cx="1183" cy="846" r="0.6" fill="#F4EFE3" opacity="0.08"></circle><circle cx="1412" cy="543" r="0.8" fill="#F4EFE3" opacity="0.03"></circle><circle cx="62" cy="866" r="0.6" fill="#F4EFE3" opacity="0.06"></circle><circle cx="411" cy="741" r="1.0" fill="#F4EFE3" opacity="0.04"></circle><circle cx="281" cy="648" r="0.5" fill="#F4EFE3" opacity="0.03"></circle><circle cx="895" cy="767" r="1.0" fill="#F4EFE3" opacity="0.04"></circle><circle cx="1468" cy="184" r="0.4" fill="#F4EFE3" opacity="0.04"></circle><circle cx="713" cy="54" r="0.6" fill="#F4EFE3" opacity="0.04"></circle><circle cx="915" cy="118" r="0.8" fill="#F4EFE3" opacity="0.07"></circle><circle cx="1569" cy="591" r="1.1" fill="#F4EFE3" opacity="0.06"></circle><circle cx="225" cy="32" r="0.4" fill="#F4EFE3" opacity="0.07"></circle><circle cx="1122" cy="866" r="0.4" fill="#F4EFE3" opacity="0.06"></circle><circle cx="772" cy="657" r="0.7" fill="#F4EFE3" opacity="0.08"></circle><circle cx="120" cy="491" r="1.1" fill="#F4EFE3" opacity="0.07"></circle><circle cx="1179" cy="633" r="1.2" fill="#F4EFE3" opacity="0.07"></circle><circle cx="563" cy="617" r="1.3" fill="#F4EFE3" opacity="0.07"></circle><circle cx="667" cy="711" r="1.3" fill="#F4EFE3" opacity="0.05"></circle><circle cx="1000" cy="344" r="1.0" fill="#F4EFE3" opacity="0.06"></circle><circle cx="128" cy="575" r="1.4" fill="#F4EFE3" opacity="0.07"></circle><circle cx="1165" cy="350" r="1.1" fill="#F4EFE3" opacity="0.05"></circle><circle cx="705" cy="755" r="0.5" fill="#F4EFE3" opacity="0.07"></circle><circle cx="48" cy="541" r="0.9" fill="#F4EFE3" opacity="0.03"></circle><circle cx="1117" cy="448" r="1.0" fill="#F4EFE3" opacity="0.08"></circle><circle cx="409" cy="10" r="0.7" fill="#F4EFE3" opacity="0.06"></circle><circle cx="324" cy="153" r="1.3" fill="#F4EFE3" opacity="0.06"></circle><circle cx="707" cy="803" r="0.7" fill="#F4EFE3" opacity="0.06"></circle><circle cx="318" cy="388" r="1.2" fill="#F4EFE3" opacity="0.07"></circle><circle cx="1408" cy="346" r="1.0" fill="#F4EFE3" opacity="0.04"></circle><circle cx="218" cy="447" r="1.2" fill="#F4EFE3" opacity="0.07"></circle><circle cx="1138" cy="855" r="0.7" fill="#F4EFE3" opacity="0.03"></circle><circle cx="721" cy="248" r="0.6" fill="#F4EFE3" opacity="0.04"></circle><circle cx="1001" cy="444" r="0.7" fill="#F4EFE3" opacity="0.07"></circle><circle cx="1571" cy="407" r="0.5" fill="#F4EFE3" opacity="0.02"></circle><circle cx="1397" cy="37" r="1.1" fill="#F4EFE3" opacity="0.05"></circle><circle cx="494" cy="712" r="0.4" fill="#F4EFE3" opacity="0.03"></circle><circle cx="728" cy="22" r="1.2" fill="#F4EFE3" opacity="0.03"></circle><circle cx="225" cy="42" r="1.0" fill="#F4EFE3" opacity="0.05"></circle><circle cx="1008" cy="590" r="1.2" fill="#F4EFE3" opacity="0.08"></circle><circle cx="1095" cy="179" r="0.9" fill="#F4EFE3" opacity="0.03"></circle><circle cx="17" cy="425" r="1.1" fill="#F4EFE3" opacity="0.03"></circle><circle cx="436" cy="311" r="1.1" fill="#F4EFE3" opacity="0.05"></circle><circle cx="983" cy="681" r="0.8" fill="#F4EFE3" opacity="0.07"></circle><circle cx="1450" cy="78" r="1.3" fill="#F4EFE3" opacity="0.06"></circle><circle cx="208" cy="408" r="1.0" fill="#F4EFE3" opacity="0.07"></circle><circle cx="603" cy="512" r="1.3" fill="#F4EFE3" opacity="0.07"></circle><circle cx="1511" cy="417" r="1.1" fill="#F4EFE3" opacity="0.03"></circle><circle cx="1155" cy="737" r="1.0" fill="#F4EFE3" opacity="0.06"></circle><circle cx="341" cy="810" r="1.4" fill="#F4EFE3" opacity="0.08"></circle><circle cx="859" cy="712" r="0.7" fill="#F4EFE3" opacity="0.07"></circle><circle cx="1369" cy="314" r="0.5" fill="#F4EFE3" opacity="0.05"></circle><circle cx="880" cy="691" r="0.9" fill="#F4EFE3" opacity="0.02"></circle><circle cx="1295" cy="58" r="1.2" fill="#F4EFE3" opacity="0.03"></circle><circle cx="536" cy="709" r="0.5" fill="#F4EFE3" opacity="0.03"></circle><circle cx="826" cy="651" r="1.2" fill="#F4EFE3" opacity="0.06"></circle><circle cx="1513" cy="443" r="1.3" fill="#F4EFE3" opacity="0.03"></circle><circle cx="354" cy="474" r="0.7" fill="#F4EFE3" opacity="0.06"></circle><circle cx="1022" cy="471" r="1.2" fill="#F4EFE3" opacity="0.05"></circle><circle cx="499" cy="343" r="1.2" fill="#F4EFE3" opacity="0.07"></circle><circle cx="333" cy="766" r="1.4" fill="#F4EFE3" opacity="0.05"></circle><circle cx="917" cy="181" r="0.9" fill="#F4EFE3" opacity="0.05"></circle><circle cx="968" cy="25" r="1.4" fill="#F4EFE3" opacity="0.05"></circle><circle cx="641" cy="721" r="1.0" fill="#F4EFE3" opacity="0.05"></circle>
<rect x="40" y="40" width="1520" height="820" fill="none" stroke="#8fb15f" stroke-opacity="0.18" stroke-width="2"></rect>
<g opacity="0.2" fill="none" stroke="#F4EFE3" stroke-width="4.5" stroke-linejoin="round" stroke-linecap="round"><rect x="710" y="317" width="180" height="135" rx="16"></rect><circle cx="800" cy="386" r="40"></circle><rect x="750" y="294" width="99" height="31" rx="7"></rect></g>
<text x="800.0" y="520.0" font-family="Oswald, Arial, sans-serif" font-size="46" font-weight="600" letter-spacing="6" fill="#F4EFE3" fill-opacity="0.82" text-anchor="middle">CREEKSIDE BAR &amp; GRILL</text>
<text x="800.0" y="568.0" font-family="Manrope, Arial, sans-serif" font-size="22" letter-spacing="3" fill="#8fb15f" fill-opacity="0.9" text-anchor="middle">WEATHER PERMITTING</text>
</svg>