<svg xmlns="http://www.w3.org/2000/svg" viewBox="0 0 1600 700" preserveAspectRatio="xMidYMid slice" role="img" aria-label="The Jug Handle Inn">
<defs>
<linearGradient id="g" x1="0" y1="0" x2="1" y2="1">
<stop offset="0" stop-color="#0C0B0A"></stop><stop offset="1" stop-color="#000"></stop>
</linearGradient>
<radialGradient id="v" cx="50%" cy="42%" r="75%">
<stop offset="0" stop-color="#D32027" stop-opacity="0.16"></stop>
<stop offset="0.55" stop-color="#D32027" stop-opacity="0"></stop>
</radialGradient>
</defs>
<rect width="1600" height="700" fill="url(#g)"></rect>
<rect width="1600" height="700" fill="url(#v)"></rect>
<circle cx="435" cy="342" r="0.5" fill="#F4EFE3" opacity="0.04"></circle><circle cx="116" cy="8" r="0.7" fill="#F4EFE3" opacity="0.03"></circle><circle cx="498" cy="520" r="0.4" fill="#F4EFE3" opacity="0.06"></circle><circle cx="216" cy="557" r="1.1" fill="#F4EFE3" opacity="0.03"></circle><circle cx="1357" cy="502" r="0.5" fill="#F4EFE3" opacity="0.04"></circle><circle cx="1121" cy="646" r="0.6" fill="#F4EFE3" opacity="0.04"></circle><circle cx="1240" cy="674" r="0.5" fill="#F4EFE3" opacity="0.03"></circle><circle cx="1202" cy="222" r="0.8" fill="#F4EFE3" opacity="0.07"></circle><circle cx="1193" cy="463" r="1.3" fill="#F4EFE3" opacity="0.06"></circle><circle cx="1296" cy="450" r="1.0" fill="#F4EFE3" opacity="0.02"></circle><circle cx="1455" cy="638" r="0.8" fill="#F4EFE3" opacity="0.06"></circle><circle cx="27" cy="350" r="1.0" fill="#F4EFE3" opacity="0.04"></circle><circle cx="663" cy="585" r="0.5" fill="#F4EFE3" opacity="0.05"></circle><circle cx="138" cy="269" r="1.3" fill="#F4EFE3" opacity="0.06"></circle><circle cx="46" cy="601" r="1.1" fill="#F4EFE3" opacity="0.05"></circle><circle cx="462" cy="211" r="0.6" fill="#F4EFE3" opacity="0.06"></circle><circle cx="80" cy="661" r="0.5" fill="#F4EFE3" opacity="0.06"></circle><circle cx="921" cy="254" r="0.7" fill="#F4EFE3" opacity="0.05"></circle><circle cx="527" cy="680" r="1.0" fill="#F4EFE3" opacity="0.05"></circle><circle cx="1061" cy="346" r="0.5" fill="#F4EFE3" opacity="0.02"></circle><circle cx="1552" cy="591" r="0.5" fill="#F4EFE3" opacity="0.06"></circle><circle cx="1256" cy="626" r="0.5" fill="#F4EFE3" opacity="0.03"></circle><circle cx="628" cy="422" r="0.5" fill="#F4EFE3" opacity="0.06"></circle><circle cx="1207" cy="313" r="1.2" fill="#F4EFE3" opacity="0.04"></circle><circle cx="1333" cy="268" r="0.8" fill="#F4EFE3" opacity="0.04"></circle><circle cx="1136" cy="618" r="0.5" fill="#F4EFE3" opacity="0.06"></circle><circle cx="1337" cy="484" r="0.6" fill="#F4EFE3" opacity="0.04"></circle><circle cx="1418" cy="151" r="1.4" fill="#F4EFE3" opacity="0.04"></circle><circle cx="832" cy="496" r="1.1" fill="#F4EFE3" opacity="0.06"></circle><circle cx="1388" cy="448" r="1.3" fill="#F4EFE3" opacity="0.06"></circle><circle cx="941" cy="40" r="1.3" fill="#F4EFE3" opacity="0.03"></circle><circle cx="361" cy="34" r="1.0" fill="#F4EFE3" opacity="0.04"></circle><circle cx="1044" cy="569" r="1.3" fill="#F4EFE3" opacity="0.07"></circle><circle cx="1342" cy="267" r="0.5" fill="#F4EFE3" opacity="0.07"></circle><circle cx="1592" cy="324" r="1.3" fill="#F4EFE3" opacity="0.05"></circle><circle cx="616" cy="582" r="0.5" fill="#F4EFE3" opacity="0.04"></circle><circle cx="1113" cy="57" r="1.0" fill="#F4EFE3" opacity="0.04"></circle><circle cx="352" cy="284" r="1.1" fill="#F4EFE3" opacity="0.06"></circle><circle cx="946" cy="543" r="0.8" fill="#F4EFE3" opacity="0.05"></circle><circle cx="159" cy="462" r="1.1" fill="#F4EFE3" opacity="0.06"></circle><circle cx="1277" cy="689" r="1.1" fill="#F4EFE3" opacity="0.08"></circle><circle cx="1047" cy="194" r="1.3" fill="#F4EFE3" opacity="0.06"></circle><circle cx="1003" cy="102" r="1.0" fill="#F4EFE3" opacity="0.04"></circle><circle cx="922" cy="647" r="0.8" fill="#F4EFE3" opacity="0.02"></circle><circle cx="195" cy="377" r="1.2" fill="#F4EFE3" opacity="0.02"></circle><circle cx="659" cy="237" r="0.8" fill="#F4EFE3" opacity="0.06"></circle><circle cx="804" cy="190" r="1.3" fill="#F4EFE3" opacity="0.07"></circle><circle cx="1436" cy="88" r="0.9" fill="#F4EFE3" opacity="0.03"></circle><circle cx="155" cy="649" r="1.1" fill="#F4EFE3" opacity="0.05"></circle><circle cx="1226" cy="594" r="0.9" fill="#F4EFE3" opacity="0.03"></circle><circle cx="1442" cy="355" r="0.8" fill="#F4EFE3" opacity="0.03"></circle><circle cx="832" cy="607" r="1.3" fill="#F4EFE3" opacity="0.03"></circle><circle cx="191" cy="694" r="0.9" fill="#F4EFE3" opacity="0.06"></circle><circle cx="1112" cy="289" r="0.8" fill="#F4EFE3" opacity="0.07"></circle><circle cx="998" cy="16" r="0.4" fill="#F4EFE3" opacity="0.07"></circle><circle cx="950" cy="522" r="0.9" fill="#F4EFE3" opacity="0.06"></circle><circle cx="555" cy="256" r="0.7" fill="#F4EFE3" opacity="0.04"></circle><circle cx="1518" cy="613" r="0.9" fill="#F4EFE3" opacity="0.02"></circle><circle cx="1482" cy="566" r="1.0" fill="#F4EFE3" opacity="0.08"></circle><circle cx="1208" cy="425" r="0.7" fill="#F4EFE3" opacity="0.06"></circle><circle cx="675" cy="122" r="0.6" fill="#F4EFE3" opacity="0.03"></circle><circle cx="1094" cy="263" r="1.4" fill="#F4EFE3" opacity="0.07"></circle><circle cx="455" cy="71" r="1.2" fill="#F4EFE3" opacity="0.07"></circle><circle cx="590" cy="534" r="1.3" fill="#F4EFE3" opacity="0.05"></circle><circle cx="709" cy="432" r="1.2" fill="#F4EFE3" opacity="0.06"></circle><circle cx="1581" cy="101" r="0.5" fill="#F4EFE3" opacity="0.03"></circle><circle cx="1504" cy="208" r="0.5" fill="#F4EFE3" opacity="0.03"></circle><circle cx="35" cy="373" r="1.0" fill="#F4EFE3" opacity="0.04"></circle><circle cx="31" cy="27" r="1.1" fill="#F4EFE3" opacity="0.02"></circle><circle cx="382" cy="314" r="0.8" fill="#F4EFE3" opacity="0.08"></circle><circle cx="1492" cy="351" r="1.0" fill="#F4EFE3" opacity="0.04"></circle><circle cx="1029" cy="40" r="0.6" fill="#F4EFE3" opacity="0.07"></circle><circle cx="734" cy="346" r="1.2" fill="#F4EFE3" opacity="0.06"></circle><circle cx="273" cy="326" r="1.3" fill="#F4EFE3" opacity="0.04"></circle><circle cx="1523" cy="136" r="0.8" fill="#F4EFE3" opacity="0.03"></circle><circle cx="452" cy="154" r="1.1" fill="#F4EFE3" opacity="0.06"></circle><circle cx="1402" cy="97" r="1.4" fill="#F4EFE3" opacity="0.06"></circle><circle cx="432" cy="471" r="1.0" fill="#F4EFE3" opacity="0.04"></circle><circle cx="438" cy="60" r="0.6" fill="#F4EFE3" opacity="0.07"></circle><circle cx="596" cy="457" r="0.8" fill="#F4EFE3" opacity="0.03"></circle><circle cx="690" cy="157" r="0.8" fill="#F4EFE3" opacity="0.03"></circle><circle cx="208" cy="556" r="0.7" fill="#F4EFE3" opacity="0.06"></circle><circle cx="1482" cy="641" r="1.2" fill="#F4EFE3" opacity="0.05"></circle><circle cx="826" cy="12" r="1.1" fill="#F4EFE3" opacity="0.05"></circle><circle cx="546" cy="598" r="1.2" fill="#F4EFE3" opacity="0.07"></circle><circle cx="545" cy="358" r="1.2" fill="#F4EFE3" opacity="0.07"></circle><circle cx="779" cy="502" r="1.0" fill="#F4EFE3" opacity="0.03"></circle><circle cx="1396" cy="378" r="0.6" fill="#F4EFE3" opacity="0.05"></circle><circle cx="1374" cy="112" r="0.6" fill="#F4EFE3" opacity="0.06"></circle><circle cx="220" cy="534" r="1.0" fill="#F4EFE3" opacity="0.05"></circle>
<rect x="40" y="40" width="1520" height="620" fill="none" stroke="#D32027" stroke-opacity="0.18" stroke-width="2"></rect>
<g opacity="0.2" fill="none" stroke="#F4EFE3" stroke-width="4.5" stroke-linejoin="round" stroke-linecap="round"><rect x="710" y="217" width="180" height="135" rx="16"></rect><circle cx="800" cy="286" r="40"></circle><rect x="750" y="194" width="99" height="31" rx="7"></rect></g>
<text x="800.0" y="420.0" font-family="Oswald, Arial, sans-serif" font-size="46" font-weight="600" letter-spacing="6" fill="#F4EFE3" fill-opacity="0.82" text-anchor="middle">THE JUG HANDLE INN</text>

</svg>