<svg xmlns="http://www.w3.org/2000/svg" viewBox="0 0 1600 820" preserveAspectRatio="xMidYMid slice" role="img" aria-label="Events &amp; Live Music">
<defs>
<linearGradient id="g" x1="0" y1="0" x2="1" y2="1">
<stop offset="0" stop-color="#1C1611"></stop><stop offset="1" stop-color="#0C0B0A"></stop>
</linearGradient>
<radialGradient id="v" cx="50%" cy="42%" r="75%">
<stop offset="0" stop-color="#E6A532" stop-opacity="0.16"></stop>
<stop offset="0.55" stop-color="#E6A532" stop-opacity="0"></stop>
</radialGradient>
</defs>
<rect width="1600" height="820" fill="url(#g)"></rect>
<rect width="1600" height="820" fill="url(#v)"></rect>
<circle cx="878" cy="615" r="1.1" fill="#F4EFE3" opacity="0.07"></circle><circle cx="457" cy="792" r="1.0" fill="#F4EFE3" opacity="0.06"></circle><circle cx="1208" cy="762" r="0.7" fill="#F4EFE3" opacity="0.04"></circle><circle cx="1148" cy="480" r="1.2" fill="#F4EFE3" opacity="0.04"></circle><circle cx="1528" cy="9" r="1.1" fill="#F4EFE3" opacity="0.04"></circle><circle cx="40" cy="554" r="0.5" fill="#F4EFE3" opacity="0.03"></circle><circle cx="520" cy="129" r="0.6" fill="#F4EFE3" opacity="0.02"></circle><circle cx="1354" cy="68" r="0.6" fill="#F4EFE3" opacity="0.02"></circle><circle cx="1455" cy="448" r="1.2" fill="#F4EFE3" opacity="0.08"></circle><circle cx="792" cy="324" r="0.8" fill="#F4EFE3" opacity="0.04"></circle><circle cx="952" cy="792" r="0.9" fill="#F4EFE3" opacity="0.07"></circle><circle cx="1422" cy="681" r="1.1" fill="#F4EFE3" opacity="0.05"></circle><circle cx="157" cy="309" r="1.3" fill="#F4EFE3" opacity="0.05"></circle><circle cx="1089" cy="213" r="1.0" fill="#F4EFE3" opacity="0.03"></circle><circle cx="1257" cy="667" r="0.4" fill="#F4EFE3" opacity="0.06"></circle><circle cx="151" cy="778" r="0.6" fill="#F4EFE3" opacity="0.03"></circle><circle cx="1428" cy="504" r="0.4" fill="#F4EFE3" opacity="0.05"></circle><circle cx="1326" cy="136" r="1.2" fill="#F4EFE3" opacity="0.04"></circle><circle cx="707" cy="324" r="0.5" fill="#F4EFE3" opacity="0.04"></circle><circle cx="836" cy="507" r="0.9" fill="#F4EFE3" opacity="0.03"></circle><circle cx="969" cy="238" r="1.3" fill="#F4EFE3" opacity="0.03"></circle><circle cx="1243" cy="70" r="1.0" fill="#F4EFE3" opacity="0.04"></circle><circle cx="736" cy="564" r="1.2" fill="#F4EFE3" opacity="0.02"></circle><circle cx="1414" cy="534" r="0.5" fill="#F4EFE3" opacity="0.06"></circle><circle cx="1296" cy="305" r="1.3" fill="#F4EFE3" opacity="0.03"></circle><circle cx="729" cy="199" r="1.2" fill="#F4EFE3" opacity="0.04"></circle><circle cx="399" cy="819" r="0.8" fill="#F4EFE3" opacity="0.05"></circle><circle cx="1122" cy="147" r="1.2" fill="#F4EFE3" opacity="0.06"></circle><circle cx="789" cy="655" r="1.3" fill="#F4EFE3" opacity="0.03"></circle><circle cx="1537" cy="428" r="1.2" fill="#F4EFE3" opacity="0.06"></circle><circle cx="1540" cy="627" r="0.6" fill="#F4EFE3" opacity="0.03"></circle><circle cx="639" cy="212" r="0.6" fill="#F4EFE3" opacity="0.05"></circle><circle cx="804" cy="326" r="1.2" fill="#F4EFE3" opacity="0.03"></circle><circle cx="706" cy="363" r="1.0" fill="#F4EFE3" opacity="0.07"></circle><circle cx="944" cy="1" r="1.0" fill="#F4EFE3" opacity="0.04"></circle><circle cx="672" cy="469" r="0.6" fill="#F4EFE3" opacity="0.07"></circle><circle cx="592" cy="300" r="0.9" fill="#F4EFE3" opacity="0.02"></circle><circle cx="518" cy="813" r="0.5" fill="#F4EFE3" opacity="0.04"></circle><circle cx="1231" cy="389" r="1.0" fill="#F4EFE3" opacity="0.07"></circle><circle cx="1348" cy="351" r="0.7" fill="#F4EFE3" opacity="0.02"></circle><circle cx="1189" cy="114" r="0.9" fill="#F4EFE3" opacity="0.03"></circle><circle cx="1195" cy="376" r="0.5" fill="#F4EFE3" opacity="0.06"></circle><circle cx="143" cy="287" r="0.7" fill="#F4EFE3" opacity="0.07"></circle><circle cx="961" cy="175" r="0.7" fill="#F4EFE3" opacity="0.05"></circle><circle cx="1330" cy="286" r="1.2" fill="#F4EFE3" opacity="0.02"></circle><circle cx="191" cy="637" r="0.8" fill="#F4EFE3" opacity="0.02"></circle><circle cx="321" cy="347" r="0.5" fill="#F4EFE3" opacity="0.04"></circle><circle cx="1591" cy="62" r="0.8" fill="#F4EFE3" opacity="0.04"></circle><circle cx="243" cy="776" r="0.7" fill="#F4EFE3" opacity="0.03"></circle><circle cx="705" cy="58" r="0.9" fill="#F4EFE3" opacity="0.03"></circle><circle cx="790" cy="119" r="1.3" fill="#F4EFE3" opacity="0.05"></circle><circle cx="1034" cy="182" r="0.4" fill="#F4EFE3" opacity="0.03"></circle><circle cx="804" cy="1" r="0.6" fill="#F4EFE3" opacity="0.08"></circle><circle cx="471" cy="152" r="1.2" fill="#F4EFE3" opacity="0.04"></circle><circle cx="887" cy="429" r="0.9" fill="#F4EFE3" opacity="0.02"></circle><circle cx="1096" cy="269" r="1.3" fill="#F4EFE3" opacity="0.08"></circle><circle cx="594" cy="704" r="1.4" fill="#F4EFE3" opacity="0.03"></circle><circle cx="467" cy="745" r="1.3" fill="#F4EFE3" opacity="0.03"></circle><circle cx="338" cy="708" r="0.5" fill="#F4EFE3" opacity="0.03"></circle><circle cx="273" cy="230" r="0.9" fill="#F4EFE3" opacity="0.03"></circle><circle cx="324" cy="808" r="0.9" fill="#F4EFE3" opacity="0.05"></circle><circle cx="471" cy="816" r="1.0" fill="#F4EFE3" opacity="0.05"></circle><circle cx="215" cy="599" r="0.7" fill="#F4EFE3" opacity="0.07"></circle><circle cx="213" cy="472" r="1.2" fill="#F4EFE3" opacity="0.06"></circle><circle cx="1533" cy="810" r="1.1" fill="#F4EFE3" opacity="0.02"></circle><circle cx="1489" cy="411" r="0.8" fill="#F4EFE3" opacity="0.04"></circle><circle cx="32" cy="165" r="0.6" fill="#F4EFE3" opacity="0.03"></circle><circle cx="1258" cy="109" r="0.7" fill="#F4EFE3" opacity="0.06"></circle><circle cx="210" cy="642" r="0.4" fill="#F4EFE3" opacity="0.05"></circle><circle cx="258" cy="45" r="1.1" fill="#F4EFE3" opacity="0.05"></circle><circle cx="780" cy="270" r="0.8" fill="#F4EFE3" opacity="0.03"></circle><circle cx="45" cy="401" r="1.1" fill="#F4EFE3" opacity="0.04"></circle><circle cx="815" cy="415" r="0.8" fill="#F4EFE3" opacity="0.03"></circle><circle cx="890" cy="284" r="0.8" fill="#F4EFE3" opacity="0.07"></circle><circle cx="962" cy="649" r="1.2" fill="#F4EFE3" opacity="0.06"></circle><circle cx="306" cy="710" r="0.9" fill="#F4EFE3" opacity="0.07"></circle><circle cx="124" cy="531" r="1.0" fill="#F4EFE3" opacity="0.07"></circle><circle cx="1166" cy="665" r="0.9" fill="#F4EFE3" opacity="0.08"></circle><circle cx="1121" cy="134" r="1.4" fill="#F4EFE3" opacity="0.04"></circle><circle cx="349" cy="249" r="1.2" fill="#F4EFE3" opacity="0.06"></circle><circle cx="885" cy="206" r="0.9" fill="#F4EFE3" opacity="0.07"></circle><circle cx="1065" cy="384" r="1.2" fill="#F4EFE3" opacity="0.04"></circle><circle cx="159" cy="622" r="0.5" fill="#F4EFE3" opacity="0.02"></circle><circle cx="1301" cy="421" r="0.4" fill="#F4EFE3" opacity="0.04"></circle><circle cx="255" cy="429" r="0.8" fill="#F4EFE3" opacity="0.07"></circle><circle cx="29" cy="458" r="1.1" fill="#F4EFE3" opacity="0.03"></circle><circle cx="1311" cy="764" r="1.0" fill="#F4EFE3" opacity="0.06"></circle><circle cx="1371" cy="819" r="0.8" fill="#F4EFE3" opacity="0.04"></circle><circle cx="225" cy="312" r="1.1" fill="#F4EFE3" opacity="0.08"></circle><circle cx="928" cy="502" r="1.1" fill="#F4EFE3" opacity="0.02"></circle>
<rect x="40" y="40" width="1520" height="740" fill="none" stroke="#E6A532" stroke-opacity="0.18" stroke-width="2"></rect>
<g opacity="0.2" fill="none" stroke="#F4EFE3" stroke-width="4.5" stroke-linejoin="round" stroke-linecap="round"><rect x="710" y="277" width="180" height="135" rx="16"></rect><circle cx="800" cy="346" r="40"></circle><rect x="750" y="254" width="99" height="31" rx="7"></rect></g>
<text x="800.0" y="480.0" font-family="Oswald, Arial, sans-serif" font-size="46" font-weight="600" letter-spacing="6" fill="#F4EFE3" fill-opacity="0.82" text-anchor="middle">EVENTS &amp; LIVE MUSIC</text>
<text x="800.0" y="528.0" font-family="Manrope, Arial, sans-serif" font-size="22" letter-spacing="3" fill="#E6A532" fill-opacity="0.9" text-anchor="middle">ON THE CREEK</text>
</svg>