<svg xmlns="http://www.w3.org/2000/svg" viewBox="0 0 1600 1000" preserveAspectRatio="xMidYMid slice" role="img" aria-label="Live Music">
<defs>
<linearGradient id="g" x1="0" y1="0" x2="1" y2="1">
<stop offset="0" stop-color="#1C1611"></stop><stop offset="1" stop-color="#0C0B0A"></stop>
</linearGradient>
<radialGradient id="v" cx="50%" cy="42%" r="75%">
<stop offset="0" stop-color="#E6A532" stop-opacity="0.16"></stop>
<stop offset="0.55" stop-color="#E6A532" stop-opacity="0"></stop>
</radialGradient>
</defs>
<rect width="1600" height="1000" fill="url(#g)"></rect>
<rect width="1600" height="1000" fill="url(#v)"></rect>
<circle cx="414" cy="685" r="1.1" fill="#F4EFE3" opacity="0.07"></circle><circle cx="297" cy="231" r="0.5" fill="#F4EFE3" opacity="0.03"></circle><circle cx="1174" cy="130" r="0.9" fill="#F4EFE3" opacity="0.03"></circle><circle cx="471" cy="432" r="1.2" fill="#F4EFE3" opacity="0.06"></circle><circle cx="23" cy="276" r="0.5" fill="#F4EFE3" opacity="0.07"></circle><circle cx="1296" cy="806" r="1.2" fill="#F4EFE3" opacity="0.06"></circle><circle cx="1519" cy="794" r="0.7" fill="#F4EFE3" opacity="0.07"></circle><circle cx="779" cy="755" r="1.0" fill="#F4EFE3" opacity="0.05"></circle><circle cx="583" cy="430" r="0.7" fill="#F4EFE3" opacity="0.03"></circle><circle cx="1311" cy="798" r="1.4" fill="#F4EFE3" opacity="0.06"></circle><circle cx="887" cy="748" r="0.5" fill="#F4EFE3" opacity="0.06"></circle><circle cx="709" cy="177" r="0.6" fill="#F4EFE3" opacity="0.05"></circle><circle cx="405" cy="459" r="1.0" fill="#F4EFE3" opacity="0.04"></circle><circle cx="209" cy="491" r="0.6" fill="#F4EFE3" opacity="0.03"></circle><circle cx="311" cy="366" r="0.5" fill="#F4EFE3" opacity="0.06"></circle><circle cx="1526" cy="390" r="1.1" fill="#F4EFE3" opacity="0.08"></circle><circle cx="69" cy="142" r="1.2" fill="#F4EFE3" opacity="0.07"></circle><circle cx="1022" cy="160" r="0.8" fill="#F4EFE3" opacity="0.07"></circle><circle cx="1418" cy="803" r="0.6" fill="#F4EFE3" opacity="0.07"></circle><circle cx="600" cy="717" r="0.5" fill="#F4EFE3" opacity="0.08"></circle><circle cx="966" cy="723" r="0.6" fill="#F4EFE3" opacity="0.06"></circle><circle cx="929" cy="591" r="0.8" fill="#F4EFE3" opacity="0.06"></circle><circle cx="546" cy="295" r="0.6" fill="#F4EFE3" opacity="0.06"></circle><circle cx="180" cy="226" r="0.5" fill="#F4EFE3" opacity="0.06"></circle><circle cx="890" cy="543" r="0.4" fill="#F4EFE3" opacity="0.05"></circle><circle cx="549" cy="93" r="0.4" fill="#F4EFE3" opacity="0.08"></circle><circle cx="194" cy="302" r="0.7" fill="#F4EFE3" opacity="0.06"></circle><circle cx="124" cy="470" r="0.8" fill="#F4EFE3" opacity="0.07"></circle><circle cx="9" cy="335" r="0.9" fill="#F4EFE3" opacity="0.08"></circle><circle cx="827" cy="474" r="1.1" fill="#F4EFE3" opacity="0.04"></circle><circle cx="51" cy="501" r="1.3" fill="#F4EFE3" opacity="0.06"></circle><circle cx="413" cy="684" r="1.2" fill="#F4EFE3" opacity="0.04"></circle><circle cx="941" cy="356" r="0.6" fill="#F4EFE3" opacity="0.04"></circle><circle cx="326" cy="351" r="0.4" fill="#F4EFE3" opacity="0.04"></circle><circle cx="139" cy="758" r="1.0" fill="#F4EFE3" opacity="0.02"></circle><circle cx="1238" cy="190" r="0.9" fill="#F4EFE3" opacity="0.05"></circle><circle cx="533" cy="289" r="0.8" fill="#F4EFE3" opacity="0.03"></circle><circle cx="1382" cy="112" r="1.2" fill="#F4EFE3" opacity="0.03"></circle><circle cx="485" cy="388" r="0.4" fill="#F4EFE3" opacity="0.03"></circle><circle cx="578" cy="442" r="1.3" fill="#F4EFE3" opacity="0.08"></circle><circle cx="70" cy="535" r="0.5" fill="#F4EFE3" opacity="0.07"></circle><circle cx="516" cy="893" r="0.9" fill="#F4EFE3" opacity="0.03"></circle><circle cx="8" cy="248" r="1.3" fill="#F4EFE3" opacity="0.03"></circle><circle cx="766" cy="372" r="0.7" fill="#F4EFE3" opacity="0.07"></circle><circle cx="342" cy="718" r="1.1" fill="#F4EFE3" opacity="0.08"></circle><circle cx="832" cy="920" r="0.8" fill="#F4EFE3" opacity="0.05"></circle><circle cx="993" cy="840" r="1.3" fill="#F4EFE3" opacity="0.03"></circle><circle cx="219" cy="534" r="1.2" fill="#F4EFE3" opacity="0.05"></circle><circle cx="479" cy="962" r="0.7" fill="#F4EFE3" opacity="0.03"></circle><circle cx="83" cy="30" r="1.1" fill="#F4EFE3" opacity="0.03"></circle><circle cx="1146" cy="866" r="1.4" fill="#F4EFE3" opacity="0.07"></circle><circle cx="679" cy="622" r="1.2" fill="#F4EFE3" opacity="0.06"></circle><circle cx="465" cy="762" r="0.5" fill="#F4EFE3" opacity="0.04"></circle><circle cx="1594" cy="471" r="0.7" fill="#F4EFE3" opacity="0.07"></circle><circle cx="720" cy="4" r="0.4" fill="#F4EFE3" opacity="0.04"></circle><circle cx="531" cy="937" r="0.6" fill="#F4EFE3" opacity="0.07"></circle><circle cx="1366" cy="416" r="1.4" fill="#F4EFE3" opacity="0.07"></circle><circle cx="774" cy="261" r="0.9" fill="#F4EFE3" opacity="0.07"></circle><circle cx="859" cy="194" r="0.8" fill="#F4EFE3" opacity="0.05"></circle><circle cx="305" cy="573" r="0.4" fill="#F4EFE3" opacity="0.07"></circle><circle cx="286" cy="103" r="1.0" fill="#F4EFE3" opacity="0.04"></circle><circle cx="1416" cy="497" r="0.9" fill="#F4EFE3" opacity="0.07"></circle><circle cx="343" cy="745" r="1.0" fill="#F4EFE3" opacity="0.05"></circle><circle cx="1535" cy="22" r="1.3" fill="#F4EFE3" opacity="0.03"></circle><circle cx="1344" cy="154" r="0.5" fill="#F4EFE3" opacity="0.05"></circle><circle cx="1481" cy="257" r="0.9" fill="#F4EFE3" opacity="0.06"></circle><circle cx="390" cy="530" r="0.4" fill="#F4EFE3" opacity="0.05"></circle><circle cx="1216" cy="340" r="0.6" fill="#F4EFE3" opacity="0.02"></circle><circle cx="1121" cy="427" r="1.3" fill="#F4EFE3" opacity="0.06"></circle><circle cx="161" cy="914" r="1.3" fill="#F4EFE3" opacity="0.07"></circle><circle cx="1330" cy="681" r="1.1" fill="#F4EFE3" opacity="0.06"></circle><circle cx="945" cy="257" r="0.5" fill="#F4EFE3" opacity="0.06"></circle><circle cx="954" cy="56" r="1.0" fill="#F4EFE3" opacity="0.06"></circle><circle cx="818" cy="775" r="1.3" fill="#F4EFE3" opacity="0.04"></circle><circle cx="1304" cy="499" r="1.0" fill="#F4EFE3" opacity="0.04"></circle><circle cx="1493" cy="444" r="1.4" fill="#F4EFE3" opacity="0.04"></circle><circle cx="1076" cy="913" r="1.1" fill="#F4EFE3" opacity="0.04"></circle><circle cx="124" cy="478" r="0.8" fill="#F4EFE3" opacity="0.07"></circle><circle cx="1255" cy="986" r="0.8" fill="#F4EFE3" opacity="0.04"></circle><circle cx="903" cy="750" r="0.5" fill="#F4EFE3" opacity="0.03"></circle><circle cx="233" cy="325" r="0.7" fill="#F4EFE3" opacity="0.08"></circle><circle cx="332" cy="933" r="0.7" fill="#F4EFE3" opacity="0.03"></circle><circle cx="1559" cy="89" r="0.5" fill="#F4EFE3" opacity="0.03"></circle><circle cx="107" cy="387" r="0.6" fill="#F4EFE3" opacity="0.03"></circle><circle cx="25" cy="698" r="0.4" fill="#F4EFE3" opacity="0.03"></circle><circle cx="905" cy="884" r="1.1" fill="#F4EFE3" opacity="0.06"></circle><circle cx="1121" cy="797" r="1.3" fill="#F4EFE3" opacity="0.03"></circle><circle cx="86" cy="621" r="0.9" fill="#F4EFE3" opacity="0.05"></circle><circle cx="1251" cy="174" r="1.1" fill="#F4EFE3" opacity="0.05"></circle><circle cx="675" cy="245" r="0.7" fill="#F4EFE3" opacity="0.05"></circle>
<rect x="40" y="40" width="1520" height="920" fill="none" stroke="#E6A532" stroke-opacity="0.18" stroke-width="2"></rect>
<g opacity="0.2" fill="none" stroke="#F4EFE3" stroke-width="4.5" stroke-linejoin="round" stroke-linecap="round"><rect x="710" y="367" width="180" height="135" rx="16"></rect><circle cx="800" cy="436" r="40"></circle><rect x="750" y="344" width="99" height="31" rx="7"></rect></g>
<text x="800.0" y="570.0" font-family="Oswald, Arial, sans-serif" font-size="46" font-weight="600" letter-spacing="6" fill="#F4EFE3" fill-opacity="0.82" text-anchor="middle">LIVE MUSIC</text>
<text x="800.0" y="618.0" font-family="Manrope, Arial, sans-serif" font-size="22" letter-spacing="3" fill="#E6A532" fill-opacity="0.9" text-anchor="middle">EVERY WEEKEND</text>
</svg>