<svg xmlns="http://www.w3.org/2000/svg" viewBox="0 0 1600 1000" preserveAspectRatio="xMidYMid slice" role="img" aria-label="Good Times">
<defs>
<linearGradient id="g" x1="0" y1="0" x2="1" y2="1">
<stop offset="0" stop-color="#1C1611"></stop><stop offset="1" stop-color="#0C0B0A"></stop>
</linearGradient>
<radialGradient id="v" cx="50%" cy="42%" r="75%">
<stop offset="0" stop-color="#D32027" stop-opacity="0.16"></stop>
<stop offset="0.55" stop-color="#D32027" stop-opacity="0"></stop>
</radialGradient>
</defs>
<rect width="1600" height="1000" fill="url(#g)"></rect>
<rect width="1600" height="1000" fill="url(#v)"></rect>
<circle cx="835" cy="807" r="1.4" fill="#F4EFE3" opacity="0.04"></circle><circle cx="1226" cy="704" r="1.1" fill="#F4EFE3" opacity="0.03"></circle><circle cx="43" cy="384" r="1.1" fill="#F4EFE3" opacity="0.04"></circle><circle cx="803" cy="317" r="1.2" fill="#F4EFE3" opacity="0.08"></circle><circle cx="643" cy="998" r="0.5" fill="#F4EFE3" opacity="0.07"></circle><circle cx="1401" cy="151" r="1.1" fill="#F4EFE3" opacity="0.05"></circle><circle cx="1528" cy="210" r="0.9" fill="#F4EFE3" opacity="0.07"></circle><circle cx="1022" cy="309" r="0.5" fill="#F4EFE3" opacity="0.08"></circle><circle cx="759" cy="996" r="0.5" fill="#F4EFE3" opacity="0.07"></circle><circle cx="1301" cy="920" r="0.4" fill="#F4EFE3" opacity="0.04"></circle><circle cx="83" cy="752" r="0.8" fill="#F4EFE3" opacity="0.08"></circle><circle cx="600" cy="774" r="1.3" fill="#F4EFE3" opacity="0.03"></circle><circle cx="891" cy="957" r="0.9" fill="#F4EFE3" opacity="0.04"></circle><circle cx="428" cy="786" r="0.6" fill="#F4EFE3" opacity="0.06"></circle><circle cx="889" cy="553" r="0.5" fill="#F4EFE3" opacity="0.06"></circle><circle cx="1466" cy="319" r="0.7" fill="#F4EFE3" opacity="0.07"></circle><circle cx="925" cy="273" r="0.4" fill="#F4EFE3" opacity="0.07"></circle><circle cx="557" cy="467" r="0.7" fill="#F4EFE3" opacity="0.06"></circle><circle cx="1166" cy="310" r="0.5" fill="#F4EFE3" opacity="0.08"></circle><circle cx="1456" cy="21" r="1.0" fill="#F4EFE3" opacity="0.06"></circle><circle cx="645" cy="732" r="1.4" fill="#F4EFE3" opacity="0.06"></circle><circle cx="627" cy="196" r="0.7" fill="#F4EFE3" opacity="0.03"></circle><circle cx="177" cy="212" r="1.2" fill="#F4EFE3" opacity="0.05"></circle><circle cx="1288" cy="920" r="1.2" fill="#F4EFE3" opacity="0.02"></circle><circle cx="1482" cy="93" r="1.2" fill="#F4EFE3" opacity="0.07"></circle><circle cx="1052" cy="404" r="0.5" fill="#F4EFE3" opacity="0.03"></circle><circle cx="1018" cy="242" r="0.9" fill="#F4EFE3" opacity="0.04"></circle><circle cx="261" cy="295" r="1.1" fill="#F4EFE3" opacity="0.05"></circle><circle cx="628" cy="486" r="1.0" fill="#F4EFE3" opacity="0.05"></circle><circle cx="712" cy="967" r="1.2" fill="#F4EFE3" opacity="0.03"></circle><circle cx="509" cy="189" r="0.8" fill="#F4EFE3" opacity="0.02"></circle><circle cx="1191" cy="568" r="0.8" fill="#F4EFE3" opacity="0.07"></circle><circle cx="526" cy="579" r="1.3" fill="#F4EFE3" opacity="0.05"></circle><circle cx="981" cy="368" r="1.4" fill="#F4EFE3" opacity="0.07"></circle><circle cx="485" cy="356" r="1.0" fill="#F4EFE3" opacity="0.05"></circle><circle cx="837" cy="192" r="1.0" fill="#F4EFE3" opacity="0.06"></circle><circle cx="1224" cy="449" r="0.8" fill="#F4EFE3" opacity="0.05"></circle><circle cx="858" cy="475" r="0.4" fill="#F4EFE3" opacity="0.04"></circle><circle cx="1580" cy="826" r="0.9" fill="#F4EFE3" opacity="0.07"></circle><circle cx="338" cy="267" r="0.9" fill="#F4EFE3" opacity="0.06"></circle><circle cx="44" cy="472" r="1.3" fill="#F4EFE3" opacity="0.06"></circle><circle cx="1589" cy="99" r="1.3" fill="#F4EFE3" opacity="0.07"></circle><circle cx="42" cy="537" r="1.2" fill="#F4EFE3" opacity="0.03"></circle><circle cx="1039" cy="851" r="1.2" fill="#F4EFE3" opacity="0.05"></circle><circle cx="93" cy="539" r="0.6" fill="#F4EFE3" opacity="0.05"></circle><circle cx="431" cy="347" r="0.9" fill="#F4EFE3" opacity="0.07"></circle><circle cx="1561" cy="406" r="0.4" fill="#F4EFE3" opacity="0.07"></circle><circle cx="543" cy="758" r="1.2" fill="#F4EFE3" opacity="0.02"></circle><circle cx="1169" cy="285" r="0.7" fill="#F4EFE3" opacity="0.04"></circle><circle cx="861" cy="243" r="0.9" fill="#F4EFE3" opacity="0.04"></circle><circle cx="199" cy="250" r="1.1" fill="#F4EFE3" opacity="0.04"></circle><circle cx="320" cy="366" r="0.6" fill="#F4EFE3" opacity="0.08"></circle><circle cx="1260" cy="152" r="0.7" fill="#F4EFE3" opacity="0.05"></circle><circle cx="845" cy="388" r="0.9" fill="#F4EFE3" opacity="0.07"></circle><circle cx="247" cy="559" r="0.6" fill="#F4EFE3" opacity="0.05"></circle><circle cx="507" cy="803" r="1.3" fill="#F4EFE3" opacity="0.08"></circle><circle cx="651" cy="617" r="0.6" fill="#F4EFE3" opacity="0.06"></circle><circle cx="1245" cy="427" r="0.7" fill="#F4EFE3" opacity="0.07"></circle><circle cx="1201" cy="799" r="0.7" fill="#F4EFE3" opacity="0.03"></circle><circle cx="401" cy="191" r="0.4" fill="#F4EFE3" opacity="0.03"></circle><circle cx="788" cy="431" r="1.3" fill="#F4EFE3" opacity="0.04"></circle><circle cx="273" cy="931" r="0.5" fill="#F4EFE3" opacity="0.04"></circle><circle cx="1222" cy="321" r="1.4" fill="#F4EFE3" opacity="0.06"></circle><circle cx="493" cy="863" r="1.3" fill="#F4EFE3" opacity="0.05"></circle><circle cx="230" cy="104" r="1.2" fill="#F4EFE3" opacity="0.07"></circle><circle cx="1046" cy="774" r="1.2" fill="#F4EFE3" opacity="0.03"></circle><circle cx="341" cy="868" r="1.2" fill="#F4EFE3" opacity="0.05"></circle><circle cx="432" cy="79" r="0.8" fill="#F4EFE3" opacity="0.07"></circle><circle cx="325" cy="316" r="0.4" fill="#F4EFE3" opacity="0.05"></circle><circle cx="96" cy="675" r="0.9" fill="#F4EFE3" opacity="0.05"></circle><circle cx="415" cy="303" r="1.3" fill="#F4EFE3" opacity="0.08"></circle><circle cx="1203" cy="213" r="0.6" fill="#F4EFE3" opacity="0.04"></circle><circle cx="1401" cy="943" r="0.6" fill="#F4EFE3" opacity="0.06"></circle><circle cx="608" cy="456" r="0.6" fill="#F4EFE3" opacity="0.06"></circle><circle cx="1251" cy="939" r="0.9" fill="#F4EFE3" opacity="0.05"></circle><circle cx="1034" cy="131" r="1.3" fill="#F4EFE3" opacity="0.07"></circle><circle cx="364" cy="402" r="0.9" fill="#F4EFE3" opacity="0.07"></circle><circle cx="1108" cy="239" r="1.4" fill="#F4EFE3" opacity="0.08"></circle><circle cx="1372" cy="493" r="0.9" fill="#F4EFE3" opacity="0.04"></circle><circle cx="1564" cy="481" r="1.4" fill="#F4EFE3" opacity="0.03"></circle><circle cx="48" cy="472" r="0.6" fill="#F4EFE3" opacity="0.04"></circle><circle cx="58" cy="124" r="0.8" fill="#F4EFE3" opacity="0.03"></circle><circle cx="474" cy="613" r="0.7" fill="#F4EFE3" opacity="0.04"></circle><circle cx="605" cy="263" r="1.0" fill="#F4EFE3" opacity="0.07"></circle><circle cx="50" cy="536" r="0.9" fill="#F4EFE3" opacity="0.08"></circle><circle cx="1127" cy="275" r="1.0" fill="#F4EFE3" opacity="0.07"></circle><circle cx="1522" cy="768" r="0.5" fill="#F4EFE3" opacity="0.04"></circle><circle cx="766" cy="329" r="1.2" fill="#F4EFE3" opacity="0.05"></circle><circle cx="1566" cy="8" r="1.2" fill="#F4EFE3" opacity="0.03"></circle><circle cx="830" cy="149" r="0.8" fill="#F4EFE3" opacity="0.06"></circle>
<rect x="40" y="40" width="1520" height="920" fill="none" stroke="#D32027" stroke-opacity="0.18" stroke-width="2"></rect>
<g opacity="0.2" fill="none" stroke="#F4EFE3" stroke-width="4.5" stroke-linejoin="round" stroke-linecap="round"><rect x="710" y="367" width="180" height="135" rx="16"></rect><circle cx="800" cy="436" r="40"></circle><rect x="750" y="344" width="99" height="31" rx="7"></rect></g>
<text x="800.0" y="570.0" font-family="Oswald, Arial, sans-serif" font-size="46" font-weight="600" letter-spacing="6" fill="#F4EFE3" fill-opacity="0.82" text-anchor="middle">GOOD TIMES</text>
<text x="800.0" y="618.0" font-family="Manrope, Arial, sans-serif" font-size="22" letter-spacing="3" fill="#D32027" fill-opacity="0.9" text-anchor="middle">GAME DAY CENTRAL</text>
</svg>