<svg xmlns="http://www.w3.org/2000/svg" viewBox="0 0 1600 760" preserveAspectRatio="xMidYMid slice" role="img" aria-label="The Gallery">
<defs>
<linearGradient id="g" x1="0" y1="0" x2="1" y2="1">
<stop offset="0" stop-color="#2A1F16"></stop><stop offset="1" stop-color="#0C0B0A"></stop>
</linearGradient>
<radialGradient id="v" cx="50%" cy="42%" r="75%">
<stop offset="0" stop-color="#D32027" stop-opacity="0.16"></stop>
<stop offset="0.55" stop-color="#D32027" stop-opacity="0"></stop>
</radialGradient>
</defs>
<rect width="1600" height="760" fill="url(#g)"></rect>
<rect width="1600" height="760" fill="url(#v)"></rect>
<circle cx="913" cy="480" r="1.2" fill="#F4EFE3" opacity="0.04"></circle><circle cx="1043" cy="677" r="1.3" fill="#F4EFE3" opacity="0.03"></circle><circle cx="1043" cy="469" r="0.9" fill="#F4EFE3" opacity="0.08"></circle><circle cx="845" cy="338" r="1.3" fill="#F4EFE3" opacity="0.06"></circle><circle cx="482" cy="235" r="0.9" fill="#F4EFE3" opacity="0.02"></circle><circle cx="972" cy="559" r="0.8" fill="#F4EFE3" opacity="0.07"></circle><circle cx="1485" cy="422" r="1.1" fill="#F4EFE3" opacity="0.03"></circle><circle cx="90" cy="745" r="0.7" fill="#F4EFE3" opacity="0.03"></circle><circle cx="1435" cy="570" r="0.5" fill="#F4EFE3" opacity="0.04"></circle><circle cx="388" cy="207" r="0.4" fill="#F4EFE3" opacity="0.05"></circle><circle cx="487" cy="300" r="0.6" fill="#F4EFE3" opacity="0.03"></circle><circle cx="53" cy="663" r="1.1" fill="#F4EFE3" opacity="0.05"></circle><circle cx="198" cy="113" r="0.5" fill="#F4EFE3" opacity="0.04"></circle><circle cx="92" cy="209" r="0.6" fill="#F4EFE3" opacity="0.03"></circle><circle cx="1046" cy="348" r="0.9" fill="#F4EFE3" opacity="0.04"></circle><circle cx="862" cy="597" r="0.7" fill="#F4EFE3" opacity="0.02"></circle><circle cx="770" cy="288" r="1.2" fill="#F4EFE3" opacity="0.03"></circle><circle cx="1396" cy="11" r="0.9" fill="#F4EFE3" opacity="0.05"></circle><circle cx="505" cy="676" r="1.1" fill="#F4EFE3" opacity="0.03"></circle><circle cx="792" cy="465" r="0.4" fill="#F4EFE3" opacity="0.03"></circle><circle cx="963" cy="554" r="0.9" fill="#F4EFE3" opacity="0.05"></circle><circle cx="811" cy="198" r="1.3" fill="#F4EFE3" opacity="0.08"></circle><circle cx="771" cy="16" r="0.8" fill="#F4EFE3" opacity="0.07"></circle><circle cx="520" cy="80" r="0.6" fill="#F4EFE3" opacity="0.06"></circle><circle cx="995" cy="217" r="1.0" fill="#F4EFE3" opacity="0.07"></circle><circle cx="1546" cy="632" r="0.8" fill="#F4EFE3" opacity="0.07"></circle><circle cx="1481" cy="660" r="1.2" fill="#F4EFE3" opacity="0.06"></circle><circle cx="818" cy="646" r="1.0" fill="#F4EFE3" opacity="0.06"></circle><circle cx="365" cy="70" r="0.7" fill="#F4EFE3" opacity="0.06"></circle><circle cx="917" cy="151" r="0.6" fill="#F4EFE3" opacity="0.08"></circle><circle cx="114" cy="704" r="1.2" fill="#F4EFE3" opacity="0.05"></circle><circle cx="1593" cy="517" r="0.4" fill="#F4EFE3" opacity="0.08"></circle><circle cx="661" cy="697" r="1.2" fill="#F4EFE3" opacity="0.03"></circle><circle cx="63" cy="16" r="1.2" fill="#F4EFE3" opacity="0.07"></circle><circle cx="365" cy="86" r="0.8" fill="#F4EFE3" opacity="0.07"></circle><circle cx="1185" cy="659" r="1.4" fill="#F4EFE3" opacity="0.07"></circle><circle cx="1337" cy="12" r="0.4" fill="#F4EFE3" opacity="0.07"></circle><circle cx="990" cy="248" r="0.5" fill="#F4EFE3" opacity="0.04"></circle><circle cx="543" cy="377" r="0.8" fill="#F4EFE3" opacity="0.03"></circle><circle cx="131" cy="154" r="0.5" fill="#F4EFE3" opacity="0.03"></circle><circle cx="663" cy="99" r="1.2" fill="#F4EFE3" opacity="0.05"></circle><circle cx="736" cy="486" r="0.6" fill="#F4EFE3" opacity="0.02"></circle><circle cx="126" cy="256" r="0.8" fill="#F4EFE3" opacity="0.04"></circle><circle cx="490" cy="634" r="0.4" fill="#F4EFE3" opacity="0.05"></circle><circle cx="613" cy="214" r="1.1" fill="#F4EFE3" opacity="0.03"></circle><circle cx="68" cy="121" r="1.4" fill="#F4EFE3" opacity="0.04"></circle><circle cx="187" cy="738" r="1.0" fill="#F4EFE3" opacity="0.08"></circle><circle cx="530" cy="616" r="0.4" fill="#F4EFE3" opacity="0.03"></circle><circle cx="1271" cy="392" r="1.2" fill="#F4EFE3" opacity="0.04"></circle><circle cx="1402" cy="59" r="1.0" fill="#F4EFE3" opacity="0.03"></circle><circle cx="319" cy="671" r="0.8" fill="#F4EFE3" opacity="0.07"></circle><circle cx="454" cy="555" r="1.3" fill="#F4EFE3" opacity="0.06"></circle><circle cx="375" cy="508" r="1.4" fill="#F4EFE3" opacity="0.07"></circle><circle cx="710" cy="304" r="0.5" fill="#F4EFE3" opacity="0.07"></circle><circle cx="253" cy="166" r="0.4" fill="#F4EFE3" opacity="0.03"></circle><circle cx="614" cy="362" r="0.6" fill="#F4EFE3" opacity="0.05"></circle><circle cx="1213" cy="74" r="0.5" fill="#F4EFE3" opacity="0.05"></circle><circle cx="1446" cy="697" r="1.0" fill="#F4EFE3" opacity="0.03"></circle><circle cx="1398" cy="754" r="1.3" fill="#F4EFE3" opacity="0.05"></circle><circle cx="612" cy="446" r="1.2" fill="#F4EFE3" opacity="0.08"></circle><circle cx="790" cy="385" r="0.7" fill="#F4EFE3" opacity="0.05"></circle><circle cx="870" cy="215" r="0.9" fill="#F4EFE3" opacity="0.07"></circle><circle cx="378" cy="193" r="0.7" fill="#F4EFE3" opacity="0.07"></circle><circle cx="485" cy="628" r="1.3" fill="#F4EFE3" opacity="0.07"></circle><circle cx="1287" cy="148" r="0.9" fill="#F4EFE3" opacity="0.07"></circle><circle cx="393" cy="457" r="1.3" fill="#F4EFE3" opacity="0.08"></circle><circle cx="561" cy="91" r="0.4" fill="#F4EFE3" opacity="0.04"></circle><circle cx="875" cy="213" r="1.2" fill="#F4EFE3" opacity="0.06"></circle><circle cx="994" cy="628" r="0.7" fill="#F4EFE3" opacity="0.06"></circle><circle cx="561" cy="220" r="0.5" fill="#F4EFE3" opacity="0.07"></circle><circle cx="1441" cy="24" r="1.1" fill="#F4EFE3" opacity="0.02"></circle><circle cx="668" cy="241" r="1.3" fill="#F4EFE3" opacity="0.05"></circle><circle cx="817" cy="271" r="0.7" fill="#F4EFE3" opacity="0.03"></circle><circle cx="100" cy="11" r="1.0" fill="#F4EFE3" opacity="0.06"></circle><circle cx="1073" cy="197" r="1.4" fill="#F4EFE3" opacity="0.02"></circle><circle cx="691" cy="254" r="0.6" fill="#F4EFE3" opacity="0.08"></circle><circle cx="1144" cy="100" r="0.6" fill="#F4EFE3" opacity="0.07"></circle><circle cx="596" cy="229" r="0.7" fill="#F4EFE3" opacity="0.04"></circle><circle cx="942" cy="237" r="1.0" fill="#F4EFE3" opacity="0.02"></circle><circle cx="856" cy="444" r="0.7" fill="#F4EFE3" opacity="0.07"></circle><circle cx="1485" cy="499" r="0.8" fill="#F4EFE3" opacity="0.03"></circle><circle cx="1001" cy="220" r="0.6" fill="#F4EFE3" opacity="0.05"></circle><circle cx="320" cy="486" r="1.2" fill="#F4EFE3" opacity="0.02"></circle><circle cx="1012" cy="146" r="0.7" fill="#F4EFE3" opacity="0.06"></circle><circle cx="1544" cy="239" r="1.2" fill="#F4EFE3" opacity="0.04"></circle><circle cx="1505" cy="132" r="1.1" fill="#F4EFE3" opacity="0.02"></circle><circle cx="896" cy="565" r="1.3" fill="#F4EFE3" opacity="0.07"></circle><circle cx="879" cy="304" r="1.0" fill="#F4EFE3" opacity="0.06"></circle><circle cx="978" cy="543" r="1.1" fill="#F4EFE3" opacity="0.08"></circle><circle cx="993" cy="666" r="1.1" fill="#F4EFE3" opacity="0.04"></circle>
<rect x="40" y="40" width="1520" height="680" fill="none" stroke="#D32027" stroke-opacity="0.18" stroke-width="2"></rect>
<g opacity="0.2" fill="none" stroke="#F4EFE3" stroke-width="4.5" stroke-linejoin="round" stroke-linecap="round"><rect x="710" y="247" width="180" height="135" rx="16"></rect><circle cx="800" cy="316" r="40"></circle><rect x="750" y="224" width="99" height="31" rx="7"></rect></g>
<text x="800.0" y="450.0" font-family="Oswald, Arial, sans-serif" font-size="46" font-weight="600" letter-spacing="6" fill="#F4EFE3" fill-opacity="0.82" text-anchor="middle">THE GALLERY</text>
<text x="800.0" y="498.0" font-family="Manrope, Arial, sans-serif" font-size="22" letter-spacing="3" fill="#D32027" fill-opacity="0.9" text-anchor="middle">MOMENTS AT THE JUG</text>
</svg>