<svg xmlns="http://www.w3.org/2000/svg" viewBox="0 0 1600 1000" preserveAspectRatio="xMidYMid slice" role="img" aria-label="Inside The Jug">
<defs>
<linearGradient id="g" x1="0" y1="0" x2="1" y2="1">
<stop offset="0" stop-color="#2A1F16"></stop><stop offset="1" stop-color="#0C0B0A"></stop>
</linearGradient>
<radialGradient id="v" cx="50%" cy="42%" r="75%">
<stop offset="0" stop-color="#E6A532" stop-opacity="0.16"></stop>
<stop offset="0.55" stop-color="#E6A532" stop-opacity="0"></stop>
</radialGradient>
</defs>
<rect width="1600" height="1000" fill="url(#g)"></rect>
<rect width="1600" height="1000" fill="url(#v)"></rect>
<circle cx="381" cy="544" r="0.8" fill="#F4EFE3" opacity="0.06"></circle><circle cx="1001" cy="66" r="0.4" fill="#F4EFE3" opacity="0.07"></circle><circle cx="415" cy="234" r="1.4" fill="#F4EFE3" opacity="0.05"></circle><circle cx="1338" cy="476" r="1.0" fill="#F4EFE3" opacity="0.03"></circle><circle cx="1016" cy="868" r="0.9" fill="#F4EFE3" opacity="0.06"></circle><circle cx="1074" cy="64" r="1.2" fill="#F4EFE3" opacity="0.06"></circle><circle cx="482" cy="31" r="1.3" fill="#F4EFE3" opacity="0.05"></circle><circle cx="1150" cy="879" r="1.1" fill="#F4EFE3" opacity="0.08"></circle><circle cx="632" cy="801" r="0.8" fill="#F4EFE3" opacity="0.08"></circle><circle cx="1406" cy="97" r="0.5" fill="#F4EFE3" opacity="0.03"></circle><circle cx="1545" cy="436" r="1.0" fill="#F4EFE3" opacity="0.04"></circle><circle cx="812" cy="386" r="0.8" fill="#F4EFE3" opacity="0.06"></circle><circle cx="935" cy="904" r="1.1" fill="#F4EFE3" opacity="0.08"></circle><circle cx="1370" cy="991" r="1.1" fill="#F4EFE3" opacity="0.03"></circle><circle cx="1377" cy="965" r="1.3" fill="#F4EFE3" opacity="0.05"></circle><circle cx="1142" cy="211" r="1.2" fill="#F4EFE3" opacity="0.05"></circle><circle cx="456" cy="63" r="1.3" fill="#F4EFE3" opacity="0.08"></circle><circle cx="142" cy="801" r="0.8" fill="#F4EFE3" opacity="0.03"></circle><circle cx="470" cy="769" r="1.3" fill="#F4EFE3" opacity="0.02"></circle><circle cx="983" cy="45" r="1.1" fill="#F4EFE3" opacity="0.04"></circle><circle cx="1409" cy="981" r="0.9" fill="#F4EFE3" opacity="0.08"></circle><circle cx="495" cy="77" r="1.0" fill="#F4EFE3" opacity="0.02"></circle><circle cx="316" cy="408" r="1.0" fill="#F4EFE3" opacity="0.03"></circle><circle cx="68" cy="868" r="0.7" fill="#F4EFE3" opacity="0.08"></circle><circle cx="1435" cy="378" r="0.9" fill="#F4EFE3" opacity="0.05"></circle><circle cx="1030" cy="596" r="1.0" fill="#F4EFE3" opacity="0.06"></circle><circle cx="1505" cy="507" r="0.8" fill="#F4EFE3" opacity="0.06"></circle><circle cx="380" cy="301" r="1.4" fill="#F4EFE3" opacity="0.05"></circle><circle cx="877" cy="11" r="0.8" fill="#F4EFE3" opacity="0.05"></circle><circle cx="32" cy="616" r="1.0" fill="#F4EFE3" opacity="0.02"></circle><circle cx="1004" cy="466" r="1.1" fill="#F4EFE3" opacity="0.04"></circle><circle cx="1131" cy="738" r="0.4" fill="#F4EFE3" opacity="0.02"></circle><circle cx="1082" cy="963" r="0.7" fill="#F4EFE3" opacity="0.05"></circle><circle cx="948" cy="320" r="0.8" fill="#F4EFE3" opacity="0.04"></circle><circle cx="591" cy="596" r="0.7" fill="#F4EFE3" opacity="0.04"></circle><circle cx="1236" cy="27" r="1.0" fill="#F4EFE3" opacity="0.06"></circle><circle cx="496" cy="223" r="1.2" fill="#F4EFE3" opacity="0.03"></circle><circle cx="300" cy="435" r="1.1" fill="#F4EFE3" opacity="0.03"></circle><circle cx="515" cy="334" r="1.2" fill="#F4EFE3" opacity="0.05"></circle><circle cx="1369" cy="169" r="0.7" fill="#F4EFE3" opacity="0.06"></circle><circle cx="1416" cy="451" r="0.6" fill="#F4EFE3" opacity="0.03"></circle><circle cx="847" cy="191" r="1.2" fill="#F4EFE3" opacity="0.07"></circle><circle cx="294" cy="279" r="1.2" fill="#F4EFE3" opacity="0.06"></circle><circle cx="1290" cy="345" r="0.5" fill="#F4EFE3" opacity="0.04"></circle><circle cx="1270" cy="271" r="0.7" fill="#F4EFE3" opacity="0.05"></circle><circle cx="672" cy="410" r="1.3" fill="#F4EFE3" opacity="0.03"></circle><circle cx="7" cy="943" r="1.3" fill="#F4EFE3" opacity="0.08"></circle><circle cx="695" cy="950" r="1.3" fill="#F4EFE3" opacity="0.03"></circle><circle cx="1193" cy="837" r="1.1" fill="#F4EFE3" opacity="0.05"></circle><circle cx="462" cy="341" r="0.6" fill="#F4EFE3" opacity="0.02"></circle><circle cx="942" cy="287" r="1.2" fill="#F4EFE3" opacity="0.02"></circle><circle cx="1446" cy="694" r="1.3" fill="#F4EFE3" opacity="0.07"></circle><circle cx="1439" cy="577" r="0.4" fill="#F4EFE3" opacity="0.06"></circle><circle cx="275" cy="300" r="1.1" fill="#F4EFE3" opacity="0.05"></circle><circle cx="662" cy="939" r="1.0" fill="#F4EFE3" opacity="0.04"></circle><circle cx="404" cy="862" r="0.9" fill="#F4EFE3" opacity="0.07"></circle><circle cx="563" cy="197" r="0.9" fill="#F4EFE3" opacity="0.07"></circle><circle cx="274" cy="792" r="1.3" fill="#F4EFE3" opacity="0.07"></circle><circle cx="1318" cy="8" r="1.0" fill="#F4EFE3" opacity="0.07"></circle><circle cx="80" cy="271" r="0.7" fill="#F4EFE3" opacity="0.05"></circle><circle cx="677" cy="473" r="1.2" fill="#F4EFE3" opacity="0.02"></circle><circle cx="88" cy="127" r="0.5" fill="#F4EFE3" opacity="0.02"></circle><circle cx="1560" cy="854" r="0.5" fill="#F4EFE3" opacity="0.05"></circle><circle cx="505" cy="315" r="0.8" fill="#F4EFE3" opacity="0.06"></circle><circle cx="939" cy="361" r="0.6" fill="#F4EFE3" opacity="0.04"></circle><circle cx="198" cy="556" r="1.1" fill="#F4EFE3" opacity="0.04"></circle><circle cx="128" cy="179" r="0.8" fill="#F4EFE3" opacity="0.06"></circle><circle cx="1252" cy="380" r="1.2" fill="#F4EFE3" opacity="0.06"></circle><circle cx="691" cy="372" r="0.9" fill="#F4EFE3" opacity="0.06"></circle><circle cx="673" cy="694" r="0.9" fill="#F4EFE3" opacity="0.03"></circle><circle cx="857" cy="695" r="0.5" fill="#F4EFE3" opacity="0.05"></circle><circle cx="681" cy="880" r="1.3" fill="#F4EFE3" opacity="0.04"></circle><circle cx="1437" cy="791" r="0.7" fill="#F4EFE3" opacity="0.05"></circle><circle cx="197" cy="813" r="1.1" fill="#F4EFE3" opacity="0.07"></circle><circle cx="1268" cy="668" r="1.1" fill="#F4EFE3" opacity="0.05"></circle><circle cx="165" cy="588" r="0.4" fill="#F4EFE3" opacity="0.03"></circle><circle cx="1239" cy="44" r="0.5" fill="#F4EFE3" opacity="0.03"></circle><circle cx="1409" cy="179" r="0.4" fill="#F4EFE3" opacity="0.07"></circle><circle cx="194" cy="844" r="1.1" fill="#F4EFE3" opacity="0.07"></circle><circle cx="1524" cy="579" r="1.2" fill="#F4EFE3" opacity="0.02"></circle><circle cx="1228" cy="511" r="1.1" fill="#F4EFE3" opacity="0.03"></circle><circle cx="1198" cy="935" r="0.5" fill="#F4EFE3" opacity="0.04"></circle><circle cx="902" cy="828" r="0.6" fill="#F4EFE3" opacity="0.03"></circle><circle cx="400" cy="616" r="1.2" fill="#F4EFE3" opacity="0.04"></circle><circle cx="588" cy="397" r="0.8" fill="#F4EFE3" opacity="0.05"></circle><circle cx="133" cy="500" r="1.4" fill="#F4EFE3" opacity="0.04"></circle><circle cx="1196" cy="161" r="1.1" fill="#F4EFE3" opacity="0.07"></circle><circle cx="1078" cy="517" r="0.9" fill="#F4EFE3" opacity="0.06"></circle><circle cx="1436" cy="149" r="0.5" fill="#F4EFE3" opacity="0.06"></circle><circle cx="1467" cy="517" r="0.8" fill="#F4EFE3" opacity="0.06"></circle>
<rect x="40" y="40" width="1520" height="920" fill="none" stroke="#E6A532" stroke-opacity="0.18" stroke-width="2"></rect>
<g opacity="0.2" fill="none" stroke="#F4EFE3" stroke-width="4.5" stroke-linejoin="round" stroke-linecap="round"><rect x="710" y="367" width="180" height="135" rx="16"></rect><circle cx="800" cy="436" r="40"></circle><rect x="750" y="344" width="99" height="31" rx="7"></rect></g>
<text x="800.0" y="570.0" font-family="Oswald, Arial, sans-serif" font-size="46" font-weight="600" letter-spacing="6" fill="#F4EFE3" fill-opacity="0.82" text-anchor="middle">INSIDE THE JUG</text>
<text x="800.0" y="618.0" font-family="Manrope, Arial, sans-serif" font-size="22" letter-spacing="3" fill="#E6A532" fill-opacity="0.9" text-anchor="middle">WHERE FRIENDS MEET</text>
</svg>