<svg xmlns="http://www.w3.org/2000/svg" viewBox="0 0 1600 820" preserveAspectRatio="xMidYMid slice" role="img" aria-label="Join The Team">
<defs>
<linearGradient id="g" x1="0" y1="0" x2="1" y2="1">
<stop offset="0" stop-color="#2A1F16"></stop><stop offset="1" stop-color="#0C0B0A"></stop>
</linearGradient>
<radialGradient id="v" cx="50%" cy="42%" r="75%">
<stop offset="0" stop-color="#E6A532" stop-opacity="0.16"></stop>
<stop offset="0.55" stop-color="#E6A532" stop-opacity="0"></stop>
</radialGradient>
</defs>
<rect width="1600" height="820" fill="url(#g)"></rect>
<rect width="1600" height="820" fill="url(#v)"></rect>
<circle cx="610" cy="189" r="0.6" fill="#F4EFE3" opacity="0.07"></circle><circle cx="925" cy="566" r="1.0" fill="#F4EFE3" opacity="0.04"></circle><circle cx="1171" cy="473" r="1.2" fill="#F4EFE3" opacity="0.06"></circle><circle cx="1343" cy="360" r="0.6" fill="#F4EFE3" opacity="0.03"></circle><circle cx="1157" cy="137" r="1.1" fill="#F4EFE3" opacity="0.06"></circle><circle cx="95" cy="643" r="0.4" fill="#F4EFE3" opacity="0.07"></circle><circle cx="1346" cy="177" r="1.1" fill="#F4EFE3" opacity="0.06"></circle><circle cx="200" cy="549" r="0.5" fill="#F4EFE3" opacity="0.07"></circle><circle cx="1102" cy="804" r="0.5" fill="#F4EFE3" opacity="0.04"></circle><circle cx="992" cy="499" r="0.6" fill="#F4EFE3" opacity="0.07"></circle><circle cx="1354" cy="247" r="0.5" fill="#F4EFE3" opacity="0.06"></circle><circle cx="652" cy="544" r="0.9" fill="#F4EFE3" opacity="0.04"></circle><circle cx="35" cy="111" r="0.9" fill="#F4EFE3" opacity="0.06"></circle><circle cx="681" cy="610" r="0.9" fill="#F4EFE3" opacity="0.07"></circle><circle cx="1048" cy="264" r="0.5" fill="#F4EFE3" opacity="0.02"></circle><circle cx="63" cy="707" r="1.3" fill="#F4EFE3" opacity="0.07"></circle><circle cx="175" cy="542" r="0.5" fill="#F4EFE3" opacity="0.07"></circle><circle cx="1049" cy="615" r="1.0" fill="#F4EFE3" opacity="0.05"></circle><circle cx="1357" cy="789" r="0.6" fill="#F4EFE3" opacity="0.05"></circle><circle cx="1173" cy="558" r="0.8" fill="#F4EFE3" opacity="0.05"></circle><circle cx="1548" cy="226" r="0.6" fill="#F4EFE3" opacity="0.06"></circle><circle cx="443" cy="736" r="0.7" fill="#F4EFE3" opacity="0.08"></circle><circle cx="608" cy="726" r="1.2" fill="#F4EFE3" opacity="0.06"></circle><circle cx="343" cy="135" r="0.4" fill="#F4EFE3" opacity="0.03"></circle><circle cx="1066" cy="53" r="0.6" fill="#F4EFE3" opacity="0.05"></circle><circle cx="248" cy="270" r="0.6" fill="#F4EFE3" opacity="0.06"></circle><circle cx="190" cy="818" r="1.0" fill="#F4EFE3" opacity="0.06"></circle><circle cx="884" cy="408" r="1.4" fill="#F4EFE3" opacity="0.07"></circle><circle cx="1315" cy="24" r="1.0" fill="#F4EFE3" opacity="0.08"></circle><circle cx="1021" cy="421" r="1.0" fill="#F4EFE3" opacity="0.03"></circle><circle cx="1164" cy="643" r="0.5" fill="#F4EFE3" opacity="0.05"></circle><circle cx="952" cy="289" r="1.1" fill="#F4EFE3" opacity="0.08"></circle><circle cx="1450" cy="252" r="0.6" fill="#F4EFE3" opacity="0.07"></circle><circle cx="979" cy="680" r="1.3" fill="#F4EFE3" opacity="0.04"></circle><circle cx="940" cy="249" r="1.2" fill="#F4EFE3" opacity="0.06"></circle><circle cx="382" cy="410" r="1.0" fill="#F4EFE3" opacity="0.03"></circle><circle cx="292" cy="389" r="0.5" fill="#F4EFE3" opacity="0.05"></circle><circle cx="1504" cy="677" r="0.5" fill="#F4EFE3" opacity="0.07"></circle><circle cx="1146" cy="581" r="0.4" fill="#F4EFE3" opacity="0.07"></circle><circle cx="313" cy="658" r="0.7" fill="#F4EFE3" opacity="0.04"></circle><circle cx="276" cy="711" r="0.6" fill="#F4EFE3" opacity="0.07"></circle><circle cx="822" cy="122" r="1.1" fill="#F4EFE3" opacity="0.05"></circle><circle cx="43" cy="675" r="0.7" fill="#F4EFE3" opacity="0.02"></circle><circle cx="1226" cy="596" r="0.8" fill="#F4EFE3" opacity="0.03"></circle><circle cx="843" cy="481" r="1.1" fill="#F4EFE3" opacity="0.05"></circle><circle cx="909" cy="591" r="0.6" fill="#F4EFE3" opacity="0.03"></circle><circle cx="775" cy="618" r="1.2" fill="#F4EFE3" opacity="0.07"></circle><circle cx="702" cy="585" r="0.5" fill="#F4EFE3" opacity="0.04"></circle><circle cx="107" cy="685" r="1.4" fill="#F4EFE3" opacity="0.06"></circle><circle cx="1204" cy="305" r="1.2" fill="#F4EFE3" opacity="0.03"></circle><circle cx="593" cy="288" r="1.3" fill="#F4EFE3" opacity="0.03"></circle><circle cx="255" cy="73" r="1.2" fill="#F4EFE3" opacity="0.04"></circle><circle cx="1445" cy="257" r="1.2" fill="#F4EFE3" opacity="0.03"></circle><circle cx="1444" cy="798" r="1.3" fill="#F4EFE3" opacity="0.06"></circle><circle cx="1434" cy="750" r="1.4" fill="#F4EFE3" opacity="0.04"></circle><circle cx="1360" cy="639" r="0.7" fill="#F4EFE3" opacity="0.03"></circle><circle cx="1439" cy="387" r="0.9" fill="#F4EFE3" opacity="0.07"></circle><circle cx="774" cy="207" r="1.1" fill="#F4EFE3" opacity="0.05"></circle><circle cx="436" cy="567" r="1.3" fill="#F4EFE3" opacity="0.03"></circle><circle cx="1300" cy="618" r="0.9" fill="#F4EFE3" opacity="0.03"></circle><circle cx="1064" cy="231" r="0.7" fill="#F4EFE3" opacity="0.07"></circle><circle cx="433" cy="76" r="1.2" fill="#F4EFE3" opacity="0.08"></circle><circle cx="489" cy="332" r="0.9" fill="#F4EFE3" opacity="0.07"></circle><circle cx="20" cy="531" r="0.6" fill="#F4EFE3" opacity="0.08"></circle><circle cx="663" cy="774" r="0.9" fill="#F4EFE3" opacity="0.06"></circle><circle cx="61" cy="166" r="0.7" fill="#F4EFE3" opacity="0.04"></circle><circle cx="277" cy="345" r="0.5" fill="#F4EFE3" opacity="0.05"></circle><circle cx="1541" cy="703" r="1.0" fill="#F4EFE3" opacity="0.08"></circle><circle cx="1166" cy="520" r="0.9" fill="#F4EFE3" opacity="0.02"></circle><circle cx="1429" cy="735" r="1.2" fill="#F4EFE3" opacity="0.06"></circle><circle cx="1300" cy="786" r="1.4" fill="#F4EFE3" opacity="0.07"></circle><circle cx="26" cy="777" r="1.0" fill="#F4EFE3" opacity="0.05"></circle><circle cx="690" cy="222" r="0.4" fill="#F4EFE3" opacity="0.06"></circle><circle cx="988" cy="71" r="1.3" fill="#F4EFE3" opacity="0.07"></circle><circle cx="1384" cy="441" r="0.8" fill="#F4EFE3" opacity="0.05"></circle><circle cx="593" cy="784" r="1.3" fill="#F4EFE3" opacity="0.07"></circle><circle cx="832" cy="419" r="1.1" fill="#F4EFE3" opacity="0.04"></circle><circle cx="295" cy="808" r="0.7" fill="#F4EFE3" opacity="0.04"></circle><circle cx="788" cy="72" r="0.9" fill="#F4EFE3" opacity="0.03"></circle><circle cx="1327" cy="67" r="1.2" fill="#F4EFE3" opacity="0.04"></circle><circle cx="1261" cy="657" r="1.4" fill="#F4EFE3" opacity="0.03"></circle><circle cx="1575" cy="121" r="0.8" fill="#F4EFE3" opacity="0.02"></circle><circle cx="790" cy="67" r="1.0" fill="#F4EFE3" opacity="0.08"></circle><circle cx="1251" cy="531" r="0.5" fill="#F4EFE3" opacity="0.08"></circle><circle cx="584" cy="779" r="0.5" fill="#F4EFE3" opacity="0.04"></circle><circle cx="1516" cy="613" r="0.6" fill="#F4EFE3" opacity="0.05"></circle><circle cx="868" cy="207" r="0.6" fill="#F4EFE3" opacity="0.03"></circle><circle cx="815" cy="341" r="0.7" fill="#F4EFE3" opacity="0.05"></circle><circle cx="555" cy="317" r="1.2" fill="#F4EFE3" opacity="0.03"></circle><circle cx="153" cy="366" r="0.7" fill="#F4EFE3" opacity="0.05"></circle>
<rect x="40" y="40" width="1520" height="740" fill="none" stroke="#E6A532" stroke-opacity="0.18" stroke-width="2"></rect>
<g opacity="0.2" fill="none" stroke="#F4EFE3" stroke-width="4.5" stroke-linejoin="round" stroke-linecap="round"><rect x="710" y="277" width="180" height="135" rx="16"></rect><circle cx="800" cy="346" r="40"></circle><rect x="750" y="254" width="99" height="31" rx="7"></rect></g>
<text x="800.0" y="480.0" font-family="Oswald, Arial, sans-serif" font-size="46" font-weight="600" letter-spacing="6" fill="#F4EFE3" fill-opacity="0.82" text-anchor="middle">JOIN THE TEAM</text>
<text x="800.0" y="528.0" font-family="Manrope, Arial, sans-serif" font-size="22" letter-spacing="3" fill="#E6A532" fill-opacity="0.9" text-anchor="middle">WE&#39;RE HIRING</text>
</svg>