<svg xmlns="http://www.w3.org/2000/svg" viewBox="0 0 1600 1000" preserveAspectRatio="xMidYMid slice" role="img" aria-label="Behind The Bar">
<defs>
<linearGradient id="g" x1="0" y1="0" x2="1" y2="1">
<stop offset="0" stop-color="#1C1611"></stop><stop offset="1" stop-color="#0C0B0A"></stop>
</linearGradient>
<radialGradient id="v" cx="50%" cy="42%" r="75%">
<stop offset="0" stop-color="#D32027" stop-opacity="0.16"></stop>
<stop offset="0.55" stop-color="#D32027" stop-opacity="0"></stop>
</radialGradient>
</defs>
<rect width="1600" height="1000" fill="url(#g)"></rect>
<rect width="1600" height="1000" fill="url(#v)"></rect>
<circle cx="62" cy="696" r="0.5" fill="#F4EFE3" opacity="0.05"></circle><circle cx="1075" cy="793" r="0.9" fill="#F4EFE3" opacity="0.05"></circle><circle cx="31" cy="432" r="0.8" fill="#F4EFE3" opacity="0.07"></circle><circle cx="875" cy="755" r="0.8" fill="#F4EFE3" opacity="0.03"></circle><circle cx="1361" cy="820" r="0.8" fill="#F4EFE3" opacity="0.03"></circle><circle cx="820" cy="496" r="1.2" fill="#F4EFE3" opacity="0.06"></circle><circle cx="811" cy="575" r="0.8" fill="#F4EFE3" opacity="0.02"></circle><circle cx="98" cy="942" r="1.2" fill="#F4EFE3" opacity="0.04"></circle><circle cx="1422" cy="522" r="0.5" fill="#F4EFE3" opacity="0.07"></circle><circle cx="935" cy="933" r="1.1" fill="#F4EFE3" opacity="0.03"></circle><circle cx="996" cy="787" r="1.3" fill="#F4EFE3" opacity="0.04"></circle><circle cx="846" cy="701" r="0.6" fill="#F4EFE3" opacity="0.07"></circle><circle cx="1249" cy="50" r="1.0" fill="#F4EFE3" opacity="0.04"></circle><circle cx="298" cy="604" r="1.4" fill="#F4EFE3" opacity="0.05"></circle><circle cx="181" cy="495" r="1.2" fill="#F4EFE3" opacity="0.08"></circle><circle cx="1144" cy="41" r="1.4" fill="#F4EFE3" opacity="0.06"></circle><circle cx="134" cy="127" r="0.5" fill="#F4EFE3" opacity="0.06"></circle><circle cx="247" cy="807" r="0.5" fill="#F4EFE3" opacity="0.05"></circle><circle cx="709" cy="38" r="0.4" fill="#F4EFE3" opacity="0.07"></circle><circle cx="1563" cy="124" r="1.1" fill="#F4EFE3" opacity="0.08"></circle><circle cx="1446" cy="885" r="0.7" fill="#F4EFE3" opacity="0.06"></circle><circle cx="797" cy="937" r="1.1" fill="#F4EFE3" opacity="0.07"></circle><circle cx="1372" cy="386" r="1.1" fill="#F4EFE3" opacity="0.03"></circle><circle cx="330" cy="937" r="0.8" fill="#F4EFE3" opacity="0.06"></circle><circle cx="921" cy="260" r="1.0" fill="#F4EFE3" opacity="0.07"></circle><circle cx="524" cy="347" r="0.6" fill="#F4EFE3" opacity="0.03"></circle><circle cx="1324" cy="706" r="1.4" fill="#F4EFE3" opacity="0.06"></circle><circle cx="1534" cy="222" r="0.6" fill="#F4EFE3" opacity="0.03"></circle><circle cx="614" cy="990" r="0.6" fill="#F4EFE3" opacity="0.05"></circle><circle cx="98" cy="27" r="0.9" fill="#F4EFE3" opacity="0.06"></circle><circle cx="817" cy="915" r="1.3" fill="#F4EFE3" opacity="0.08"></circle><circle cx="926" cy="263" r="0.5" fill="#F4EFE3" opacity="0.07"></circle><circle cx="247" cy="6" r="1.1" fill="#F4EFE3" opacity="0.03"></circle><circle cx="996" cy="201" r="0.8" fill="#F4EFE3" opacity="0.02"></circle><circle cx="602" cy="328" r="0.7" fill="#F4EFE3" opacity="0.03"></circle><circle cx="921" cy="693" r="0.6" fill="#F4EFE3" opacity="0.02"></circle><circle cx="429" cy="699" r="0.7" fill="#F4EFE3" opacity="0.06"></circle><circle cx="118" cy="703" r="0.5" fill="#F4EFE3" opacity="0.03"></circle><circle cx="1167" cy="475" r="1.0" fill="#F4EFE3" opacity="0.04"></circle><circle cx="1070" cy="299" r="0.9" fill="#F4EFE3" opacity="0.05"></circle><circle cx="1460" cy="752" r="0.9" fill="#F4EFE3" opacity="0.07"></circle><circle cx="976" cy="724" r="0.9" fill="#F4EFE3" opacity="0.05"></circle><circle cx="342" cy="931" r="1.0" fill="#F4EFE3" opacity="0.07"></circle><circle cx="970" cy="25" r="0.5" fill="#F4EFE3" opacity="0.07"></circle><circle cx="1119" cy="904" r="1.3" fill="#F4EFE3" opacity="0.03"></circle><circle cx="1576" cy="611" r="1.1" fill="#F4EFE3" opacity="0.05"></circle><circle cx="410" cy="486" r="0.9" fill="#F4EFE3" opacity="0.04"></circle><circle cx="547" cy="443" r="0.7" fill="#F4EFE3" opacity="0.03"></circle><circle cx="1287" cy="358" r="0.8" fill="#F4EFE3" opacity="0.07"></circle><circle cx="1117" cy="447" r="0.7" fill="#F4EFE3" opacity="0.07"></circle><circle cx="379" cy="463" r="0.8" fill="#F4EFE3" opacity="0.08"></circle><circle cx="384" cy="593" r="0.9" fill="#F4EFE3" opacity="0.02"></circle><circle cx="290" cy="886" r="1.2" fill="#F4EFE3" opacity="0.03"></circle><circle cx="286" cy="938" r="1.0" fill="#F4EFE3" opacity="0.06"></circle><circle cx="1451" cy="261" r="0.9" fill="#F4EFE3" opacity="0.07"></circle><circle cx="298" cy="255" r="1.3" fill="#F4EFE3" opacity="0.07"></circle><circle cx="825" cy="134" r="1.2" fill="#F4EFE3" opacity="0.04"></circle><circle cx="1212" cy="255" r="0.6" fill="#F4EFE3" opacity="0.06"></circle><circle cx="629" cy="376" r="0.8" fill="#F4EFE3" opacity="0.05"></circle><circle cx="753" cy="648" r="0.5" fill="#F4EFE3" opacity="0.06"></circle><circle cx="779" cy="818" r="0.7" fill="#F4EFE3" opacity="0.06"></circle><circle cx="329" cy="699" r="1.1" fill="#F4EFE3" opacity="0.05"></circle><circle cx="767" cy="950" r="0.8" fill="#F4EFE3" opacity="0.02"></circle><circle cx="530" cy="43" r="1.3" fill="#F4EFE3" opacity="0.07"></circle><circle cx="296" cy="629" r="0.6" fill="#F4EFE3" opacity="0.07"></circle><circle cx="663" cy="59" r="1.0" fill="#F4EFE3" opacity="0.03"></circle><circle cx="1431" cy="928" r="1.0" fill="#F4EFE3" opacity="0.03"></circle><circle cx="1239" cy="39" r="0.5" fill="#F4EFE3" opacity="0.04"></circle><circle cx="116" cy="874" r="1.1" fill="#F4EFE3" opacity="0.07"></circle><circle cx="1051" cy="224" r="0.7" fill="#F4EFE3" opacity="0.06"></circle><circle cx="1266" cy="625" r="0.7" fill="#F4EFE3" opacity="0.07"></circle><circle cx="657" cy="628" r="1.2" fill="#F4EFE3" opacity="0.06"></circle><circle cx="735" cy="591" r="0.6" fill="#F4EFE3" opacity="0.05"></circle><circle cx="1332" cy="485" r="0.4" fill="#F4EFE3" opacity="0.07"></circle><circle cx="247" cy="33" r="1.0" fill="#F4EFE3" opacity="0.07"></circle><circle cx="180" cy="444" r="0.9" fill="#F4EFE3" opacity="0.03"></circle><circle cx="1007" cy="251" r="1.1" fill="#F4EFE3" opacity="0.05"></circle><circle cx="839" cy="231" r="1.2" fill="#F4EFE3" opacity="0.02"></circle><circle cx="501" cy="102" r="0.5" fill="#F4EFE3" opacity="0.02"></circle><circle cx="837" cy="72" r="0.5" fill="#F4EFE3" opacity="0.05"></circle><circle cx="1088" cy="202" r="1.1" fill="#F4EFE3" opacity="0.05"></circle><circle cx="1479" cy="810" r="1.4" fill="#F4EFE3" opacity="0.04"></circle><circle cx="1416" cy="321" r="0.7" fill="#F4EFE3" opacity="0.05"></circle><circle cx="37" cy="723" r="0.5" fill="#F4EFE3" opacity="0.06"></circle><circle cx="94" cy="427" r="0.7" fill="#F4EFE3" opacity="0.08"></circle><circle cx="478" cy="356" r="0.7" fill="#F4EFE3" opacity="0.03"></circle><circle cx="1031" cy="303" r="0.7" fill="#F4EFE3" opacity="0.04"></circle><circle cx="565" cy="793" r="0.6" fill="#F4EFE3" opacity="0.03"></circle><circle cx="529" cy="570" r="0.7" fill="#F4EFE3" opacity="0.03"></circle><circle cx="572" cy="961" r="1.3" fill="#F4EFE3" opacity="0.05"></circle>
<rect x="40" y="40" width="1520" height="920" fill="none" stroke="#D32027" stroke-opacity="0.18" stroke-width="2"></rect>
<g opacity="0.2" fill="none" stroke="#F4EFE3" stroke-width="4.5" stroke-linejoin="round" stroke-linecap="round"><rect x="710" y="367" width="180" height="135" rx="16"></rect><circle cx="800" cy="436" r="40"></circle><rect x="750" y="344" width="99" height="31" rx="7"></rect></g>
<text x="800.0" y="570.0" font-family="Oswald, Arial, sans-serif" font-size="46" font-weight="600" letter-spacing="6" fill="#F4EFE3" fill-opacity="0.82" text-anchor="middle">BEHIND THE BAR</text>
<text x="800.0" y="618.0" font-family="Manrope, Arial, sans-serif" font-size="22" letter-spacing="3" fill="#D32027" fill-opacity="0.9" text-anchor="middle">GREAT CREW</text>
</svg>