<svg xmlns="http://www.w3.org/2000/svg" viewBox="0 0 1600 820" preserveAspectRatio="xMidYMid slice" role="img" aria-label="The Jug Handle Menu">
<defs>
<linearGradient id="g" x1="0" y1="0" x2="1" y2="1">
<stop offset="0" stop-color="#1C1611"></stop><stop offset="1" stop-color="#0C0B0A"></stop>
</linearGradient>
<radialGradient id="v" cx="50%" cy="42%" r="75%">
<stop offset="0" stop-color="#D32027" stop-opacity="0.16"></stop>
<stop offset="0.55" stop-color="#D32027" stop-opacity="0"></stop>
</radialGradient>
</defs>
<rect width="1600" height="820" fill="url(#g)"></rect>
<rect width="1600" height="820" fill="url(#v)"></rect>
<circle cx="1038" cy="575" r="1.4" fill="#F4EFE3" opacity="0.03"></circle><circle cx="105" cy="676" r="0.7" fill="#F4EFE3" opacity="0.04"></circle><circle cx="1304" cy="150" r="1.3" fill="#F4EFE3" opacity="0.05"></circle><circle cx="114" cy="753" r="1.0" fill="#F4EFE3" opacity="0.02"></circle><circle cx="1342" cy="635" r="1.1" fill="#F4EFE3" opacity="0.06"></circle><circle cx="1588" cy="10" r="1.4" fill="#F4EFE3" opacity="0.06"></circle><circle cx="405" cy="502" r="0.7" fill="#F4EFE3" opacity="0.06"></circle><circle cx="1127" cy="430" r="0.5" fill="#F4EFE3" opacity="0.04"></circle><circle cx="483" cy="615" r="1.3" fill="#F4EFE3" opacity="0.07"></circle><circle cx="849" cy="140" r="1.1" fill="#F4EFE3" opacity="0.04"></circle><circle cx="1596" cy="142" r="1.4" fill="#F4EFE3" opacity="0.02"></circle><circle cx="1248" cy="284" r="1.0" fill="#F4EFE3" opacity="0.04"></circle><circle cx="493" cy="359" r="1.2" fill="#F4EFE3" opacity="0.04"></circle><circle cx="577" cy="641" r="0.6" fill="#F4EFE3" opacity="0.04"></circle><circle cx="826" cy="424" r="0.6" fill="#F4EFE3" opacity="0.07"></circle><circle cx="783" cy="75" r="0.7" fill="#F4EFE3" opacity="0.02"></circle><circle cx="550" cy="94" r="0.7" fill="#F4EFE3" opacity="0.05"></circle><circle cx="1103" cy="246" r="0.9" fill="#F4EFE3" opacity="0.05"></circle><circle cx="937" cy="744" r="0.6" fill="#F4EFE3" opacity="0.07"></circle><circle cx="887" cy="734" r="1.1" fill="#F4EFE3" opacity="0.02"></circle><circle cx="92" cy="654" r="0.7" fill="#F4EFE3" opacity="0.06"></circle><circle cx="155" cy="461" r="0.8" fill="#F4EFE3" opacity="0.05"></circle><circle cx="6" cy="734" r="1.2" fill="#F4EFE3" opacity="0.06"></circle><circle cx="994" cy="186" r="0.6" fill="#F4EFE3" opacity="0.07"></circle><circle cx="527" cy="315" r="1.3" fill="#F4EFE3" opacity="0.04"></circle><circle cx="1589" cy="150" r="1.3" fill="#F4EFE3" opacity="0.04"></circle><circle cx="220" cy="379" r="1.2" fill="#F4EFE3" opacity="0.03"></circle><circle cx="952" cy="702" r="0.4" fill="#F4EFE3" opacity="0.05"></circle><circle cx="500" cy="383" r="1.2" fill="#F4EFE3" opacity="0.05"></circle><circle cx="486" cy="167" r="1.2" fill="#F4EFE3" opacity="0.03"></circle><circle cx="1145" cy="816" r="1.1" fill="#F4EFE3" opacity="0.07"></circle><circle cx="200" cy="499" r="1.0" fill="#F4EFE3" opacity="0.02"></circle><circle cx="694" cy="251" r="0.5" fill="#F4EFE3" opacity="0.04"></circle><circle cx="139" cy="754" r="0.6" fill="#F4EFE3" opacity="0.05"></circle><circle cx="1135" cy="17" r="1.3" fill="#F4EFE3" opacity="0.08"></circle><circle cx="928" cy="427" r="1.3" fill="#F4EFE3" opacity="0.06"></circle><circle cx="355" cy="763" r="0.6" fill="#F4EFE3" opacity="0.05"></circle><circle cx="874" cy="628" r="0.8" fill="#F4EFE3" opacity="0.06"></circle><circle cx="334" cy="571" r="0.6" fill="#F4EFE3" opacity="0.04"></circle><circle cx="834" cy="596" r="1.3" fill="#F4EFE3" opacity="0.08"></circle><circle cx="753" cy="54" r="1.0" fill="#F4EFE3" opacity="0.05"></circle><circle cx="1173" cy="39" r="1.2" fill="#F4EFE3" opacity="0.03"></circle><circle cx="1331" cy="804" r="0.9" fill="#F4EFE3" opacity="0.05"></circle><circle cx="1054" cy="110" r="1.1" fill="#F4EFE3" opacity="0.07"></circle><circle cx="1495" cy="575" r="1.1" fill="#F4EFE3" opacity="0.08"></circle><circle cx="612" cy="276" r="1.4" fill="#F4EFE3" opacity="0.02"></circle><circle cx="553" cy="610" r="1.3" fill="#F4EFE3" opacity="0.07"></circle><circle cx="301" cy="654" r="0.6" fill="#F4EFE3" opacity="0.05"></circle><circle cx="982" cy="807" r="0.6" fill="#F4EFE3" opacity="0.04"></circle><circle cx="493" cy="242" r="0.6" fill="#F4EFE3" opacity="0.04"></circle><circle cx="426" cy="215" r="1.2" fill="#F4EFE3" opacity="0.03"></circle><circle cx="739" cy="34" r="0.5" fill="#F4EFE3" opacity="0.07"></circle><circle cx="1255" cy="762" r="0.5" fill="#F4EFE3" opacity="0.07"></circle><circle cx="477" cy="647" r="1.0" fill="#F4EFE3" opacity="0.05"></circle><circle cx="991" cy="212" r="0.9" fill="#F4EFE3" opacity="0.07"></circle><circle cx="1031" cy="619" r="1.4" fill="#F4EFE3" opacity="0.03"></circle><circle cx="1239" cy="787" r="0.9" fill="#F4EFE3" opacity="0.04"></circle><circle cx="1021" cy="90" r="1.2" fill="#F4EFE3" opacity="0.06"></circle><circle cx="39" cy="437" r="0.9" fill="#F4EFE3" opacity="0.06"></circle><circle cx="681" cy="70" r="0.4" fill="#F4EFE3" opacity="0.04"></circle><circle cx="153" cy="146" r="1.0" fill="#F4EFE3" opacity="0.07"></circle><circle cx="282" cy="459" r="0.9" fill="#F4EFE3" opacity="0.06"></circle><circle cx="1533" cy="305" r="1.0" fill="#F4EFE3" opacity="0.05"></circle><circle cx="242" cy="381" r="1.4" fill="#F4EFE3" opacity="0.06"></circle><circle cx="320" cy="273" r="0.6" fill="#F4EFE3" opacity="0.04"></circle><circle cx="737" cy="111" r="0.8" fill="#F4EFE3" opacity="0.08"></circle><circle cx="628" cy="524" r="1.4" fill="#F4EFE3" opacity="0.04"></circle><circle cx="546" cy="357" r="0.6" fill="#F4EFE3" opacity="0.02"></circle><circle cx="224" cy="563" r="1.2" fill="#F4EFE3" opacity="0.07"></circle><circle cx="227" cy="232" r="1.3" fill="#F4EFE3" opacity="0.06"></circle><circle cx="623" cy="611" r="0.7" fill="#F4EFE3" opacity="0.03"></circle><circle cx="1452" cy="707" r="0.9" fill="#F4EFE3" opacity="0.05"></circle><circle cx="1464" cy="457" r="1.4" fill="#F4EFE3" opacity="0.02"></circle><circle cx="1037" cy="209" r="1.1" fill="#F4EFE3" opacity="0.08"></circle><circle cx="34" cy="551" r="1.2" fill="#F4EFE3" opacity="0.05"></circle><circle cx="196" cy="406" r="1.1" fill="#F4EFE3" opacity="0.05"></circle><circle cx="902" cy="266" r="0.7" fill="#F4EFE3" opacity="0.03"></circle><circle cx="1165" cy="10" r="1.0" fill="#F4EFE3" opacity="0.06"></circle><circle cx="716" cy="346" r="1.2" fill="#F4EFE3" opacity="0.05"></circle><circle cx="92" cy="592" r="1.4" fill="#F4EFE3" opacity="0.08"></circle><circle cx="1378" cy="36" r="1.0" fill="#F4EFE3" opacity="0.03"></circle><circle cx="1320" cy="105" r="0.9" fill="#F4EFE3" opacity="0.07"></circle><circle cx="309" cy="621" r="1.4" fill="#F4EFE3" opacity="0.05"></circle><circle cx="785" cy="67" r="1.3" fill="#F4EFE3" opacity="0.03"></circle><circle cx="1198" cy="590" r="0.7" fill="#F4EFE3" opacity="0.08"></circle><circle cx="1484" cy="512" r="0.8" fill="#F4EFE3" opacity="0.05"></circle><circle cx="706" cy="542" r="1.4" fill="#F4EFE3" opacity="0.03"></circle><circle cx="449" cy="436" r="1.0" fill="#F4EFE3" opacity="0.06"></circle><circle cx="1471" cy="684" r="0.8" fill="#F4EFE3" opacity="0.04"></circle><circle cx="899" cy="763" r="0.6" fill="#F4EFE3" opacity="0.03"></circle>
<rect x="40" y="40" width="1520" height="740" fill="none" stroke="#D32027" stroke-opacity="0.18" stroke-width="2"></rect>
<g opacity="0.2" fill="none" stroke="#F4EFE3" stroke-width="4.5" stroke-linejoin="round" stroke-linecap="round"><rect x="710" y="277" width="180" height="135" rx="16"></rect><circle cx="800" cy="346" r="40"></circle><rect x="750" y="254" width="99" height="31" rx="7"></rect></g>
<text x="800.0" y="480.0" font-family="Oswald, Arial, sans-serif" font-size="46" font-weight="600" letter-spacing="6" fill="#F4EFE3" fill-opacity="0.82" text-anchor="middle">THE JUG HANDLE MENU</text>
<text x="800.0" y="528.0" font-family="Manrope, Arial, sans-serif" font-size="22" letter-spacing="3" fill="#D32027" fill-opacity="0.9" text-anchor="middle">AWARD-WINNING WINGS</text>
</svg>