<svg xmlns="http://www.w3.org/2000/svg" viewBox="0 0 1600 900" preserveAspectRatio="xMidYMid slice" role="img" aria-label="The Jug Handle Merch">
<defs>
<linearGradient id="g" x1="0" y1="0" x2="1" y2="1">
<stop offset="0" stop-color="#2A1F16"></stop><stop offset="1" stop-color="#0C0B0A"></stop>
</linearGradient>
<radialGradient id="v" cx="50%" cy="42%" r="75%">
<stop offset="0" stop-color="#D32027" stop-opacity="0.16"></stop>
<stop offset="0.55" stop-color="#D32027" stop-opacity="0"></stop>
</radialGradient>
</defs>
<rect width="1600" height="900" fill="url(#g)"></rect>
<rect width="1600" height="900" fill="url(#v)"></rect>
<circle cx="1091" cy="82" r="1.0" fill="#F4EFE3" opacity="0.07"></circle><circle cx="1335" cy="464" r="1.0" fill="#F4EFE3" opacity="0.04"></circle><circle cx="845" cy="97" r="1.1" fill="#F4EFE3" opacity="0.06"></circle><circle cx="451" cy="341" r="1.1" fill="#F4EFE3" opacity="0.05"></circle><circle cx="1535" cy="874" r="1.2" fill="#F4EFE3" opacity="0.03"></circle><circle cx="120" cy="260" r="0.8" fill="#F4EFE3" opacity="0.06"></circle><circle cx="1323" cy="506" r="1.0" fill="#F4EFE3" opacity="0.05"></circle><circle cx="54" cy="474" r="0.6" fill="#F4EFE3" opacity="0.05"></circle><circle cx="14" cy="590" r="1.3" fill="#F4EFE3" opacity="0.02"></circle><circle cx="928" cy="21" r="0.8" fill="#F4EFE3" opacity="0.03"></circle><circle cx="1377" cy="655" r="1.3" fill="#F4EFE3" opacity="0.03"></circle><circle cx="1150" cy="630" r="0.9" fill="#F4EFE3" opacity="0.07"></circle><circle cx="1000" cy="255" r="1.1" fill="#F4EFE3" opacity="0.05"></circle><circle cx="341" cy="556" r="0.4" fill="#F4EFE3" opacity="0.05"></circle><circle cx="891" cy="2" r="1.0" fill="#F4EFE3" opacity="0.03"></circle><circle cx="1040" cy="307" r="0.4" fill="#F4EFE3" opacity="0.08"></circle><circle cx="103" cy="141" r="0.9" fill="#F4EFE3" opacity="0.03"></circle><circle cx="849" cy="427" r="1.0" fill="#F4EFE3" opacity="0.05"></circle><circle cx="471" cy="190" r="1.1" fill="#F4EFE3" opacity="0.05"></circle><circle cx="833" cy="824" r="0.4" fill="#F4EFE3" opacity="0.04"></circle><circle cx="901" cy="49" r="1.2" fill="#F4EFE3" opacity="0.04"></circle><circle cx="506" cy="175" r="1.4" fill="#F4EFE3" opacity="0.02"></circle><circle cx="1314" cy="634" r="1.3" fill="#F4EFE3" opacity="0.06"></circle><circle cx="555" cy="495" r="1.3" fill="#F4EFE3" opacity="0.02"></circle><circle cx="1360" cy="606" r="0.6" fill="#F4EFE3" opacity="0.08"></circle><circle cx="479" cy="4" r="0.7" fill="#F4EFE3" opacity="0.05"></circle><circle cx="44" cy="533" r="0.8" fill="#F4EFE3" opacity="0.04"></circle><circle cx="1209" cy="557" r="1.4" fill="#F4EFE3" opacity="0.07"></circle><circle cx="1376" cy="840" r="1.2" fill="#F4EFE3" opacity="0.05"></circle><circle cx="109" cy="402" r="1.0" fill="#F4EFE3" opacity="0.08"></circle><circle cx="1046" cy="517" r="0.5" fill="#F4EFE3" opacity="0.06"></circle><circle cx="59" cy="129" r="0.4" fill="#F4EFE3" opacity="0.06"></circle><circle cx="1506" cy="535" r="0.5" fill="#F4EFE3" opacity="0.06"></circle><circle cx="279" cy="638" r="1.1" fill="#F4EFE3" opacity="0.08"></circle><circle cx="265" cy="210" r="0.7" fill="#F4EFE3" opacity="0.02"></circle><circle cx="1513" cy="560" r="0.5" fill="#F4EFE3" opacity="0.05"></circle><circle cx="158" cy="867" r="0.8" fill="#F4EFE3" opacity="0.02"></circle><circle cx="1184" cy="298" r="1.0" fill="#F4EFE3" opacity="0.07"></circle><circle cx="120" cy="492" r="1.4" fill="#F4EFE3" opacity="0.03"></circle><circle cx="399" cy="607" r="0.5" fill="#F4EFE3" opacity="0.07"></circle><circle cx="1283" cy="852" r="1.2" fill="#F4EFE3" opacity="0.05"></circle><circle cx="736" cy="482" r="1.0" fill="#F4EFE3" opacity="0.08"></circle><circle cx="244" cy="445" r="0.8" fill="#F4EFE3" opacity="0.03"></circle><circle cx="262" cy="705" r="1.0" fill="#F4EFE3" opacity="0.06"></circle><circle cx="412" cy="432" r="0.6" fill="#F4EFE3" opacity="0.03"></circle><circle cx="216" cy="584" r="1.2" fill="#F4EFE3" opacity="0.05"></circle><circle cx="1248" cy="71" r="0.9" fill="#F4EFE3" opacity="0.03"></circle><circle cx="840" cy="224" r="0.7" fill="#F4EFE3" opacity="0.08"></circle><circle cx="878" cy="219" r="0.9" fill="#F4EFE3" opacity="0.04"></circle><circle cx="1272" cy="358" r="1.2" fill="#F4EFE3" opacity="0.06"></circle><circle cx="1042" cy="548" r="1.0" fill="#F4EFE3" opacity="0.02"></circle><circle cx="1265" cy="553" r="0.6" fill="#F4EFE3" opacity="0.05"></circle><circle cx="1522" cy="588" r="1.0" fill="#F4EFE3" opacity="0.05"></circle><circle cx="111" cy="447" r="0.8" fill="#F4EFE3" opacity="0.06"></circle><circle cx="579" cy="130" r="1.2" fill="#F4EFE3" opacity="0.03"></circle><circle cx="361" cy="392" r="1.3" fill="#F4EFE3" opacity="0.06"></circle><circle cx="226" cy="86" r="0.9" fill="#F4EFE3" opacity="0.02"></circle><circle cx="364" cy="102" r="1.3" fill="#F4EFE3" opacity="0.07"></circle><circle cx="1390" cy="589" r="0.4" fill="#F4EFE3" opacity="0.04"></circle><circle cx="1325" cy="37" r="0.9" fill="#F4EFE3" opacity="0.07"></circle><circle cx="410" cy="312" r="1.0" fill="#F4EFE3" opacity="0.06"></circle><circle cx="245" cy="711" r="0.5" fill="#F4EFE3" opacity="0.03"></circle><circle cx="504" cy="181" r="0.9" fill="#F4EFE3" opacity="0.04"></circle><circle cx="1162" cy="735" r="1.2" fill="#F4EFE3" opacity="0.07"></circle><circle cx="404" cy="591" r="1.2" fill="#F4EFE3" opacity="0.07"></circle><circle cx="673" cy="807" r="0.8" fill="#F4EFE3" opacity="0.07"></circle><circle cx="1074" cy="58" r="1.3" fill="#F4EFE3" opacity="0.07"></circle><circle cx="873" cy="862" r="1.3" fill="#F4EFE3" opacity="0.07"></circle><circle cx="1222" cy="646" r="0.5" fill="#F4EFE3" opacity="0.06"></circle><circle cx="10" cy="456" r="0.6" fill="#F4EFE3" opacity="0.06"></circle><circle cx="1464" cy="184" r="1.0" fill="#F4EFE3" opacity="0.04"></circle><circle cx="1562" cy="446" r="0.6" fill="#F4EFE3" opacity="0.06"></circle><circle cx="746" cy="466" r="0.8" fill="#F4EFE3" opacity="0.03"></circle><circle cx="190" cy="541" r="0.5" fill="#F4EFE3" opacity="0.04"></circle><circle cx="904" cy="711" r="0.6" fill="#F4EFE3" opacity="0.04"></circle><circle cx="181" cy="215" r="1.4" fill="#F4EFE3" opacity="0.06"></circle><circle cx="109" cy="884" r="0.7" fill="#F4EFE3" opacity="0.05"></circle><circle cx="1264" cy="199" r="0.7" fill="#F4EFE3" opacity="0.04"></circle><circle cx="959" cy="874" r="0.6" fill="#F4EFE3" opacity="0.08"></circle><circle cx="919" cy="422" r="0.5" fill="#F4EFE3" opacity="0.06"></circle><circle cx="124" cy="759" r="0.7" fill="#F4EFE3" opacity="0.07"></circle><circle cx="1204" cy="332" r="0.7" fill="#F4EFE3" opacity="0.05"></circle><circle cx="743" cy="367" r="1.4" fill="#F4EFE3" opacity="0.04"></circle><circle cx="560" cy="669" r="0.8" fill="#F4EFE3" opacity="0.04"></circle><circle cx="670" cy="105" r="0.6" fill="#F4EFE3" opacity="0.07"></circle><circle cx="747" cy="407" r="0.9" fill="#F4EFE3" opacity="0.03"></circle><circle cx="193" cy="11" r="1.0" fill="#F4EFE3" opacity="0.04"></circle><circle cx="1075" cy="288" r="1.2" fill="#F4EFE3" opacity="0.08"></circle><circle cx="595" cy="558" r="0.6" fill="#F4EFE3" opacity="0.06"></circle><circle cx="454" cy="403" r="1.2" fill="#F4EFE3" opacity="0.07"></circle>
<rect x="40" y="40" width="1520" height="820" fill="none" stroke="#D32027" stroke-opacity="0.18" stroke-width="2"></rect>
<g opacity="0.2" fill="none" stroke="#F4EFE3" stroke-width="4.5" stroke-linejoin="round" stroke-linecap="round"><rect x="710" y="317" width="180" height="135" rx="16"></rect><circle cx="800" cy="386" r="40"></circle><rect x="750" y="294" width="99" height="31" rx="7"></rect></g>
<text x="800.0" y="520.0" font-family="Oswald, Arial, sans-serif" font-size="46" font-weight="600" letter-spacing="6" fill="#F4EFE3" fill-opacity="0.82" text-anchor="middle">THE JUG HANDLE MERCH</text>
<text x="800.0" y="568.0" font-family="Manrope, Arial, sans-serif" font-size="22" letter-spacing="3" fill="#D32027" fill-opacity="0.9" text-anchor="middle">REP THE ROOSTER</text>
</svg>