<svg xmlns="http://www.w3.org/2000/svg" viewBox="0 0 1600 1000" preserveAspectRatio="xMidYMid slice" role="img" aria-label="Wear The Brand">
<defs>
<linearGradient id="g" x1="0" y1="0" x2="1" y2="1">
<stop offset="0" stop-color="#1C1611"></stop><stop offset="1" stop-color="#0C0B0A"></stop>
</linearGradient>
<radialGradient id="v" cx="50%" cy="42%" r="75%">
<stop offset="0" stop-color="#E6A532" stop-opacity="0.16"></stop>
<stop offset="0.55" stop-color="#E6A532" stop-opacity="0"></stop>
</radialGradient>
</defs>
<rect width="1600" height="1000" fill="url(#g)"></rect>
<rect width="1600" height="1000" fill="url(#v)"></rect>
<circle cx="336" cy="385" r="0.6" fill="#F4EFE3" opacity="0.04"></circle><circle cx="900" cy="646" r="0.7" fill="#F4EFE3" opacity="0.04"></circle><circle cx="285" cy="815" r="0.7" fill="#F4EFE3" opacity="0.07"></circle><circle cx="118" cy="9" r="0.8" fill="#F4EFE3" opacity="0.05"></circle><circle cx="1204" cy="867" r="0.9" fill="#F4EFE3" opacity="0.04"></circle><circle cx="1146" cy="460" r="0.7" fill="#F4EFE3" opacity="0.04"></circle><circle cx="1" cy="709" r="0.4" fill="#F4EFE3" opacity="0.03"></circle><circle cx="991" cy="620" r="1.0" fill="#F4EFE3" opacity="0.06"></circle><circle cx="1281" cy="945" r="1.4" fill="#F4EFE3" opacity="0.04"></circle><circle cx="562" cy="136" r="0.8" fill="#F4EFE3" opacity="0.03"></circle><circle cx="1494" cy="754" r="0.6" fill="#F4EFE3" opacity="0.06"></circle><circle cx="1117" cy="99" r="1.2" fill="#F4EFE3" opacity="0.06"></circle><circle cx="756" cy="944" r="0.5" fill="#F4EFE3" opacity="0.02"></circle><circle cx="1157" cy="666" r="0.4" fill="#F4EFE3" opacity="0.06"></circle><circle cx="945" cy="379" r="0.5" fill="#F4EFE3" opacity="0.07"></circle><circle cx="1427" cy="556" r="0.6" fill="#F4EFE3" opacity="0.05"></circle><circle cx="1034" cy="517" r="1.2" fill="#F4EFE3" opacity="0.03"></circle><circle cx="1413" cy="718" r="0.5" fill="#F4EFE3" opacity="0.03"></circle><circle cx="1245" cy="331" r="1.3" fill="#F4EFE3" opacity="0.08"></circle><circle cx="450" cy="740" r="0.6" fill="#F4EFE3" opacity="0.05"></circle><circle cx="303" cy="799" r="0.5" fill="#F4EFE3" opacity="0.08"></circle><circle cx="579" cy="286" r="0.4" fill="#F4EFE3" opacity="0.03"></circle><circle cx="101" cy="222" r="1.4" fill="#F4EFE3" opacity="0.06"></circle><circle cx="185" cy="107" r="0.9" fill="#F4EFE3" opacity="0.07"></circle><circle cx="726" cy="356" r="1.1" fill="#F4EFE3" opacity="0.03"></circle><circle cx="295" cy="531" r="1.2" fill="#F4EFE3" opacity="0.05"></circle><circle cx="463" cy="537" r="1.2" fill="#F4EFE3" opacity="0.03"></circle><circle cx="239" cy="499" r="0.7" fill="#F4EFE3" opacity="0.03"></circle><circle cx="339" cy="864" r="0.6" fill="#F4EFE3" opacity="0.04"></circle><circle cx="1513" cy="373" r="1.3" fill="#F4EFE3" opacity="0.07"></circle><circle cx="766" cy="462" r="0.4" fill="#F4EFE3" opacity="0.04"></circle><circle cx="839" cy="987" r="0.5" fill="#F4EFE3" opacity="0.07"></circle><circle cx="1532" cy="885" r="0.9" fill="#F4EFE3" opacity="0.06"></circle><circle cx="566" cy="29" r="0.8" fill="#F4EFE3" opacity="0.06"></circle><circle cx="141" cy="479" r="0.5" fill="#F4EFE3" opacity="0.03"></circle><circle cx="1346" cy="40" r="1.0" fill="#F4EFE3" opacity="0.04"></circle><circle cx="450" cy="938" r="0.8" fill="#F4EFE3" opacity="0.05"></circle><circle cx="1431" cy="657" r="0.5" fill="#F4EFE3" opacity="0.04"></circle><circle cx="1323" cy="307" r="0.5" fill="#F4EFE3" opacity="0.04"></circle><circle cx="451" cy="482" r="0.5" fill="#F4EFE3" opacity="0.07"></circle><circle cx="1569" cy="202" r="0.9" fill="#F4EFE3" opacity="0.03"></circle><circle cx="1024" cy="271" r="0.4" fill="#F4EFE3" opacity="0.02"></circle><circle cx="30" cy="293" r="1.1" fill="#F4EFE3" opacity="0.05"></circle><circle cx="594" cy="161" r="1.3" fill="#F4EFE3" opacity="0.08"></circle><circle cx="220" cy="357" r="0.8" fill="#F4EFE3" opacity="0.04"></circle><circle cx="122" cy="747" r="1.0" fill="#F4EFE3" opacity="0.02"></circle><circle cx="17" cy="682" r="0.8" fill="#F4EFE3" opacity="0.04"></circle><circle cx="1357" cy="28" r="1.4" fill="#F4EFE3" opacity="0.07"></circle><circle cx="782" cy="423" r="0.5" fill="#F4EFE3" opacity="0.06"></circle><circle cx="893" cy="351" r="1.1" fill="#F4EFE3" opacity="0.03"></circle><circle cx="593" cy="951" r="0.6" fill="#F4EFE3" opacity="0.08"></circle><circle cx="566" cy="761" r="1.3" fill="#F4EFE3" opacity="0.03"></circle><circle cx="1469" cy="170" r="0.7" fill="#F4EFE3" opacity="0.05"></circle><circle cx="750" cy="956" r="0.5" fill="#F4EFE3" opacity="0.06"></circle><circle cx="138" cy="81" r="0.6" fill="#F4EFE3" opacity="0.06"></circle><circle cx="543" cy="899" r="0.9" fill="#F4EFE3" opacity="0.07"></circle><circle cx="186" cy="378" r="1.2" fill="#F4EFE3" opacity="0.08"></circle><circle cx="159" cy="530" r="1.1" fill="#F4EFE3" opacity="0.07"></circle><circle cx="1218" cy="403" r="1.2" fill="#F4EFE3" opacity="0.06"></circle><circle cx="550" cy="316" r="0.5" fill="#F4EFE3" opacity="0.04"></circle><circle cx="277" cy="893" r="0.9" fill="#F4EFE3" opacity="0.07"></circle><circle cx="1373" cy="736" r="0.4" fill="#F4EFE3" opacity="0.06"></circle><circle cx="543" cy="258" r="0.7" fill="#F4EFE3" opacity="0.02"></circle><circle cx="1465" cy="113" r="0.6" fill="#F4EFE3" opacity="0.08"></circle><circle cx="1473" cy="493" r="0.6" fill="#F4EFE3" opacity="0.07"></circle><circle cx="70" cy="542" r="0.4" fill="#F4EFE3" opacity="0.07"></circle><circle cx="1166" cy="295" r="0.4" fill="#F4EFE3" opacity="0.03"></circle><circle cx="490" cy="294" r="1.2" fill="#F4EFE3" opacity="0.07"></circle><circle cx="262" cy="996" r="1.0" fill="#F4EFE3" opacity="0.04"></circle><circle cx="793" cy="27" r="0.4" fill="#F4EFE3" opacity="0.05"></circle><circle cx="1240" cy="975" r="0.4" fill="#F4EFE3" opacity="0.05"></circle><circle cx="860" cy="268" r="0.6" fill="#F4EFE3" opacity="0.02"></circle><circle cx="1400" cy="253" r="1.3" fill="#F4EFE3" opacity="0.06"></circle><circle cx="1589" cy="603" r="1.2" fill="#F4EFE3" opacity="0.05"></circle><circle cx="135" cy="718" r="1.2" fill="#F4EFE3" opacity="0.07"></circle><circle cx="590" cy="574" r="1.3" fill="#F4EFE3" opacity="0.03"></circle><circle cx="985" cy="43" r="0.9" fill="#F4EFE3" opacity="0.07"></circle><circle cx="569" cy="82" r="0.6" fill="#F4EFE3" opacity="0.07"></circle><circle cx="1556" cy="539" r="1.1" fill="#F4EFE3" opacity="0.06"></circle><circle cx="1502" cy="735" r="1.2" fill="#F4EFE3" opacity="0.03"></circle><circle cx="1411" cy="269" r="0.9" fill="#F4EFE3" opacity="0.03"></circle><circle cx="428" cy="529" r="1.2" fill="#F4EFE3" opacity="0.06"></circle><circle cx="1238" cy="612" r="0.8" fill="#F4EFE3" opacity="0.03"></circle><circle cx="425" cy="248" r="0.9" fill="#F4EFE3" opacity="0.03"></circle><circle cx="1020" cy="702" r="1.3" fill="#F4EFE3" opacity="0.03"></circle><circle cx="1476" cy="166" r="0.9" fill="#F4EFE3" opacity="0.07"></circle><circle cx="162" cy="881" r="0.7" fill="#F4EFE3" opacity="0.05"></circle><circle cx="727" cy="56" r="0.8" fill="#F4EFE3" opacity="0.04"></circle><circle cx="774" cy="965" r="0.5" fill="#F4EFE3" opacity="0.04"></circle><circle cx="868" cy="913" r="0.4" fill="#F4EFE3" opacity="0.05"></circle>
<rect x="40" y="40" width="1520" height="920" fill="none" stroke="#E6A532" stroke-opacity="0.18" stroke-width="2"></rect>
<g opacity="0.2" fill="none" stroke="#F4EFE3" stroke-width="4.5" stroke-linejoin="round" stroke-linecap="round"><rect x="710" y="367" width="180" height="135" rx="16"></rect><circle cx="800" cy="436" r="40"></circle><rect x="750" y="344" width="99" height="31" rx="7"></rect></g>
<text x="800.0" y="570.0" font-family="Oswald, Arial, sans-serif" font-size="46" font-weight="600" letter-spacing="6" fill="#F4EFE3" fill-opacity="0.82" text-anchor="middle">WEAR THE BRAND</text>
<text x="800.0" y="618.0" font-family="Manrope, Arial, sans-serif" font-size="22" letter-spacing="3" fill="#E6A532" fill-opacity="0.9" text-anchor="middle">TEES · HATS · MORE</text>
</svg>