<svg xmlns="http://www.w3.org/2000/svg" viewBox="0 0 1600 1000" preserveAspectRatio="xMidYMid slice" role="img" aria-label="The Bar">
<defs>
<linearGradient id="g" x1="0" y1="0" x2="1" y2="1">
<stop offset="0" stop-color="#1C1611"></stop><stop offset="1" stop-color="#0C0B0A"></stop>
</linearGradient>
<radialGradient id="v" cx="50%" cy="42%" r="75%">
<stop offset="0" stop-color="#D32027" stop-opacity="0.16"></stop>
<stop offset="0.55" stop-color="#D32027" stop-opacity="0"></stop>
</radialGradient>
</defs>
<rect width="1600" height="1000" fill="url(#g)"></rect>
<rect width="1600" height="1000" fill="url(#v)"></rect>
<circle cx="997" cy="742" r="1.2" fill="#F4EFE3" opacity="0.08"></circle><circle cx="1184" cy="922" r="0.4" fill="#F4EFE3" opacity="0.05"></circle><circle cx="1509" cy="649" r="1.3" fill="#F4EFE3" opacity="0.03"></circle><circle cx="751" cy="247" r="0.9" fill="#F4EFE3" opacity="0.05"></circle><circle cx="21" cy="217" r="0.7" fill="#F4EFE3" opacity="0.07"></circle><circle cx="1225" cy="160" r="1.2" fill="#F4EFE3" opacity="0.03"></circle><circle cx="988" cy="127" r="0.4" fill="#F4EFE3" opacity="0.07"></circle><circle cx="335" cy="215" r="1.4" fill="#F4EFE3" opacity="0.07"></circle><circle cx="463" cy="961" r="0.9" fill="#F4EFE3" opacity="0.06"></circle><circle cx="328" cy="941" r="1.1" fill="#F4EFE3" opacity="0.08"></circle><circle cx="1430" cy="299" r="0.8" fill="#F4EFE3" opacity="0.03"></circle><circle cx="233" cy="65" r="0.7" fill="#F4EFE3" opacity="0.06"></circle><circle cx="5" cy="678" r="0.7" fill="#F4EFE3" opacity="0.04"></circle><circle cx="1310" cy="481" r="0.7" fill="#F4EFE3" opacity="0.05"></circle><circle cx="1127" cy="57" r="1.4" fill="#F4EFE3" opacity="0.02"></circle><circle cx="1200" cy="845" r="0.4" fill="#F4EFE3" opacity="0.07"></circle><circle cx="586" cy="579" r="0.4" fill="#F4EFE3" opacity="0.02"></circle><circle cx="289" cy="955" r="0.6" fill="#F4EFE3" opacity="0.07"></circle><circle cx="1487" cy="942" r="0.7" fill="#F4EFE3" opacity="0.04"></circle><circle cx="840" cy="776" r="0.5" fill="#F4EFE3" opacity="0.06"></circle><circle cx="1276" cy="860" r="0.4" fill="#F4EFE3" opacity="0.08"></circle><circle cx="146" cy="341" r="1.0" fill="#F4EFE3" opacity="0.08"></circle><circle cx="544" cy="924" r="0.9" fill="#F4EFE3" opacity="0.04"></circle><circle cx="507" cy="177" r="0.5" fill="#F4EFE3" opacity="0.03"></circle><circle cx="1103" cy="997" r="0.6" fill="#F4EFE3" opacity="0.02"></circle><circle cx="1579" cy="534" r="0.8" fill="#F4EFE3" opacity="0.03"></circle><circle cx="950" cy="826" r="0.9" fill="#F4EFE3" opacity="0.05"></circle><circle cx="89" cy="916" r="0.4" fill="#F4EFE3" opacity="0.05"></circle><circle cx="1341" cy="131" r="1.1" fill="#F4EFE3" opacity="0.08"></circle><circle cx="1009" cy="788" r="0.5" fill="#F4EFE3" opacity="0.05"></circle><circle cx="239" cy="845" r="0.7" fill="#F4EFE3" opacity="0.05"></circle><circle cx="1599" cy="852" r="1.4" fill="#F4EFE3" opacity="0.05"></circle><circle cx="781" cy="730" r="0.9" fill="#F4EFE3" opacity="0.04"></circle><circle cx="646" cy="147" r="0.8" fill="#F4EFE3" opacity="0.08"></circle><circle cx="1536" cy="627" r="0.9" fill="#F4EFE3" opacity="0.04"></circle><circle cx="143" cy="272" r="1.2" fill="#F4EFE3" opacity="0.07"></circle><circle cx="578" cy="786" r="1.2" fill="#F4EFE3" opacity="0.06"></circle><circle cx="1062" cy="760" r="0.8" fill="#F4EFE3" opacity="0.06"></circle><circle cx="449" cy="486" r="1.2" fill="#F4EFE3" opacity="0.06"></circle><circle cx="470" cy="946" r="1.0" fill="#F4EFE3" opacity="0.05"></circle><circle cx="19" cy="547" r="0.7" fill="#F4EFE3" opacity="0.06"></circle><circle cx="741" cy="817" r="1.0" fill="#F4EFE3" opacity="0.07"></circle><circle cx="557" cy="644" r="1.1" fill="#F4EFE3" opacity="0.07"></circle><circle cx="560" cy="843" r="1.3" fill="#F4EFE3" opacity="0.06"></circle><circle cx="1562" cy="957" r="0.9" fill="#F4EFE3" opacity="0.05"></circle><circle cx="266" cy="837" r="1.3" fill="#F4EFE3" opacity="0.05"></circle><circle cx="1106" cy="720" r="1.1" fill="#F4EFE3" opacity="0.03"></circle><circle cx="1249" cy="581" r="1.1" fill="#F4EFE3" opacity="0.05"></circle><circle cx="998" cy="775" r="1.0" fill="#F4EFE3" opacity="0.06"></circle><circle cx="44" cy="160" r="0.8" fill="#F4EFE3" opacity="0.06"></circle><circle cx="350" cy="686" r="1.0" fill="#F4EFE3" opacity="0.02"></circle><circle cx="755" cy="226" r="0.5" fill="#F4EFE3" opacity="0.03"></circle><circle cx="508" cy="182" r="0.6" fill="#F4EFE3" opacity="0.02"></circle><circle cx="745" cy="380" r="1.0" fill="#F4EFE3" opacity="0.06"></circle><circle cx="381" cy="903" r="0.4" fill="#F4EFE3" opacity="0.04"></circle><circle cx="446" cy="410" r="0.5" fill="#F4EFE3" opacity="0.07"></circle><circle cx="598" cy="36" r="1.0" fill="#F4EFE3" opacity="0.03"></circle><circle cx="872" cy="339" r="1.0" fill="#F4EFE3" opacity="0.08"></circle><circle cx="1310" cy="419" r="1.2" fill="#F4EFE3" opacity="0.06"></circle><circle cx="591" cy="142" r="1.0" fill="#F4EFE3" opacity="0.05"></circle><circle cx="1532" cy="968" r="1.0" fill="#F4EFE3" opacity="0.04"></circle><circle cx="1430" cy="1" r="0.5" fill="#F4EFE3" opacity="0.05"></circle><circle cx="984" cy="141" r="1.0" fill="#F4EFE3" opacity="0.07"></circle><circle cx="601" cy="432" r="0.6" fill="#F4EFE3" opacity="0.04"></circle><circle cx="1556" cy="380" r="1.4" fill="#F4EFE3" opacity="0.07"></circle><circle cx="953" cy="260" r="1.4" fill="#F4EFE3" opacity="0.05"></circle><circle cx="665" cy="319" r="1.4" fill="#F4EFE3" opacity="0.05"></circle><circle cx="458" cy="477" r="0.5" fill="#F4EFE3" opacity="0.06"></circle><circle cx="710" cy="293" r="1.2" fill="#F4EFE3" opacity="0.07"></circle><circle cx="21" cy="533" r="0.7" fill="#F4EFE3" opacity="0.08"></circle><circle cx="1251" cy="246" r="0.7" fill="#F4EFE3" opacity="0.03"></circle><circle cx="1582" cy="293" r="1.0" fill="#F4EFE3" opacity="0.05"></circle><circle cx="1032" cy="604" r="1.1" fill="#F4EFE3" opacity="0.03"></circle><circle cx="1217" cy="301" r="0.9" fill="#F4EFE3" opacity="0.04"></circle><circle cx="475" cy="530" r="0.9" fill="#F4EFE3" opacity="0.04"></circle><circle cx="1192" cy="591" r="0.4" fill="#F4EFE3" opacity="0.04"></circle><circle cx="729" cy="917" r="1.3" fill="#F4EFE3" opacity="0.05"></circle><circle cx="23" cy="778" r="0.8" fill="#F4EFE3" opacity="0.05"></circle><circle cx="1133" cy="632" r="0.9" fill="#F4EFE3" opacity="0.07"></circle><circle cx="617" cy="392" r="1.3" fill="#F4EFE3" opacity="0.03"></circle><circle cx="474" cy="830" r="0.5" fill="#F4EFE3" opacity="0.07"></circle><circle cx="1111" cy="433" r="0.7" fill="#F4EFE3" opacity="0.07"></circle><circle cx="1457" cy="143" r="0.9" fill="#F4EFE3" opacity="0.05"></circle><circle cx="796" cy="331" r="0.6" fill="#F4EFE3" opacity="0.06"></circle><circle cx="1299" cy="68" r="0.6" fill="#F4EFE3" opacity="0.07"></circle><circle cx="1267" cy="664" r="0.4" fill="#F4EFE3" opacity="0.06"></circle><circle cx="1566" cy="998" r="1.1" fill="#F4EFE3" opacity="0.02"></circle><circle cx="1347" cy="219" r="1.0" fill="#F4EFE3" opacity="0.08"></circle><circle cx="1140" cy="135" r="0.7" fill="#F4EFE3" opacity="0.08"></circle><circle cx="240" cy="611" r="0.8" fill="#F4EFE3" opacity="0.03"></circle>
<rect x="40" y="40" width="1520" height="920" fill="none" stroke="#D32027" stroke-opacity="0.18" stroke-width="2"></rect>
<g opacity="0.2" fill="none" stroke="#F4EFE3" stroke-width="4.5" stroke-linejoin="round" stroke-linecap="round"><rect x="710" y="367" width="180" height="135" rx="16"></rect><circle cx="800" cy="436" r="40"></circle><rect x="750" y="344" width="99" height="31" rx="7"></rect></g>
<text x="800.0" y="570.0" font-family="Oswald, Arial, sans-serif" font-size="46" font-weight="600" letter-spacing="6" fill="#F4EFE3" fill-opacity="0.82" text-anchor="middle">THE BAR</text>
<text x="800.0" y="618.0" font-family="Manrope, Arial, sans-serif" font-size="22" letter-spacing="3" fill="#D32027" fill-opacity="0.9" text-anchor="middle">EST. ON ROUTE 73</text>
</svg>