<svg xmlns="http://www.w3.org/2000/svg" viewBox="0 0 1254 1254" role="img" aria-label="One Hot Mess Duo live at the Creekside">
<defs>
<linearGradient id="bg5" x1="0" y1="0" x2="1" y2="1">
<stop offset="0" stop-color="#0C0B0A"></stop><stop offset="0.5" stop-color="#1C1611"></stop><stop offset="1" stop-color="#000"></stop>
</linearGradient>
<radialGradient id="gl5" cx="50%" cy="34%" r="62%">
<stop offset="0" stop-color="#D32027" stop-opacity="0.40"></stop><stop offset="1" stop-color="#D32027" stop-opacity="0"></stop>
</radialGradient>
</defs>
<rect width="1254" height="1254" fill="url(#bg5)"></rect>
<rect width="1254" height="1254" fill="url(#gl5)"></rect>
<circle cx="688" cy="941" r="1.1" fill="#F4EFE3" opacity="0.07"></circle><circle cx="359" cy="1211" r="1.0" fill="#F4EFE3" opacity="0.06"></circle><circle cx="947" cy="1165" r="0.7" fill="#F4EFE3" opacity="0.04"></circle><circle cx="900" cy="734" r="1.2" fill="#F4EFE3" opacity="0.04"></circle><circle cx="1198" cy="14" r="1.1" fill="#F4EFE3" opacity="0.04"></circle><circle cx="32" cy="847" r="0.5" fill="#F4EFE3" opacity="0.03"></circle><circle cx="408" cy="197" r="0.6" fill="#F4EFE3" opacity="0.02"></circle><circle cx="1061" cy="104" r="0.6" fill="#F4EFE3" opacity="0.02"></circle><circle cx="1140" cy="685" r="1.2" fill="#F4EFE3" opacity="0.08"></circle><circle cx="621" cy="495" r="0.8" fill="#F4EFE3" opacity="0.04"></circle><circle cx="746" cy="1212" r="0.9" fill="#F4EFE3" opacity="0.07"></circle><circle cx="1115" cy="1041" r="1.1" fill="#F4EFE3" opacity="0.05"></circle><circle cx="123" cy="473" r="1.3" fill="#F4EFE3" opacity="0.05"></circle><circle cx="854" cy="326" r="1.0" fill="#F4EFE3" opacity="0.03"></circle><circle cx="985" cy="1020" r="0.4" fill="#F4EFE3" opacity="0.06"></circle><circle cx="119" cy="1190" r="0.6" fill="#F4EFE3" opacity="0.03"></circle><circle cx="1119" cy="771" r="0.4" fill="#F4EFE3" opacity="0.05"></circle><circle cx="1040" cy="207" r="1.2" fill="#F4EFE3" opacity="0.04"></circle><circle cx="554" cy="496" r="0.5" fill="#F4EFE3" opacity="0.04"></circle><circle cx="655" cy="776" r="0.9" fill="#F4EFE3" opacity="0.03"></circle><circle cx="759" cy="364" r="1.3" fill="#F4EFE3" opacity="0.03"></circle><circle cx="974" cy="107" r="1.0" fill="#F4EFE3" opacity="0.04"></circle><circle cx="576" cy="862" r="1.2" fill="#F4EFE3" opacity="0.02"></circle><circle cx="1109" cy="817" r="0.5" fill="#F4EFE3" opacity="0.06"></circle><circle cx="1015" cy="467" r="1.3" fill="#F4EFE3" opacity="0.03"></circle><circle cx="571" cy="305" r="1.2" fill="#F4EFE3" opacity="0.04"></circle><circle cx="313" cy="1253" r="0.8" fill="#F4EFE3" opacity="0.05"></circle><circle cx="880" cy="225" r="1.2" fill="#F4EFE3" opacity="0.06"></circle><circle cx="619" cy="1001" r="1.3" fill="#F4EFE3" opacity="0.03"></circle><circle cx="1205" cy="655" r="1.2" fill="#F4EFE3" opacity="0.06"></circle><circle cx="1207" cy="959" r="0.6" fill="#F4EFE3" opacity="0.03"></circle><circle cx="501" cy="324" r="0.6" fill="#F4EFE3" opacity="0.05"></circle><circle cx="630" cy="499" r="1.2" fill="#F4EFE3" opacity="0.03"></circle><circle cx="553" cy="555" r="1.0" fill="#F4EFE3" opacity="0.07"></circle><circle cx="740" cy="2" r="1.0" fill="#F4EFE3" opacity="0.04"></circle><circle cx="526" cy="717" r="0.6" fill="#F4EFE3" opacity="0.07"></circle><circle cx="464" cy="458" r="0.9" fill="#F4EFE3" opacity="0.02"></circle><circle cx="406" cy="1244" r="0.5" fill="#F4EFE3" opacity="0.04"></circle><circle cx="965" cy="595" r="1.0" fill="#F4EFE3" opacity="0.07"></circle><circle cx="1056" cy="536" r="0.7" fill="#F4EFE3" opacity="0.02"></circle><circle cx="932" cy="174" r="0.9" fill="#F4EFE3" opacity="0.03"></circle><circle cx="937" cy="575" r="0.5" fill="#F4EFE3" opacity="0.06"></circle><circle cx="112" cy="438" r="0.7" fill="#F4EFE3" opacity="0.07"></circle><circle cx="753" cy="268" r="0.7" fill="#F4EFE3" opacity="0.05"></circle><circle cx="1043" cy="438" r="1.2" fill="#F4EFE3" opacity="0.02"></circle><circle cx="150" cy="975" r="0.8" fill="#F4EFE3" opacity="0.02"></circle><circle cx="251" cy="531" r="0.5" fill="#F4EFE3" opacity="0.04"></circle><circle cx="1247" cy="94" r="0.8" fill="#F4EFE3" opacity="0.04"></circle><circle cx="191" cy="1187" r="0.7" fill="#F4EFE3" opacity="0.03"></circle><circle cx="553" cy="89" r="0.9" fill="#F4EFE3" opacity="0.03"></circle><circle cx="619" cy="182" r="1.3" fill="#F4EFE3" opacity="0.05"></circle><circle cx="810" cy="279" r="0.4" fill="#F4EFE3" opacity="0.03"></circle><circle cx="630" cy="1" r="0.6" fill="#F4EFE3" opacity="0.08"></circle><circle cx="369" cy="232" r="1.2" fill="#F4EFE3" opacity="0.04"></circle><circle cx="695" cy="657" r="0.9" fill="#F4EFE3" opacity="0.02"></circle><circle cx="859" cy="412" r="1.3" fill="#F4EFE3" opacity="0.08"></circle><circle cx="465" cy="1077" r="1.4" fill="#F4EFE3" opacity="0.03"></circle><circle cx="366" cy="1139" r="1.3" fill="#F4EFE3" opacity="0.03"></circle><circle cx="265" cy="1083" r="0.5" fill="#F4EFE3" opacity="0.03"></circle><circle cx="214" cy="352" r="0.9" fill="#F4EFE3" opacity="0.03"></circle><circle cx="254" cy="1235" r="0.9" fill="#F4EFE3" opacity="0.05"></circle><circle cx="369" cy="1248" r="1.0" fill="#F4EFE3" opacity="0.05"></circle><circle cx="169" cy="917" r="0.7" fill="#F4EFE3" opacity="0.07"></circle><circle cx="167" cy="723" r="1.2" fill="#F4EFE3" opacity="0.06"></circle><circle cx="1202" cy="1238" r="1.1" fill="#F4EFE3" opacity="0.02"></circle><circle cx="1167" cy="629" r="0.8" fill="#F4EFE3" opacity="0.04"></circle><circle cx="25" cy="252" r="0.6" fill="#F4EFE3" opacity="0.03"></circle><circle cx="986" cy="166" r="0.7" fill="#F4EFE3" opacity="0.06"></circle><circle cx="164" cy="982" r="0.4" fill="#F4EFE3" opacity="0.05"></circle><circle cx="203" cy="69" r="1.1" fill="#F4EFE3" opacity="0.05"></circle><circle cx="612" cy="413" r="0.8" fill="#F4EFE3" opacity="0.03"></circle><circle cx="35" cy="613" r="1.1" fill="#F4EFE3" opacity="0.04"></circle><circle cx="639" cy="634" r="0.8" fill="#F4EFE3" opacity="0.03"></circle><circle cx="698" cy="434" r="0.8" fill="#F4EFE3" opacity="0.07"></circle><circle cx="754" cy="992" r="1.2" fill="#F4EFE3" opacity="0.06"></circle><circle cx="240" cy="1085" r="0.9" fill="#F4EFE3" opacity="0.07"></circle><circle cx="97" cy="813" r="1.0" fill="#F4EFE3" opacity="0.07"></circle><circle cx="914" cy="1017" r="0.9" fill="#F4EFE3" opacity="0.08"></circle><circle cx="879" cy="205" r="1.4" fill="#F4EFE3" opacity="0.04"></circle><circle cx="273" cy="381" r="1.2" fill="#F4EFE3" opacity="0.06"></circle><circle cx="694" cy="314" r="0.9" fill="#F4EFE3" opacity="0.07"></circle><circle cx="835" cy="587" r="1.2" fill="#F4EFE3" opacity="0.04"></circle><circle cx="125" cy="950" r="0.5" fill="#F4EFE3" opacity="0.02"></circle><circle cx="1019" cy="643" r="0.4" fill="#F4EFE3" opacity="0.04"></circle><circle cx="200" cy="656" r="0.8" fill="#F4EFE3" opacity="0.07"></circle><circle cx="23" cy="700" r="1.1" fill="#F4EFE3" opacity="0.03"></circle><circle cx="1027" cy="1168" r="1.0" fill="#F4EFE3" opacity="0.06"></circle><circle cx="1074" cy="1253" r="0.8" fill="#F4EFE3" opacity="0.04"></circle><circle cx="176" cy="478" r="1.1" fill="#F4EFE3" opacity="0.08"></circle><circle cx="727" cy="768" r="1.1" fill="#F4EFE3" opacity="0.02"></circle><circle cx="81" cy="12" r="1.2" fill="#F4EFE3" opacity="0.07"></circle><circle cx="241" cy="1079" r="0.6" fill="#F4EFE3" opacity="0.04"></circle><circle cx="592" cy="1233" r="0.9" fill="#F4EFE3" opacity="0.02"></circle><circle cx="1219" cy="1092" r="1.3" fill="#F4EFE3" opacity="0.08"></circle><circle cx="59" cy="154" r="0.6" fill="#F4EFE3" opacity="0.05"></circle><circle cx="272" cy="144" r="1.0" fill="#F4EFE3" opacity="0.08"></circle><circle cx="530" cy="320" r="1.3" fill="#F4EFE3" opacity="0.06"></circle><circle cx="696" cy="116" r="1.1" fill="#F4EFE3" opacity="0.02"></circle><circle cx="792" cy="1047" r="1.2" fill="#F4EFE3" opacity="0.06"></circle><circle cx="21" cy="934" r="0.7" fill="#F4EFE3" opacity="0.02"></circle><circle cx="797" cy="694" r="1.2" fill="#F4EFE3" opacity="0.06"></circle><circle cx="10" cy="707" r="0.6" fill="#F4EFE3" opacity="0.04"></circle><circle cx="88" cy="318" r="0.9" fill="#F4EFE3" opacity="0.05"></circle><circle cx="1236" cy="195" r="0.9" fill="#F4EFE3" opacity="0.03"></circle><circle cx="914" cy="746" r="1.1" fill="#F4EFE3" opacity="0.06"></circle><circle cx="698" cy="830" r="0.9" fill="#F4EFE3" opacity="0.04"></circle><circle cx="497" cy="651" r="0.9" fill="#F4EFE3" opacity="0.03"></circle><circle cx="555" cy="231" r="0.8" fill="#F4EFE3" opacity="0.06"></circle><circle cx="140" cy="570" r="1.3" fill="#F4EFE3" opacity="0.02"></circle><circle cx="902" cy="940" r="0.5" fill="#F4EFE3" opacity="0.03"></circle><circle cx="1242" cy="936" r="0.9" fill="#F4EFE3" opacity="0.06"></circle><circle cx="116" cy="1111" r="1.0" fill="#F4EFE3" opacity="0.05"></circle><circle cx="1152" cy="454" r="1.3" fill="#F4EFE3" opacity="0.02"></circle><circle cx="1119" cy="477" r="0.4" fill="#F4EFE3" opacity="0.07"></circle><circle cx="556" cy="704" r="0.9" fill="#F4EFE3" opacity="0.03"></circle><circle cx="1194" cy="719" r="1.3" fill="#F4EFE3" opacity="0.02"></circle><circle cx="973" cy="780" r="1.0" fill="#F4EFE3" opacity="0.03"></circle><circle cx="877" cy="618" r="0.6" fill="#F4EFE3" opacity="0.04"></circle><circle cx="93" cy="637" r="1.4" fill="#F4EFE3" opacity="0.07"></circle><circle cx="858" cy="350" r="0.7" fill="#F4EFE3" opacity="0.06"></circle><circle cx="320" cy="963" r="0.6" fill="#F4EFE3" opacity="0.04"></circle><circle cx="517" cy="107" r="0.7" fill="#F4EFE3" opacity="0.05"></circle><circle cx="563" cy="399" r="0.6" fill="#F4EFE3" opacity="0.02"></circle><circle cx="463" cy="1216" r="0.7" fill="#F4EFE3" opacity="0.07"></circle><circle cx="544" cy="415" r="0.6" fill="#F4EFE3" opacity="0.03"></circle><circle cx="170" cy="622" r="1.4" fill="#F4EFE3" opacity="0.08"></circle><circle cx="165" cy="1048" r="0.9" fill="#F4EFE3" opacity="0.07"></circle><circle cx="640" cy="907" r="0.8" fill="#F4EFE3" opacity="0.05"></circle><circle cx="449" cy="1045" r="0.6" fill="#F4EFE3" opacity="0.07"></circle><circle cx="711" cy="1188" r="1.0" fill="#F4EFE3" opacity="0.03"></circle><circle cx="1030" cy="1070" r="0.4" fill="#F4EFE3" opacity="0.03"></circle><circle cx="1097" cy="450" r="1.0" fill="#F4EFE3" opacity="0.02"></circle><circle cx="1146" cy="684" r="0.9" fill="#F4EFE3" opacity="0.07"></circle><circle cx="82" cy="1193" r="0.4" fill="#F4EFE3" opacity="0.05"></circle><circle cx="1243" cy="272" r="0.9" fill="#F4EFE3" opacity="0.05"></circle><circle cx="511" cy="584" r="0.9" fill="#F4EFE3" opacity="0.08"></circle><circle cx="30" cy="388" r="0.7" fill="#F4EFE3" opacity="0.07"></circle><circle cx="97" cy="255" r="1.4" fill="#F4EFE3" opacity="0.07"></circle><circle cx="974" cy="1137" r="0.8" fill="#F4EFE3" opacity="0.03"></circle><circle cx="476" cy="766" r="0.4" fill="#F4EFE3" opacity="0.05"></circle>
<rect x="46" y="46" width="1162" height="1162" fill="none" stroke="#D32027" stroke-width="6" stroke-opacity="0.85"></rect>
<rect x="70" y="70" width="1114" height="1114" fill="none" stroke="#F4EFE3" stroke-width="1.5" stroke-opacity="0.35"></rect>
<text x="627.0" y="225" font-family="Yellowtail, cursive" font-size="74" fill="#E6A532" text-anchor="middle">Live at the Creekside</text>
<text x="627.0" y="330" font-family="Oswald, sans-serif" font-weight="700" font-size="52" letter-spacing="14" fill="#F4EFE3" fill-opacity="0.7" text-anchor="middle">BAR &amp; GRILL</text>
<g opacity="0.92">
<circle cx="627.0" cy="560" r="150" fill="none" stroke="#D32027" stroke-width="8"></circle>
<path d="M 572.0 490 v150 a40 40 0 1 1 -40 -40 a40 40 0 0 1 40 12 v-92 l120 -30 v118 a40 40 0 1 1 -40 -40 a40 40 0 0 1 40 12 v-118 z" fill="#F4EFE3" fill-opacity="0.9"></path>
</g>
<text x="627.0" y="800" font-family="Oswald, sans-serif" font-weight="700" font-size="92" letter-spacing="2" fill="#F4EFE3" text-anchor="middle">ONE HOT MESS DUO</text>
<rect x="327.0" y="858" width="600" height="3" fill="#D32027"></rect>
<text x="627.0" y="970" font-family="Oswald, sans-serif" font-weight="600" font-size="70" letter-spacing="8" fill="#D32027" text-anchor="middle">FRIDAY · Jun 19</text>
<text x="627.0" y="1052" font-family="Manrope, sans-serif" font-weight="700" font-size="40" letter-spacing="6" fill="#F4EFE3" fill-opacity="0.85" text-anchor="middle">5:00 – 9:00 PM</text>
<text x="627.0" y="1130" font-family="Manrope, sans-serif" font-size="30" letter-spacing="4" fill="#F4EFE3" fill-opacity="0.55" text-anchor="middle">RT 73 · CINNAMINSON, NJ · NO COVER</text>
</svg>