<svg xmlns="http://www.w3.org/2000/svg" viewBox="0 0 1254 1254" role="img" aria-label="Lineup TBA live at the Creekside">
<defs>
<linearGradient id="bg1" x1="0" y1="0" x2="1" y2="1">
<stop offset="0" stop-color="#0C0B0A"></stop><stop offset="0.5" stop-color="#1C1611"></stop><stop offset="1" stop-color="#000"></stop>
</linearGradient>
<radialGradient id="gl1" cx="50%" cy="34%" r="62%">
<stop offset="0" stop-color="#E6A532" stop-opacity="0.40"></stop><stop offset="1" stop-color="#E6A532" stop-opacity="0"></stop>
</radialGradient>
</defs>
<rect width="1254" height="1254" fill="url(#bg1)"></rect>
<rect width="1254" height="1254" fill="url(#gl1)"></rect>
<circle cx="406" cy="189" r="1.1" fill="#F4EFE3" opacity="0.02"></circle><circle cx="672" cy="459" r="0.5" fill="#F4EFE3" opacity="0.05"></circle><circle cx="47" cy="544" r="0.5" fill="#F4EFE3" opacity="0.03"></circle><circle cx="532" cy="1037" r="0.5" fill="#F4EFE3" opacity="0.03"></circle><circle cx="787" cy="1188" r="1.0" fill="#F4EFE3" opacity="0.04"></circle><circle cx="1224" cy="58" r="1.3" fill="#F4EFE3" opacity="0.04"></circle><circle cx="181" cy="148" r="0.7" fill="#F4EFE3" opacity="0.07"></circle><circle cx="227" cy="729" r="1.0" fill="#F4EFE3" opacity="0.04"></circle><circle cx="687" cy="79" r="0.5" fill="#F4EFE3" opacity="0.03"></circle><circle cx="853" cy="536" r="0.7" fill="#F4EFE3" opacity="0.06"></circle><circle cx="568" cy="376" r="1.2" fill="#F4EFE3" opacity="0.06"></circle><circle cx="306" cy="720" r="0.9" fill="#F4EFE3" opacity="0.07"></circle><circle cx="915" cy="361" r="1.4" fill="#F4EFE3" opacity="0.03"></circle><circle cx="524" cy="949" r="0.6" fill="#F4EFE3" opacity="0.05"></circle><circle cx="49" cy="838" r="1.2" fill="#F4EFE3" opacity="0.05"></circle><circle cx="1098" cy="393" r="1.1" fill="#F4EFE3" opacity="0.06"></circle><circle cx="727" cy="572" r="1.2" fill="#F4EFE3" opacity="0.08"></circle><circle cx="595" cy="833" r="0.5" fill="#F4EFE3" opacity="0.06"></circle><circle cx="811" cy="1245" r="1.2" fill="#F4EFE3" opacity="0.04"></circle><circle cx="484" cy="838" r="0.4" fill="#F4EFE3" opacity="0.05"></circle><circle cx="211" cy="147" r="0.5" fill="#F4EFE3" opacity="0.07"></circle><circle cx="162" cy="311" r="0.8" fill="#F4EFE3" opacity="0.07"></circle><circle cx="101" cy="563" r="0.9" fill="#F4EFE3" opacity="0.07"></circle><circle cx="1027" cy="1083" r="0.7" fill="#F4EFE3" opacity="0.04"></circle><circle cx="450" cy="1109" r="1.4" fill="#F4EFE3" opacity="0.03"></circle><circle cx="221" cy="291" r="0.6" fill="#F4EFE3" opacity="0.05"></circle><circle cx="739" cy="329" r="0.4" fill="#F4EFE3" opacity="0.05"></circle><circle cx="463" cy="710" r="1.4" fill="#F4EFE3" opacity="0.06"></circle><circle cx="646" cy="774" r="1.1" fill="#F4EFE3" opacity="0.02"></circle><circle cx="1128" cy="978" r="1.3" fill="#F4EFE3" opacity="0.07"></circle><circle cx="492" cy="500" r="0.5" fill="#F4EFE3" opacity="0.06"></circle><circle cx="78" cy="84" r="0.6" fill="#F4EFE3" opacity="0.03"></circle><circle cx="426" cy="66" r="0.4" fill="#F4EFE3" opacity="0.03"></circle><circle cx="127" cy="456" r="0.4" fill="#F4EFE3" opacity="0.07"></circle><circle cx="770" cy="186" r="0.7" fill="#F4EFE3" opacity="0.04"></circle><circle cx="457" cy="154" r="1.2" fill="#F4EFE3" opacity="0.08"></circle><circle cx="584" cy="607" r="0.5" fill="#F4EFE3" opacity="0.03"></circle><circle cx="430" cy="332" r="1.2" fill="#F4EFE3" opacity="0.03"></circle><circle cx="29" cy="1193" r="0.9" fill="#F4EFE3" opacity="0.03"></circle><circle cx="681" cy="34" r="0.9" fill="#F4EFE3" opacity="0.08"></circle><circle cx="1083" cy="873" r="0.7" fill="#F4EFE3" opacity="0.04"></circle><circle cx="209" cy="968" r="0.9" fill="#F4EFE3" opacity="0.07"></circle><circle cx="413" cy="280" r="1.2" fill="#F4EFE3" opacity="0.08"></circle><circle cx="1069" cy="1011" r="1.2" fill="#F4EFE3" opacity="0.06"></circle><circle cx="284" cy="649" r="0.8" fill="#F4EFE3" opacity="0.02"></circle><circle cx="35" cy="350" r="0.7" fill="#F4EFE3" opacity="0.06"></circle><circle cx="1199" cy="561" r="1.3" fill="#F4EFE3" opacity="0.08"></circle><circle cx="1198" cy="457" r="0.6" fill="#F4EFE3" opacity="0.03"></circle><circle cx="247" cy="256" r="1.0" fill="#F4EFE3" opacity="0.07"></circle><circle cx="1054" cy="601" r="1.1" fill="#F4EFE3" opacity="0.07"></circle><circle cx="106" cy="828" r="1.3" fill="#F4EFE3" opacity="0.07"></circle><circle cx="941" cy="599" r="0.6" fill="#F4EFE3" opacity="0.07"></circle><circle cx="417" cy="1004" r="1.4" fill="#F4EFE3" opacity="0.04"></circle><circle cx="503" cy="1187" r="1.1" fill="#F4EFE3" opacity="0.03"></circle><circle cx="159" cy="190" r="1.3" fill="#F4EFE3" opacity="0.07"></circle><circle cx="183" cy="1036" r="1.4" fill="#F4EFE3" opacity="0.06"></circle><circle cx="439" cy="688" r="0.5" fill="#F4EFE3" opacity="0.02"></circle><circle cx="1217" cy="815" r="0.9" fill="#F4EFE3" opacity="0.08"></circle><circle cx="544" cy="1093" r="1.2" fill="#F4EFE3" opacity="0.03"></circle><circle cx="316" cy="367" r="0.6" fill="#F4EFE3" opacity="0.06"></circle><circle cx="325" cy="525" r="0.5" fill="#F4EFE3" opacity="0.07"></circle><circle cx="444" cy="575" r="1.0" fill="#F4EFE3" opacity="0.07"></circle><circle cx="527" cy="1151" r="0.9" fill="#F4EFE3" opacity="0.05"></circle><circle cx="656" cy="23" r="0.8" fill="#F4EFE3" opacity="0.03"></circle><circle cx="5" cy="1002" r="0.6" fill="#F4EFE3" opacity="0.05"></circle><circle cx="909" cy="698" r="0.7" fill="#F4EFE3" opacity="0.05"></circle><circle cx="697" cy="983" r="0.5" fill="#F4EFE3" opacity="0.05"></circle><circle cx="312" cy="347" r="1.2" fill="#F4EFE3" opacity="0.05"></circle><circle cx="704" cy="953" r="1.3" fill="#F4EFE3" opacity="0.05"></circle><circle cx="768" cy="634" r="0.9" fill="#F4EFE3" opacity="0.06"></circle><circle cx="567" cy="669" r="0.9" fill="#F4EFE3" opacity="0.08"></circle><circle cx="877" cy="1099" r="1.3" fill="#F4EFE3" opacity="0.04"></circle><circle cx="702" cy="1183" r="1.2" fill="#F4EFE3" opacity="0.03"></circle><circle cx="153" cy="554" r="0.5" fill="#F4EFE3" opacity="0.03"></circle><circle cx="92" cy="840" r="1.2" fill="#F4EFE3" opacity="0.07"></circle><circle cx="194" cy="898" r="1.1" fill="#F4EFE3" opacity="0.03"></circle><circle cx="1107" cy="1213" r="0.6" fill="#F4EFE3" opacity="0.08"></circle><circle cx="499" cy="611" r="1.4" fill="#F4EFE3" opacity="0.07"></circle><circle cx="202" cy="541" r="0.9" fill="#F4EFE3" opacity="0.04"></circle><circle cx="245" cy="399" r="1.1" fill="#F4EFE3" opacity="0.02"></circle><circle cx="695" cy="552" r="0.4" fill="#F4EFE3" opacity="0.04"></circle><circle cx="782" cy="642" r="0.5" fill="#F4EFE3" opacity="0.08"></circle><circle cx="989" cy="1219" r="0.5" fill="#F4EFE3" opacity="0.04"></circle><circle cx="50" cy="977" r="0.7" fill="#F4EFE3" opacity="0.03"></circle><circle cx="530" cy="1143" r="1.2" fill="#F4EFE3" opacity="0.04"></circle><circle cx="187" cy="1153" r="1.0" fill="#F4EFE3" opacity="0.06"></circle><circle cx="112" cy="72" r="1.1" fill="#F4EFE3" opacity="0.05"></circle><circle cx="91" cy="1177" r="1.0" fill="#F4EFE3" opacity="0.07"></circle><circle cx="105" cy="1074" r="0.5" fill="#F4EFE3" opacity="0.07"></circle><circle cx="569" cy="425" r="1.0" fill="#F4EFE3" opacity="0.08"></circle><circle cx="336" cy="162" r="0.9" fill="#F4EFE3" opacity="0.03"></circle><circle cx="137" cy="202" r="0.5" fill="#F4EFE3" opacity="0.03"></circle><circle cx="391" cy="382" r="1.2" fill="#F4EFE3" opacity="0.04"></circle><circle cx="627" cy="223" r="0.7" fill="#F4EFE3" opacity="0.02"></circle><circle cx="314" cy="19" r="1.1" fill="#F4EFE3" opacity="0.05"></circle><circle cx="238" cy="595" r="1.3" fill="#F4EFE3" opacity="0.03"></circle><circle cx="1027" cy="542" r="0.9" fill="#F4EFE3" opacity="0.07"></circle><circle cx="493" cy="635" r="1.1" fill="#F4EFE3" opacity="0.08"></circle><circle cx="430" cy="1044" r="1.1" fill="#F4EFE3" opacity="0.06"></circle><circle cx="507" cy="436" r="0.5" fill="#F4EFE3" opacity="0.03"></circle><circle cx="89" cy="929" r="0.7" fill="#F4EFE3" opacity="0.03"></circle><circle cx="106" cy="1055" r="1.3" fill="#F4EFE3" opacity="0.06"></circle><circle cx="354" cy="304" r="0.7" fill="#F4EFE3" opacity="0.05"></circle><circle cx="198" cy="559" r="0.7" fill="#F4EFE3" opacity="0.08"></circle><circle cx="1220" cy="686" r="0.6" fill="#F4EFE3" opacity="0.08"></circle><circle cx="388" cy="447" r="0.4" fill="#F4EFE3" opacity="0.04"></circle><circle cx="595" cy="630" r="0.6" fill="#F4EFE3" opacity="0.05"></circle><circle cx="6" cy="331" r="0.5" fill="#F4EFE3" opacity="0.04"></circle><circle cx="52" cy="28" r="0.7" fill="#F4EFE3" opacity="0.03"></circle><circle cx="734" cy="664" r="1.2" fill="#F4EFE3" opacity="0.06"></circle><circle cx="898" cy="1102" r="0.8" fill="#F4EFE3" opacity="0.04"></circle><circle cx="1235" cy="187" r="1.1" fill="#F4EFE3" opacity="0.06"></circle><circle cx="55" cy="1047" r="1.3" fill="#F4EFE3" opacity="0.06"></circle><circle cx="920" cy="1019" r="0.5" fill="#F4EFE3" opacity="0.05"></circle><circle cx="632" cy="1047" r="1.2" fill="#F4EFE3" opacity="0.07"></circle><circle cx="732" cy="1120" r="1.1" fill="#F4EFE3" opacity="0.06"></circle><circle cx="288" cy="39" r="0.5" fill="#F4EFE3" opacity="0.04"></circle><circle cx="132" cy="1048" r="1.0" fill="#F4EFE3" opacity="0.06"></circle><circle cx="785" cy="854" r="0.9" fill="#F4EFE3" opacity="0.02"></circle><circle cx="1000" cy="938" r="0.9" fill="#F4EFE3" opacity="0.05"></circle><circle cx="827" cy="83" r="1.1" fill="#F4EFE3" opacity="0.04"></circle><circle cx="93" cy="333" r="1.1" fill="#F4EFE3" opacity="0.03"></circle><circle cx="928" cy="1224" r="0.9" fill="#F4EFE3" opacity="0.04"></circle><circle cx="601" cy="857" r="1.2" fill="#F4EFE3" opacity="0.06"></circle><circle cx="806" cy="97" r="0.5" fill="#F4EFE3" opacity="0.04"></circle><circle cx="932" cy="382" r="1.0" fill="#F4EFE3" opacity="0.02"></circle><circle cx="76" cy="337" r="1.1" fill="#F4EFE3" opacity="0.06"></circle><circle cx="847" cy="365" r="0.9" fill="#F4EFE3" opacity="0.05"></circle><circle cx="585" cy="149" r="1.3" fill="#F4EFE3" opacity="0.03"></circle><circle cx="1227" cy="1174" r="0.4" fill="#F4EFE3" opacity="0.05"></circle><circle cx="1028" cy="1214" r="0.8" fill="#F4EFE3" opacity="0.04"></circle><circle cx="263" cy="1186" r="0.6" fill="#F4EFE3" opacity="0.05"></circle><circle cx="178" cy="657" r="1.4" fill="#F4EFE3" opacity="0.03"></circle><circle cx="1029" cy="638" r="1.3" fill="#F4EFE3" opacity="0.06"></circle><circle cx="290" cy="1126" r="0.9" fill="#F4EFE3" opacity="0.02"></circle><circle cx="5" cy="617" r="0.9" fill="#F4EFE3" opacity="0.04"></circle><circle cx="176" cy="431" r="0.7" fill="#F4EFE3" opacity="0.07"></circle><circle cx="2" cy="941" r="1.2" fill="#F4EFE3" opacity="0.03"></circle><circle cx="1162" cy="894" r="1.3" fill="#F4EFE3" opacity="0.04"></circle><circle cx="467" cy="493" r="1.4" fill="#F4EFE3" opacity="0.06"></circle>
<rect x="46" y="46" width="1162" height="1162" fill="none" stroke="#E6A532" stroke-width="6" stroke-opacity="0.85"></rect>
<rect x="70" y="70" width="1114" height="1114" fill="none" stroke="#F4EFE3" stroke-width="1.5" stroke-opacity="0.35"></rect>
<text x="627.0" y="225" font-family="Yellowtail, cursive" font-size="74" fill="#D32027" text-anchor="middle">Live at the Creekside</text>
<text x="627.0" y="330" font-family="Oswald, sans-serif" font-weight="700" font-size="52" letter-spacing="14" fill="#F4EFE3" fill-opacity="0.7" text-anchor="middle">BAR &amp; GRILL</text>
<g opacity="0.92">
<circle cx="627.0" cy="560" r="150" fill="none" stroke="#E6A532" stroke-width="8"></circle>
<path d="M 572.0 490 v150 a40 40 0 1 1 -40 -40 a40 40 0 0 1 40 12 v-92 l120 -30 v118 a40 40 0 1 1 -40 -40 a40 40 0 0 1 40 12 v-118 z" fill="#F4EFE3" fill-opacity="0.9"></path>
</g>
<text x="627.0" y="800" font-family="Oswald, sans-serif" font-weight="700" font-size="92" letter-spacing="2" fill="#F4EFE3" text-anchor="middle">LINEUP TBA</text>
<rect x="327.0" y="858" width="600" height="3" fill="#E6A532"></rect>
<text x="627.0" y="970" font-family="Oswald, sans-serif" font-weight="600" font-size="70" letter-spacing="8" fill="#E6A532" text-anchor="middle">SATURDAY · Jul 11</text>
<text x="627.0" y="1052" font-family="Manrope, sans-serif" font-weight="700" font-size="40" letter-spacing="6" fill="#F4EFE3" fill-opacity="0.85" text-anchor="middle">5:00 – 9:00 PM</text>
<text x="627.0" y="1130" font-family="Manrope, sans-serif" font-size="30" letter-spacing="4" fill="#F4EFE3" fill-opacity="0.55" text-anchor="middle">RT 73 · CINNAMINSON, NJ · NO COVER</text>
</svg>