<svg xmlns="http://www.w3.org/2000/svg" viewBox="0 0 1254 1254" role="img" aria-label="Andrew Moorer live at the Creekside">
<defs>
<linearGradient id="bg3" x1="0" y1="0" x2="1" y2="1">
<stop offset="0" stop-color="#0C0B0A"></stop><stop offset="0.5" stop-color="#1C1611"></stop><stop offset="1" stop-color="#000"></stop>
</linearGradient>
<radialGradient id="gl3" cx="50%" cy="34%" r="62%">
<stop offset="0" stop-color="#B81E24" stop-opacity="0.40"></stop><stop offset="1" stop-color="#B81E24" stop-opacity="0"></stop>
</radialGradient>
</defs>
<rect width="1254" height="1254" fill="url(#bg3)"></rect>
<rect width="1254" height="1254" fill="url(#gl3)"></rect>
<circle cx="207" cy="865" r="1.0" fill="#F4EFE3" opacity="0.05"></circle><circle cx="271" cy="994" r="1.2" fill="#F4EFE3" opacity="0.05"></circle><circle cx="633" cy="296" r="0.4" fill="#F4EFE3" opacity="0.04"></circle><circle cx="734" cy="87" r="1.2" fill="#F4EFE3" opacity="0.03"></circle><circle cx="292" cy="53" r="1.4" fill="#F4EFE3" opacity="0.06"></circle><circle cx="1097" cy="772" r="0.4" fill="#F4EFE3" opacity="0.04"></circle><circle cx="624" cy="145" r="1.4" fill="#F4EFE3" opacity="0.04"></circle><circle cx="194" cy="1025" r="0.5" fill="#F4EFE3" opacity="0.08"></circle><circle cx="568" cy="692" r="0.7" fill="#F4EFE3" opacity="0.05"></circle><circle cx="234" cy="47" r="1.3" fill="#F4EFE3" opacity="0.03"></circle><circle cx="978" cy="262" r="1.4" fill="#F4EFE3" opacity="0.07"></circle><circle cx="947" cy="957" r="1.0" fill="#F4EFE3" opacity="0.06"></circle><circle cx="154" cy="597" r="1.2" fill="#F4EFE3" opacity="0.03"></circle><circle cx="1158" cy="1113" r="0.8" fill="#F4EFE3" opacity="0.04"></circle><circle cx="566" cy="484" r="1.4" fill="#F4EFE3" opacity="0.04"></circle><circle cx="34" cy="117" r="1.1" fill="#F4EFE3" opacity="0.08"></circle><circle cx="622" cy="616" r="1.0" fill="#F4EFE3" opacity="0.06"></circle><circle cx="278" cy="764" r="1.0" fill="#F4EFE3" opacity="0.06"></circle><circle cx="227" cy="213" r="0.7" fill="#F4EFE3" opacity="0.08"></circle><circle cx="435" cy="749" r="0.7" fill="#F4EFE3" opacity="0.03"></circle><circle cx="82" cy="1020" r="1.2" fill="#F4EFE3" opacity="0.04"></circle><circle cx="857" cy="848" r="1.3" fill="#F4EFE3" opacity="0.08"></circle><circle cx="510" cy="1240" r="1.4" fill="#F4EFE3" opacity="0.06"></circle><circle cx="1107" cy="616" r="0.8" fill="#F4EFE3" opacity="0.03"></circle><circle cx="1099" cy="204" r="0.5" fill="#F4EFE3" opacity="0.07"></circle><circle cx="970" cy="606" r="1.2" fill="#F4EFE3" opacity="0.02"></circle><circle cx="324" cy="364" r="0.8" fill="#F4EFE3" opacity="0.03"></circle><circle cx="87" cy="424" r="1.3" fill="#F4EFE3" opacity="0.08"></circle><circle cx="935" cy="601" r="0.7" fill="#F4EFE3" opacity="0.08"></circle><circle cx="659" cy="914" r="0.4" fill="#F4EFE3" opacity="0.03"></circle><circle cx="1051" cy="997" r="1.3" fill="#F4EFE3" opacity="0.06"></circle><circle cx="534" cy="729" r="1.2" fill="#F4EFE3" opacity="0.04"></circle><circle cx="670" cy="346" r="1.2" fill="#F4EFE3" opacity="0.02"></circle><circle cx="859" cy="1196" r="0.4" fill="#F4EFE3" opacity="0.06"></circle><circle cx="807" cy="1068" r="1.0" fill="#F4EFE3" opacity="0.04"></circle><circle cx="509" cy="1202" r="1.3" fill="#F4EFE3" opacity="0.03"></circle><circle cx="119" cy="118" r="0.4" fill="#F4EFE3" opacity="0.05"></circle><circle cx="177" cy="1088" r="1.1" fill="#F4EFE3" opacity="0.03"></circle><circle cx="675" cy="407" r="0.9" fill="#F4EFE3" opacity="0.03"></circle><circle cx="208" cy="231" r="0.8" fill="#F4EFE3" opacity="0.06"></circle><circle cx="690" cy="58" r="1.1" fill="#F4EFE3" opacity="0.07"></circle><circle cx="971" cy="992" r="0.4" fill="#F4EFE3" opacity="0.05"></circle><circle cx="80" cy="958" r="0.6" fill="#F4EFE3" opacity="0.06"></circle><circle cx="317" cy="874" r="0.7" fill="#F4EFE3" opacity="0.02"></circle><circle cx="488" cy="388" r="1.3" fill="#F4EFE3" opacity="0.04"></circle><circle cx="631" cy="689" r="1.3" fill="#F4EFE3" opacity="0.03"></circle><circle cx="754" cy="637" r="1.1" fill="#F4EFE3" opacity="0.08"></circle><circle cx="389" cy="877" r="0.9" fill="#F4EFE3" opacity="0.05"></circle><circle cx="80" cy="1022" r="1.4" fill="#F4EFE3" opacity="0.04"></circle><circle cx="399" cy="1245" r="0.5" fill="#F4EFE3" opacity="0.02"></circle><circle cx="92" cy="1021" r="1.2" fill="#F4EFE3" opacity="0.05"></circle><circle cx="779" cy="25" r="1.0" fill="#F4EFE3" opacity="0.05"></circle><circle cx="649" cy="488" r="0.8" fill="#F4EFE3" opacity="0.03"></circle><circle cx="61" cy="544" r="0.6" fill="#F4EFE3" opacity="0.06"></circle><circle cx="1025" cy="908" r="0.9" fill="#F4EFE3" opacity="0.03"></circle><circle cx="483" cy="610" r="1.0" fill="#F4EFE3" opacity="0.08"></circle><circle cx="107" cy="602" r="0.9" fill="#F4EFE3" opacity="0.06"></circle><circle cx="1117" cy="978" r="1.0" fill="#F4EFE3" opacity="0.07"></circle><circle cx="838" cy="1077" r="1.1" fill="#F4EFE3" opacity="0.06"></circle><circle cx="308" cy="1150" r="0.8" fill="#F4EFE3" opacity="0.06"></circle><circle cx="1034" cy="1208" r="1.4" fill="#F4EFE3" opacity="0.02"></circle><circle cx="392" cy="391" r="0.8" fill="#F4EFE3" opacity="0.03"></circle><circle cx="694" cy="100" r="0.7" fill="#F4EFE3" opacity="0.08"></circle><circle cx="931" cy="580" r="0.5" fill="#F4EFE3" opacity="0.08"></circle><circle cx="883" cy="258" r="0.7" fill="#F4EFE3" opacity="0.06"></circle><circle cx="855" cy="327" r="1.4" fill="#F4EFE3" opacity="0.04"></circle><circle cx="319" cy="1060" r="0.6" fill="#F4EFE3" opacity="0.06"></circle><circle cx="251" cy="750" r="0.7" fill="#F4EFE3" opacity="0.04"></circle><circle cx="1180" cy="586" r="0.8" fill="#F4EFE3" opacity="0.06"></circle><circle cx="352" cy="219" r="0.8" fill="#F4EFE3" opacity="0.04"></circle><circle cx="236" cy="1205" r="0.4" fill="#F4EFE3" opacity="0.07"></circle><circle cx="1172" cy="884" r="0.4" fill="#F4EFE3" opacity="0.05"></circle><circle cx="49" cy="762" r="1.1" fill="#F4EFE3" opacity="0.03"></circle><circle cx="10" cy="683" r="0.5" fill="#F4EFE3" opacity="0.04"></circle><circle cx="569" cy="1122" r="0.8" fill="#F4EFE3" opacity="0.03"></circle><circle cx="993" cy="1031" r="0.9" fill="#F4EFE3" opacity="0.02"></circle><circle cx="235" cy="505" r="1.0" fill="#F4EFE3" opacity="0.03"></circle><circle cx="1006" cy="1058" r="1.3" fill="#F4EFE3" opacity="0.07"></circle><circle cx="22" cy="730" r="0.5" fill="#F4EFE3" opacity="0.07"></circle><circle cx="937" cy="952" r="0.6" fill="#F4EFE3" opacity="0.02"></circle><circle cx="1022" cy="761" r="1.0" fill="#F4EFE3" opacity="0.05"></circle><circle cx="1003" cy="424" r="0.7" fill="#F4EFE3" opacity="0.04"></circle><circle cx="374" cy="786" r="1.3" fill="#F4EFE3" opacity="0.02"></circle><circle cx="85" cy="642" r="1.1" fill="#F4EFE3" opacity="0.03"></circle><circle cx="338" cy="74" r="0.4" fill="#F4EFE3" opacity="0.05"></circle><circle cx="854" cy="819" r="0.6" fill="#F4EFE3" opacity="0.03"></circle><circle cx="1167" cy="675" r="0.8" fill="#F4EFE3" opacity="0.06"></circle><circle cx="913" cy="658" r="0.5" fill="#F4EFE3" opacity="0.07"></circle><circle cx="268" cy="51" r="0.8" fill="#F4EFE3" opacity="0.05"></circle><circle cx="788" cy="218" r="1.1" fill="#F4EFE3" opacity="0.05"></circle><circle cx="203" cy="1067" r="1.2" fill="#F4EFE3" opacity="0.07"></circle><circle cx="852" cy="273" r="1.2" fill="#F4EFE3" opacity="0.07"></circle><circle cx="669" cy="1139" r="1.4" fill="#F4EFE3" opacity="0.04"></circle><circle cx="1181" cy="1175" r="1.2" fill="#F4EFE3" opacity="0.02"></circle><circle cx="441" cy="769" r="1.0" fill="#F4EFE3" opacity="0.07"></circle><circle cx="811" cy="202" r="1.3" fill="#F4EFE3" opacity="0.05"></circle><circle cx="1106" cy="259" r="1.4" fill="#F4EFE3" opacity="0.05"></circle><circle cx="973" cy="928" r="1.3" fill="#F4EFE3" opacity="0.04"></circle><circle cx="104" cy="509" r="0.6" fill="#F4EFE3" opacity="0.05"></circle><circle cx="1022" cy="454" r="0.5" fill="#F4EFE3" opacity="0.02"></circle><circle cx="530" cy="728" r="0.4" fill="#F4EFE3" opacity="0.06"></circle><circle cx="264" cy="134" r="1.3" fill="#F4EFE3" opacity="0.05"></circle><circle cx="1122" cy="644" r="0.5" fill="#F4EFE3" opacity="0.03"></circle><circle cx="532" cy="804" r="1.2" fill="#F4EFE3" opacity="0.07"></circle><circle cx="816" cy="317" r="0.8" fill="#F4EFE3" opacity="0.04"></circle><circle cx="614" cy="333" r="0.9" fill="#F4EFE3" opacity="0.05"></circle><circle cx="45" cy="1032" r="1.0" fill="#F4EFE3" opacity="0.07"></circle><circle cx="924" cy="916" r="1.4" fill="#F4EFE3" opacity="0.04"></circle><circle cx="494" cy="5" r="1.1" fill="#F4EFE3" opacity="0.05"></circle><circle cx="723" cy="1251" r="0.6" fill="#F4EFE3" opacity="0.03"></circle><circle cx="921" cy="1019" r="0.9" fill="#F4EFE3" opacity="0.02"></circle><circle cx="465" cy="1036" r="0.9" fill="#F4EFE3" opacity="0.05"></circle><circle cx="488" cy="788" r="1.0" fill="#F4EFE3" opacity="0.06"></circle><circle cx="1085" cy="942" r="0.8" fill="#F4EFE3" opacity="0.04"></circle><circle cx="980" cy="994" r="1.3" fill="#F4EFE3" opacity="0.03"></circle><circle cx="1063" cy="1117" r="0.5" fill="#F4EFE3" opacity="0.04"></circle><circle cx="795" cy="183" r="1.2" fill="#F4EFE3" opacity="0.04"></circle><circle cx="856" cy="371" r="0.6" fill="#F4EFE3" opacity="0.03"></circle><circle cx="624" cy="894" r="0.6" fill="#F4EFE3" opacity="0.06"></circle><circle cx="420" cy="814" r="0.8" fill="#F4EFE3" opacity="0.03"></circle><circle cx="177" cy="72" r="1.1" fill="#F4EFE3" opacity="0.04"></circle><circle cx="155" cy="1104" r="1.1" fill="#F4EFE3" opacity="0.02"></circle><circle cx="909" cy="746" r="0.8" fill="#F4EFE3" opacity="0.05"></circle><circle cx="1207" cy="469" r="1.0" fill="#F4EFE3" opacity="0.06"></circle><circle cx="459" cy="434" r="1.2" fill="#F4EFE3" opacity="0.06"></circle><circle cx="573" cy="644" r="0.6" fill="#F4EFE3" opacity="0.07"></circle><circle cx="25" cy="807" r="0.9" fill="#F4EFE3" opacity="0.03"></circle><circle cx="736" cy="731" r="0.5" fill="#F4EFE3" opacity="0.05"></circle><circle cx="207" cy="1002" r="0.7" fill="#F4EFE3" opacity="0.04"></circle><circle cx="270" cy="60" r="0.6" fill="#F4EFE3" opacity="0.03"></circle><circle cx="783" cy="1063" r="0.6" fill="#F4EFE3" opacity="0.03"></circle><circle cx="670" cy="145" r="0.8" fill="#F4EFE3" opacity="0.07"></circle><circle cx="255" cy="877" r="0.9" fill="#F4EFE3" opacity="0.03"></circle><circle cx="304" cy="752" r="0.5" fill="#F4EFE3" opacity="0.03"></circle><circle cx="723" cy="1026" r="0.9" fill="#F4EFE3" opacity="0.06"></circle><circle cx="11" cy="379" r="0.7" fill="#F4EFE3" opacity="0.07"></circle><circle cx="448" cy="984" r="0.4" fill="#F4EFE3" opacity="0.05"></circle><circle cx="1118" cy="967" r="1.0" fill="#F4EFE3" opacity="0.03"></circle><circle cx="1161" cy="100" r="1.4" fill="#F4EFE3" opacity="0.07"></circle><circle cx="903" cy="665" r="0.6" fill="#F4EFE3" opacity="0.04"></circle>
<rect x="46" y="46" width="1162" height="1162" fill="none" stroke="#B81E24" stroke-width="6" stroke-opacity="0.85"></rect>
<rect x="70" y="70" width="1114" height="1114" fill="none" stroke="#F4EFE3" stroke-width="1.5" stroke-opacity="0.35"></rect>
<text x="627.0" y="225" font-family="Yellowtail, cursive" font-size="74" fill="#E6A532" text-anchor="middle">Live at the Creekside</text>
<text x="627.0" y="330" font-family="Oswald, sans-serif" font-weight="700" font-size="52" letter-spacing="14" fill="#F4EFE3" fill-opacity="0.7" text-anchor="middle">BAR &amp; GRILL</text>
<g opacity="0.92">
<circle cx="627.0" cy="560" r="150" fill="none" stroke="#B81E24" stroke-width="8"></circle>
<path d="M 572.0 490 v150 a40 40 0 1 1 -40 -40 a40 40 0 0 1 40 12 v-92 l120 -30 v118 a40 40 0 1 1 -40 -40 a40 40 0 0 1 40 12 v-118 z" fill="#F4EFE3" fill-opacity="0.9"></path>
</g>
<text x="627.0" y="800" font-family="Oswald, sans-serif" font-weight="700" font-size="92" letter-spacing="2" fill="#F4EFE3" text-anchor="middle">ANDREW MOORER</text>
<rect x="327.0" y="858" width="600" height="3" fill="#B81E24"></rect>
<text x="627.0" y="970" font-family="Oswald, sans-serif" font-weight="600" font-size="70" letter-spacing="8" fill="#B81E24" text-anchor="middle">FRIDAY · Jun 12</text>
<text x="627.0" y="1052" font-family="Manrope, sans-serif" font-weight="700" font-size="40" letter-spacing="6" fill="#F4EFE3" fill-opacity="0.85" text-anchor="middle">5:00 – 9:00 PM</text>
<text x="627.0" y="1130" font-family="Manrope, sans-serif" font-size="30" letter-spacing="4" fill="#F4EFE3" fill-opacity="0.55" text-anchor="middle">RT 73 · CINNAMINSON, NJ · NO COVER</text>
</svg>