<svg xmlns="http://www.w3.org/2000/svg" viewBox="0 0 1254 1254" role="img" aria-label="Anthony Caine live at the Creekside">
<defs>
<linearGradient id="bg7" x1="0" y1="0" x2="1" y2="1">
<stop offset="0" stop-color="#0C0B0A"></stop><stop offset="0.5" stop-color="#1C1611"></stop><stop offset="1" stop-color="#000"></stop>
</linearGradient>
<radialGradient id="gl7" cx="50%" cy="34%" r="62%">
<stop offset="0" stop-color="#C8841A" stop-opacity="0.40"></stop><stop offset="1" stop-color="#C8841A" stop-opacity="0"></stop>
</radialGradient>
</defs>
<rect width="1254" height="1254" fill="url(#bg7)"></rect>
<rect width="1254" height="1254" fill="url(#gl7)"></rect>
<circle cx="84" cy="518" r="0.5" fill="#F4EFE3" opacity="0.07"></circle><circle cx="641" cy="62" r="0.4" fill="#F4EFE3" opacity="0.06"></circle><circle cx="194" cy="920" r="1.0" fill="#F4EFE3" opacity="0.05"></circle><circle cx="1073" cy="756" r="1.0" fill="#F4EFE3" opacity="0.04"></circle><circle cx="312" cy="173" r="0.8" fill="#F4EFE3" opacity="0.04"></circle><circle cx="969" cy="337" r="0.8" fill="#F4EFE3" opacity="0.08"></circle><circle cx="778" cy="829" r="1.1" fill="#F4EFE3" opacity="0.07"></circle><circle cx="259" cy="966" r="0.5" fill="#F4EFE3" opacity="0.04"></circle><circle cx="747" cy="399" r="0.9" fill="#F4EFE3" opacity="0.03"></circle><circle cx="320" cy="548" r="1.0" fill="#F4EFE3" opacity="0.06"></circle><circle cx="627" cy="475" r="1.4" fill="#F4EFE3" opacity="0.07"></circle><circle cx="687" cy="680" r="0.5" fill="#F4EFE3" opacity="0.03"></circle><circle cx="106" cy="1181" r="1.2" fill="#F4EFE3" opacity="0.02"></circle><circle cx="869" cy="469" r="1.1" fill="#F4EFE3" opacity="0.05"></circle><circle cx="411" cy="93" r="0.6" fill="#F4EFE3" opacity="0.05"></circle><circle cx="899" cy="199" r="0.8" fill="#F4EFE3" opacity="0.08"></circle><circle cx="129" cy="511" r="1.3" fill="#F4EFE3" opacity="0.06"></circle><circle cx="1191" cy="758" r="1.0" fill="#F4EFE3" opacity="0.03"></circle><circle cx="510" cy="658" r="1.3" fill="#F4EFE3" opacity="0.06"></circle><circle cx="466" cy="1104" r="1.0" fill="#F4EFE3" opacity="0.06"></circle><circle cx="218" cy="330" r="1.0" fill="#F4EFE3" opacity="0.05"></circle><circle cx="321" cy="1153" r="1.4" fill="#F4EFE3" opacity="0.06"></circle><circle cx="1223" cy="905" r="0.9" fill="#F4EFE3" opacity="0.03"></circle><circle cx="709" cy="1137" r="1.0" fill="#F4EFE3" opacity="0.06"></circle><circle cx="473" cy="33" r="0.9" fill="#F4EFE3" opacity="0.04"></circle><circle cx="710" cy="1220" r="1.3" fill="#F4EFE3" opacity="0.07"></circle><circle cx="813" cy="661" r="0.9" fill="#F4EFE3" opacity="0.08"></circle><circle cx="11" cy="42" r="0.5" fill="#F4EFE3" opacity="0.05"></circle><circle cx="1238" cy="1130" r="1.0" fill="#F4EFE3" opacity="0.08"></circle><circle cx="907" cy="1024" r="0.7" fill="#F4EFE3" opacity="0.03"></circle><circle cx="275" cy="1073" r="1.3" fill="#F4EFE3" opacity="0.06"></circle><circle cx="192" cy="502" r="0.7" fill="#F4EFE3" opacity="0.05"></circle><circle cx="955" cy="1077" r="1.0" fill="#F4EFE3" opacity="0.04"></circle><circle cx="447" cy="269" r="0.5" fill="#F4EFE3" opacity="0.02"></circle><circle cx="156" cy="1150" r="0.9" fill="#F4EFE3" opacity="0.08"></circle><circle cx="639" cy="348" r="0.7" fill="#F4EFE3" opacity="0.05"></circle><circle cx="804" cy="369" r="1.1" fill="#F4EFE3" opacity="0.02"></circle><circle cx="843" cy="251" r="0.5" fill="#F4EFE3" opacity="0.07"></circle><circle cx="947" cy="286" r="0.4" fill="#F4EFE3" opacity="0.06"></circle><circle cx="1148" cy="121" r="1.4" fill="#F4EFE3" opacity="0.07"></circle><circle cx="295" cy="61" r="1.1" fill="#F4EFE3" opacity="0.04"></circle><circle cx="345" cy="1222" r="0.5" fill="#F4EFE3" opacity="0.04"></circle><circle cx="700" cy="1176" r="0.5" fill="#F4EFE3" opacity="0.02"></circle><circle cx="106" cy="307" r="0.7" fill="#F4EFE3" opacity="0.05"></circle><circle cx="450" cy="248" r="1.0" fill="#F4EFE3" opacity="0.03"></circle><circle cx="367" cy="110" r="0.5" fill="#F4EFE3" opacity="0.05"></circle><circle cx="526" cy="806" r="1.3" fill="#F4EFE3" opacity="0.06"></circle><circle cx="169" cy="900" r="1.0" fill="#F4EFE3" opacity="0.07"></circle><circle cx="14" cy="355" r="1.3" fill="#F4EFE3" opacity="0.07"></circle><circle cx="156" cy="233" r="0.6" fill="#F4EFE3" opacity="0.04"></circle><circle cx="1164" cy="470" r="0.9" fill="#F4EFE3" opacity="0.07"></circle><circle cx="986" cy="287" r="1.0" fill="#F4EFE3" opacity="0.04"></circle><circle cx="243" cy="593" r="1.3" fill="#F4EFE3" opacity="0.05"></circle><circle cx="1120" cy="620" r="0.5" fill="#F4EFE3" opacity="0.08"></circle><circle cx="62" cy="1136" r="0.8" fill="#F4EFE3" opacity="0.07"></circle><circle cx="1232" cy="226" r="1.3" fill="#F4EFE3" opacity="0.02"></circle><circle cx="41" cy="90" r="0.7" fill="#F4EFE3" opacity="0.05"></circle><circle cx="267" cy="911" r="0.9" fill="#F4EFE3" opacity="0.05"></circle><circle cx="41" cy="114" r="1.1" fill="#F4EFE3" opacity="0.07"></circle><circle cx="1215" cy="620" r="0.4" fill="#F4EFE3" opacity="0.05"></circle><circle cx="544" cy="650" r="0.9" fill="#F4EFE3" opacity="0.04"></circle><circle cx="315" cy="683" r="0.6" fill="#F4EFE3" opacity="0.04"></circle><circle cx="355" cy="867" r="1.0" fill="#F4EFE3" opacity="0.05"></circle><circle cx="18" cy="643" r="0.9" fill="#F4EFE3" opacity="0.06"></circle><circle cx="850" cy="662" r="0.6" fill="#F4EFE3" opacity="0.03"></circle><circle cx="415" cy="921" r="0.6" fill="#F4EFE3" opacity="0.04"></circle><circle cx="915" cy="742" r="0.9" fill="#F4EFE3" opacity="0.05"></circle><circle cx="660" cy="637" r="1.2" fill="#F4EFE3" opacity="0.07"></circle><circle cx="262" cy="274" r="1.0" fill="#F4EFE3" opacity="0.05"></circle><circle cx="824" cy="329" r="0.7" fill="#F4EFE3" opacity="0.03"></circle><circle cx="360" cy="707" r="0.5" fill="#F4EFE3" opacity="0.08"></circle><circle cx="266" cy="957" r="0.8" fill="#F4EFE3" opacity="0.04"></circle><circle cx="508" cy="338" r="1.1" fill="#F4EFE3" opacity="0.04"></circle><circle cx="932" cy="1082" r="1.3" fill="#F4EFE3" opacity="0.08"></circle><circle cx="1184" cy="764" r="1.0" fill="#F4EFE3" opacity="0.04"></circle><circle cx="867" cy="565" r="0.4" fill="#F4EFE3" opacity="0.06"></circle><circle cx="748" cy="378" r="1.0" fill="#F4EFE3" opacity="0.07"></circle><circle cx="366" cy="804" r="0.7" fill="#F4EFE3" opacity="0.04"></circle><circle cx="90" cy="418" r="0.8" fill="#F4EFE3" opacity="0.05"></circle><circle cx="524" cy="42" r="0.8" fill="#F4EFE3" opacity="0.05"></circle><circle cx="465" cy="81" r="0.7" fill="#F4EFE3" opacity="0.05"></circle><circle cx="122" cy="679" r="1.0" fill="#F4EFE3" opacity="0.04"></circle><circle cx="337" cy="959" r="1.2" fill="#F4EFE3" opacity="0.08"></circle><circle cx="772" cy="918" r="0.9" fill="#F4EFE3" opacity="0.07"></circle><circle cx="1050" cy="260" r="1.3" fill="#F4EFE3" opacity="0.05"></circle><circle cx="949" cy="541" r="1.4" fill="#F4EFE3" opacity="0.03"></circle><circle cx="267" cy="27" r="1.2" fill="#F4EFE3" opacity="0.03"></circle><circle cx="177" cy="521" r="0.8" fill="#F4EFE3" opacity="0.03"></circle><circle cx="59" cy="769" r="1.1" fill="#F4EFE3" opacity="0.05"></circle><circle cx="1014" cy="397" r="0.5" fill="#F4EFE3" opacity="0.07"></circle><circle cx="597" cy="1015" r="1.2" fill="#F4EFE3" opacity="0.02"></circle><circle cx="669" cy="692" r="1.3" fill="#F4EFE3" opacity="0.06"></circle><circle cx="1104" cy="832" r="0.4" fill="#F4EFE3" opacity="0.08"></circle><circle cx="253" cy="367" r="0.5" fill="#F4EFE3" opacity="0.05"></circle><circle cx="1039" cy="846" r="0.9" fill="#F4EFE3" opacity="0.03"></circle><circle cx="169" cy="337" r="1.0" fill="#F4EFE3" opacity="0.07"></circle><circle cx="939" cy="1205" r="0.9" fill="#F4EFE3" opacity="0.06"></circle><circle cx="165" cy="286" r="1.3" fill="#F4EFE3" opacity="0.05"></circle><circle cx="6" cy="728" r="0.6" fill="#F4EFE3" opacity="0.07"></circle><circle cx="88" cy="722" r="0.7" fill="#F4EFE3" opacity="0.07"></circle><circle cx="1179" cy="453" r="1.1" fill="#F4EFE3" opacity="0.07"></circle><circle cx="730" cy="373" r="1.1" fill="#F4EFE3" opacity="0.04"></circle><circle cx="996" cy="228" r="0.9" fill="#F4EFE3" opacity="0.04"></circle><circle cx="59" cy="707" r="0.5" fill="#F4EFE3" opacity="0.04"></circle><circle cx="863" cy="203" r="1.2" fill="#F4EFE3" opacity="0.05"></circle><circle cx="138" cy="64" r="0.6" fill="#F4EFE3" opacity="0.06"></circle><circle cx="106" cy="87" r="0.7" fill="#F4EFE3" opacity="0.02"></circle><circle cx="279" cy="226" r="0.4" fill="#F4EFE3" opacity="0.02"></circle><circle cx="75" cy="7" r="0.5" fill="#F4EFE3" opacity="0.08"></circle><circle cx="938" cy="709" r="0.8" fill="#F4EFE3" opacity="0.05"></circle><circle cx="166" cy="419" r="0.6" fill="#F4EFE3" opacity="0.06"></circle><circle cx="232" cy="814" r="0.6" fill="#F4EFE3" opacity="0.06"></circle><circle cx="988" cy="545" r="1.1" fill="#F4EFE3" opacity="0.05"></circle><circle cx="797" cy="687" r="1.1" fill="#F4EFE3" opacity="0.08"></circle><circle cx="304" cy="1126" r="1.3" fill="#F4EFE3" opacity="0.06"></circle><circle cx="1214" cy="385" r="0.8" fill="#F4EFE3" opacity="0.06"></circle><circle cx="960" cy="462" r="1.3" fill="#F4EFE3" opacity="0.03"></circle><circle cx="1244" cy="271" r="1.3" fill="#F4EFE3" opacity="0.02"></circle><circle cx="86" cy="475" r="0.6" fill="#F4EFE3" opacity="0.03"></circle><circle cx="1037" cy="501" r="1.2" fill="#F4EFE3" opacity="0.03"></circle><circle cx="100" cy="679" r="0.8" fill="#F4EFE3" opacity="0.05"></circle><circle cx="695" cy="835" r="0.6" fill="#F4EFE3" opacity="0.04"></circle><circle cx="481" cy="480" r="1.3" fill="#F4EFE3" opacity="0.04"></circle><circle cx="672" cy="358" r="0.8" fill="#F4EFE3" opacity="0.04"></circle><circle cx="1093" cy="803" r="1.2" fill="#F4EFE3" opacity="0.03"></circle><circle cx="1081" cy="961" r="0.9" fill="#F4EFE3" opacity="0.07"></circle><circle cx="1030" cy="751" r="1.1" fill="#F4EFE3" opacity="0.04"></circle><circle cx="1134" cy="663" r="1.1" fill="#F4EFE3" opacity="0.03"></circle><circle cx="321" cy="119" r="0.4" fill="#F4EFE3" opacity="0.07"></circle><circle cx="763" cy="792" r="1.0" fill="#F4EFE3" opacity="0.05"></circle><circle cx="993" cy="593" r="0.6" fill="#F4EFE3" opacity="0.06"></circle><circle cx="378" cy="41" r="0.9" fill="#F4EFE3" opacity="0.06"></circle><circle cx="111" cy="865" r="0.7" fill="#F4EFE3" opacity="0.06"></circle><circle cx="1087" cy="1001" r="0.5" fill="#F4EFE3" opacity="0.03"></circle><circle cx="1147" cy="418" r="0.6" fill="#F4EFE3" opacity="0.02"></circle><circle cx="669" cy="1238" r="1.4" fill="#F4EFE3" opacity="0.05"></circle><circle cx="740" cy="363" r="1.2" fill="#F4EFE3" opacity="0.03"></circle><circle cx="597" cy="683" r="0.5" fill="#F4EFE3" opacity="0.07"></circle><circle cx="565" cy="96" r="0.4" fill="#F4EFE3" opacity="0.03"></circle><circle cx="1073" cy="1019" r="1.0" fill="#F4EFE3" opacity="0.08"></circle>
<rect x="46" y="46" width="1162" height="1162" fill="none" stroke="#C8841A" stroke-width="6" stroke-opacity="0.85"></rect>
<rect x="70" y="70" width="1114" height="1114" fill="none" stroke="#F4EFE3" stroke-width="1.5" stroke-opacity="0.35"></rect>
<text x="627.0" y="225" font-family="Yellowtail, cursive" font-size="74" fill="#E6A532" text-anchor="middle">Live at the Creekside</text>
<text x="627.0" y="330" font-family="Oswald, sans-serif" font-weight="700" font-size="52" letter-spacing="14" fill="#F4EFE3" fill-opacity="0.7" text-anchor="middle">BAR &amp; GRILL</text>
<g opacity="0.92">
<circle cx="627.0" cy="560" r="150" fill="none" stroke="#C8841A" stroke-width="8"></circle>
<path d="M 572.0 490 v150 a40 40 0 1 1 -40 -40 a40 40 0 0 1 40 12 v-92 l120 -30 v118 a40 40 0 1 1 -40 -40 a40 40 0 0 1 40 12 v-118 z" fill="#F4EFE3" fill-opacity="0.9"></path>
</g>
<text x="627.0" y="800" font-family="Oswald, sans-serif" font-weight="700" font-size="92" letter-spacing="2" fill="#F4EFE3" text-anchor="middle">ANTHONY CAINE</text>
<rect x="327.0" y="858" width="600" height="3" fill="#C8841A"></rect>
<text x="627.0" y="970" font-family="Oswald, sans-serif" font-weight="600" font-size="70" letter-spacing="8" fill="#C8841A" text-anchor="middle">FRIDAY · Jun 26</text>
<text x="627.0" y="1052" font-family="Manrope, sans-serif" font-weight="700" font-size="40" letter-spacing="6" fill="#F4EFE3" fill-opacity="0.85" text-anchor="middle">5:00 – 9:00 PM</text>
<text x="627.0" y="1130" font-family="Manrope, sans-serif" font-size="30" letter-spacing="4" fill="#F4EFE3" fill-opacity="0.55" text-anchor="middle">RT 73 · CINNAMINSON, NJ · NO COVER</text>
</svg>