<svg xmlns="http://www.w3.org/2000/svg" viewBox="0 0 1254 1254" role="img" aria-label="Old City Outlaws live at the Creekside">
<defs>
<linearGradient id="bg4" x1="0" y1="0" x2="1" y2="1">
<stop offset="0" stop-color="#0C0B0A"></stop><stop offset="0.5" stop-color="#1C1611"></stop><stop offset="1" stop-color="#000"></stop>
</linearGradient>
<radialGradient id="gl4" cx="50%" cy="34%" r="62%">
<stop offset="0" stop-color="#E0982A" stop-opacity="0.40"></stop><stop offset="1" stop-color="#E0982A" stop-opacity="0"></stop>
</radialGradient>
</defs>
<rect width="1254" height="1254" fill="url(#bg4)"></rect>
<rect width="1254" height="1254" fill="url(#gl4)"></rect>
<circle cx="142" cy="164" r="1.0" fill="#F4EFE3" opacity="0.03"></circle><circle cx="166" cy="582" r="0.8" fill="#F4EFE3" opacity="0.03"></circle><circle cx="491" cy="1056" r="0.5" fill="#F4EFE3" opacity="0.03"></circle><circle cx="35" cy="301" r="0.5" fill="#F4EFE3" opacity="0.08"></circle><circle cx="394" cy="1240" r="0.5" fill="#F4EFE3" opacity="0.07"></circle><circle cx="635" cy="866" r="1.1" fill="#F4EFE3" opacity="0.04"></circle><circle cx="292" cy="852" r="0.5" fill="#F4EFE3" opacity="0.02"></circle><circle cx="967" cy="794" r="0.7" fill="#F4EFE3" opacity="0.05"></circle><circle cx="1141" cy="350" r="0.5" fill="#F4EFE3" opacity="0.05"></circle><circle cx="210" cy="462" r="0.4" fill="#F4EFE3" opacity="0.07"></circle><circle cx="1011" cy="469" r="0.8" fill="#F4EFE3" opacity="0.04"></circle><circle cx="1196" cy="1101" r="1.1" fill="#F4EFE3" opacity="0.03"></circle><circle cx="216" cy="962" r="0.6" fill="#F4EFE3" opacity="0.06"></circle><circle cx="528" cy="39" r="0.6" fill="#F4EFE3" opacity="0.07"></circle><circle cx="404" cy="846" r="1.2" fill="#F4EFE3" opacity="0.04"></circle><circle cx="626" cy="1079" r="1.1" fill="#F4EFE3" opacity="0.05"></circle><circle cx="683" cy="562" r="0.8" fill="#F4EFE3" opacity="0.06"></circle><circle cx="305" cy="1085" r="0.7" fill="#F4EFE3" opacity="0.03"></circle><circle cx="1208" cy="19" r="0.8" fill="#F4EFE3" opacity="0.05"></circle><circle cx="552" cy="1040" r="1.1" fill="#F4EFE3" opacity="0.05"></circle><circle cx="4" cy="1235" r="0.8" fill="#F4EFE3" opacity="0.04"></circle><circle cx="275" cy="246" r="0.5" fill="#F4EFE3" opacity="0.03"></circle><circle cx="843" cy="372" r="0.9" fill="#F4EFE3" opacity="0.06"></circle><circle cx="90" cy="953" r="0.6" fill="#F4EFE3" opacity="0.07"></circle><circle cx="1113" cy="566" r="0.7" fill="#F4EFE3" opacity="0.05"></circle><circle cx="1129" cy="1227" r="1.1" fill="#F4EFE3" opacity="0.04"></circle><circle cx="502" cy="874" r="0.7" fill="#F4EFE3" opacity="0.07"></circle><circle cx="429" cy="722" r="0.9" fill="#F4EFE3" opacity="0.05"></circle><circle cx="1055" cy="1117" r="1.2" fill="#F4EFE3" opacity="0.06"></circle><circle cx="497" cy="492" r="0.9" fill="#F4EFE3" opacity="0.07"></circle><circle cx="923" cy="114" r="0.6" fill="#F4EFE3" opacity="0.02"></circle><circle cx="381" cy="1038" r="1.0" fill="#F4EFE3" opacity="0.02"></circle><circle cx="941" cy="773" r="0.9" fill="#F4EFE3" opacity="0.02"></circle><circle cx="21" cy="89" r="1.3" fill="#F4EFE3" opacity="0.04"></circle><circle cx="72" cy="1019" r="0.9" fill="#F4EFE3" opacity="0.04"></circle><circle cx="493" cy="260" r="0.4" fill="#F4EFE3" opacity="0.07"></circle><circle cx="1108" cy="440" r="1.0" fill="#F4EFE3" opacity="0.07"></circle><circle cx="31" cy="1252" r="0.5" fill="#F4EFE3" opacity="0.04"></circle><circle cx="79" cy="253" r="0.6" fill="#F4EFE3" opacity="0.04"></circle><circle cx="566" cy="798" r="0.9" fill="#F4EFE3" opacity="0.06"></circle><circle cx="1186" cy="278" r="0.8" fill="#F4EFE3" opacity="0.06"></circle><circle cx="256" cy="48" r="1.2" fill="#F4EFE3" opacity="0.05"></circle><circle cx="467" cy="811" r="0.7" fill="#F4EFE3" opacity="0.04"></circle><circle cx="187" cy="537" r="0.7" fill="#F4EFE3" opacity="0.05"></circle><circle cx="1097" cy="984" r="1.1" fill="#F4EFE3" opacity="0.06"></circle><circle cx="1082" cy="208" r="1.4" fill="#F4EFE3" opacity="0.03"></circle><circle cx="1103" cy="620" r="1.1" fill="#F4EFE3" opacity="0.08"></circle><circle cx="44" cy="399" r="0.5" fill="#F4EFE3" opacity="0.04"></circle><circle cx="315" cy="827" r="1.2" fill="#F4EFE3" opacity="0.04"></circle><circle cx="513" cy="147" r="0.5" fill="#F4EFE3" opacity="0.03"></circle><circle cx="79" cy="1055" r="0.7" fill="#F4EFE3" opacity="0.06"></circle><circle cx="961" cy="302" r="0.9" fill="#F4EFE3" opacity="0.06"></circle><circle cx="569" cy="779" r="0.5" fill="#F4EFE3" opacity="0.07"></circle><circle cx="1244" cy="1211" r="1.2" fill="#F4EFE3" opacity="0.06"></circle><circle cx="272" cy="133" r="0.8" fill="#F4EFE3" opacity="0.03"></circle><circle cx="771" cy="1170" r="0.7" fill="#F4EFE3" opacity="0.06"></circle><circle cx="281" cy="1212" r="1.1" fill="#F4EFE3" opacity="0.06"></circle><circle cx="643" cy="295" r="1.3" fill="#F4EFE3" opacity="0.05"></circle><circle cx="1202" cy="970" r="1.3" fill="#F4EFE3" opacity="0.04"></circle><circle cx="807" cy="755" r="0.5" fill="#F4EFE3" opacity="0.07"></circle><circle cx="371" cy="527" r="0.4" fill="#F4EFE3" opacity="0.04"></circle><circle cx="127" cy="348" r="1.2" fill="#F4EFE3" opacity="0.03"></circle><circle cx="914" cy="382" r="1.0" fill="#F4EFE3" opacity="0.07"></circle><circle cx="311" cy="179" r="1.3" fill="#F4EFE3" opacity="0.04"></circle><circle cx="977" cy="318" r="1.4" fill="#F4EFE3" opacity="0.08"></circle><circle cx="282" cy="1054" r="0.6" fill="#F4EFE3" opacity="0.07"></circle><circle cx="47" cy="422" r="0.4" fill="#F4EFE3" opacity="0.07"></circle><circle cx="364" cy="710" r="1.2" fill="#F4EFE3" opacity="0.04"></circle><circle cx="872" cy="822" r="1.0" fill="#F4EFE3" opacity="0.04"></circle><circle cx="447" cy="696" r="1.2" fill="#F4EFE3" opacity="0.03"></circle><circle cx="878" cy="100" r="0.7" fill="#F4EFE3" opacity="0.02"></circle><circle cx="134" cy="817" r="1.4" fill="#F4EFE3" opacity="0.07"></circle><circle cx="678" cy="1221" r="0.4" fill="#F4EFE3" opacity="0.04"></circle><circle cx="19" cy="703" r="1.3" fill="#F4EFE3" opacity="0.04"></circle><circle cx="675" cy="375" r="0.7" fill="#F4EFE3" opacity="0.03"></circle><circle cx="779" cy="953" r="1.3" fill="#F4EFE3" opacity="0.07"></circle><circle cx="865" cy="669" r="1.3" fill="#F4EFE3" opacity="0.06"></circle><circle cx="879" cy="691" r="1.3" fill="#F4EFE3" opacity="0.06"></circle><circle cx="1090" cy="703" r="0.6" fill="#F4EFE3" opacity="0.05"></circle><circle cx="1113" cy="106" r="1.4" fill="#F4EFE3" opacity="0.06"></circle><circle cx="552" cy="473" r="1.0" fill="#F4EFE3" opacity="0.07"></circle><circle cx="679" cy="141" r="0.8" fill="#F4EFE3" opacity="0.03"></circle><circle cx="872" cy="1045" r="0.8" fill="#F4EFE3" opacity="0.08"></circle><circle cx="1126" cy="1022" r="1.1" fill="#F4EFE3" opacity="0.03"></circle><circle cx="78" cy="134" r="0.6" fill="#F4EFE3" opacity="0.06"></circle><circle cx="1081" cy="1232" r="0.9" fill="#F4EFE3" opacity="0.06"></circle><circle cx="309" cy="493" r="1.1" fill="#F4EFE3" opacity="0.08"></circle><circle cx="889" cy="852" r="1.1" fill="#F4EFE3" opacity="0.03"></circle><circle cx="331" cy="180" r="1.4" fill="#F4EFE3" opacity="0.04"></circle><circle cx="189" cy="16" r="0.7" fill="#F4EFE3" opacity="0.04"></circle><circle cx="341" cy="355" r="0.5" fill="#F4EFE3" opacity="0.03"></circle><circle cx="156" cy="657" r="1.1" fill="#F4EFE3" opacity="0.07"></circle><circle cx="734" cy="19" r="0.4" fill="#F4EFE3" opacity="0.06"></circle><circle cx="438" cy="1203" r="1.0" fill="#F4EFE3" opacity="0.08"></circle><circle cx="255" cy="162" r="0.6" fill="#F4EFE3" opacity="0.08"></circle><circle cx="707" cy="716" r="1.1" fill="#F4EFE3" opacity="0.03"></circle><circle cx="585" cy="702" r="0.5" fill="#F4EFE3" opacity="0.03"></circle><circle cx="79" cy="446" r="0.4" fill="#F4EFE3" opacity="0.02"></circle><circle cx="1008" cy="999" r="0.5" fill="#F4EFE3" opacity="0.07"></circle><circle cx="126" cy="601" r="0.8" fill="#F4EFE3" opacity="0.03"></circle><circle cx="503" cy="370" r="0.5" fill="#F4EFE3" opacity="0.07"></circle><circle cx="972" cy="445" r="0.9" fill="#F4EFE3" opacity="0.03"></circle><circle cx="946" cy="1060" r="0.8" fill="#F4EFE3" opacity="0.04"></circle><circle cx="681" cy="810" r="1.4" fill="#F4EFE3" opacity="0.07"></circle><circle cx="1235" cy="420" r="1.2" fill="#F4EFE3" opacity="0.05"></circle><circle cx="358" cy="419" r="0.5" fill="#F4EFE3" opacity="0.02"></circle><circle cx="1220" cy="1141" r="0.7" fill="#F4EFE3" opacity="0.07"></circle><circle cx="184" cy="1062" r="0.6" fill="#F4EFE3" opacity="0.05"></circle><circle cx="150" cy="1203" r="0.6" fill="#F4EFE3" opacity="0.08"></circle><circle cx="796" cy="160" r="0.7" fill="#F4EFE3" opacity="0.05"></circle><circle cx="1106" cy="1193" r="0.7" fill="#F4EFE3" opacity="0.05"></circle><circle cx="735" cy="36" r="0.7" fill="#F4EFE3" opacity="0.06"></circle><circle cx="1106" cy="82" r="1.0" fill="#F4EFE3" opacity="0.03"></circle><circle cx="463" cy="1056" r="1.2" fill="#F4EFE3" opacity="0.02"></circle><circle cx="711" cy="616" r="0.5" fill="#F4EFE3" opacity="0.08"></circle><circle cx="25" cy="1241" r="0.5" fill="#F4EFE3" opacity="0.07"></circle><circle cx="210" cy="608" r="0.6" fill="#F4EFE3" opacity="0.02"></circle><circle cx="391" cy="927" r="1.2" fill="#F4EFE3" opacity="0.05"></circle><circle cx="794" cy="759" r="1.3" fill="#F4EFE3" opacity="0.06"></circle><circle cx="69" cy="555" r="0.9" fill="#F4EFE3" opacity="0.05"></circle><circle cx="1101" cy="242" r="1.3" fill="#F4EFE3" opacity="0.08"></circle><circle cx="1006" cy="1116" r="1.4" fill="#F4EFE3" opacity="0.05"></circle><circle cx="604" cy="531" r="1.3" fill="#F4EFE3" opacity="0.07"></circle><circle cx="1118" cy="1225" r="1.3" fill="#F4EFE3" opacity="0.03"></circle><circle cx="219" cy="180" r="1.1" fill="#F4EFE3" opacity="0.03"></circle><circle cx="417" cy="207" r="1.3" fill="#F4EFE3" opacity="0.04"></circle><circle cx="61" cy="360" r="1.1" fill="#F4EFE3" opacity="0.06"></circle><circle cx="1180" cy="277" r="1.3" fill="#F4EFE3" opacity="0.05"></circle><circle cx="140" cy="407" r="0.7" fill="#F4EFE3" opacity="0.07"></circle><circle cx="497" cy="649" r="1.1" fill="#F4EFE3" opacity="0.03"></circle><circle cx="1030" cy="856" r="1.1" fill="#F4EFE3" opacity="0.03"></circle><circle cx="888" cy="966" r="1.0" fill="#F4EFE3" opacity="0.05"></circle><circle cx="321" cy="1042" r="1.3" fill="#F4EFE3" opacity="0.07"></circle><circle cx="298" cy="608" r="1.2" fill="#F4EFE3" opacity="0.07"></circle><circle cx="1081" cy="1212" r="0.6" fill="#F4EFE3" opacity="0.02"></circle><circle cx="585" cy="30" r="1.4" fill="#F4EFE3" opacity="0.04"></circle><circle cx="945" cy="230" r="1.1" fill="#F4EFE3" opacity="0.03"></circle><circle cx="996" cy="549" r="0.7" fill="#F4EFE3" opacity="0.05"></circle><circle cx="966" cy="442" r="0.9" fill="#F4EFE3" opacity="0.06"></circle><circle cx="1225" cy="684" r="0.5" fill="#F4EFE3" opacity="0.06"></circle>
<rect x="46" y="46" width="1162" height="1162" fill="none" stroke="#E0982A" stroke-width="6" stroke-opacity="0.85"></rect>
<rect x="70" y="70" width="1114" height="1114" fill="none" stroke="#F4EFE3" stroke-width="1.5" stroke-opacity="0.35"></rect>
<text x="627.0" y="225" font-family="Yellowtail, cursive" font-size="74" fill="#E6A532" text-anchor="middle">Live at the Creekside</text>
<text x="627.0" y="330" font-family="Oswald, sans-serif" font-weight="700" font-size="52" letter-spacing="14" fill="#F4EFE3" fill-opacity="0.7" text-anchor="middle">BAR &amp; GRILL</text>
<g opacity="0.92">
<circle cx="627.0" cy="560" r="150" fill="none" stroke="#E0982A" stroke-width="8"></circle>
<path d="M 572.0 490 v150 a40 40 0 1 1 -40 -40 a40 40 0 0 1 40 12 v-92 l120 -30 v118 a40 40 0 1 1 -40 -40 a40 40 0 0 1 40 12 v-118 z" fill="#F4EFE3" fill-opacity="0.9"></path>
</g>
<text x="627.0" y="800" font-family="Oswald, sans-serif" font-weight="700" font-size="92" letter-spacing="2" fill="#F4EFE3" text-anchor="middle">OLD CITY OUTLAWS</text>
<rect x="327.0" y="858" width="600" height="3" fill="#E0982A"></rect>
<text x="627.0" y="970" font-family="Oswald, sans-serif" font-weight="600" font-size="70" letter-spacing="8" fill="#E0982A" text-anchor="middle">SATURDAY · Jun 13</text>
<text x="627.0" y="1052" font-family="Manrope, sans-serif" font-weight="700" font-size="40" letter-spacing="6" fill="#F4EFE3" fill-opacity="0.85" text-anchor="middle">5:00 – 9:00 PM</text>
<text x="627.0" y="1130" font-family="Manrope, sans-serif" font-size="30" letter-spacing="4" fill="#F4EFE3" fill-opacity="0.55" text-anchor="middle">RT 73 · CINNAMINSON, NJ · NO COVER</text>
</svg>