<svg xmlns="http://www.w3.org/2000/svg" viewBox="0 0 1254 1254" role="img" aria-label="DNZ Duo live at the Creekside">
<defs>
<linearGradient id="bg8" x1="0" y1="0" x2="1" y2="1">
<stop offset="0" stop-color="#0C0B0A"></stop><stop offset="0.5" stop-color="#1C1611"></stop><stop offset="1" stop-color="#000"></stop>
</linearGradient>
<radialGradient id="gl8" cx="50%" cy="34%" r="62%">
<stop offset="0" stop-color="#B81E24" stop-opacity="0.40"></stop><stop offset="1" stop-color="#B81E24" stop-opacity="0"></stop>
</radialGradient>
</defs>
<rect width="1254" height="1254" fill="url(#bg8)"></rect>
<rect width="1254" height="1254" fill="url(#gl8)"></rect>
<circle cx="1211" cy="702" r="0.9" fill="#F4EFE3" opacity="0.05"></circle><circle cx="963" cy="1240" r="0.8" fill="#F4EFE3" opacity="0.03"></circle><circle cx="470" cy="85" r="1.0" fill="#F4EFE3" opacity="0.08"></circle><circle cx="260" cy="952" r="0.6" fill="#F4EFE3" opacity="0.08"></circle><circle cx="698" cy="482" r="0.4" fill="#F4EFE3" opacity="0.03"></circle><circle cx="1131" cy="234" r="1.0" fill="#F4EFE3" opacity="0.05"></circle><circle cx="557" cy="895" r="0.5" fill="#F4EFE3" opacity="0.06"></circle><circle cx="79" cy="269" r="1.1" fill="#F4EFE3" opacity="0.03"></circle><circle cx="169" cy="623" r="1.0" fill="#F4EFE3" opacity="0.02"></circle><circle cx="846" cy="732" r="0.4" fill="#F4EFE3" opacity="0.05"></circle><circle cx="1" cy="695" r="1.0" fill="#F4EFE3" opacity="0.04"></circle><circle cx="451" cy="995" r="0.6" fill="#F4EFE3" opacity="0.05"></circle><circle cx="626" cy="55" r="1.3" fill="#F4EFE3" opacity="0.03"></circle><circle cx="992" cy="586" r="0.4" fill="#F4EFE3" opacity="0.04"></circle><circle cx="731" cy="578" r="1.3" fill="#F4EFE3" opacity="0.02"></circle><circle cx="1040" cy="1082" r="0.6" fill="#F4EFE3" opacity="0.05"></circle><circle cx="62" cy="726" r="1.1" fill="#F4EFE3" opacity="0.04"></circle><circle cx="986" cy="305" r="0.5" fill="#F4EFE3" opacity="0.05"></circle><circle cx="935" cy="378" r="0.6" fill="#F4EFE3" opacity="0.06"></circle><circle cx="839" cy="167" r="0.6" fill="#F4EFE3" opacity="0.06"></circle><circle cx="991" cy="180" r="1.0" fill="#F4EFE3" opacity="0.06"></circle><circle cx="52" cy="855" r="0.9" fill="#F4EFE3" opacity="0.03"></circle><circle cx="169" cy="322" r="1.1" fill="#F4EFE3" opacity="0.03"></circle><circle cx="729" cy="1088" r="1.0" fill="#F4EFE3" opacity="0.06"></circle><circle cx="144" cy="1203" r="1.3" fill="#F4EFE3" opacity="0.07"></circle><circle cx="291" cy="741" r="1.2" fill="#F4EFE3" opacity="0.03"></circle><circle cx="165" cy="1128" r="1.0" fill="#F4EFE3" opacity="0.08"></circle><circle cx="527" cy="1177" r="1.1" fill="#F4EFE3" opacity="0.03"></circle><circle cx="298" cy="1173" r="0.5" fill="#F4EFE3" opacity="0.08"></circle><circle cx="806" cy="1178" r="0.6" fill="#F4EFE3" opacity="0.02"></circle><circle cx="1171" cy="673" r="0.7" fill="#F4EFE3" opacity="0.06"></circle><circle cx="179" cy="876" r="1.0" fill="#F4EFE3" opacity="0.06"></circle><circle cx="472" cy="505" r="0.6" fill="#F4EFE3" opacity="0.02"></circle><circle cx="642" cy="413" r="0.8" fill="#F4EFE3" opacity="0.03"></circle><circle cx="957" cy="722" r="0.5" fill="#F4EFE3" opacity="0.05"></circle><circle cx="539" cy="1048" r="0.8" fill="#F4EFE3" opacity="0.04"></circle><circle cx="667" cy="1059" r="0.4" fill="#F4EFE3" opacity="0.08"></circle><circle cx="104" cy="36" r="0.7" fill="#F4EFE3" opacity="0.06"></circle><circle cx="1120" cy="512" r="0.5" fill="#F4EFE3" opacity="0.04"></circle><circle cx="400" cy="668" r="0.5" fill="#F4EFE3" opacity="0.06"></circle><circle cx="1071" cy="320" r="0.9" fill="#F4EFE3" opacity="0.08"></circle><circle cx="278" cy="9" r="1.1" fill="#F4EFE3" opacity="0.05"></circle><circle cx="534" cy="305" r="1.0" fill="#F4EFE3" opacity="0.07"></circle><circle cx="987" cy="443" r="0.6" fill="#F4EFE3" opacity="0.05"></circle><circle cx="1174" cy="704" r="1.0" fill="#F4EFE3" opacity="0.06"></circle><circle cx="1144" cy="1239" r="0.6" fill="#F4EFE3" opacity="0.06"></circle><circle cx="883" cy="591" r="1.1" fill="#F4EFE3" opacity="0.03"></circle><circle cx="591" cy="156" r="0.4" fill="#F4EFE3" opacity="0.06"></circle><circle cx="1220" cy="606" r="1.0" fill="#F4EFE3" opacity="0.05"></circle><circle cx="281" cy="373" r="1.0" fill="#F4EFE3" opacity="0.05"></circle><circle cx="63" cy="614" r="0.9" fill="#F4EFE3" opacity="0.06"></circle><circle cx="150" cy="1126" r="0.9" fill="#F4EFE3" opacity="0.07"></circle><circle cx="927" cy="343" r="0.6" fill="#F4EFE3" opacity="0.04"></circle><circle cx="944" cy="299" r="1.3" fill="#F4EFE3" opacity="0.06"></circle><circle cx="786" cy="492" r="0.9" fill="#F4EFE3" opacity="0.07"></circle><circle cx="609" cy="1080" r="1.4" fill="#F4EFE3" opacity="0.05"></circle><circle cx="1064" cy="211" r="0.5" fill="#F4EFE3" opacity="0.04"></circle><circle cx="1143" cy="95" r="0.7" fill="#F4EFE3" opacity="0.07"></circle><circle cx="237" cy="142" r="0.7" fill="#F4EFE3" opacity="0.04"></circle><circle cx="651" cy="685" r="0.8" fill="#F4EFE3" opacity="0.08"></circle><circle cx="889" cy="1006" r="1.2" fill="#F4EFE3" opacity="0.05"></circle><circle cx="949" cy="967" r="1.3" fill="#F4EFE3" opacity="0.07"></circle><circle cx="909" cy="1231" r="1.0" fill="#F4EFE3" opacity="0.03"></circle><circle cx="314" cy="1210" r="0.6" fill="#F4EFE3" opacity="0.07"></circle><circle cx="423" cy="522" r="0.4" fill="#F4EFE3" opacity="0.05"></circle><circle cx="1055" cy="958" r="0.4" fill="#F4EFE3" opacity="0.06"></circle><circle cx="1010" cy="373" r="0.5" fill="#F4EFE3" opacity="0.03"></circle><circle cx="730" cy="279" r="0.8" fill="#F4EFE3" opacity="0.08"></circle><circle cx="753" cy="659" r="0.7" fill="#F4EFE3" opacity="0.06"></circle><circle cx="965" cy="541" r="1.2" fill="#F4EFE3" opacity="0.02"></circle><circle cx="224" cy="802" r="0.5" fill="#F4EFE3" opacity="0.07"></circle><circle cx="390" cy="1103" r="0.4" fill="#F4EFE3" opacity="0.03"></circle><circle cx="926" cy="540" r="1.0" fill="#F4EFE3" opacity="0.03"></circle><circle cx="780" cy="1136" r="0.5" fill="#F4EFE3" opacity="0.07"></circle><circle cx="1247" cy="931" r="1.2" fill="#F4EFE3" opacity="0.05"></circle><circle cx="1084" cy="867" r="0.7" fill="#F4EFE3" opacity="0.06"></circle><circle cx="625" cy="1017" r="1.0" fill="#F4EFE3" opacity="0.07"></circle><circle cx="57" cy="898" r="0.5" fill="#F4EFE3" opacity="0.02"></circle><circle cx="695" cy="520" r="0.6" fill="#F4EFE3" opacity="0.06"></circle><circle cx="1133" cy="762" r="0.5" fill="#F4EFE3" opacity="0.06"></circle><circle cx="1218" cy="142" r="0.4" fill="#F4EFE3" opacity="0.04"></circle><circle cx="319" cy="58" r="0.8" fill="#F4EFE3" opacity="0.03"></circle><circle cx="147" cy="865" r="0.8" fill="#F4EFE3" opacity="0.06"></circle><circle cx="37" cy="918" r="1.1" fill="#F4EFE3" opacity="0.07"></circle><circle cx="1096" cy="1189" r="0.7" fill="#F4EFE3" opacity="0.08"></circle><circle cx="1254" cy="503" r="1.4" fill="#F4EFE3" opacity="0.05"></circle><circle cx="561" cy="182" r="0.7" fill="#F4EFE3" opacity="0.07"></circle><circle cx="1249" cy="39" r="0.7" fill="#F4EFE3" opacity="0.06"></circle><circle cx="307" cy="615" r="1.2" fill="#F4EFE3" opacity="0.05"></circle><circle cx="1069" cy="252" r="0.9" fill="#F4EFE3" opacity="0.08"></circle><circle cx="295" cy="981" r="1.1" fill="#F4EFE3" opacity="0.06"></circle><circle cx="746" cy="359" r="1.2" fill="#F4EFE3" opacity="0.08"></circle><circle cx="986" cy="901" r="0.5" fill="#F4EFE3" opacity="0.05"></circle><circle cx="598" cy="418" r="1.1" fill="#F4EFE3" opacity="0.04"></circle><circle cx="523" cy="650" r="0.5" fill="#F4EFE3" opacity="0.03"></circle><circle cx="35" cy="803" r="1.3" fill="#F4EFE3" opacity="0.06"></circle><circle cx="1239" cy="941" r="0.9" fill="#F4EFE3" opacity="0.06"></circle><circle cx="888" cy="773" r="1.3" fill="#F4EFE3" opacity="0.08"></circle><circle cx="1148" cy="1043" r="1.3" fill="#F4EFE3" opacity="0.04"></circle><circle cx="1083" cy="631" r="0.7" fill="#F4EFE3" opacity="0.06"></circle><circle cx="43" cy="188" r="1.3" fill="#F4EFE3" opacity="0.05"></circle><circle cx="22" cy="1104" r="1.2" fill="#F4EFE3" opacity="0.03"></circle><circle cx="521" cy="1075" r="0.5" fill="#F4EFE3" opacity="0.04"></circle><circle cx="908" cy="816" r="1.3" fill="#F4EFE3" opacity="0.08"></circle><circle cx="364" cy="603" r="0.6" fill="#F4EFE3" opacity="0.06"></circle><circle cx="556" cy="352" r="0.7" fill="#F4EFE3" opacity="0.02"></circle><circle cx="96" cy="699" r="1.3" fill="#F4EFE3" opacity="0.05"></circle><circle cx="352" cy="133" r="0.5" fill="#F4EFE3" opacity="0.06"></circle><circle cx="1215" cy="450" r="1.3" fill="#F4EFE3" opacity="0.04"></circle><circle cx="939" cy="863" r="1.2" fill="#F4EFE3" opacity="0.04"></circle><circle cx="98" cy="453" r="0.8" fill="#F4EFE3" opacity="0.04"></circle><circle cx="1165" cy="722" r="0.7" fill="#F4EFE3" opacity="0.06"></circle><circle cx="393" cy="349" r="1.2" fill="#F4EFE3" opacity="0.06"></circle><circle cx="948" cy="377" r="0.9" fill="#F4EFE3" opacity="0.04"></circle><circle cx="1159" cy="292" r="1.4" fill="#F4EFE3" opacity="0.03"></circle><circle cx="511" cy="949" r="1.0" fill="#F4EFE3" opacity="0.05"></circle><circle cx="1043" cy="507" r="0.9" fill="#F4EFE3" opacity="0.07"></circle><circle cx="589" cy="444" r="1.3" fill="#F4EFE3" opacity="0.04"></circle><circle cx="1218" cy="559" r="1.1" fill="#F4EFE3" opacity="0.03"></circle><circle cx="242" cy="568" r="1.3" fill="#F4EFE3" opacity="0.05"></circle><circle cx="141" cy="95" r="1.0" fill="#F4EFE3" opacity="0.06"></circle><circle cx="339" cy="874" r="0.9" fill="#F4EFE3" opacity="0.05"></circle><circle cx="484" cy="877" r="1.2" fill="#F4EFE3" opacity="0.05"></circle><circle cx="371" cy="700" r="0.6" fill="#F4EFE3" opacity="0.03"></circle><circle cx="806" cy="941" r="0.7" fill="#F4EFE3" opacity="0.03"></circle><circle cx="1068" cy="909" r="0.7" fill="#F4EFE3" opacity="0.04"></circle><circle cx="621" cy="1017" r="1.3" fill="#F4EFE3" opacity="0.03"></circle><circle cx="976" cy="608" r="0.7" fill="#F4EFE3" opacity="0.04"></circle><circle cx="887" cy="600" r="1.3" fill="#F4EFE3" opacity="0.02"></circle><circle cx="1118" cy="226" r="0.5" fill="#F4EFE3" opacity="0.07"></circle><circle cx="916" cy="179" r="0.9" fill="#F4EFE3" opacity="0.08"></circle><circle cx="1251" cy="1209" r="0.8" fill="#F4EFE3" opacity="0.04"></circle><circle cx="162" cy="908" r="1.4" fill="#F4EFE3" opacity="0.04"></circle><circle cx="1230" cy="432" r="0.4" fill="#F4EFE3" opacity="0.06"></circle><circle cx="448" cy="428" r="0.6" fill="#F4EFE3" opacity="0.04"></circle><circle cx="579" cy="770" r="0.9" fill="#F4EFE3" opacity="0.04"></circle><circle cx="266" cy="94" r="0.7" fill="#F4EFE3" opacity="0.05"></circle><circle cx="1" cy="612" r="0.9" fill="#F4EFE3" opacity="0.05"></circle><circle cx="753" cy="902" r="1.0" fill="#F4EFE3" opacity="0.07"></circle><circle cx="832" cy="779" r="1.0" fill="#F4EFE3" opacity="0.06"></circle>
<rect x="46" y="46" width="1162" height="1162" fill="none" stroke="#B81E24" stroke-width="6" stroke-opacity="0.85"></rect>
<rect x="70" y="70" width="1114" height="1114" fill="none" stroke="#F4EFE3" stroke-width="1.5" stroke-opacity="0.35"></rect>
<text x="627.0" y="225" font-family="Yellowtail, cursive" font-size="74" fill="#E6A532" text-anchor="middle">Live at the Creekside</text>
<text x="627.0" y="330" font-family="Oswald, sans-serif" font-weight="700" font-size="52" letter-spacing="14" fill="#F4EFE3" fill-opacity="0.7" text-anchor="middle">BAR &amp; GRILL</text>
<g opacity="0.92">
<circle cx="627.0" cy="560" r="150" fill="none" stroke="#B81E24" stroke-width="8"></circle>
<path d="M 572.0 490 v150 a40 40 0 1 1 -40 -40 a40 40 0 0 1 40 12 v-92 l120 -30 v118 a40 40 0 1 1 -40 -40 a40 40 0 0 1 40 12 v-118 z" fill="#F4EFE3" fill-opacity="0.9"></path>
</g>
<text x="627.0" y="800" font-family="Oswald, sans-serif" font-weight="700" font-size="92" letter-spacing="2" fill="#F4EFE3" text-anchor="middle">DNZ DUO</text>
<rect x="327.0" y="858" width="600" height="3" fill="#B81E24"></rect>
<text x="627.0" y="970" font-family="Oswald, sans-serif" font-weight="600" font-size="70" letter-spacing="8" fill="#B81E24" text-anchor="middle">SATURDAY · Jun 27</text>
<text x="627.0" y="1052" font-family="Manrope, sans-serif" font-weight="700" font-size="40" letter-spacing="6" fill="#F4EFE3" fill-opacity="0.85" text-anchor="middle">5:00 – 9:00 PM</text>
<text x="627.0" y="1130" font-family="Manrope, sans-serif" font-size="30" letter-spacing="4" fill="#F4EFE3" fill-opacity="0.55" text-anchor="middle">RT 73 · CINNAMINSON, NJ · NO COVER</text>
</svg>