<svg xmlns="http://www.w3.org/2000/svg" viewBox="0 0 1254 1254" role="img" aria-label="All Tuned Up live at the Creekside">
<defs>
<linearGradient id="bg6" x1="0" y1="0" x2="1" y2="1">
<stop offset="0" stop-color="#0C0B0A"></stop><stop offset="0.5" stop-color="#1C1611"></stop><stop offset="1" stop-color="#000"></stop>
</linearGradient>
<radialGradient id="gl6" cx="50%" cy="34%" r="62%">
<stop offset="0" stop-color="#E6A532" stop-opacity="0.40"></stop><stop offset="1" stop-color="#E6A532" stop-opacity="0"></stop>
</radialGradient>
</defs>
<rect width="1254" height="1254" fill="url(#bg6)"></rect>
<rect width="1254" height="1254" fill="url(#gl6)"></rect>
<circle cx="802" cy="31" r="0.7" fill="#F4EFE3" opacity="0.03"></circle><circle cx="924" cy="849" r="1.3" fill="#F4EFE3" opacity="0.03"></circle><circle cx="529" cy="37" r="0.6" fill="#F4EFE3" opacity="0.05"></circle><circle cx="33" cy="249" r="1.0" fill="#F4EFE3" opacity="0.05"></circle><circle cx="276" cy="739" r="1.2" fill="#F4EFE3" opacity="0.02"></circle><circle cx="1010" cy="875" r="0.7" fill="#F4EFE3" opacity="0.03"></circle><circle cx="1200" cy="422" r="0.5" fill="#F4EFE3" opacity="0.03"></circle><circle cx="1063" cy="757" r="1.2" fill="#F4EFE3" opacity="0.06"></circle><circle cx="672" cy="1220" r="0.8" fill="#F4EFE3" opacity="0.05"></circle><circle cx="1040" cy="776" r="1.3" fill="#F4EFE3" opacity="0.05"></circle><circle cx="884" cy="57" r="0.6" fill="#F4EFE3" opacity="0.04"></circle><circle cx="100" cy="292" r="0.5" fill="#F4EFE3" opacity="0.04"></circle><circle cx="797" cy="457" r="0.8" fill="#F4EFE3" opacity="0.03"></circle><circle cx="335" cy="1175" r="1.0" fill="#F4EFE3" opacity="0.06"></circle><circle cx="215" cy="914" r="0.6" fill="#F4EFE3" opacity="0.04"></circle><circle cx="1241" cy="803" r="1.0" fill="#F4EFE3" opacity="0.06"></circle><circle cx="1057" cy="973" r="0.6" fill="#F4EFE3" opacity="0.02"></circle><circle cx="396" cy="336" r="0.6" fill="#F4EFE3" opacity="0.08"></circle><circle cx="1099" cy="395" r="1.1" fill="#F4EFE3" opacity="0.04"></circle><circle cx="1147" cy="575" r="0.7" fill="#F4EFE3" opacity="0.03"></circle><circle cx="704" cy="329" r="1.0" fill="#F4EFE3" opacity="0.07"></circle><circle cx="501" cy="275" r="1.4" fill="#F4EFE3" opacity="0.05"></circle><circle cx="114" cy="59" r="0.5" fill="#F4EFE3" opacity="0.06"></circle><circle cx="993" cy="529" r="0.5" fill="#F4EFE3" opacity="0.04"></circle><circle cx="1249" cy="664" r="1.4" fill="#F4EFE3" opacity="0.07"></circle><circle cx="14" cy="904" r="1.1" fill="#F4EFE3" opacity="0.05"></circle><circle cx="335" cy="804" r="0.5" fill="#F4EFE3" opacity="0.05"></circle><circle cx="569" cy="1196" r="1.3" fill="#F4EFE3" opacity="0.04"></circle><circle cx="628" cy="224" r="1.3" fill="#F4EFE3" opacity="0.07"></circle><circle cx="374" cy="801" r="1.0" fill="#F4EFE3" opacity="0.03"></circle><circle cx="956" cy="676" r="1.2" fill="#F4EFE3" opacity="0.05"></circle><circle cx="1" cy="406" r="0.4" fill="#F4EFE3" opacity="0.08"></circle><circle cx="1102" cy="1043" r="0.7" fill="#F4EFE3" opacity="0.02"></circle><circle cx="1101" cy="1187" r="0.5" fill="#F4EFE3" opacity="0.05"></circle><circle cx="87" cy="954" r="1.2" fill="#F4EFE3" opacity="0.03"></circle><circle cx="596" cy="689" r="0.7" fill="#F4EFE3" opacity="0.07"></circle><circle cx="531" cy="266" r="0.9" fill="#F4EFE3" opacity="0.06"></circle><circle cx="252" cy="391" r="1.4" fill="#F4EFE3" opacity="0.06"></circle><circle cx="549" cy="649" r="0.5" fill="#F4EFE3" opacity="0.03"></circle><circle cx="424" cy="738" r="0.6" fill="#F4EFE3" opacity="0.03"></circle><circle cx="89" cy="791" r="0.6" fill="#F4EFE3" opacity="0.07"></circle><circle cx="1078" cy="89" r="0.6" fill="#F4EFE3" opacity="0.06"></circle><circle cx="269" cy="166" r="1.3" fill="#F4EFE3" opacity="0.05"></circle><circle cx="593" cy="984" r="1.2" fill="#F4EFE3" opacity="0.03"></circle><circle cx="122" cy="541" r="0.8" fill="#F4EFE3" opacity="0.05"></circle><circle cx="914" cy="844" r="1.4" fill="#F4EFE3" opacity="0.03"></circle><circle cx="505" cy="425" r="1.3" fill="#F4EFE3" opacity="0.03"></circle><circle cx="239" cy="563" r="0.8" fill="#F4EFE3" opacity="0.04"></circle><circle cx="313" cy="1158" r="0.8" fill="#F4EFE3" opacity="0.07"></circle><circle cx="690" cy="63" r="1.4" fill="#F4EFE3" opacity="0.07"></circle><circle cx="1215" cy="1162" r="1.2" fill="#F4EFE3" opacity="0.03"></circle><circle cx="609" cy="268" r="0.8" fill="#F4EFE3" opacity="0.02"></circle><circle cx="475" cy="1236" r="0.7" fill="#F4EFE3" opacity="0.07"></circle><circle cx="571" cy="530" r="1.4" fill="#F4EFE3" opacity="0.08"></circle><circle cx="697" cy="901" r="0.6" fill="#F4EFE3" opacity="0.04"></circle><circle cx="1215" cy="726" r="0.9" fill="#F4EFE3" opacity="0.06"></circle><circle cx="72" cy="733" r="0.9" fill="#F4EFE3" opacity="0.07"></circle><circle cx="197" cy="1205" r="0.5" fill="#F4EFE3" opacity="0.03"></circle><circle cx="746" cy="847" r="0.6" fill="#F4EFE3" opacity="0.03"></circle><circle cx="1116" cy="309" r="1.0" fill="#F4EFE3" opacity="0.06"></circle><circle cx="526" cy="732" r="0.9" fill="#F4EFE3" opacity="0.08"></circle><circle cx="256" cy="898" r="0.6" fill="#F4EFE3" opacity="0.04"></circle><circle cx="842" cy="376" r="0.7" fill="#F4EFE3" opacity="0.07"></circle><circle cx="91" cy="575" r="1.4" fill="#F4EFE3" opacity="0.08"></circle><circle cx="92" cy="267" r="0.7" fill="#F4EFE3" opacity="0.08"></circle><circle cx="1105" cy="1103" r="0.8" fill="#F4EFE3" opacity="0.03"></circle><circle cx="1046" cy="882" r="1.0" fill="#F4EFE3" opacity="0.08"></circle><circle cx="820" cy="10" r="1.2" fill="#F4EFE3" opacity="0.04"></circle><circle cx="832" cy="1177" r="0.5" fill="#F4EFE3" opacity="0.03"></circle><circle cx="134" cy="694" r="0.7" fill="#F4EFE3" opacity="0.06"></circle><circle cx="900" cy="255" r="1.0" fill="#F4EFE3" opacity="0.04"></circle><circle cx="613" cy="1135" r="1.2" fill="#F4EFE3" opacity="0.03"></circle><circle cx="531" cy="347" r="0.4" fill="#F4EFE3" opacity="0.07"></circle><circle cx="799" cy="328" r="1.1" fill="#F4EFE3" opacity="0.05"></circle><circle cx="536" cy="12" r="0.5" fill="#F4EFE3" opacity="0.07"></circle><circle cx="1134" cy="684" r="1.2" fill="#F4EFE3" opacity="0.05"></circle><circle cx="186" cy="160" r="0.7" fill="#F4EFE3" opacity="0.07"></circle><circle cx="998" cy="1079" r="1.3" fill="#F4EFE3" opacity="0.03"></circle><circle cx="313" cy="129" r="1.2" fill="#F4EFE3" opacity="0.07"></circle><circle cx="510" cy="778" r="0.6" fill="#F4EFE3" opacity="0.08"></circle><circle cx="1084" cy="1224" r="1.2" fill="#F4EFE3" opacity="0.07"></circle><circle cx="31" cy="924" r="0.7" fill="#F4EFE3" opacity="0.08"></circle><circle cx="1006" cy="1084" r="1.2" fill="#F4EFE3" opacity="0.04"></circle><circle cx="987" cy="136" r="1.3" fill="#F4EFE3" opacity="0.07"></circle><circle cx="279" cy="1024" r="0.9" fill="#F4EFE3" opacity="0.04"></circle><circle cx="997" cy="285" r="0.4" fill="#F4EFE3" opacity="0.03"></circle><circle cx="412" cy="1084" r="1.4" fill="#F4EFE3" opacity="0.04"></circle><circle cx="804" cy="501" r="1.4" fill="#F4EFE3" opacity="0.05"></circle><circle cx="1178" cy="145" r="1.4" fill="#F4EFE3" opacity="0.03"></circle><circle cx="1207" cy="333" r="0.5" fill="#F4EFE3" opacity="0.05"></circle><circle cx="914" cy="393" r="1.0" fill="#F4EFE3" opacity="0.05"></circle><circle cx="483" cy="723" r="0.7" fill="#F4EFE3" opacity="0.06"></circle><circle cx="2" cy="1161" r="0.9" fill="#F4EFE3" opacity="0.06"></circle><circle cx="930" cy="841" r="0.8" fill="#F4EFE3" opacity="0.02"></circle><circle cx="833" cy="414" r="0.7" fill="#F4EFE3" opacity="0.07"></circle><circle cx="903" cy="377" r="0.7" fill="#F4EFE3" opacity="0.04"></circle><circle cx="505" cy="371" r="0.5" fill="#F4EFE3" opacity="0.05"></circle><circle cx="1179" cy="849" r="1.3" fill="#F4EFE3" opacity="0.06"></circle><circle cx="377" cy="687" r="0.4" fill="#F4EFE3" opacity="0.04"></circle><circle cx="539" cy="727" r="1.1" fill="#F4EFE3" opacity="0.05"></circle><circle cx="554" cy="268" r="0.9" fill="#F4EFE3" opacity="0.07"></circle><circle cx="998" cy="213" r="0.5" fill="#F4EFE3" opacity="0.05"></circle><circle cx="794" cy="420" r="1.2" fill="#F4EFE3" opacity="0.07"></circle><circle cx="844" cy="282" r="0.6" fill="#F4EFE3" opacity="0.02"></circle><circle cx="307" cy="596" r="1.2" fill="#F4EFE3" opacity="0.02"></circle><circle cx="520" cy="790" r="0.6" fill="#F4EFE3" opacity="0.06"></circle><circle cx="620" cy="306" r="1.1" fill="#F4EFE3" opacity="0.02"></circle><circle cx="942" cy="966" r="0.5" fill="#F4EFE3" opacity="0.05"></circle><circle cx="221" cy="1201" r="0.9" fill="#F4EFE3" opacity="0.02"></circle><circle cx="312" cy="1064" r="0.9" fill="#F4EFE3" opacity="0.07"></circle><circle cx="837" cy="1239" r="1.0" fill="#F4EFE3" opacity="0.08"></circle><circle cx="1118" cy="768" r="1.1" fill="#F4EFE3" opacity="0.05"></circle><circle cx="1042" cy="687" r="1.3" fill="#F4EFE3" opacity="0.06"></circle><circle cx="595" cy="325" r="0.6" fill="#F4EFE3" opacity="0.06"></circle><circle cx="960" cy="654" r="1.0" fill="#F4EFE3" opacity="0.04"></circle><circle cx="97" cy="358" r="0.7" fill="#F4EFE3" opacity="0.04"></circle><circle cx="677" cy="174" r="0.6" fill="#F4EFE3" opacity="0.06"></circle><circle cx="886" cy="81" r="0.8" fill="#F4EFE3" opacity="0.05"></circle><circle cx="521" cy="259" r="0.8" fill="#F4EFE3" opacity="0.07"></circle><circle cx="732" cy="872" r="1.3" fill="#F4EFE3" opacity="0.07"></circle><circle cx="477" cy="7" r="0.8" fill="#F4EFE3" opacity="0.07"></circle><circle cx="1070" cy="1196" r="0.8" fill="#F4EFE3" opacity="0.06"></circle><circle cx="685" cy="756" r="0.6" fill="#F4EFE3" opacity="0.03"></circle><circle cx="547" cy="36" r="0.7" fill="#F4EFE3" opacity="0.06"></circle><circle cx="507" cy="207" r="0.9" fill="#F4EFE3" opacity="0.03"></circle><circle cx="780" cy="34" r="0.8" fill="#F4EFE3" opacity="0.05"></circle><circle cx="34" cy="806" r="0.5" fill="#F4EFE3" opacity="0.05"></circle><circle cx="63" cy="475" r="0.6" fill="#F4EFE3" opacity="0.04"></circle><circle cx="955" cy="475" r="1.2" fill="#F4EFE3" opacity="0.07"></circle><circle cx="316" cy="103" r="0.4" fill="#F4EFE3" opacity="0.05"></circle><circle cx="1254" cy="439" r="1.1" fill="#F4EFE3" opacity="0.07"></circle><circle cx="817" cy="946" r="1.3" fill="#F4EFE3" opacity="0.03"></circle><circle cx="26" cy="191" r="0.5" fill="#F4EFE3" opacity="0.06"></circle><circle cx="707" cy="273" r="1.1" fill="#F4EFE3" opacity="0.07"></circle><circle cx="210" cy="761" r="1.1" fill="#F4EFE3" opacity="0.03"></circle><circle cx="1027" cy="1210" r="0.5" fill="#F4EFE3" opacity="0.02"></circle><circle cx="391" cy="849" r="1.4" fill="#F4EFE3" opacity="0.04"></circle><circle cx="897" cy="95" r="1.1" fill="#F4EFE3" opacity="0.06"></circle><circle cx="128" cy="969" r="1.3" fill="#F4EFE3" opacity="0.06"></circle><circle cx="152" cy="1234" r="1.2" fill="#F4EFE3" opacity="0.04"></circle>
<rect x="46" y="46" width="1162" height="1162" fill="none" stroke="#E6A532" stroke-width="6" stroke-opacity="0.85"></rect>
<rect x="70" y="70" width="1114" height="1114" fill="none" stroke="#F4EFE3" stroke-width="1.5" stroke-opacity="0.35"></rect>
<text x="627.0" y="225" font-family="Yellowtail, cursive" font-size="74" fill="#D32027" text-anchor="middle">Live at the Creekside</text>
<text x="627.0" y="330" font-family="Oswald, sans-serif" font-weight="700" font-size="52" letter-spacing="14" fill="#F4EFE3" fill-opacity="0.7" text-anchor="middle">BAR &amp; GRILL</text>
<g opacity="0.92">
<circle cx="627.0" cy="560" r="150" fill="none" stroke="#E6A532" stroke-width="8"></circle>
<path d="M 572.0 490 v150 a40 40 0 1 1 -40 -40 a40 40 0 0 1 40 12 v-92 l120 -30 v118 a40 40 0 1 1 -40 -40 a40 40 0 0 1 40 12 v-118 z" fill="#F4EFE3" fill-opacity="0.9"></path>
</g>
<text x="627.0" y="800" font-family="Oswald, sans-serif" font-weight="700" font-size="92" letter-spacing="2" fill="#F4EFE3" text-anchor="middle">ALL TUNED UP</text>
<rect x="327.0" y="858" width="600" height="3" fill="#E6A532"></rect>
<text x="627.0" y="970" font-family="Oswald, sans-serif" font-weight="600" font-size="70" letter-spacing="8" fill="#E6A532" text-anchor="middle">SATURDAY · Jun 20</text>
<text x="627.0" y="1052" font-family="Manrope, sans-serif" font-weight="700" font-size="40" letter-spacing="6" fill="#F4EFE3" fill-opacity="0.85" text-anchor="middle">5:00 – 9:00 PM</text>
<text x="627.0" y="1130" font-family="Manrope, sans-serif" font-size="30" letter-spacing="4" fill="#F4EFE3" fill-opacity="0.55" text-anchor="middle">RT 73 · CINNAMINSON, NJ · NO COVER</text>
</svg>