<svg xmlns="http://www.w3.org/2000/svg" viewBox="0 0 1254 1254" role="img" aria-label="Jeff Twerdzik live at the Creekside">
<defs>
<linearGradient id="bg2" x1="0" y1="0" x2="1" y2="1">
<stop offset="0" stop-color="#0C0B0A"></stop><stop offset="0.5" stop-color="#1C1611"></stop><stop offset="1" stop-color="#000"></stop>
</linearGradient>
<radialGradient id="gl2" cx="50%" cy="34%" r="62%">
<stop offset="0" stop-color="#C8841A" stop-opacity="0.40"></stop><stop offset="1" stop-color="#C8841A" stop-opacity="0"></stop>
</radialGradient>
</defs>
<rect width="1254" height="1254" fill="url(#bg2)"></rect>
<rect width="1254" height="1254" fill="url(#gl2)"></rect>
<circle cx="134" cy="881" r="1.1" fill="#F4EFE3" opacity="0.08"></circle><circle cx="340" cy="321" r="1.1" fill="#F4EFE3" opacity="0.06"></circle><circle cx="380" cy="858" r="0.8" fill="#F4EFE3" opacity="0.07"></circle><circle cx="148" cy="280" r="1.3" fill="#F4EFE3" opacity="0.04"></circle><circle cx="327" cy="1009" r="1.0" fill="#F4EFE3" opacity="0.03"></circle><circle cx="691" cy="833" r="0.6" fill="#F4EFE3" opacity="0.06"></circle><circle cx="154" cy="423" r="0.5" fill="#F4EFE3" opacity="0.03"></circle><circle cx="1226" cy="506" r="1.4" fill="#F4EFE3" opacity="0.05"></circle><circle cx="762" cy="1094" r="1.1" fill="#F4EFE3" opacity="0.03"></circle><circle cx="739" cy="795" r="0.6" fill="#F4EFE3" opacity="0.03"></circle><circle cx="1097" cy="644" r="0.6" fill="#F4EFE3" opacity="0.05"></circle><circle cx="274" cy="1001" r="0.9" fill="#F4EFE3" opacity="0.03"></circle><circle cx="1026" cy="112" r="0.7" fill="#F4EFE3" opacity="0.02"></circle><circle cx="928" cy="143" r="0.9" fill="#F4EFE3" opacity="0.03"></circle><circle cx="602" cy="859" r="0.9" fill="#F4EFE3" opacity="0.05"></circle><circle cx="608" cy="548" r="1.0" fill="#F4EFE3" opacity="0.03"></circle><circle cx="595" cy="296" r="1.3" fill="#F4EFE3" opacity="0.08"></circle><circle cx="83" cy="180" r="1.1" fill="#F4EFE3" opacity="0.05"></circle><circle cx="24" cy="884" r="1.3" fill="#F4EFE3" opacity="0.05"></circle><circle cx="436" cy="714" r="1.3" fill="#F4EFE3" opacity="0.04"></circle><circle cx="379" cy="237" r="1.0" fill="#F4EFE3" opacity="0.05"></circle><circle cx="321" cy="486" r="0.4" fill="#F4EFE3" opacity="0.04"></circle><circle cx="1233" cy="735" r="0.7" fill="#F4EFE3" opacity="0.08"></circle><circle cx="449" cy="315" r="0.4" fill="#F4EFE3" opacity="0.03"></circle><circle cx="250" cy="288" r="1.3" fill="#F4EFE3" opacity="0.04"></circle><circle cx="312" cy="757" r="1.3" fill="#F4EFE3" opacity="0.04"></circle><circle cx="955" cy="462" r="1.0" fill="#F4EFE3" opacity="0.06"></circle><circle cx="1182" cy="950" r="0.9" fill="#F4EFE3" opacity="0.07"></circle><circle cx="460" cy="482" r="1.4" fill="#F4EFE3" opacity="0.05"></circle><circle cx="970" cy="394" r="1.3" fill="#F4EFE3" opacity="0.06"></circle><circle cx="310" cy="1171" r="0.9" fill="#F4EFE3" opacity="0.04"></circle><circle cx="329" cy="129" r="0.6" fill="#F4EFE3" opacity="0.06"></circle><circle cx="176" cy="324" r="0.8" fill="#F4EFE3" opacity="0.05"></circle><circle cx="477" cy="985" r="0.7" fill="#F4EFE3" opacity="0.04"></circle><circle cx="533" cy="162" r="0.6" fill="#F4EFE3" opacity="0.03"></circle><circle cx="910" cy="184" r="1.1" fill="#F4EFE3" opacity="0.03"></circle><circle cx="811" cy="823" r="0.8" fill="#F4EFE3" opacity="0.08"></circle><circle cx="824" cy="699" r="0.4" fill="#F4EFE3" opacity="0.04"></circle><circle cx="334" cy="589" r="1.3" fill="#F4EFE3" opacity="0.07"></circle><circle cx="78" cy="853" r="1.3" fill="#F4EFE3" opacity="0.05"></circle><circle cx="121" cy="1087" r="0.8" fill="#F4EFE3" opacity="0.08"></circle><circle cx="1097" cy="1039" r="1.3" fill="#F4EFE3" opacity="0.02"></circle><circle cx="995" cy="383" r="0.5" fill="#F4EFE3" opacity="0.04"></circle><circle cx="738" cy="6" r="0.8" fill="#F4EFE3" opacity="0.07"></circle><circle cx="621" cy="662" r="0.7" fill="#F4EFE3" opacity="0.08"></circle><circle cx="311" cy="854" r="1.0" fill="#F4EFE3" opacity="0.02"></circle><circle cx="1250" cy="295" r="1.4" fill="#F4EFE3" opacity="0.08"></circle><circle cx="1130" cy="1072" r="0.8" fill="#F4EFE3" opacity="0.05"></circle><circle cx="434" cy="1174" r="0.4" fill="#F4EFE3" opacity="0.03"></circle><circle cx="1199" cy="1011" r="1.1" fill="#F4EFE3" opacity="0.08"></circle><circle cx="657" cy="1047" r="0.8" fill="#F4EFE3" opacity="0.07"></circle><circle cx="87" cy="550" r="1.0" fill="#F4EFE3" opacity="0.07"></circle><circle cx="530" cy="853" r="1.4" fill="#F4EFE3" opacity="0.05"></circle><circle cx="250" cy="38" r="1.3" fill="#F4EFE3" opacity="0.05"></circle><circle cx="487" cy="652" r="0.5" fill="#F4EFE3" opacity="0.03"></circle><circle cx="296" cy="320" r="1.3" fill="#F4EFE3" opacity="0.03"></circle><circle cx="113" cy="1087" r="1.0" fill="#F4EFE3" opacity="0.02"></circle><circle cx="847" cy="861" r="1.0" fill="#F4EFE3" opacity="0.07"></circle><circle cx="532" cy="282" r="1.1" fill="#F4EFE3" opacity="0.06"></circle><circle cx="883" cy="230" r="0.8" fill="#F4EFE3" opacity="0.06"></circle><circle cx="482" cy="755" r="0.9" fill="#F4EFE3" opacity="0.07"></circle><circle cx="437" cy="624" r="1.2" fill="#F4EFE3" opacity="0.04"></circle><circle cx="220" cy="798" r="0.5" fill="#F4EFE3" opacity="0.07"></circle><circle cx="345" cy="1134" r="0.9" fill="#F4EFE3" opacity="0.03"></circle><circle cx="653" cy="856" r="0.9" fill="#F4EFE3" opacity="0.06"></circle><circle cx="463" cy="1203" r="0.6" fill="#F4EFE3" opacity="0.07"></circle><circle cx="30" cy="636" r="0.5" fill="#F4EFE3" opacity="0.03"></circle><circle cx="738" cy="1134" r="0.7" fill="#F4EFE3" opacity="0.04"></circle><circle cx="597" cy="759" r="0.8" fill="#F4EFE3" opacity="0.04"></circle><circle cx="1070" cy="697" r="0.8" fill="#F4EFE3" opacity="0.07"></circle><circle cx="1253" cy="542" r="0.4" fill="#F4EFE3" opacity="0.04"></circle><circle cx="1126" cy="215" r="0.6" fill="#F4EFE3" opacity="0.07"></circle><circle cx="143" cy="1065" r="0.6" fill="#F4EFE3" opacity="0.04"></circle><circle cx="745" cy="141" r="1.2" fill="#F4EFE3" opacity="0.05"></circle><circle cx="966" cy="958" r="0.5" fill="#F4EFE3" opacity="0.07"></circle><circle cx="1029" cy="303" r="1.0" fill="#F4EFE3" opacity="0.03"></circle><circle cx="675" cy="943" r="0.8" fill="#F4EFE3" opacity="0.05"></circle><circle cx="165" cy="1082" r="1.0" fill="#F4EFE3" opacity="0.07"></circle><circle cx="101" cy="935" r="0.5" fill="#F4EFE3" opacity="0.05"></circle><circle cx="289" cy="1131" r="0.5" fill="#F4EFE3" opacity="0.05"></circle><circle cx="590" cy="484" r="0.5" fill="#F4EFE3" opacity="0.06"></circle><circle cx="1219" cy="453" r="1.3" fill="#F4EFE3" opacity="0.04"></circle><circle cx="343" cy="570" r="1.4" fill="#F4EFE3" opacity="0.07"></circle><circle cx="793" cy="50" r="0.9" fill="#F4EFE3" opacity="0.02"></circle><circle cx="78" cy="472" r="0.6" fill="#F4EFE3" opacity="0.03"></circle><circle cx="642" cy="981" r="1.3" fill="#F4EFE3" opacity="0.07"></circle><circle cx="534" cy="224" r="1.4" fill="#F4EFE3" opacity="0.05"></circle><circle cx="430" cy="1033" r="1.0" fill="#F4EFE3" opacity="0.08"></circle><circle cx="879" cy="1186" r="0.6" fill="#F4EFE3" opacity="0.08"></circle><circle cx="679" cy="874" r="0.7" fill="#F4EFE3" opacity="0.03"></circle><circle cx="372" cy="213" r="1.4" fill="#F4EFE3" opacity="0.03"></circle><circle cx="304" cy="794" r="0.6" fill="#F4EFE3" opacity="0.03"></circle><circle cx="317" cy="294" r="0.4" fill="#F4EFE3" opacity="0.06"></circle><circle cx="827" cy="389" r="1.3" fill="#F4EFE3" opacity="0.05"></circle><circle cx="276" cy="1210" r="0.6" fill="#F4EFE3" opacity="0.07"></circle><circle cx="1024" cy="4" r="1.2" fill="#F4EFE3" opacity="0.05"></circle><circle cx="630" cy="1186" r="0.9" fill="#F4EFE3" opacity="0.03"></circle><circle cx="62" cy="1110" r="0.9" fill="#F4EFE3" opacity="0.06"></circle><circle cx="804" cy="1229" r="1.3" fill="#F4EFE3" opacity="0.08"></circle><circle cx="633" cy="1142" r="0.7" fill="#F4EFE3" opacity="0.03"></circle><circle cx="802" cy="36" r="1.4" fill="#F4EFE3" opacity="0.04"></circle><circle cx="532" cy="365" r="0.7" fill="#F4EFE3" opacity="0.05"></circle><circle cx="1005" cy="18" r="0.7" fill="#F4EFE3" opacity="0.03"></circle><circle cx="1202" cy="550" r="0.8" fill="#F4EFE3" opacity="0.08"></circle><circle cx="485" cy="482" r="0.8" fill="#F4EFE3" opacity="0.03"></circle><circle cx="883" cy="360" r="0.9" fill="#F4EFE3" opacity="0.05"></circle><circle cx="961" cy="928" r="0.9" fill="#F4EFE3" opacity="0.08"></circle><circle cx="1186" cy="1176" r="1.1" fill="#F4EFE3" opacity="0.05"></circle><circle cx="451" cy="1079" r="0.9" fill="#F4EFE3" opacity="0.06"></circle><circle cx="486" cy="458" r="0.4" fill="#F4EFE3" opacity="0.06"></circle><circle cx="363" cy="620" r="1.1" fill="#F4EFE3" opacity="0.07"></circle><circle cx="1185" cy="832" r="0.6" fill="#F4EFE3" opacity="0.08"></circle><circle cx="68" cy="517" r="1.3" fill="#F4EFE3" opacity="0.07"></circle><circle cx="746" cy="1089" r="0.6" fill="#F4EFE3" opacity="0.02"></circle><circle cx="372" cy="1167" r="0.4" fill="#F4EFE3" opacity="0.04"></circle><circle cx="637" cy="258" r="1.3" fill="#F4EFE3" opacity="0.03"></circle><circle cx="107" cy="1251" r="0.4" fill="#F4EFE3" opacity="0.03"></circle><circle cx="512" cy="1104" r="0.7" fill="#F4EFE3" opacity="0.05"></circle><circle cx="1009" cy="775" r="1.2" fill="#F4EFE3" opacity="0.02"></circle><circle cx="679" cy="26" r="1.3" fill="#F4EFE3" opacity="0.02"></circle><circle cx="119" cy="538" r="1.0" fill="#F4EFE3" opacity="0.02"></circle><circle cx="802" cy="129" r="0.7" fill="#F4EFE3" opacity="0.02"></circle><circle cx="912" cy="1042" r="1.2" fill="#F4EFE3" opacity="0.04"></circle><circle cx="313" cy="1207" r="1.2" fill="#F4EFE3" opacity="0.08"></circle><circle cx="520" cy="1103" r="1.1" fill="#F4EFE3" opacity="0.07"></circle><circle cx="642" cy="983" r="0.9" fill="#F4EFE3" opacity="0.04"></circle><circle cx="599" cy="51" r="1.1" fill="#F4EFE3" opacity="0.04"></circle><circle cx="226" cy="994" r="0.9" fill="#F4EFE3" opacity="0.04"></circle><circle cx="1157" cy="1176" r="0.8" fill="#F4EFE3" opacity="0.05"></circle><circle cx="0" cy="447" r="1.4" fill="#F4EFE3" opacity="0.05"></circle><circle cx="1246" cy="36" r="0.4" fill="#F4EFE3" opacity="0.02"></circle><circle cx="94" cy="947" r="1.4" fill="#F4EFE3" opacity="0.07"></circle><circle cx="759" cy="478" r="0.8" fill="#F4EFE3" opacity="0.03"></circle><circle cx="498" cy="153" r="1.2" fill="#F4EFE3" opacity="0.05"></circle><circle cx="473" cy="1068" r="0.7" fill="#F4EFE3" opacity="0.07"></circle><circle cx="900" cy="787" r="1.0" fill="#F4EFE3" opacity="0.06"></circle><circle cx="1132" cy="1248" r="1.0" fill="#F4EFE3" opacity="0.08"></circle><circle cx="307" cy="1162" r="1.3" fill="#F4EFE3" opacity="0.06"></circle><circle cx="138" cy="1113" r="0.8" fill="#F4EFE3" opacity="0.04"></circle><circle cx="1193" cy="110" r="1.0" fill="#F4EFE3" opacity="0.03"></circle>
<rect x="46" y="46" width="1162" height="1162" fill="none" stroke="#C8841A" stroke-width="6" stroke-opacity="0.85"></rect>
<rect x="70" y="70" width="1114" height="1114" fill="none" stroke="#F4EFE3" stroke-width="1.5" stroke-opacity="0.35"></rect>
<text x="627.0" y="225" font-family="Yellowtail, cursive" font-size="74" fill="#E6A532" text-anchor="middle">Live at the Creekside</text>
<text x="627.0" y="330" font-family="Oswald, sans-serif" font-weight="700" font-size="52" letter-spacing="14" fill="#F4EFE3" fill-opacity="0.7" text-anchor="middle">BAR &amp; GRILL</text>
<g opacity="0.92">
<circle cx="627.0" cy="560" r="150" fill="none" stroke="#C8841A" stroke-width="8"></circle>
<path d="M 572.0 490 v150 a40 40 0 1 1 -40 -40 a40 40 0 0 1 40 12 v-92 l120 -30 v118 a40 40 0 1 1 -40 -40 a40 40 0 0 1 40 12 v-118 z" fill="#F4EFE3" fill-opacity="0.9"></path>
</g>
<text x="627.0" y="800" font-family="Oswald, sans-serif" font-weight="700" font-size="92" letter-spacing="2" fill="#F4EFE3" text-anchor="middle">JEFF TWERDZIK</text>
<rect x="327.0" y="858" width="600" height="3" fill="#C8841A"></rect>
<text x="627.0" y="970" font-family="Oswald, sans-serif" font-weight="600" font-size="70" letter-spacing="8" fill="#C8841A" text-anchor="middle">SATURDAY · Jun 6</text>
<text x="627.0" y="1052" font-family="Manrope, sans-serif" font-weight="700" font-size="40" letter-spacing="6" fill="#F4EFE3" fill-opacity="0.85" text-anchor="middle">5:00 – 9:00 PM</text>
<text x="627.0" y="1130" font-family="Manrope, sans-serif" font-size="30" letter-spacing="4" fill="#F4EFE3" fill-opacity="0.55" text-anchor="middle">RT 73 · CINNAMINSON, NJ · NO COVER</text>
</svg>